G04 ================== begin FILE IDENTIFICATION RECORD ==================*
G04 Layout Name:  NixieTubeBoard_v1_1.brd*
G04 Film Name:    ETCH_TOP*
G04 File Format:  Gerber RS274X*
G04 File Origin:  Cadence Allegro 17.2-S058*
G04 Origin Date:  Wed Feb 19 18:26:59 2020*
G04 *
G04 Layer:  VIA CLASS/TOP*
G04 Layer:  PIN/TOP*
G04 Layer:  ETCH/TOP*
G04 *
G04 Offset:    (0.0000 0.0000)*
G04 Mirror:    No*
G04 Mode:      Positive*
G04 Rotation:  0*
G04 FullContactRelief:  No*
G04 UndefLineWidth:     0.0000*
G04 ================== end FILE IDENTIFICATION RECORD ====================*
%FSLAX35Y35*MOMM*%
%IR0*IPPOS*OFA0.00000B0.00000*MIA0B0*SFA1.00000B1.00000*%
%ADD32R,1.X.8*%
%ADD14C,.5*%
%ADD13C,.6*%
%ADD18C,.7*%
%ADD12C,.9*%
%ADD11C,.75*%
%ADD31R,2.X1.5*%
%ADD22C,1.1*%
%ADD17C,1.2*%
%ADD19C,1.3*%
%ADD20C,2.3*%
%ADD15C,1.4*%
%ADD28C,1.5*%
%ADD24C,1.6*%
%ADD21C,1.7*%
%ADD29C,1.8*%
%ADD26C,1.35*%
%ADD10C,4.5*%
%ADD16R,1.4X1.4*%
%ADD27R,1.5X1.5*%
%ADD23R,1.6X1.6*%
%ADD30R,1.8X1.8*%
%ADD25R,1.35X1.35*%
%ADD33C,.2032*%
%ADD34C,.254*%
%ADD35C,.508*%
%ADD36C,.3048*%
%ADD37C,.4572*%
%ADD50C,2.0544*%
%ADD48C,5.0084*%
%ADD45C,1.4544*%
%ADD49C,1.5068*%
%ADD43C,1.7084*%
%ADD41C,1.6544*%
%ADD40C,1.8084*%
%ADD38C,1.7544*%
%ADD47C,2.8084*%
%ADD42C,1.9084*%
%ADD39C,1.8544*%
%ADD44C,1.9544*%
%ADD46C,1.8584*%
G75*
%LPD*%
G75*
G36*
G01X21235040Y600000D02*
G02X20675040Y40000I-560000J0D01*
G01X600000D01*
G02X40000Y600000I0J560000D01*
G01Y5000000D01*
G02X600000Y5560000I560000J0D01*
G01X20675040D01*
G02X21235040Y5000000I0J-560000D01*
G01Y600000D01*
G37*
%LPC*%
G75*
G36*
G01X19310260Y801300D02*
Y951300D01*
G02X19335680Y976720I25420J0D01*
G01X19485680D01*
G02X19511100Y951300I0J-25420D01*
G01Y801300D01*
G02X19485680Y775880I-25420J0D01*
G01X19335680D01*
G02X19310260Y801300I0J25420D01*
G37*
G36*
G01X16831840Y280680D02*
Y440680D01*
G02X16857260Y466100I25420J0D01*
G01X17017260D01*
G02X17042680Y440680I0J-25420D01*
G01Y280680D01*
G02X17017260Y255260I-25420J0D01*
G01X16857260D01*
G02X16831840Y280680I0J25420D01*
G37*
G36*
G01X20607750Y2806000D02*
Y2886000D01*
G02X20633170Y2911420I25420J0D01*
G01X20733170D01*
G02X20758590Y2886000I0J-25420D01*
G01Y2806000D01*
G02X20733170Y2780580I-25420J0D01*
G01X20633170D01*
G02X20607750Y2806000I0J25420D01*
G37*
G36*
G01Y2321000D02*
Y2401000D01*
G02X20633170Y2426420I25420J0D01*
G01X20733170D01*
G02X20758590Y2401000I0J-25420D01*
G01Y2321000D01*
G02X20733170Y2295580I-25420J0D01*
G01X20633170D01*
G02X20607750Y2321000I0J25420D01*
G37*
G36*
G01X20828750Y2891000D02*
Y3041000D01*
G02X20854170Y3066420I25420J0D01*
G01X21054170D01*
G02X21079590Y3041000I0J-25420D01*
G01Y2891000D01*
G02X21054170Y2865580I-25420J0D01*
G01X20854170D01*
G02X20828750Y2891000I0J25420D01*
G37*
G36*
G01Y2166000D02*
Y2316000D01*
G02X20854170Y2341420I25420J0D01*
G01X21054170D01*
G02X21079590Y2316000I0J-25420D01*
G01Y2166000D01*
G02X21054170Y2140580I-25420J0D01*
G01X20854170D01*
G02X20828750Y2166000I0J25420D01*
G37*
G36*
G01X18718320Y905680D02*
Y1040680D01*
G02X18743740Y1066100I25420J0D01*
G01X18878740D01*
G02X18904160Y1040680I0J-25420D01*
G01Y905680D01*
G02X18878740Y880260I-25420J0D01*
G01X18743740D01*
G02X18718320Y905680I0J25420D01*
G37*
G36*
G01X1638420Y528280D02*
X3462130D01*
X3520370Y586520D01*
X3520830Y587700D01*
G02X3572510Y623110I51680J-20008D01*
G02X3627930Y567690I0J-55420D01*
G02X3592520Y516010I-55418J0D01*
G01X3591340Y515550D01*
X3518400Y442620D01*
G02X3482920Y427920I-35480J35467D01*
G01X2796660D01*
G03X2784900Y413520I-2J-12000D01*
G02X2786170Y400950I-61649J-12578D01*
G02X2723250Y338030I-62920J0D01*
G02X2693160Y345690I0J62930D01*
G01X2412610D01*
G02X2382520Y338030I-30090J55270D01*
G02X2319600Y400950I0J62920D01*
G02X2320870Y413520I62919J-8D01*
G03X2309110Y427920I-11758J2400D01*
G01X1638420D01*
X1637260Y427410D01*
G02X1614860Y422680I-22403J50689D01*
G02Y533520I0J55420D01*
G02X1637260Y528790I-3J-55419D01*
G01X1638420Y528280D01*
G37*
G36*
G01X3260970Y1687180D02*
G02X3230880Y1679520I-30090J55270D01*
G02Y1805360I0J62920D01*
G02X3260970Y1797700I0J-62930D01*
G01X3543690D01*
G02X3573780Y1805360I30090J-55270D01*
G02Y1679520I0J-62920D01*
G02X3543690Y1687180I0J62930D01*
G01X3260970D01*
G37*
G36*
G01X3808080Y1817690D02*
Y2502860D01*
G02X3800380Y2532380I52721J29516D01*
G02X3921220I60420J0D01*
G02X3913520Y2502860I-60421J-4D01*
G01Y1828180D01*
X3913660Y1827550D01*
G02X3914860Y1816350I-51522J-11184D01*
G01Y1731250D01*
G02X3913660Y1720050I-52722J-16D01*
G01X3913520Y1719420D01*
Y1180140D01*
G02X3914860Y1177600I-52754J-29455D01*
G01X3915300Y1176730D01*
X3920230Y1171790D01*
X4096950Y1348520D01*
X4097410Y1349700D01*
G02X4149090Y1385110I51680J-20008D01*
G02X4204510Y1329690I0J-55420D01*
G02X4169100Y1278010I-55418J0D01*
G01X4167920Y1277550D01*
X3756580Y866220D01*
G02X3721100Y851520I-35480J35467D01*
G01X3290000D01*
X3288840Y851010D01*
G02X3266440Y846280I-22403J50689D01*
G02Y957120I0J55420D01*
G02X3288840Y952390I-3J-55419D01*
G01X3290000Y951880D01*
X3700310D01*
X3829840Y1081400D01*
G03X3827890Y1099950I-8487J8485D01*
G02X3800380Y1150620I32909J50670D01*
G02X3808080Y1180140I60421J4D01*
G01Y1729910D01*
G02X3809280Y1741110I52722J16D01*
G01X3809420Y1741740D01*
Y1805860D01*
X3809280Y1806490D01*
G02X3808080Y1817690I51522J11184D01*
G37*
G36*
G01X5065320Y2092340D02*
X6084320D01*
X6619480Y2627500D01*
X6619920Y2628920D01*
G02X6677660Y2671540I57740J-17802D01*
G02X6738080Y2611120I0J-60420D01*
G02X6695460Y2553380I-60422J0D01*
G01X6694040Y2552940D01*
X6143440Y2002340D01*
G02X6106160Y1986900I-37280J37286D01*
G01X5087160D01*
X4243720Y1143460D01*
Y1134450D01*
X4244420Y1133140D01*
G02X4251420Y1104900I-53423J-28230D01*
G02X4130580I-60420J0D01*
G02X4137580Y1133140I60423J10D01*
G01X4138280Y1134450D01*
Y1165300D01*
G02X4153720Y1202580I52726J0D01*
G01X5028040Y2076900D01*
G02X5065320Y2092340I37280J-37286D01*
G37*
G36*
G01X18570080Y3481300D02*
X18124120Y3927260D01*
X18121070Y3926740D01*
G02X18105120Y3925400I-15935J94081D01*
G02X18200540Y4020820I0J95420D01*
G02X18199200Y4004870I-95421J-15D01*
G01X18198680Y4001820D01*
X18660080Y3540420D01*
G02X18675520Y3503140I-37286J-37280D01*
G01Y3400310D01*
G02X18708220Y3333100I-52720J-67210D01*
G02X18537380I-85420J0D01*
G02X18570080Y3400310I85420J0D01*
G01Y3481300D01*
G37*
G36*
G01X18803180Y3502200D02*
X18378120Y3927260D01*
X18375070Y3926740D01*
G02X18359120Y3925400I-15935J94081D01*
G02X18454540Y4020820I0J95420D01*
G02X18453200Y4004870I-95421J-15D01*
G01X18452680Y4001820D01*
X18893180Y3561320D01*
G02X18908620Y3524040I-37286J-37280D01*
G01Y3277990D01*
G02X18941320Y3210780I-52720J-67210D01*
G02X18770480I-85420J0D01*
G02X18803180Y3277990I85420J0D01*
G01Y3502200D01*
G37*
G36*
G01X2852560Y3524500D02*
X2444720Y3932340D01*
X2441670Y3931820D01*
G02X2425720Y3930480I-15935J94081D01*
G02X2521140Y4025900I0J95420D01*
G02X2519800Y4009950I-95421J-15D01*
G01X2519280Y4006900D01*
X2942560Y3583620D01*
G02X2958000Y3546340I-37286J-37280D01*
G01Y3400310D01*
G02X2990700Y3333100I-52720J-67210D01*
G02X2819860I-85420J0D01*
G02X2852560Y3400310I85420J0D01*
G01Y3524500D01*
G37*
G36*
G01X3085660Y3545400D02*
X2698720Y3932340D01*
X2695670Y3931820D01*
G02X2679720Y3930480I-15935J94081D01*
G02X2775140Y4025900I0J95420D01*
G02X2773800Y4009950I-95421J-15D01*
G01X2773280Y4006900D01*
X3175660Y3604520D01*
G02X3191100Y3567240I-37286J-37280D01*
G01Y3277990D01*
G02X3223800Y3210780I-52720J-67210D01*
G02X3052960I-85420J0D01*
G02X3085660Y3277990I85420J0D01*
G01Y3545400D01*
G37*
G36*
G01X3643000Y3423770D02*
Y3946370D01*
G02X3600300Y4025900I52713J79530D01*
G02X3791140I95420J0D01*
G02X3748440Y3946370I-95413J0D01*
G01Y3401930D01*
G02X3733000Y3364650I-52726J0D01*
G01X3372770Y3004430D01*
X3373020Y3001640D01*
G02X3373350Y2994140I-85090J-7501D01*
G02X3287930Y3079560I-85420J0D01*
G02X3295430Y3079230I-1J-85420D01*
G01X3298220Y3078980D01*
X3643000Y3423770D01*
G37*
G36*
G01X12098160Y3466060D02*
X11626800Y3937420D01*
X11623750Y3936900D01*
G02X11607800Y3935560I-15935J94081D01*
G02X11703220Y4030980I0J95420D01*
G02X11701880Y4015030I-95421J-15D01*
G01X11701360Y4011980D01*
X12188160Y3525180D01*
G02X12203600Y3487900I-37286J-37280D01*
G01Y3400310D01*
G02X12236300Y3333100I-52720J-67210D01*
G02X12065460I-85420J0D01*
G02X12098160Y3400310I85420J0D01*
G01Y3466060D01*
G37*
G36*
G01X12331260Y3486960D02*
X11880800Y3937420D01*
X11877750Y3936900D01*
G02X11861800Y3935560I-15935J94081D01*
G02X11957220Y4030980I0J95420D01*
G02X11955880Y4015030I-95421J-15D01*
G01X11955360Y4011980D01*
X12421260Y3546080D01*
G02X12436700Y3508800I-37286J-37280D01*
G01Y3277990D01*
G02X12469400Y3210780I-52720J-67210D01*
G02X12298560I-85420J0D01*
G02X12331260Y3277990I85420J0D01*
G01Y3486960D01*
G37*
G36*
G01X12825080Y3360250D02*
Y3951450D01*
G02X12782380Y4030980I52713J79530D01*
G02X12973220I95420J0D01*
G02X12930520Y3951450I-95413J0D01*
G01Y3338410D01*
G02X12915080Y3301130I-52726J0D01*
G01X12618370Y3004430D01*
X12618620Y3001640D01*
G02X12618950Y2994140I-85090J-7501D01*
G02X12533530Y3079560I-85420J0D01*
G02X12541030Y3079230I-1J-85420D01*
G01X12543820Y3078980D01*
X12825080Y3360250D01*
G37*
G36*
G01X5621160Y3544800D02*
X5226000Y3939960D01*
X5222950Y3939440D01*
G02X5207000Y3938100I-15935J94081D01*
G02X5302420Y4033520I0J95420D01*
G02X5301080Y4017570I-95421J-15D01*
G01X5300560Y4014520D01*
X5711160Y3603920D01*
G02X5726600Y3566640I-37286J-37280D01*
G01Y3400310D01*
G02X5759300Y3333100I-52720J-67210D01*
G02X5588460I-85420J0D01*
G02X5621160Y3400310I85420J0D01*
G01Y3544800D01*
G37*
G36*
G01X5854260Y3565700D02*
X5480000Y3939960D01*
X5476950Y3939440D01*
G02X5461000Y3938100I-15935J94081D01*
G02X5556420Y4033520I0J95420D01*
G02X5555080Y4017570I-95421J-15D01*
G01X5554560Y4014520D01*
X5944260Y3624820D01*
G02X5959700Y3587540I-37286J-37280D01*
G01Y3277990D01*
G02X5992400Y3210780I-52720J-67210D01*
G02X5821560I-85420J0D01*
G02X5854260Y3277990I85420J0D01*
G01Y3565700D01*
G37*
G36*
G01X6424280Y3436450D02*
Y3953990D01*
G02X6381580Y4033520I52713J79530D01*
G02X6572420I95420J0D01*
G02X6529720Y3953990I-95413J0D01*
G01Y3414610D01*
G02X6514280Y3377330I-52726J0D01*
G01X6141370Y3004430D01*
X6141620Y3001640D01*
G02X6141950Y2994140I-85090J-7501D01*
G02X6056530Y3079560I-85420J0D01*
G02X6064030Y3079230I-1J-85420D01*
G01X6066820Y3078980D01*
X6424280Y3436450D01*
G37*
G36*
G01X15798940Y3542260D02*
X15401240Y3939960D01*
X15398190Y3939440D01*
G02X15382240Y3938100I-15935J94081D01*
G02X15477660Y4033520I0J95420D01*
G02X15476320Y4017570I-95421J-15D01*
G01X15475800Y4014520D01*
X15888940Y3601380D01*
G02X15904380Y3564100I-37286J-37280D01*
G01Y3400310D01*
G02X15937080Y3333100I-52720J-67210D01*
G02X15766240I-85420J0D01*
G02X15798940Y3400310I85420J0D01*
G01Y3542260D01*
G37*
G36*
G01X16032040Y3563160D02*
X15655240Y3939960D01*
X15652190Y3939440D01*
G02X15636240Y3938100I-15935J94081D01*
G02X15731660Y4033520I0J95420D01*
G02X15730320Y4017570I-95421J-15D01*
G01X15729800Y4014520D01*
X16122040Y3622280D01*
G02X16137480Y3585000I-37286J-37280D01*
G01Y3277990D01*
G02X16170180Y3210780I-52720J-67210D01*
G02X15999340I-85420J0D01*
G02X16032040Y3277990I85420J0D01*
G01Y3563160D01*
G37*
G36*
G01X16599520Y3433910D02*
Y3953990D01*
G02X16556820Y4033520I52713J79530D01*
G02X16747660I95420J0D01*
G02X16704960Y3953990I-95413J0D01*
G01Y3412070D01*
G02X16689520Y3374790I-52726J0D01*
G01X16319150Y3004430D01*
X16319400Y3001640D01*
G02X16319730Y2994140I-85090J-7501D01*
G02X16234310Y3079560I-85420J0D01*
G02X16241810Y3079230I-1J-85420D01*
G01X16244600Y3078980D01*
X16599520Y3433910D01*
G37*
G36*
G01X9327020Y3537180D02*
X8916620Y3947580D01*
X8913570Y3947060D01*
G02X8897620Y3945720I-15935J94081D01*
G02X8993040Y4041140I0J95420D01*
G02X8991700Y4025190I-95421J-15D01*
G01X8991180Y4022140D01*
X9417020Y3596300D01*
G02X9432460Y3559020I-37286J-37280D01*
G01Y3400310D01*
G02X9465160Y3333100I-52720J-67210D01*
G02X9294320I-85420J0D01*
G02X9327020Y3400310I85420J0D01*
G01Y3537180D01*
G37*
G36*
G01X9560120Y3558080D02*
X9170620Y3947580D01*
X9167570Y3947060D01*
G02X9151620Y3945720I-15935J94081D01*
G02X9247040Y4041140I0J95420D01*
G02X9245700Y4025190I-95421J-15D01*
G01X9245180Y4022140D01*
X9650120Y3617200D01*
G02X9665560Y3579920I-37286J-37280D01*
G01Y3277990D01*
G02X9698260Y3210780I-52720J-67210D01*
G02X9527420I-85420J0D01*
G02X9560120Y3277990I85420J0D01*
G01Y3558080D01*
G37*
G36*
G01X10114900Y3421210D02*
Y3961610D01*
G02X10072200Y4041140I52713J79530D01*
G02X10263040I95420J0D01*
G02X10220340Y3961610I-95413J0D01*
G01Y3399370D01*
G02X10204900Y3362090I-52726J0D01*
G01X9847230Y3004430D01*
X9847480Y3001640D01*
G02X9847810Y2994140I-85090J-7501D01*
G02X9762390Y3079560I-85420J0D01*
G02X9769890Y3079230I-1J-85420D01*
G01X9772680Y3078980D01*
X10114900Y3421210D01*
G37*
G36*
G01X7436160Y4255120D02*
G02X7406640Y4247420I-29516J52721D01*
G02Y4368260I0J60420D01*
G02X7436160Y4360560I4J-60421D01*
G01X8024820D01*
G02X8054340Y4368260I29516J-52721D01*
G02Y4247420I0J-60420D01*
G02X8024820Y4255120I-4J60421D01*
G01X7436160D01*
G37*
G36*
G01X17724120Y4730380D02*
X17757560Y4763820D01*
X17757040Y4766870D01*
G02X17755700Y4782820I94081J15935D01*
G02X17851120Y4687400I95420J0D01*
G02X17835170Y4688740I-15J95421D01*
G01X17832120Y4689260D01*
X17802240Y4659380D01*
Y4121710D01*
G03X17818360Y4110440I12000J0D01*
G02X17851120Y4116240I32760J-89619D01*
G02X17946540Y4020820I0J-95420D01*
G02X17903840Y3941290I-95413J0D01*
G01Y3686650D01*
X18254340Y3336150D01*
G03X18274740Y3343210I8486J8482D01*
G02X18359560Y3418510I84820J-10122D01*
G02X18444980Y3333090I0J-85420D01*
G02X18369680Y3248270I-85422J0D01*
G03X18362620Y3227870I1422J-11914D01*
G01X18981140Y2609350D01*
G02X18996580Y2572070I-37286J-37280D01*
G01Y2553940D01*
X18998730Y2552140D01*
G02X19029280Y2486670I-54878J-65470D01*
G02X18858440I-85420J0D01*
G02X18880830Y2544320I85414J0D01*
G03X18880460Y2560910I-8852J8102D01*
G01X18231890Y3209490D01*
G03X18211460Y3202200I-8488J-8485D01*
G02X18136780Y3125950I-84993J8546D01*
G03X18129740Y3105560I1447J-11910D01*
G01X18139860Y3095440D01*
G02X18155300Y3058160I-37286J-37280D01*
G01Y2890150D01*
G02X18139860Y2852870I-52726J0D01*
G01X18030050Y2743070D01*
X18030300Y2740280D01*
G02X18030630Y2732780I-85090J-7501D01*
G02X17972450Y2651820I-85420J0D01*
G03X17967790Y2631960I3827J-11375D01*
G01X18028270Y2571480D01*
X18031060Y2571730D01*
G02X18038560Y2572060I7501J-85090D01*
G02X17953140Y2486640I0J-85420D01*
G02X17953470Y2494140I85420J-1D01*
G01X17953720Y2496930D01*
X17559840Y2890800D01*
G02X17544400Y2928080I37286J37280D01*
G01Y3941290D01*
G02X17501700Y4020820I52713J79530D01*
G02X17597120Y4116240I95420J0D01*
G02X17633700Y4108950I0J-95421D01*
G03X17650300Y4120030I4600J11083D01*
G01Y4655080D01*
X17617980Y4687400D01*
X17527120D01*
G02X17501700Y4712820I0J25420D01*
G01Y4852820D01*
G02X17527120Y4878240I25420J0D01*
G01X17667120D01*
G02X17692540Y4852820I0J-25420D01*
G01Y4761960D01*
X17724120Y4730380D01*
G37*
G36*
G01X19451940Y4631440D02*
X19394120Y4689260D01*
X19391070Y4688740D01*
G02X19375120Y4687400I-15935J94081D01*
G02X19470540Y4782820I0J95420D01*
G02X19469200Y4766870I-95421J-15D01*
G01X19468680Y4763820D01*
X19541940Y4690560D01*
G02X19557380Y4653280I-37286J-37280D01*
G01Y3200280D01*
G02X19541940Y3163000I-52726J0D01*
G01X19122030Y2743100D01*
X19122280Y2740310D01*
G02X19122610Y2732810I-85090J-7501D01*
G02X19037190Y2818230I-85420J0D01*
G02X19044690Y2817900I-1J-85420D01*
G01X19047480Y2817650D01*
X19451940Y3222120D01*
Y3935160D01*
G03X19432700Y3944730I-11999J1D01*
G02X19427840Y3941290I-57531J76125D01*
G01Y3363810D01*
G02X19412400Y3326530I-52726J0D01*
G01X19090290Y3004430D01*
X19090540Y3001640D01*
G02X19090870Y2994140I-85090J-7501D01*
G02X19005450Y3079560I-85420J0D01*
G02X19012950Y3079230I-1J-85420D01*
G01X19015740Y3078980D01*
X19322400Y3385650D01*
Y3941290D01*
G02X19279700Y4020820I52713J79530D01*
G02X19375120Y4116240I95420J0D01*
G02X19432700Y4096910I0J-95424D01*
G03X19451940Y4106480I7241J9569D01*
G01Y4631440D01*
G37*
G36*
G01X2044720Y4735460D02*
X2078160Y4768900D01*
X2077640Y4771950D01*
G02X2076300Y4787900I94081J15935D01*
G02X2171720Y4692480I95420J0D01*
G02X2155770Y4693820I-15J95421D01*
G01X2152720Y4694340D01*
X2122500Y4664120D01*
Y4126670D01*
G03X2138660Y4115410I12000J-5D01*
G02X2171720Y4121320I33060J-89512D01*
G02X2267140Y4025900I0J-95420D01*
G02X2224440Y3946370I-95413J0D01*
G01Y3654020D01*
X2537510Y3340940D01*
G03X2557830Y3347420I8487J8485D01*
G02X2642040Y3418510I84210J-14331D01*
G02X2727460Y3333090I0J-85420D01*
G02X2656370Y3248880I-85421J0D01*
G03X2649890Y3228560I2005J-11833D01*
G01X3263620Y2614840D01*
G02X3279060Y2577560I-37286J-37280D01*
G01Y2553880D01*
G02X3311760Y2486670I-52720J-67210D01*
G02X3140920I-85420J0D01*
G02X3165660Y2546790I85418J0D01*
G03X3165620Y2563720I-8524J8445D01*
G01X2514740Y3214600D01*
G03X2494270Y3206680I-8483J-8487D01*
G02X2422250Y3126370I-85323J4067D01*
G03X2413580Y3108780I1867J-11852D01*
G02X2420000Y3083560I-46302J-25214D01*
G01Y2872370D01*
G02X2404560Y2835090I-52726J0D01*
G01X2312530Y2743070D01*
X2312780Y2740280D01*
G02X2313110Y2732780I-85090J-7501D01*
G02X2254930Y2651820I-85420J0D01*
G03X2250270Y2631960I3827J-11375D01*
G01X2310750Y2571480D01*
X2313540Y2571730D01*
G02X2321040Y2572060I7501J-85090D01*
G02X2235620Y2486640I0J-85420D01*
G02X2235950Y2494140I85420J-1D01*
G01X2236200Y2496930D01*
X1880440Y2852680D01*
G02X1865000Y2889960I37286J37280D01*
G01Y3946370D01*
G02X1822300Y4025900I52713J79530D01*
G02X1917720Y4121320I95420J0D01*
G02X1954300Y4114030I0J-95421D01*
G03X1970900Y4125110I4600J11083D01*
G01Y4660160D01*
X1938580Y4692480D01*
X1847720D01*
G02X1822300Y4717900I0J25420D01*
G01Y4857900D01*
G02X1847720Y4883320I25420J0D01*
G01X1987720D01*
G02X2013140Y4857900I0J-25420D01*
G01Y4767040D01*
X2044720Y4735460D01*
G37*
G36*
G01X3815720Y4593340D02*
X3714720Y4694340D01*
X3711670Y4693820D01*
G02X3695720Y4692480I-15935J94081D01*
G02X3791140Y4787900I0J95420D01*
G02X3789800Y4771950I-95421J-15D01*
G01X3789280Y4768900D01*
X3905720Y4652460D01*
G02X3921160Y4615180I-37286J-37280D01*
G01Y3281580D01*
G02X3905720Y3244300I-52726J0D01*
G01X3404510Y2743100D01*
X3404760Y2740310D01*
G02X3405090Y2732810I-85090J-7501D01*
G02X3319670Y2818230I-85420J0D01*
G02X3327170Y2817900I-1J-85420D01*
G01X3329960Y2817650D01*
X3815720Y3303420D01*
Y4593340D01*
G37*
G36*
G01X11226800Y4740540D02*
X11260240Y4773980D01*
X11259720Y4777030D01*
G02X11258380Y4792980I94081J15935D01*
G02X11353800Y4697560I95420J0D01*
G02X11337850Y4698900I-15J95421D01*
G01X11334800Y4699420D01*
X11303820Y4668440D01*
Y4131460D01*
G03X11320060Y4120240I11998J4D01*
G02X11353800Y4126400I33729J-89262D01*
G02X11449220Y4030980I0J-95420D01*
G02X11406520Y3951450I-95413J0D01*
G01Y3712050D01*
X11782420Y3336150D01*
G03X11802820Y3343210I8486J8482D01*
G02X11887640Y3418510I84820J-10122D01*
G02X11973060Y3333090I0J-85420D01*
G02X11897760Y3248270I-85422J0D01*
G03X11890700Y3227870I1422J-11914D01*
G01X12509220Y2609350D01*
G02X12524660Y2572070I-37286J-37280D01*
G01Y2553940D01*
X12526810Y2552140D01*
G02X12557360Y2486670I-54878J-65470D01*
G02X12386520I-85420J0D01*
G02X12408910Y2544320I85414J0D01*
G03X12408540Y2560910I-8852J8102D01*
G01X11759970Y3209490D01*
G03X11739540Y3202200I-8488J-8485D01*
G02X11658700Y3125430I-84991J8549D01*
G03X11650800Y3104960I583J-11985D01*
G01X11657780Y3097980D01*
G02X11673220Y3060700I-37286J-37280D01*
G01Y2879990D01*
G02X11657780Y2842710I-52726J0D01*
G01X11558130Y2743070D01*
X11558380Y2740280D01*
G02X11558710Y2732780I-85090J-7501D01*
G02X11500530Y2651820I-85420J0D01*
G03X11495870Y2631960I3827J-11375D01*
G01X11556350Y2571480D01*
X11559140Y2571730D01*
G02X11566640Y2572060I7501J-85090D01*
G02X11481220Y2486640I0J-85420D01*
G02X11481550Y2494140I85420J-1D01*
G01X11481800Y2496930D01*
X11062520Y2916200D01*
G02X11047080Y2953480I37286J37280D01*
G01Y3951450D01*
G02X11004380Y4030980I52713J79530D01*
G02X11099800Y4126400I95420J0D01*
G02X11136380Y4119110I0J-95421D01*
G03X11152980Y4130190I4600J11083D01*
G01Y4665240D01*
X11120660Y4697560D01*
X11029800D01*
G02X11004380Y4722980I0J25420D01*
G01Y4862980D01*
G02X11029800Y4888400I25420J0D01*
G01X11169800D01*
G02X11195220Y4862980I0J-25420D01*
G01Y4772120D01*
X11226800Y4740540D01*
G37*
G36*
G01X13002880Y4593340D02*
X12896800Y4699420D01*
X12893750Y4698900D01*
G02X12877800Y4697560I-15935J94081D01*
G02X12973220Y4792980I0J95420D01*
G02X12971880Y4777030I-95421J-15D01*
G01X12971360Y4773980D01*
X13092880Y4652460D01*
G02X13108320Y4615180I-37286J-37280D01*
G01Y3223140D01*
G02X13092880Y3185860I-52726J0D01*
G01X12650110Y2743100D01*
X12650360Y2740310D01*
G02X12650690Y2732810I-85090J-7501D01*
G02X12565270Y2818230I-85420J0D01*
G02X12572770Y2817900I-1J-85420D01*
G01X12575560Y2817650D01*
X13002880Y3244980D01*
Y4593340D01*
G37*
G36*
G01X4826000Y4743080D02*
X4859440Y4776520D01*
X4858920Y4779570D01*
G02X4857580Y4795520I94081J15935D01*
G02X4953000Y4700100I95420J0D01*
G02X4937050Y4701440I-15J95421D01*
G01X4934000Y4701960D01*
X4901260Y4669220D01*
Y4133320D01*
G03X4917700Y4122170I12000J-2D01*
G02X4953000Y4128940I35300J-88645D01*
G02X5048420Y4033520I0J-95420D01*
G02X5005720Y3953990I-95413J0D01*
G01Y3635850D01*
X5305420Y3336150D01*
G03X5325820Y3343210I8486J8482D01*
G02X5410640Y3418510I84820J-10122D01*
G02X5496060Y3333090I0J-85420D01*
G02X5420760Y3248270I-85422J0D01*
G03X5413700Y3227870I1422J-11914D01*
G01X6032220Y2609350D01*
G02X6047660Y2572070I-37286J-37280D01*
G01Y2553940D01*
X6049810Y2552140D01*
G02X6080360Y2486670I-54878J-65470D01*
G02X5909520I-85420J0D01*
G02X5931910Y2544320I85414J0D01*
G03X5931540Y2560910I-8852J8102D01*
G01X5282970Y3209490D01*
G03X5262540Y3202200I-8488J-8485D01*
G02X5188780Y3126070I-84991J8549D01*
G03X5179790Y3108500I1581J-11894D01*
G02X5186060Y3083560I-46451J-24936D01*
G01Y2869830D01*
G02X5170620Y2832550I-52726J0D01*
G01X5081130Y2743070D01*
X5081380Y2740280D01*
G02X5081710Y2732780I-85090J-7501D01*
G02X5023530Y2651820I-85420J0D01*
G03X5018870Y2631960I3827J-11375D01*
G01X5079350Y2571480D01*
X5082140Y2571730D01*
G02X5089640Y2572060I7501J-85090D01*
G02X5004220Y2486640I0J-85420D01*
G02X5004550Y2494140I85420J-1D01*
G01X5004800Y2496930D01*
X4661720Y2840000D01*
G02X4646280Y2877280I37286J37280D01*
G01Y3953990D01*
G02X4603580Y4033520I52713J79530D01*
G02X4699000Y4128940I95420J0D01*
G02X4734020Y4122280I-3J-95419D01*
G03X4750420Y4133450I4400J11164D01*
G01Y4669540D01*
X4719860Y4700100D01*
X4629000D01*
G02X4603580Y4725520I0J25420D01*
G01Y4865520D01*
G02X4629000Y4890940I25420J0D01*
G01X4769000D01*
G02X4794420Y4865520I0J-25420D01*
G01Y4774660D01*
X4826000Y4743080D01*
G37*
G36*
G01X15001240D02*
X15034680Y4776520D01*
X15034160Y4779570D01*
G02X15032820Y4795520I94081J15935D01*
G02X15128240Y4700100I95420J0D01*
G02X15112290Y4701440I-15J95421D01*
G01X15109240Y4701960D01*
X15078260Y4670980D01*
Y4134000D01*
G03X15094500Y4122780I11998J4D01*
G02X15128240Y4128940I33729J-89262D01*
G02X15223660Y4033520I0J-95420D01*
G02X15180960Y3953990I-95413J0D01*
G01Y3638390D01*
X15483200Y3336150D01*
G03X15503600Y3343210I8486J8482D01*
G02X15588420Y3418510I84820J-10122D01*
G02X15673840Y3333090I0J-85420D01*
G02X15598540Y3248270I-85422J0D01*
G03X15591480Y3227870I1422J-11914D01*
G01X16210000Y2609350D01*
G02X16225440Y2572070I-37286J-37280D01*
G01Y2553940D01*
X16227590Y2552140D01*
G02X16258140Y2486670I-54878J-65470D01*
G02X16087300I-85420J0D01*
G02X16109690Y2544320I85414J0D01*
G03X16109320Y2560910I-8852J8102D01*
G01X15460750Y3209490D01*
G03X15440320Y3202200I-8488J-8485D01*
G02X15357330Y3125350I-84992J8547D01*
G03X15349130Y3104870I282J-11995D01*
G01X15368720Y3085280D01*
G02X15384160Y3048000I-37286J-37280D01*
G01Y2890150D01*
G02X15368720Y2852870I-52726J0D01*
G01X15258910Y2743070D01*
X15259160Y2740280D01*
G02X15259490Y2732780I-85090J-7501D01*
G02X15201310Y2651820I-85420J0D01*
G03X15196650Y2631960I3827J-11375D01*
G01X15257130Y2571480D01*
X15259920Y2571730D01*
G02X15267420Y2572060I7501J-85090D01*
G02X15182000Y2486640I0J-85420D01*
G02X15182330Y2494140I85420J-1D01*
G01X15182580Y2496930D01*
X14836960Y2842540D01*
G02X14821520Y2879820I37286J37280D01*
G01Y3953990D01*
G02X14778820Y4033520I52713J79530D01*
G02X14874240Y4128940I95420J0D01*
G02X14907280Y4123040I7J-95421D01*
G03X14923440Y4134290I4161J11254D01*
G01Y4671760D01*
X14895100Y4700100D01*
X14804240D01*
G02X14778820Y4725520I0J25420D01*
G01Y4865520D01*
G02X14804240Y4890940I25420J0D01*
G01X14944240D01*
G02X14969660Y4865520I0J-25420D01*
G01Y4774660D01*
X15001240Y4743080D01*
G37*
G36*
G01X16782400Y4590800D02*
X16671240Y4701960D01*
X16668190Y4701440D01*
G02X16652240Y4700100I-15935J94081D01*
G02X16747660Y4795520I0J95420D01*
G02X16746320Y4779570I-95421J-15D01*
G01X16745800Y4776520D01*
X16872400Y4649920D01*
G02X16887840Y4612640I-37286J-37280D01*
G01Y3301880D01*
G02X16872400Y3264600I-52726J0D01*
G01X16350890Y2743100D01*
X16351140Y2740310D01*
G02X16351470Y2732810I-85090J-7501D01*
G02X16266050Y2818230I-85420J0D01*
G02X16273550Y2817900I-1J-85420D01*
G01X16276340Y2817650D01*
X16782400Y3323720D01*
Y4590800D01*
G37*
G36*
G01X8516620Y4750700D02*
X8550060Y4784140D01*
X8549540Y4787190D01*
G02X8548200Y4803140I94081J15935D01*
G02X8643620Y4707720I95420J0D01*
G02X8627670Y4709060I-15J95421D01*
G01X8624620Y4709580D01*
X8593640Y4678600D01*
Y4141620D01*
G03X8609880Y4130400I11998J4D01*
G02X8643620Y4136560I33729J-89262D01*
G02X8739040Y4041140I0J-95420D01*
G02X8696340Y3961610I-95413J0D01*
G01Y3651090D01*
X9011280Y3336150D01*
G03X9031680Y3343210I8486J8482D01*
G02X9116500Y3418510I84820J-10122D01*
G02X9201920Y3333090I0J-85420D01*
G02X9126620Y3248270I-85422J0D01*
G03X9119560Y3227870I1422J-11914D01*
G01X9738080Y2609350D01*
G02X9753520Y2572070I-37286J-37280D01*
G01Y2553940D01*
X9755670Y2552140D01*
G02X9786220Y2486670I-54878J-65470D01*
G02X9615380I-85420J0D01*
G02X9637770Y2544320I85414J0D01*
G03X9637400Y2560910I-8852J8102D01*
G01X8988830Y3209490D01*
G03X8968400Y3202200I-8488J-8485D01*
G02X8888490Y3125480I-84991J8549D01*
G01X8886220Y3125350D01*
X8880370Y3119490D01*
X8886640Y3113220D01*
G02X8902080Y3075940I-37286J-37280D01*
G01Y2879990D01*
G02X8886640Y2842710I-52726J0D01*
G01X8786990Y2743070D01*
X8787240Y2740280D01*
G02X8787570Y2732780I-85090J-7501D01*
G02X8729390Y2651820I-85420J0D01*
G03X8724730Y2631960I3827J-11375D01*
G01X8785210Y2571480D01*
X8788000Y2571730D01*
G02X8795500Y2572060I7501J-85090D01*
G02X8710080Y2486640I0J-85420D01*
G02X8710410Y2494140I85420J-1D01*
G01X8710660Y2496930D01*
X8352340Y2855240D01*
G02X8336900Y2892520I37286J37280D01*
G01Y3961610D01*
G02X8294200Y4041140I52713J79530D01*
G02X8389620Y4136560I95420J0D01*
G02X8423360Y4130400I11J-95422D01*
G03X8439600Y4141620I4242J11224D01*
G01Y4678600D01*
X8410480Y4707720D01*
X8319620D01*
G02X8294200Y4733140I0J25420D01*
G01Y4873140D01*
G02X8319620Y4898560I25420J0D01*
G01X8459620D01*
G02X8485040Y4873140I0J-25420D01*
G01Y4782280D01*
X8516620Y4750700D01*
G37*
G36*
G01X10292700Y4603500D02*
X10186620Y4709580D01*
X10183570Y4709060D01*
G02X10167620Y4707720I-15935J94081D01*
G02X10263040Y4803140I0J95420D01*
G02X10261700Y4787190I-95421J-15D01*
G01X10261180Y4784140D01*
X10382700Y4662620D01*
G02X10398140Y4625340I-37286J-37280D01*
G01Y3284100D01*
G02X10382700Y3246820I-52726J0D01*
G01X9878970Y2743100D01*
X9879220Y2740310D01*
G02X9879550Y2732810I-85090J-7501D01*
G02X9794130Y2818230I-85420J0D01*
G02X9801630Y2817900I-1J-85420D01*
G01X9804420Y2817650D01*
X10292700Y3305940D01*
Y4603500D01*
G37*
G36*
G01X7778300Y832300D02*
G02X7815580Y847740I37280J-37286D01*
G01X11772900D01*
G02X11810180Y832300I0J-52726D01*
G01X12175730Y466750D01*
G03X12195700Y478700I8481J8489D01*
G02X12189720Y519240I134440J40542D01*
G02X12330140Y378820I140420J0D01*
G02X12289600Y384800I2J140420D01*
G03X12277650Y364830I-3461J-11489D01*
G01X12320520Y321960D01*
X12358120D01*
G02X12455140Y379660I97020J-52717D01*
G02Y158820I0J-110420D01*
G02X12358120Y216520I0J110417D01*
G01X12298680D01*
G02X12261400Y231960I0J52726D01*
G01X11751060Y742300D01*
X10626010D01*
G03X10617520Y721820I-2J-11999D01*
G01X10820260Y519070D01*
G03X10840730Y526900I8486J8487D01*
G02X10980940Y659660I140210J-7659D01*
G02X11121360Y519240I0J-140420D01*
G02X10988600Y379030I-140419J0D01*
G03X10980770Y358560I657J-11984D01*
G01X11001970Y337370D01*
G03X11019820Y338340I8490J8481D01*
G02X11105940Y379660I86120J-69087D01*
G02Y158820I0J-110420D01*
G02X11010590Y213550I0J110424D01*
G01X11008860Y216520D01*
X10995540D01*
G02X10958260Y231960I0J52726D01*
G01X10493320Y696900D01*
X9284690D01*
G03X9276200Y676420I-2J-11999D01*
G01X9474330Y478280D01*
G03X9494540Y489320I8485J8485D01*
G02X9491320Y519240I137202J29899D01*
G02X9631740Y378820I140420J0D01*
G02X9601820Y382040I-21J140422D01*
G03X9590780Y361830I-2555J-11725D01*
G01X9630660Y321960D01*
X9659720D01*
G02X9756740Y379660I97020J-52717D01*
G02Y158820I0J-110420D01*
G02X9659720Y216520I0J110417D01*
G01X9608820D01*
G02X9571540Y231960I0J52726D01*
G01X9157720Y645780D01*
X9083100D01*
G03X9075180Y624760I-3J-12001D01*
G02X9122960Y519240I-92628J-105520D01*
G02X8842120I-140420J0D01*
G02X8889900Y624760I140408J0D01*
G03X8881980Y645780I-7917J9019D01*
G01X8383100D01*
G03X8375180Y624760I-3J-12001D01*
G02X8422960Y519240I-92628J-105520D01*
G02X8142120I-140420J0D01*
G02X8189900Y624760I140408J0D01*
G03X8181980Y645780I-7917J9019D01*
G01X7888220D01*
X7584880Y342440D01*
G03X7593370Y321960I8488J-8481D01*
G01X8310520D01*
G02X8407540Y379660I97020J-52717D01*
G02Y158820I0J-110420D01*
G02X8310520Y216520I0J110417D01*
G01X5597200D01*
G02X5567680Y208820I-29516J52721D01*
G02Y329660I0J60420D01*
G02X5595920Y322660I10J-60423D01*
G01X5597230Y321960D01*
X5604780D01*
Y329540D01*
X5604000Y330920D01*
G02X5596160Y360680I52579J29764D01*
G02X5617330Y406620I60431J0D01*
G01X5619440Y408410D01*
Y417180D01*
X5609930D01*
X5608620Y416480D01*
G02X5580380Y409480I-28230J53423D01*
G02Y530320I0J60420D01*
G02X5581420Y530310I-61J-60419D01*
G03X5593200Y545460I203J11997D01*
G02X5591080Y561340I58302J15865D01*
G02X5651500Y621760I60420J0D01*
G02X5681020Y614060I4J-60421D01*
G01X7560060D01*
X7778300Y832300D01*
G37*
G36*
G01X1174740Y5043180D02*
G02X1219200Y5061600I44460J-44446D01*
G01X2722900D01*
G02X2767360Y5043180I0J-62866D01*
G01X2927400Y4883150D01*
X2930020Y4883250D01*
G02X2933720Y4883320I3655J-95351D01*
G02X2937420Y4883250I45J-95421D01*
G01X2940040Y4883150D01*
X3087380Y5030480D01*
G02X3131840Y5048900I44460J-44446D01*
G01X5524500D01*
G02X5568960Y5030480I0J-62866D01*
G01X5708680Y4890770D01*
X5711300Y4890870D01*
G02X5715000Y4890940I3655J-95351D01*
G02X5718700Y4890870I45J-95421D01*
G01X5721320Y4890770D01*
X5861040Y5030480D01*
G02X5905500Y5048900I44460J-44446D01*
G01X6770420D01*
G02X6833820I31700J-62867D01*
G01X9222740D01*
G02X9267200Y5030480I0J-62866D01*
G01X9399300Y4898390D01*
X9401920Y4898490D01*
G02X9405620Y4898560I3655J-95351D01*
G02X9409320Y4898490I45J-95421D01*
G01X9411940Y4898390D01*
X9541500Y5027940D01*
G02X9585960Y5046360I44460J-44446D01*
G01X11925300D01*
G02X11969760Y5027940I0J-62866D01*
G01X12109480Y4888230D01*
X12112100Y4888330D01*
G02X12115800Y4888400I3655J-95351D01*
G02X12119500Y4888330I45J-95421D01*
G01X12122120Y4888230D01*
X12256760Y5022860D01*
G02X12301220Y5041280I44460J-44446D01*
G01X13062000D01*
G02X13125400I31700J-62867D01*
G01X15707360D01*
G02X15751820Y5022860I0J-62866D01*
G01X15883920Y4890770D01*
X15886540Y4890870D01*
G02X15890240Y4890940I3655J-95351D01*
G02X15893940Y4890870I45J-95421D01*
G01X15896560Y4890770D01*
X16023580Y5017780D01*
G02X16068040Y5036200I44460J-44446D01*
G01X18422620D01*
G02X18467080Y5017780I0J-62866D01*
G01X18606800Y4878070D01*
X18609420Y4878170D01*
G02X18613120Y4878240I3655J-95351D01*
G02X18616820Y4878170I45J-95421D01*
G01X18619440Y4878070D01*
X18756620Y5015240D01*
G02X18801080Y5033660I44460J-44446D01*
G01X19474180D01*
G02X19518640Y5015240I0J-62866D01*
G01X19998700Y4535180D01*
G02X20017120Y4490720I-44446J-44460D01*
G01Y3353450D01*
X20446160Y2924400D01*
X20447450Y2923950D01*
G02X20494560Y2857500I-23310J-66450D01*
G02X20424140Y2787080I-70420J0D01*
G02X20357690Y2834190I0J70420D01*
G01X20357240Y2835480D01*
X19909780Y3282940D01*
G02X19891360Y3327400I44446J44460D01*
G01Y4464670D01*
X19448130Y4907900D01*
X18827130D01*
X18708370Y4789140D01*
X18708470Y4786520D01*
G02X18708540Y4782820I-95351J-3655D01*
G02X18517700I-95420J0D01*
G02X18517770Y4786520I95421J45D01*
G01X18517870Y4789140D01*
X18396570Y4910440D01*
X16094090D01*
X15985490Y4801840D01*
X15985590Y4799220D01*
G02X15985660Y4795520I-95351J-3655D01*
G02X15794820I-95420J0D01*
G02X15794890Y4799220I95421J45D01*
G01X15794990Y4801840D01*
X15681310Y4915520D01*
X13156580D01*
Y4897770D01*
X13520850Y4533490D01*
X13522140Y4533040D01*
G02X13569250Y4466590I-23310J-66450D01*
G02X13498830Y4396170I-70420J0D01*
G02X13432380Y4443280I0J70420D01*
G01X13431930Y4444570D01*
X13049240Y4827260D01*
G02X13030820Y4871720I44446J44460D01*
G01Y4915520D01*
X12327270D01*
X12211050Y4799300D01*
X12211150Y4796680D01*
G02X12211220Y4792980I-95351J-3655D01*
G02X12020380I-95420J0D01*
G02X12020450Y4796680I95421J45D01*
G01X12020550Y4799300D01*
X11899250Y4920600D01*
X9612010D01*
X9500870Y4809460D01*
X9500970Y4806840D01*
G02X9501040Y4803140I-95351J-3655D01*
G02X9310200I-95420J0D01*
G02X9310270Y4806840I95421J45D01*
G01X9310370Y4809460D01*
X9196690Y4923140D01*
X6960280D01*
G03X6948370Y4909710I4J-12000D01*
G02X6948820Y4902200I-62442J-7510D01*
G01Y4559950D01*
X7007020Y4501740D01*
X7008310Y4501290D01*
G02X7055420Y4434840I-23310J-66450D01*
G02X6985000Y4364420I-70420J0D01*
G02X6918550Y4411530I0J70420D01*
G01X6918100Y4412820D01*
X6841480Y4489440D01*
G02X6839270Y4491760I44408J44515D01*
G03X6828820Y4487740I-4450J-4024D01*
G01Y4458890D01*
X6828880Y4458460D01*
G02X6829440Y4450820I-52158J-7664D01*
G01Y4400860D01*
G02X6837140Y4371340I-52721J-29516D01*
G02X6776720Y4310920I-60420J0D01*
G02X6734300Y4328320I0J60409D01*
G03X6713870Y4319780I-8429J-8542D01*
G01Y3305690D01*
G02X6698430Y3268410I-52726J0D01*
G01X6173110Y2743100D01*
X6173360Y2740310D01*
G02X6173690Y2732810I-85090J-7501D01*
G02X6088270Y2818230I-85420J0D01*
G02X6095770Y2817900I-1J-85420D01*
G01X6098560Y2817650D01*
X6608430Y3327530D01*
Y4589530D01*
X6496000Y4701960D01*
X6492950Y4701440D01*
G02X6477000Y4700100I-15935J94081D01*
G02X6572420Y4795520I0J95420D01*
G02X6571080Y4779570I-95421J-15D01*
G01X6570560Y4776520D01*
X6698430Y4648650D01*
G02X6702070Y4644610I-37296J-37263D01*
G03X6723380Y4652180I9310J7571D01*
G01Y4796480D01*
G02X6715680Y4826000I52721J29516D01*
G02X6776100Y4886420I60420J0D01*
G02X6782930Y4886030I-24J-60419D01*
G03X6792770Y4906440I1357J11923D01*
G01X6780100Y4919120D01*
X6778810Y4919570D01*
G02X6770420Y4923140I23319J66446D01*
G01X5931550D01*
X5810250Y4801840D01*
X5810350Y4799220D01*
G02X5810420Y4795520I-95351J-3655D01*
G02X5619580I-95420J0D01*
G02X5619650Y4799220I95421J45D01*
G01X5619750Y4801840D01*
X5498450Y4923140D01*
X3157890D01*
X3028970Y4794220D01*
X3029070Y4791600D01*
G02X3029140Y4787900I-95351J-3655D01*
G02X2838300I-95420J0D01*
G02X2838370Y4791600I95421J45D01*
G01X2838470Y4794220D01*
X2696850Y4935840D01*
X1245250D01*
X1176880Y4867480D01*
X1176430Y4866190D01*
G02X1172860Y4857800I-66446J23319D01*
G01Y3888740D01*
G02X1172380Y3880950I-62882J-35D01*
G01X1172330Y3880580D01*
Y3874590D01*
G02X1153910Y3830130I-62866J0D01*
G01X1119380Y3795600D01*
X1118930Y3794310D01*
G02X1115360Y3785920I-66446J23319D01*
G01Y1879330D01*
X1612060Y1382620D01*
X1613350Y1382170D01*
G02X1621740Y1378600I-23319J-66446D01*
G01X2150160D01*
G02X2213560I31700J-62867D01*
G01X2675940D01*
G02X2707640Y1386140I31700J-62867D01*
G02Y1245300I0J-70420D01*
G02X2675940Y1252840I0J70407D01*
G01X2213560D01*
G02X2150160I-31700J62867D01*
G01X1621740D01*
G02X1590040Y1245300I-31700J62867D01*
G02X1523590Y1292410I0J70420D01*
G01X1523140Y1293700D01*
X1056440Y1760390D01*
G03X1035960Y1751900I-8481J-8487D01*
G01Y1492870D01*
G02X1043620Y1462780I-55270J-30090D01*
G02X917780I-62920J0D01*
G02X925440Y1492870I62930J0D01*
G01Y1768230D01*
G02X917780Y1798320I55270J30090D01*
G02X978100Y1861190I62924J0D01*
G03X989600Y1873180I-498J11988D01*
G01Y3785920D01*
G02X982060Y3817620I62867J31700D01*
G02X1029170Y3884070I70420J0D01*
G01X1030460Y3884520D01*
X1047100Y3901170D01*
Y4857800D01*
G02X1039560Y4889500I62867J31700D01*
G02X1086670Y4955950I70420J0D01*
G01X1087960Y4956400D01*
X1174740Y5043180D01*
G37*
G36*
G01X8192550Y1867360D02*
G03X8184060Y1887840I-8489J8480D01*
G01X6639170D01*
G02X6628240Y1883170I-30076J55266D01*
G01X6626850Y1882730D01*
X6601870Y1857750D01*
G02X6591340Y1849500I-39093J39052D01*
G01X6590710Y1849120D01*
X6323980Y1582390D01*
Y1521070D01*
G02X6331640Y1490980I-55270J-30090D01*
G02X6205800I-62920J0D01*
G02X6213460Y1521070I62930J0D01*
G01Y1605280D01*
G02X6229650Y1644350I55257J-8D01*
G01X6521190Y1935890D01*
G02X6531730Y1944150I39104J-39043D01*
G01X6532350Y1944520D01*
X6548710Y1960870D01*
X6549150Y1962260D01*
G02X6609080Y2006020I59930J-19158D01*
G02X6639170Y1998360I0J-62930D01*
G01X19039810D01*
X19583460Y2542010D01*
Y3442090D01*
G02X19575800Y3472180I55270J30090D01*
G02X19701640I62920J0D01*
G02X19693980Y3442090I-62930J0D01*
G01Y2519120D01*
G02X19677790Y2480050I-55257J8D01*
G01X19101770Y1904030D01*
G02X19062700Y1887840I-39078J39067D01*
G01X8369330D01*
X8236600Y1755110D01*
Y1658230D01*
G02X8244260Y1628140I-55270J-30090D01*
G02X8118420I-62920J0D01*
G02X8126080Y1658230I62930J0D01*
G01Y1778000D01*
G02X8142270Y1817070I55257J-8D01*
G01X8192550Y1867360D01*
G37*
G36*
G01X19214240Y1573700D02*
Y1753700D01*
G02X19239660Y1779120I25420J0D01*
G01X19419660D01*
G02X19445080Y1753700I0J-25420D01*
G01Y1573700D01*
G02X19419660Y1548280I-25420J0D01*
G01X19239660D01*
G02X19214240Y1573700I0J25420D01*
G37*
G54D50*
X19679660Y1663700D03*
G54D48*
X599440Y5001260D03*
X20675600D03*
Y601980D03*
X599440D03*
G54D45*
X13749020Y2799080D03*
X7272020D03*
G54D49*
X15460300Y944880D03*
X14710300D03*
G54D43*
X18746830Y2312100D03*
X18235600Y2312080D03*
X18491200Y2249080D03*
X15975690Y2312100D03*
X15464460Y2312080D03*
X15720060Y2249080D03*
X12274910Y2312100D03*
X11763680Y2312080D03*
X12019280Y2249080D03*
X9503770Y2312100D03*
X8992540Y2312080D03*
X9248140Y2249080D03*
X5797910Y2312100D03*
X5286680Y2312080D03*
X5542280Y2249080D03*
X3029310Y2312100D03*
X2518080Y2312080D03*
X2773680Y2249080D03*
X14003020Y2799080D03*
X7526020D03*
G54D41*
X5715000Y4033520D03*
X18613120Y4020820D03*
X15890240Y4033520D03*
X12115800Y4030980D03*
X9405620Y4041140D03*
X2933720Y4025900D03*
G54D40*
X5321300Y1450280D03*
Y970280D03*
G54D38*
X19918680Y876300D03*
X19664680D03*
G54D47*
X10331740Y519240D03*
X13030140D03*
X11680940D03*
G54D42*
X5461000Y4795520D03*
X6223000D03*
X5969000D03*
X5207000D03*
X6223000Y4033520D03*
X5969000D03*
X18359120Y4782820D03*
X19121120D03*
X18867120D03*
X18105120D03*
X19121120Y4020820D03*
X18867120D03*
X15636240Y4795520D03*
X16398240D03*
X16144240D03*
X15382240D03*
X16398240Y4033520D03*
X16144240D03*
X11861800Y4792980D03*
X12623800D03*
X12369800D03*
X11607800D03*
X12623800Y4030980D03*
X12369800D03*
X9151620Y4803140D03*
X9913620D03*
X9659620D03*
X8897620D03*
X9913620Y4041140D03*
X9659620D03*
X3187720Y4025900D03*
X2425720Y4787900D03*
X3187720D03*
X2679720D03*
X3441720Y4025900D03*
Y4787900D03*
G54D39*
X16687260Y360680D03*
G54D44*
X12905140Y269240D03*
X10206740D03*
X8857540D03*
X11555940D03*
G54D46*
X18811240Y1653180D03*
%LPD*%
G75*
G54D10*
X599440Y601980D03*
Y5001260D03*
X20675600Y601980D03*
Y5001260D03*
G54D20*
X8282540Y519240D03*
X8982540D03*
X9631740D03*
X10331740D03*
X10980940D03*
X11680940D03*
X12330140D03*
X13030140D03*
G54D11*
X980700Y1462780D03*
Y1798320D03*
X2382520Y400950D03*
X2723250D03*
X3230880Y1742440D03*
X3573780D03*
X6268720Y1490980D03*
X6609080Y1943100D03*
X8181340Y1628140D03*
X19638720Y3472180D03*
G54D30*
X19329660Y1663700D03*
G54D21*
X8407540Y269240D03*
X8857540D03*
X9756740D03*
X10206740D03*
X11105940D03*
X11555940D03*
X12455140D03*
X12905140D03*
G54D12*
X1052480Y3817620D03*
X1109980Y4889500D03*
X1590040Y1315720D03*
X2181860D03*
X2707640D03*
X6985000Y4434840D03*
X6802120Y4986020D03*
X13093700Y4978400D03*
X13498830Y4466590D03*
X20424140Y2857500D03*
G54D22*
X14710300Y944880D03*
X15460300D03*
G54D31*
X20954170Y2241000D03*
Y2966000D03*
G54D13*
X1614860Y478100D03*
X3572510Y567690D03*
X3266440Y901700D03*
X4149090Y1329690D03*
X4051300Y1043940D03*
G54D23*
X16937260Y360680D03*
G54D14*
X1604630Y3324570D03*
X1504630D03*
X1404630D03*
X1604630Y3224570D03*
X1504630D03*
X1404630D03*
X1613600Y3710030D03*
X1717410Y3793080D03*
X3197660Y595430D03*
X3097660D03*
X3160740Y384240D03*
X3060740D03*
X3626190Y220910D03*
X3297660Y595430D03*
X3260740Y384240D03*
X3760650Y753080D03*
X3712690Y1260130D03*
X3730360Y1770300D03*
X3331620Y1584480D03*
X3860650Y753080D03*
X3970450Y1388110D03*
X3950480Y1775840D03*
X4303800Y1795500D03*
X4315830Y2685690D03*
X4215830D03*
X4315830Y2585690D03*
X4215830D03*
X4944110Y422070D03*
X4844110D03*
X4944110Y322070D03*
X4844110D03*
X4944110Y222070D03*
X4844110D03*
X5812640Y1169260D03*
X5712640D03*
X5612640D03*
X6012640D03*
X5912640D03*
X7799680Y3777360D03*
X7699680D03*
X7799680Y3677360D03*
X7699680D03*
X7799680Y3577360D03*
X7699680D03*
X7899680Y3777360D03*
Y3677360D03*
Y3577360D03*
X10766890Y3753760D03*
X10666890D03*
X10566890D03*
X10766890Y3653760D03*
X10666890D03*
X10566890D03*
X10766890Y3553760D03*
X10666890D03*
X10566890D03*
X13686550Y3431070D03*
Y3631070D03*
Y3531070D03*
X13886550Y3431070D03*
X13786550D03*
X13886550Y3631070D03*
X13786550D03*
X13886550Y3531070D03*
X13786550D03*
X17313090Y3427390D03*
X17213090D03*
X17113090D03*
X17313090Y3327390D03*
X17213090D03*
X17113090D03*
X17313090Y3527390D03*
X17213090D03*
X17113090D03*
G54D32*
X20683170Y2361000D03*
Y2846000D03*
G54D33*
G01X3572510Y567690D02*
X3482920Y478100D01*
X1614860D01*
G01X4149090Y1329690D02*
X3721100Y901700D01*
X3266440D01*
G54D24*
X16687260Y360680D03*
G54D15*
X1917720Y4025900D03*
X2171720D03*
X2425720D03*
Y4787900D03*
X2171720D03*
X2679720Y4025900D03*
X2933720D03*
X3187720D03*
Y4787900D03*
X2933720D03*
X2679720D03*
X3441720Y4025900D03*
X3695720D03*
Y4787900D03*
X3441720D03*
X4699000Y4033520D03*
X4953000D03*
X5207000D03*
Y4795520D03*
X4953000D03*
X5461000Y4033520D03*
X5715000D03*
Y4795520D03*
X5461000D03*
X5969000Y4033520D03*
X6223000D03*
X6477000D03*
Y4795520D03*
X6223000D03*
X5969000D03*
X8389620Y4041140D03*
X8643620D03*
X8897620D03*
X9151620D03*
Y4803140D03*
X8897620D03*
X8643620D03*
X9405620Y4041140D03*
X9659620D03*
Y4803140D03*
X9405620D03*
X9913620Y4041140D03*
X10167620D03*
Y4803140D03*
X9913620D03*
X11099800Y4030980D03*
X11353800D03*
X11607800D03*
Y4792980D03*
X11353800D03*
X11861800Y4030980D03*
X12115800D03*
X12369800D03*
Y4792980D03*
X12115800D03*
X11861800D03*
X12623800Y4030980D03*
X12877800D03*
Y4792980D03*
X12623800D03*
X14874240Y4033520D03*
X15128240D03*
X15382240D03*
X15636240D03*
Y4795520D03*
X15382240D03*
X15128240D03*
X15890240Y4033520D03*
X16144240D03*
X16398240D03*
Y4795520D03*
X16144240D03*
X15890240D03*
X16652240Y4033520D03*
Y4795520D03*
X17597120Y4020820D03*
X17851120D03*
X18105120D03*
X18359120D03*
Y4782820D03*
X18105120D03*
X17851120D03*
X18613120Y4020820D03*
X18867120D03*
Y4782820D03*
X18613120D03*
X19121120Y4020820D03*
X19375120D03*
Y4782820D03*
X19121120D03*
G54D34*
G01X1917720Y4025900D02*
Y2889960D01*
X2321040Y2486640D01*
G01X2171720Y4787900D02*
X2069780Y4685960D01*
Y4069210D01*
X2069020Y4068450D01*
Y3983350D01*
X2069780Y3982590D01*
Y3381060D01*
X2367280Y3083560D01*
Y2872370D01*
X2227690Y2732780D01*
G01X3226340Y2486670D02*
Y2577560D01*
X2171720Y3632180D01*
Y4025900D01*
G01X2259420Y2994100D02*
X2023620Y3229900D01*
Y4682000D01*
X1917720Y4787900D01*
G01X2425720Y4025900D02*
X2905280Y3546340D01*
Y3333100D01*
G01X3138380Y3210780D02*
Y3567240D01*
X2679720Y4025900D01*
G01X3319670Y2732810D02*
X3868440Y3281580D01*
Y4615180D01*
X3695720Y4787900D01*
G01Y4025900D02*
Y3401930D01*
X3287930Y2994140D01*
G01X6677660Y2611120D02*
X6106160Y2039620D01*
X5065320D01*
X4191000Y1165300D01*
Y1104900D01*
G01X3860800Y2532380D02*
Y1817690D01*
X3862140Y1816350D01*
Y1731250D01*
X3860800Y1729910D01*
Y1150620D01*
G01X4953000Y4795520D02*
X4848540Y4691060D01*
Y3378680D01*
X4851080Y3376140D01*
Y3365820D01*
X5133340Y3083560D01*
Y2869830D01*
X4996290Y2732780D01*
G01X4699000Y4033520D02*
Y2877280D01*
X5089640Y2486640D01*
G01X4953000Y4033520D02*
Y3614010D01*
X5994940Y2572070D01*
Y2486670D01*
G01X4699000Y4795520D02*
X4803140Y4691380D01*
Y3359870D01*
X4805680Y3357330D01*
Y3216440D01*
X5028020Y2994100D01*
G01X11105940Y269240D02*
X10995540D01*
X10515160Y749620D01*
X7848920D01*
X7569200Y469900D01*
X5580380D01*
G01X12455140Y269240D02*
X12298680D01*
X11772900Y795020D01*
X7815580D01*
X7581900Y561340D01*
X5651500D01*
G01X5567680Y269240D02*
X8407540D01*
G01X5656580Y360680D02*
X7528560D01*
X7866380Y698500D01*
X9179560D01*
X9608820Y269240D01*
X9756740D01*
G01X5673880Y3333100D02*
Y3566640D01*
X5207000Y4033520D01*
G01X5906980Y3210780D02*
Y3587540D01*
X5461000Y4033520D01*
G01X6088270Y2732810D02*
X6661150Y3305690D01*
Y4611370D01*
X6477000Y4795520D01*
G01Y4033520D02*
Y3414610D01*
X6056530Y2994140D01*
G01X6776720Y4371340D02*
Y4450820D01*
X6776100Y4451440D01*
Y4826000D01*
G01X7406640Y4307840D02*
X8054340D01*
G01X8389620Y4041140D02*
Y2892520D01*
X8795500Y2486640D01*
G01X8733880Y2994100D02*
X8492320Y3235660D01*
Y4700440D01*
X8389620Y4803140D01*
G01X8702150Y2732780D02*
X8849360Y2879990D01*
Y3075940D01*
X8540920Y3384380D01*
Y4700440D01*
X8643620Y4803140D01*
G01X9700800Y2486670D02*
Y2572070D01*
X8643620Y3629250D01*
Y4041140D01*
G01X8897620D02*
X9379740Y3559020D01*
Y3333100D01*
G01X10167620Y4041140D02*
Y3399370D01*
X9762390Y2994140D01*
G01X9612840Y3210780D02*
Y3579920D01*
X9151620Y4041140D01*
G01X9794130Y2732810D02*
X10345420Y3284100D01*
Y4625340D01*
X10167620Y4803140D01*
G01X11099800Y4030980D02*
Y2953480D01*
X11566640Y2486640D01*
G01X11473290Y2732780D02*
X11620500Y2879990D01*
Y3060700D01*
X11251100Y3430100D01*
Y4690280D01*
X11353800Y4792980D01*
G01X11099800D02*
X11205700Y4687080D01*
Y3293420D01*
X11505020Y2994100D01*
G01X12471940Y2486670D02*
Y2572070D01*
X11353800Y3690210D01*
Y4030980D01*
G01X11607800D02*
X12150880Y3487900D01*
Y3333100D01*
G01X12383980Y3210780D02*
Y3508800D01*
X11861800Y4030980D01*
G01X12565270Y2732810D02*
X13055600Y3223140D01*
Y4615180D01*
X12877800Y4792980D01*
G01Y4030980D02*
Y3338410D01*
X12533530Y2994140D01*
G01X14874240Y4033520D02*
Y2879820D01*
X15267420Y2486640D01*
G01X15128240Y4795520D02*
X15025540Y4692820D01*
Y3353900D01*
X15331440Y3048000D01*
Y2890150D01*
X15174070Y2732780D01*
G01X15205800Y2994100D02*
X14980920Y3218980D01*
Y3334310D01*
X14976160Y3339070D01*
Y3990190D01*
X14976940Y3990970D01*
Y4076070D01*
X14976160Y4076850D01*
Y4693600D01*
X14874240Y4795520D01*
G01X16172720Y2486670D02*
Y2572070D01*
X15128240Y3616550D01*
Y4033520D01*
G01X15382240D02*
X15851660Y3564100D01*
Y3333100D01*
G01X16084760Y3210780D02*
Y3585000D01*
X15636240Y4033520D01*
G01X16266050Y2732810D02*
X16835120Y3301880D01*
Y4612640D01*
X16652240Y4795520D01*
G01Y4033520D02*
Y3412070D01*
X16234310Y2994140D01*
G01X17597120Y4020820D02*
Y2928080D01*
X18038560Y2486640D01*
G01X17976940Y2994100D02*
X17703020Y3268020D01*
Y4676920D01*
X17597120Y4782820D01*
G01X17945210Y2732780D02*
X18102580Y2890150D01*
Y3058160D01*
X17748420Y3412320D01*
Y4063370D01*
X17749520Y4064470D01*
Y4681220D01*
X17851120Y4782820D01*
G01X18943860Y2486670D02*
Y2572070D01*
X17851120Y3664810D01*
Y4020820D01*
G01X18622800Y3333100D02*
Y3503140D01*
X18105120Y4020820D01*
G01X18855900Y3210780D02*
Y3524040D01*
X18359120Y4020820D01*
G01X19375120Y4782820D02*
X19504660Y4653280D01*
Y3200280D01*
X19037190Y2732810D01*
G01X19375120Y4020820D02*
Y3363810D01*
X19005450Y2994140D01*
G54D25*
X18811240Y973180D03*
G54D16*
X1917720Y4787900D03*
X4699000Y4795520D03*
X8389620Y4803140D03*
X11099800Y4792980D03*
X14874240Y4795520D03*
X17597120Y4782820D03*
G54D35*
G01X2933720Y3937180D02*
Y4025900D01*
G01D02*
Y4114620D01*
G01X2845000Y4025900D02*
X2933720D01*
G01D02*
X3022440D01*
G01X5715000Y3944800D02*
Y4033520D01*
G01D02*
Y4122240D01*
G01X5626280Y4033520D02*
X5715000D01*
G01D02*
X5803720D01*
G01X7272020Y2720360D02*
Y2799080D01*
G01D02*
Y2877800D01*
G01X7193300Y2799080D02*
X7272020D01*
G01D02*
X7350740D01*
G01X8857540Y165520D02*
Y269240D01*
G01D02*
Y372960D01*
G01X8753820Y269240D02*
X8857540D01*
G01D02*
X8961260D01*
G01X9405620Y3952420D02*
Y4041140D01*
G01D02*
Y4129860D01*
G01X9316900Y4041140D02*
X9405620D01*
G01D02*
X9494340D01*
G01X10206740Y165520D02*
Y269240D01*
G01D02*
Y372960D01*
G01X10103020Y269240D02*
X10206740D01*
G01D02*
X10310460D01*
G01X11555940Y165520D02*
Y269240D01*
G01D02*
Y372960D01*
G01X11452220Y269240D02*
X11555940D01*
G01D02*
X11659660D01*
G01X12115800Y3942260D02*
Y4030980D01*
G01D02*
Y4119700D01*
G01X12027080Y4030980D02*
X12115800D01*
G01D02*
X12204520D01*
G01X12905140Y165520D02*
Y269240D01*
G01D02*
Y372960D01*
G01X12801420Y269240D02*
X12905140D01*
G01D02*
X13008860D01*
G01X13670300Y2799080D02*
X13749020D01*
G01Y2720360D02*
Y2799080D01*
G01D02*
Y2877800D01*
G01Y2799080D02*
X13827740D01*
G01X15890240Y3944800D02*
Y4033520D01*
G01D02*
Y4122240D01*
G01X15801520Y4033520D02*
X15890240D01*
G01D02*
X15978960D01*
G01X16687260Y261960D02*
Y360680D01*
G01D02*
Y459400D01*
G01X16588540Y360680D02*
X16687260D01*
G01D02*
X16785980D01*
G01X18613120Y3932100D02*
Y4020820D01*
G01D02*
Y4109540D01*
G01X18524400Y4020820D02*
X18613120D01*
G01D02*
X18701840D01*
G01X19570960Y876300D02*
X19664680D01*
G01X19570940Y1663700D02*
X19679660D01*
G01X19918680Y782580D02*
Y876300D01*
G01X19664680Y782580D02*
Y876300D01*
G01X19918680D02*
Y970020D01*
G01X19824960Y876300D02*
X19918680D01*
G01D02*
X20012400D01*
G01X19664680D02*
Y970020D01*
G01Y876300D02*
X19758400D01*
G01X19679660Y1554980D02*
Y1663700D01*
G01D02*
Y1772420D01*
G01Y1663700D02*
X19788380D01*
G54D26*
X18811240Y1653180D03*
G54D17*
X2227690Y2732780D03*
X2321040Y2486640D03*
X2518080Y2312080D03*
X2408950Y3210750D03*
X2259420Y2994100D03*
X3029310Y2312100D03*
X3226340Y2486670D03*
X2773680Y2249080D03*
X3138380Y3210780D03*
X2905280Y3333100D03*
X2642040Y3333090D03*
X3319670Y2732810D03*
X3287930Y2994140D03*
X4996290Y2732780D03*
X5089640Y2486640D03*
X5177550Y3210750D03*
X5028020Y2994100D03*
X5797910Y2312100D03*
X5286680Y2312080D03*
X5542280Y2249080D03*
X5673880Y3333100D03*
X5410640Y3333090D03*
X5994940Y2486670D03*
X6088270Y2732810D03*
X6056530Y2994140D03*
X5906980Y3210780D03*
X7272020Y2799080D03*
X7526020D03*
X8702150Y2732780D03*
X8795500Y2486640D03*
X8992540Y2312080D03*
X9116500Y3333090D03*
X8883410Y3210750D03*
X8733880Y2994100D03*
X9503770Y2312100D03*
X9700800Y2486670D03*
X9794130Y2732810D03*
X9248140Y2249080D03*
X9762390Y2994140D03*
X9612840Y3210780D03*
X9379740Y3333100D03*
X11473290Y2732780D03*
X11566640Y2486640D03*
X11763680Y2312080D03*
X11654550Y3210750D03*
X11505020Y2994100D03*
X12274910Y2312100D03*
X12019280Y2249080D03*
X12383980Y3210780D03*
X12150880Y3333100D03*
X11887640Y3333090D03*
X12471940Y2486670D03*
X12565270Y2732810D03*
X12533530Y2994140D03*
X13749020Y2799080D03*
X14003020D03*
X15174070Y2732780D03*
X15267420Y2486640D03*
X15464460Y2312080D03*
X15720060Y2249080D03*
X15588420Y3333090D03*
X15355330Y3210750D03*
X15205800Y2994100D03*
X15975690Y2312100D03*
X16172720Y2486670D03*
X16266050Y2732810D03*
X16234310Y2994140D03*
X16084760Y3210780D03*
X15851660Y3333100D03*
X17945210Y2732780D03*
X18038560Y2486640D03*
X18235600Y2312080D03*
X18359560Y3333090D03*
X18126470Y3210750D03*
X17976940Y2994100D03*
X18746830Y2312100D03*
X18943860Y2486670D03*
X19037190Y2732810D03*
X18491200Y2249080D03*
X19005450Y2994140D03*
X18855900Y3210780D03*
X18622800Y3333100D03*
G54D36*
G01X980700Y1798320D02*
Y1462780D01*
G01X2382520Y400950D02*
X2723250D01*
G01X3573780Y1742440D02*
X3230880D01*
G01X6268720Y1490980D02*
Y1605280D01*
X6560260Y1896820D01*
X6562800D01*
X6609080Y1943100D01*
G01X8346440D02*
X6609080D01*
G01X8181340Y1628140D02*
Y1778000D01*
X8346440Y1943100D01*
G01D02*
X19062700D01*
X19638720Y2519120D01*
Y3472180D01*
G54D27*
X19410680Y876300D03*
G54D18*
X3860800Y1150620D03*
Y2532380D03*
X4191000Y1104900D03*
X5580380Y469900D03*
X5651500Y561340D03*
X5567680Y269240D03*
X5656580Y360680D03*
X6677660Y2611120D03*
X6776720Y4371340D03*
X6776100Y4826000D03*
X7406640Y4307840D03*
X8054340D03*
G54D37*
G01X1052480Y3817620D02*
Y1853280D01*
X1590040Y1315720D01*
G01X1109980Y4889500D02*
Y3888740D01*
X1109450Y3888210D01*
Y3874590D01*
X1052480Y3817620D01*
G01X1109980Y4889500D02*
X1219200Y4998720D01*
X2722900D01*
X2933720Y4787900D01*
G01X1590040Y1315720D02*
X2181860D01*
G01D02*
X2707640D01*
G01X5715000Y4795520D02*
X5524500Y4986020D01*
X3131840D01*
X2933720Y4787900D01*
G01X6802120Y4986020D02*
X5905500D01*
X5715000Y4795520D01*
G01X6985000Y4434840D02*
X6885940Y4533900D01*
Y4902200D01*
X6802120Y4986020D01*
G01X9405620Y4803140D02*
X9222740Y4986020D01*
X6802120D01*
G01X12115800Y4792980D02*
X11925300Y4983480D01*
X9585960D01*
X9405620Y4803140D01*
G01X12115800Y4792980D02*
X12301220Y4978400D01*
X13093700D01*
G01X13498830Y4466590D02*
X13093700Y4871720D01*
Y4978400D01*
G01D02*
X15707360D01*
X15890240Y4795520D01*
G01X18613120Y4782820D02*
X18422620Y4973320D01*
X16068040D01*
X15890240Y4795520D01*
G01X20424140Y2857500D02*
X19954240Y3327400D01*
Y4490720D01*
X19474180Y4970780D01*
X18801080D01*
X18613120Y4782820D01*
G54D28*
X19664680Y876300D03*
X19918680D03*
G54D19*
X5321300Y1450280D03*
Y970280D03*
G54D29*
X19679660Y1663700D03*
M02*
