G04 ================== begin FILE IDENTIFICATION RECORD ==================*
G04 Layout Name:  NixieTubeBoard_v1_1.brd*
G04 Film Name:    ETCH_BOTTOM*
G04 File Format:  Gerber RS274X*
G04 File Origin:  Cadence Allegro 17.2-S058*
G04 Origin Date:  Wed Feb 19 18:26:59 2020*
G04 *
G04 Layer:  VIA CLASS/BOTTOM*
G04 Layer:  PIN/BOTTOM*
G04 Layer:  ETCH/BOTTOM*
G04 *
G04 Offset:    (0.0000 0.0000)*
G04 Mirror:    No*
G04 Mode:      Positive*
G04 Rotation:  0*
G04 FullContactRelief:  No*
G04 UndefLineWidth:     0.0000*
G04 ================== end FILE IDENTIFICATION RECORD ====================*
%FSLAX35Y35*MOMM*%
%IR0*IPPOS*OFA0.00000B0.00000*MIA0B0*SFA1.00000B1.00000*%
%ADD18O,.6X2.*%
%ADD15O,2.X.6*%
%ADD53R,1.X.8*%
%ADD25O,.3X1.8*%
%ADD24O,1.8X.3*%
%ADD27R,1.6X.7*%
%ADD56R,.85X2.*%
%ADD54R,1.6X.35*%
%ADD12R,.65X1.5*%
%ADD20C,.5*%
%ADD30O,1.825X.6*%
%ADD19C,.6*%
%ADD26C,.7*%
%ADD16C,.9*%
%ADD13C,.75*%
%ADD39O,2.575X.75*%
%ADD51R,2.X1.*%
%ADD57R,3.2X2.*%
%ADD48R,1.4X1.2*%
%ADD36R,5.X3.*%
%ADD55R,1.2X1.4*%
%ADD52R,2.X1.5*%
%ADD11R,3.5X2.*%
%AMMACRO28*
4,1,12,-2.847,.3246,
-2.847,-.3753,
-.553,-.3753,
-.553,-.5,
-.053,-1.,
2.347,-1.,
2.847,-.5,
2.847,.5001,
2.347,1.0001,
-.053,1.0001,
-.553,.5001,
-.553,.3246,
-2.847,.3246,
0.0*
%
%ADD28MACRO28*%
%ADD14R,3.5X1.2*%
%ADD34R,4.X2.5*%
%ADD33R,2.5X1.5*%
%ADD35C,1.1*%
%ADD23C,1.2*%
%ADD29C,1.3*%
%ADD31C,2.3*%
%ADD21C,1.4*%
%ADD45C,1.5*%
%ADD38C,1.6*%
%ADD49R,1.27X1.524*%
%ADD32C,1.7*%
%ADD46C,1.8*%
%ADD43C,1.35*%
%ADD10C,4.5*%
%AMMACRO50*
4,1,8,.635,.512,
.635,-.512,
.385,-.762,
-.385,-.762,
-.635,-.512,
-.635,.512,
-.385,.762,
.385,.762,
.635,.512,
0.0*
%
%ADD50MACRO50*%
%ADD41R,1.34X2.295*%
%ADD22R,1.4X1.4*%
%ADD44R,1.5X1.5*%
%ADD37R,1.6X1.6*%
%ADD47R,1.8X1.8*%
%ADD42R,1.35X1.35*%
%ADD17R,1.27X1.27*%
%ADD40R,5.54X5.985*%
%ADD58C,.2032*%
%ADD59C,.254*%
%ADD60C,.508*%
%ADD61C,.4064*%
%ADD62C,.3048*%
%ADD63C,.4572*%
%ADD76C,2.0544*%
%ADD68C,2.2084*%
%ADD73O,1.1084X2.5084*%
%ADD65C,5.0084*%
%ADD69C,1.4544*%
%ADD74C,1.5068*%
%ADD72C,1.6544*%
%ADD70C,1.7084*%
%ADD75C,1.7544*%
%ADD71C,1.9084*%
%ADD67C,2.8084*%
%ADD64C,1.8544*%
%ADD66C,1.9544*%
G75*
%LPD*%
G75*
G36*
G01X20675040Y5560000D02*
G02X21235040Y5000000I0J-560000D01*
G01Y600000D01*
G02X20675040Y40000I-560000J0D01*
G01X600000D01*
G02X40000Y600000I0J560000D01*
G01Y5000000D01*
G02X600000Y5560000I560000J0D01*
G01X20675040D01*
G37*
%LPC*%
G75*
G36*
G01X19485680Y775880D02*
X19399190D01*
X19150340Y527040D01*
G02X19107330Y508640I-44461J44461D01*
G03X19095740Y496650I411J-11994D01*
G01Y464350D01*
G02X19070320Y438930I-25420J0D01*
G01X18943320D01*
G02X18917900Y464350I0J25420D01*
G01Y591350D01*
G02X18943320Y616770I25420J0D01*
G01X19006830D01*
G02X19050470Y634380I43640J-45268D01*
G01X19079830D01*
X19310260Y864810D01*
Y951300D01*
G02X19335680Y976720I25420J0D01*
G01X19485680D01*
G02X19511100Y951300I0J-25420D01*
G01Y801300D01*
G02X19485680Y775880I-25420J0D01*
G37*
G36*
G01X16770520Y1890180D02*
Y2190180D01*
G02X16795940Y2215600I25420J0D01*
G01X17295940D01*
G02X17321360Y2190180I0J-25420D01*
G01Y2100900D01*
X17325370Y2099480D01*
G02X17348920Y2084640I-20916J-59298D01*
G01X17683260Y1750310D01*
X17851880D01*
Y1986680D01*
G02X17877300Y2012100I25420J0D01*
G01X18431300D01*
G02X18456720Y1986680I0J-25420D01*
G01Y1750310D01*
X18466860D01*
G02X18511320Y1731890I0J-62866D01*
G01X18527160Y1716060D01*
X18742830D01*
G02X18811240Y1746100I68410J-62875D01*
G02Y1560260I0J-92920D01*
G02X18742830Y1590300I0J92915D01*
G01X18501110D01*
G02X18473910Y1596490I5J62879D01*
G03X18456720Y1585670I-5190J-10820D01*
G01Y1388180D01*
G02X18431300Y1362760I-25420J0D01*
G01X17877300D01*
G02X17851880Y1388180I0J25420D01*
G01Y1624550D01*
X17657210D01*
G02X17612750Y1642970I0J62866D01*
G01X17341840Y1913870D01*
G03X17321360Y1905380I-8481J-8487D01*
G01Y1890180D01*
G02X17295940Y1864760I-25420J0D01*
G01X16795940D01*
G02X16770520Y1890180I0J25420D01*
G37*
G36*
G01X15431800Y4688220D02*
X15457970D01*
X15543320Y4773570D01*
X15542690Y4776720D01*
G02X15540820Y4795520I93550J18798D01*
G02X15636240Y4700100I95420J0D01*
G02X15617440Y4701970I-2J95420D01*
G01X15614290Y4702600D01*
X15567050Y4655360D01*
G03X15575530Y4634880I8487J-8481D01*
G01X15912630D01*
X16051320Y4773570D01*
X16050690Y4776720D01*
G02X16048820Y4795520I93550J18798D01*
G02X16144240Y4700100I95420J0D01*
G02X16125440Y4701970I-2J95420D01*
G01X16122290Y4702600D01*
X15968900Y4549220D01*
G02X15933420Y4534520I-35480J35467D01*
G01X14276250D01*
X14275090Y4534010D01*
G02X14252690Y4529280I-22403J50689D01*
G01X14112690D01*
G02Y4640120I0J55420D01*
G01X14252690D01*
G02X14275090Y4635390I-3J-55419D01*
G01X14276250Y4634880D01*
X14510770D01*
G03X14519250Y4655360I-7J11999D01*
G01X14513090Y4661520D01*
X14276250D01*
X14275090Y4661010D01*
G02X14252690Y4656280I-22403J50689D01*
G01X14112690D01*
G02Y4767120I0J55420D01*
G01X14252690D01*
G02X14275090Y4762390I-3J-55419D01*
G01X14276250Y4761880D01*
X14508230D01*
G03X14516710Y4782360I-7J11999D01*
G01X14510550Y4788520D01*
X14276250D01*
X14275090Y4788010D01*
G02X14252690Y4783280I-22403J50689D01*
G01X14112690D01*
G02Y4894120I0J55420D01*
G01X14252690D01*
G02X14275090Y4889390I-3J-55419D01*
G01X14276250Y4888880D01*
X14531340D01*
G02X14566820Y4874180I0J-50167D01*
G01X14712150Y4728860D01*
X14778820D01*
Y4865520D01*
G02X14804240Y4890940I25420J0D01*
G01X14944240D01*
G02X14969660Y4865520I0J-25420D01*
G01Y4728860D01*
X15035770D01*
G03X15046100Y4746970I0J12001D01*
G02X15032820Y4795520I82138J48559D01*
G02X15223660I95420J0D01*
G02X15210380Y4746970I-95418J9D01*
G03X15220710Y4728860I10330J-6109D01*
G01X15244610D01*
X15289320Y4773570D01*
X15288690Y4776720D01*
G02X15286820Y4795520I93550J18798D01*
G02X15477660I95420J0D01*
G02X15426270Y4710870I-95413J0D01*
G03X15431800Y4688220I5534J-10649D01*
G37*
G36*
G01X7101520Y5133960D02*
X7038990D01*
X6921070Y5016040D01*
G03X6929550Y4995560I8487J-8481D01*
G01X7127160D01*
X7128020Y4995820D01*
G02X7144270Y4998260I16263J-52978D01*
G01X7284270D01*
G02Y4887420I0J-55420D01*
G01X7144270D01*
G02X7128020Y4889860I13J55418D01*
G01X7127160Y4890120D01*
X6915340D01*
X6856650Y4831430D01*
G02X6851810Y4827150I-37279J37280D01*
G01X6834280Y4809620D01*
X6833840Y4808200D01*
G02X6776100Y4765580I-57740J17802D01*
G02X6715680Y4826000I0J60420D01*
G02X6758300Y4883740I60422J0D01*
G01X6759720Y4884180D01*
X6781530Y4905990D01*
G02X6784040Y4908340I37269J-37291D01*
G03X6781810Y4918590I-3960J4506D01*
G02X6731700Y4986020I20313J67430D01*
G02X6778810Y5052470I70420J0D01*
G01X6780100Y5052920D01*
X6968480Y5241300D01*
G02X7012940Y5259720I44460J-44446D01*
G01X7214270D01*
G02X7243980Y5252260I0J-62891D01*
G01X7284270D01*
G02Y5141420I0J-55420D01*
G01X7243980D01*
G02X7233500Y5136970I-29716J55417D01*
G01X7229330Y5135630D01*
Y5125260D01*
X7284270D01*
G02X7306670Y5120530I-3J-55419D01*
G01X7307830Y5120020D01*
X7340130D01*
X7556580Y5336460D01*
G02X7592060Y5351160I35480J-35467D01*
G01X12115800D01*
G02X12151280Y5336460I0J-50167D01*
G01X12601850Y4885900D01*
X12605000Y4886530D01*
G02X12623800Y4888400I18798J-93550D01*
G02X12528380Y4792980I0J-95420D01*
G02X12530250Y4811780I95420J2D01*
G01X12530880Y4814930D01*
X12095010Y5250800D01*
X11995200D01*
X11992070Y5239680D01*
G02X12001420Y5232320I-26143J-42830D01*
G01X12347850Y4885900D01*
X12351000Y4886530D01*
G02X12369800Y4888400I18798J-93550D01*
G02X12274380Y4792980I0J-95420D01*
G02X12276250Y4811780I95420J2D01*
G01X12276880Y4814930D01*
X11945150Y5146660D01*
X7804330D01*
X7803170Y5146150D01*
G02X7780770Y5141420I-22403J50689D01*
G01X7640770D01*
G02X7585390Y5194820I0J55417D01*
G03X7564910Y5202860I-11991J-442D01*
G01X7396400Y5034360D01*
G02X7360920Y5019660I-35480J35467D01*
G01X7307830D01*
X7306670Y5019150D01*
G02X7284270Y5014420I-22403J50689D01*
G01X7144270D01*
G02X7088850Y5069840I0J55420D01*
G02X7109120Y5112680I55417J-6D01*
G03X7101520Y5133960I-7612J9279D01*
G37*
G36*
G01X14252690Y5037280D02*
X14112690D01*
G02Y5148120I0J55420D01*
G01X14252690D01*
G02X14275090Y5143390I-3J-55419D01*
G01X14276250Y5142880D01*
X18049240D01*
G02X18084720Y5128180I0J-50167D01*
G01X18337170Y4875740D01*
X18340320Y4876370D01*
G02X18359120Y4878240I18798J-93550D01*
G02X18263700Y4782820I0J-95420D01*
G02X18265570Y4801620I95420J2D01*
G01X18266200Y4804770D01*
X18028450Y5042520D01*
X14276250D01*
X14275090Y5042010D01*
G02X14252690Y5037280I-22403J50689D01*
G37*
G36*
G01X7780770Y5014420D02*
X7640770D01*
G02Y5125260I0J55420D01*
G01X7780770D01*
G02X7803170Y5120530I-3J-55419D01*
G01X7804330Y5120020D01*
X11584940D01*
G02X11620420Y5105320I0J-50167D01*
G01X11839850Y4885900D01*
X11843000Y4886530D01*
G02X11861800Y4888400I18798J-93550D01*
G02X11766380Y4792980I0J-95420D01*
G02X11768250Y4811780I95420J2D01*
G01X11768880Y4814930D01*
X11564150Y5019660D01*
X7804330D01*
X7803170Y5019150D01*
G02X7780770Y5014420I-22403J50689D01*
G37*
G36*
G01X14252690Y4910280D02*
X14112690D01*
G02Y5021120I0J55420D01*
G01X14252690D01*
G02X14275090Y5016390I-3J-55419D01*
G01X14276250Y5015880D01*
X17922240D01*
G02X17957720Y5001180I0J-50167D01*
G01X18083170Y4875740D01*
X18086320Y4876370D01*
G02X18105120Y4878240I18798J-93550D01*
G02X18009700Y4782820I0J-95420D01*
G02X18011570Y4801620I95420J2D01*
G01X18012200Y4804770D01*
X17901450Y4915520D01*
X14276250D01*
X14275090Y4915010D01*
G02X14252690Y4910280I-22403J50689D01*
G37*
G36*
G01X16302820Y4795520D02*
G02X16398240Y4700100I95420J0D01*
G02X16379440Y4701970I-2J95420D01*
G01X16376290Y4702600D01*
X16095900Y4422220D01*
G02X16060420Y4407520I-35480J35467D01*
G01X14276250D01*
X14275090Y4407010D01*
G02X14252690Y4402280I-22403J50689D01*
G01X14112690D01*
G02Y4513120I0J55420D01*
G01X14252690D01*
G02X14275090Y4508390I-3J-55419D01*
G01X14276250Y4507880D01*
X16039630D01*
X16305320Y4773570D01*
X16304690Y4776720D01*
G02X16302820Y4795520I93550J18798D01*
G37*
G36*
G01X20223890Y4347860D02*
X20270130D01*
G02X20312790Y4330190I-5J-60342D01*
G01X20314410Y4328570D01*
G02X20326690Y4310820I-42682J-42652D01*
G01X20327140Y4309830D01*
X20695110Y3941860D01*
X20697290Y3941680D01*
G02X20720530Y3916350I-2184J-25330D01*
G01Y3716350D01*
G02X20695110Y3690930I-25420J0D01*
G01X20610110D01*
G02X20584690Y3716350I0J25420D01*
G01Y3881620D01*
X20239130Y4227180D01*
X20223890D01*
X20223400Y4221720D01*
G02X20198080Y4198600I-25320J2305D01*
G01X20071080D01*
G02X20045760Y4221720I0J25425D01*
G01X20045270Y4227180D01*
X19955240D01*
X19955020Y4227160D01*
G02X19950580Y4227000I-4392J60182D01*
G01X19943440D01*
X19942460Y4222210D01*
G02X19917560Y4201920I-24900J5134D01*
G01X19830290D01*
X19811030Y4182660D01*
X19810590Y4181240D01*
G02X19796870Y4158510I-52783J16354D01*
G01X19693980Y4055610D01*
Y3502270D01*
G02X19701640Y3472180I-55270J-30090D01*
G02X19575800I-62920J0D01*
G02X19583460Y3502270I62930J0D01*
G01Y4078500D01*
G02X19599650Y4117570I55257J-8D01*
G01X19704570Y4222500D01*
X19705010Y4223920D01*
G02X19718730Y4246650I52783J-16354D01*
G01X19752140Y4280070D01*
Y4347340D01*
G02X19777560Y4372760I25420J0D01*
G01X19917560D01*
G02X19942430Y4352580I0J-25415D01*
G03X19948530Y4347820I5872J1236D01*
G02X19950760Y4347860I2197J-60301D01*
G01X20045270D01*
X20045760Y4353320D01*
G02X20071080Y4376440I25320J-2305D01*
G01X20198080D01*
G02X20223400Y4353320I0J-25425D01*
G01X20223890Y4347860D01*
G37*
G36*
G01X18438110Y3263470D02*
X18544260D01*
G03X18553930Y3282570I-4J12000D01*
G02X18537380Y3333100I68863J50530D01*
G02X18622800Y3418520I85420J0D01*
G02X18707320Y3345460I0J-85419D01*
G03X18727680Y3338720I11872J1742D01*
G01X18738200Y3349240D01*
Y3690620D01*
G02X18753640Y3727900I52726J0D01*
G01X19027560Y4001820D01*
X19027040Y4004870D01*
G02X19025700Y4020790I94081J15935D01*
G01Y4020820D01*
G02X19121120Y3925400I95420J0D01*
G01X19121090D01*
G02X19105170Y3926740I15J95421D01*
G01X19102120Y3927260D01*
X18843640Y3668780D01*
Y3327400D01*
G02X18841250Y3311720I-52718J13D01*
G03X18853100Y3296150I11458J-3574D01*
G02X18855900Y3296200I2925J-85368D01*
G02Y3125360I0J-85420D01*
G02X18770710Y3204560I0J85417D01*
G03X18750250Y3212180I-11971J-865D01*
G01X18711550Y3173470D01*
G02X18674270Y3158030I-37280J37286D01*
G01X18193680D01*
G02X18126470Y3125330I-67210J52720D01*
G02Y3296170I0J85420D01*
G02X18193680Y3263470I0J-85420D01*
G01X18281010D01*
G03X18290680Y3282570I-3J11999D01*
G02X18274140Y3333090I68884J50520D01*
G02X18306840Y3400300I85420J0D01*
G01Y3513260D01*
G02X18322280Y3550540I52726J0D01*
G01X18773560Y4001820D01*
X18773040Y4004870D01*
G02X18771700Y4020790I94081J15935D01*
G01Y4020820D01*
G02X18867120Y3925400I95420J0D01*
G01X18867090D01*
G02X18851170Y3926740I15J95421D01*
G01X18848120Y3927260D01*
X18412280Y3491420D01*
Y3400300D01*
G02X18444980Y3333090I-52720J-67210D01*
G02X18428440Y3282570I-85424J0D01*
G03X18438110Y3263470I9673J-7101D01*
G37*
G36*
G01X13917600Y2799080D02*
G02X14088440I85420J0D01*
G02X14065900Y2741260I-85430J0D01*
G01Y2689860D01*
G02X14047480Y2645400I-62866J0D01*
G01X13870020Y2467930D01*
Y2401000D01*
G02X13844600Y2375580I-25420J0D01*
G01X13782030D01*
X13781250Y2375370D01*
G02X13764600Y2373120I-16670J60627D01*
G02X13747950Y2375370I20J62877D01*
G01X13747170Y2375580D01*
X13684600D01*
G02X13659180Y2401000I0J25420D01*
G01Y2471000D01*
G02X13684600Y2496420I25420J0D01*
G01X13720650D01*
X13940140Y2715910D01*
Y2741220D01*
X13938660Y2742920D01*
G02X13917600Y2799080I64350J56160D01*
G37*
G36*
G01X13906480Y1816100D02*
Y1943110D01*
G02X13908650Y1953380I25421J-7D01*
G01X13910310Y1957140D01*
X13791870Y2075580D01*
X13684600D01*
G02X13659180Y2101000I0J25420D01*
G01Y2171000D01*
G02X13684600Y2196420I25420J0D01*
G01X13844600D01*
G02X13870020Y2171000I0J-25420D01*
G01Y2153730D01*
X14034470Y1989270D01*
G02X14046120Y1972140I-39057J-39089D01*
G01X14047680Y1968520D01*
X14058900D01*
G02X14084320Y1943100I0J-25420D01*
G01Y1816100D01*
G02X14058900Y1790680I-25420J0D01*
G01X13931900D01*
G02X13906480Y1816100I0J25420D01*
G37*
G36*
G01X20812760Y1750080D02*
X20939760D01*
G02X20965180Y1724660I0J-25420D01*
G01Y1572260D01*
G02X20939760Y1546840I-25420J0D01*
G01X20812760D01*
G02X20787340Y1572260I0J25420D01*
G01Y1595460D01*
X20781960Y1596020D01*
G02X20772020Y1598020I5381J52444D01*
G01X20771170Y1598280D01*
X20711180D01*
Y1587500D01*
G02X20685760Y1562080I-25420J0D01*
G01X20558760D01*
G02X20533340Y1587500I0J25420D01*
G01Y1714500D01*
G02X20558760Y1739920I25420J0D01*
G01X20685760D01*
G02X20711180Y1714500I0J-25420D01*
G01Y1703720D01*
X20787340D01*
Y1724660D01*
G02X20812760Y1750080I25420J0D01*
G37*
G36*
G01X17832880Y905680D02*
Y1135180D01*
G02X17858300Y1160600I25420J0D01*
G01X17992300D01*
G02X18017720Y1135180I0J-25420D01*
G01Y905680D01*
G02X17993820Y880310I-25415J0D01*
G03X17988180Y874320I361J-5990D01*
G01Y779290D01*
G02X17976970Y743460I-62866J0D01*
G03X17984660Y724820I9861J-6838D01*
G02X18036180Y662940I-11402J-61880D01*
G02X17973260Y600020I-62920J0D01*
G01X17790760D01*
G02X17788620Y600060I106J62918D01*
G01X17673490D01*
X17602220Y528790D01*
Y465300D01*
G02X17576800Y439880I-25420J0D01*
G01X17449800D01*
G02X17424380Y465300I0J25420D01*
G01Y592300D01*
G02X17449800Y617720I25420J0D01*
G01X17513290D01*
X17602980Y707400D01*
G02X17647440Y725820I44460J-44446D01*
G01X17788620D01*
G02X17790760Y725860I2246J-62878D01*
G01X17819130D01*
Y736000D01*
G02X17837550Y780460I62866J0D01*
G01X17862420Y805340D01*
Y874320D01*
G03X17856780Y880310I-6001J0D01*
G02X17832880Y905680I1515J25370D01*
G37*
G36*
G01X20827390Y3716350D02*
Y3916350D01*
G02X20840110Y3929070I12720J0D01*
G01X20925110D01*
G02X20937830Y3916350I0J-12720D01*
G01Y3716350D01*
G02X20925110Y3703630I-12720J0D01*
G01X20840110D01*
G02X20827390Y3716350I0J12720D01*
G37*
G36*
G01X18318260Y332160D02*
X18500760D01*
G02Y231720I0J-50220D01*
G01X18318260D01*
G02Y332160I0J50220D01*
G37*
G36*
G01X17790760Y586160D02*
X17973260D01*
G02Y485720I0J-50220D01*
G01X17790760D01*
G02Y586160I0J50220D01*
G37*
G36*
G01Y459160D02*
X17973260D01*
G02Y358720I0J-50220D01*
G01X17790760D01*
G02Y459160I0J50220D01*
G37*
G36*
G01X7144270Y4858560D02*
X7284270D01*
G02Y4773120I0J-42720D01*
G01X7144270D01*
G02Y4858560I0J42720D01*
G37*
G36*
G01X13616190Y4881420D02*
X13756190D01*
G02Y4795980I0J-42720D01*
G01X13616190D01*
G02Y4881420I0J42720D01*
G37*
G36*
G01X14112690Y4373420D02*
X14252690D01*
G02Y4287980I0J-42720D01*
G01X14112690D01*
G02Y4373420I0J42720D01*
G37*
G36*
G01X17501700Y4712820D02*
Y4852820D01*
G02X17527120Y4878240I25420J0D01*
G01X17667120D01*
G02X17692540Y4852820I0J-25420D01*
G01Y4712820D01*
G02X17667120Y4687400I-25420J0D01*
G01X17527120D01*
G02X17501700Y4712820I0J25420D01*
G37*
G36*
G01X6791400Y426260D02*
X6913900D01*
G02Y340820I0J-42720D01*
G01X6791400D01*
G02Y426260I0J42720D01*
G37*
G36*
G01X7741900Y807260D02*
X7864400D01*
G02Y721820I0J-42720D01*
G01X7741900D01*
G02Y807260I0J42720D01*
G37*
G36*
G01X6791400Y680260D02*
X6913900D01*
G02Y594820I0J-42720D01*
G01X6791400D01*
G02Y680260I0J42720D01*
G37*
G36*
G01Y553260D02*
X6913900D01*
G02Y467820I0J-42720D01*
G01X6791400D01*
G02Y553260I0J42720D01*
G37*
G36*
G01X7741900Y1327960D02*
X7864400D01*
G02Y1217120I0J-55420D01*
G01X7741900D01*
G02Y1327960I0J55420D01*
G37*
G36*
G01X17208480Y465300D02*
Y592300D01*
G02X17221200Y605020I12720J0D01*
G01X17348200D01*
G02X17360920Y592300I0J-12720D01*
G01Y465300D01*
G02X17348200Y452580I-12720J0D01*
G01X17221200D01*
G02X17208480Y465300I0J12720D01*
G37*
G36*
G01X20832490Y1813540D02*
X20800040Y1845990D01*
Y1958930D01*
X20832490Y1991380D01*
X20920030D01*
X20952480Y1958930D01*
Y1845990D01*
X20920030Y1813540D01*
X20832490D01*
G37*
G36*
G01X19764840Y3887340D02*
Y4007340D01*
G02X19777560Y4020060I12720J0D01*
G01X19917560D01*
G02X19930280Y4007340I0J-12720D01*
G01Y3887340D01*
G02X19917560Y3874620I-12720J0D01*
G01X19777560D01*
G02X19764840Y3887340I0J12720D01*
G37*
G36*
G01X20689060Y3232000D02*
Y3372000D01*
G02X20701780Y3384720I12720J0D01*
G01X20821780D01*
G02X20834500Y3372000I0J-12720D01*
G01Y3232000D01*
G02X20821780Y3219280I-12720J0D01*
G01X20701780D01*
G02X20689060Y3232000I0J12720D01*
G37*
G36*
G01X20058360Y3995420D02*
Y4122420D01*
G02X20071080Y4135140I12720J0D01*
G01X20198080D01*
G02X20210800Y4122420I0J-12720D01*
G01Y3995420D01*
G02X20198080Y3982700I-12720J0D01*
G01X20071080D01*
G02X20058360Y3995420I0J12720D01*
G37*
G36*
G01X6200120Y675640D02*
Y802640D01*
G02X6212840Y815360I12720J0D01*
G01X6339840D01*
G02X6352560Y802640I0J-12720D01*
G01Y675640D01*
G02X6339840Y662920I-12720J0D01*
G01X6212840D01*
G02X6200120Y675640I0J12720D01*
G37*
G36*
G01X20573980Y3497580D02*
Y3624580D01*
G02X20586700Y3637300I12720J0D01*
G01X20713700D01*
G02X20726420Y3624580I0J-12720D01*
G01Y3497580D01*
G02X20713700Y3484860I-12720J0D01*
G01X20586700D01*
G02X20573980Y3497580I0J12720D01*
G37*
G36*
G01X20827750Y2464600D02*
Y2564600D01*
G02X20853170Y2590020I25420J0D01*
G01X21053170D01*
G02X21078590Y2564600I0J-25420D01*
G01Y2464600D01*
G02X21053170Y2439180I-25420J0D01*
G01X20853170D01*
G02X20827750Y2464600I0J25420D01*
G37*
G36*
G01Y2642400D02*
Y2742400D01*
G02X20853170Y2767820I25420J0D01*
G01X21053170D01*
G02X21078590Y2742400I0J-25420D01*
G01Y2642400D01*
G02X21053170Y2616980I-25420J0D01*
G01X20853170D01*
G02X20827750Y2642400I0J25420D01*
G37*
G36*
G01X20828750Y2166000D02*
Y2316000D01*
G02X20854170Y2341420I25420J0D01*
G01X21054170D01*
G02X21079590Y2316000I0J-25420D01*
G01Y2166000D01*
G02X21054170Y2140580I-25420J0D01*
G01X20854170D01*
G02X20828750Y2166000I0J25420D01*
G37*
G36*
G01Y2891000D02*
Y3041000D01*
G02X20854170Y3066420I25420J0D01*
G01X21054170D01*
G02X21079590Y3041000I0J-25420D01*
G01Y2891000D01*
G02X21054170Y2865580I-25420J0D01*
G01X20854170D01*
G02X20828750Y2891000I0J25420D01*
G37*
G36*
G01X20607750Y2321000D02*
Y2401000D01*
G02X20633170Y2426420I25420J0D01*
G01X20733170D01*
G02X20758590Y2401000I0J-25420D01*
G01Y2321000D01*
G02X20733170Y2295580I-25420J0D01*
G01X20633170D01*
G02X20607750Y2321000I0J25420D01*
G37*
G36*
G01X20467190Y4364050D02*
Y4564050D01*
G02X20492610Y4589470I25420J0D01*
G01X20812610D01*
G02X20838030Y4564050I0J-25420D01*
G01Y4364050D01*
G02X20812610Y4338630I-25420J0D01*
G01X20492610D01*
G02X20467190Y4364050I0J25420D01*
G37*
G36*
G01X17208480Y241300D02*
Y368300D01*
G02X17221200Y381020I12720J0D01*
G01X17348200D01*
G02X17360920Y368300I0J-12720D01*
G01Y241300D01*
G02X17348200Y228580I-12720J0D01*
G01X17221200D01*
G02X17208480Y241300I0J12720D01*
G37*
G36*
G01X18930600Y238760D02*
Y365760D01*
G02X18943320Y378480I12720J0D01*
G01X19070320D01*
G02X19083040Y365760I0J-12720D01*
G01Y238760D01*
G02X19070320Y226040I-12720J0D01*
G01X18943320D01*
G02X18930600Y238760I0J12720D01*
G37*
G36*
G01X67180Y3375240D02*
Y3575240D01*
G02X92600Y3600660I25420J0D01*
G01X442600D01*
G02X468020Y3575240I0J-25420D01*
G01Y3375240D01*
G02X442600Y3349820I-25420J0D01*
G01X92600D01*
G02X67180Y3375240I0J25420D01*
G37*
G36*
G01Y1509840D02*
Y1709840D01*
G02X92600Y1735260I25420J0D01*
G01X442600D01*
G02X468020Y1709840I0J-25420D01*
G01Y1509840D01*
G02X442600Y1484420I-25420J0D01*
G01X92600D01*
G02X67180Y1509840I0J25420D01*
G37*
G36*
G01X15733380Y819880D02*
Y1069880D01*
G02X15746100Y1082600I12720J0D01*
G01X16146100D01*
G02X16158820Y1069880I0J-12720D01*
G01Y819880D01*
G02X16146100Y807160I-12720J0D01*
G01X15746100D01*
G02X15733380Y819880I0J12720D01*
G37*
G36*
G01X7741900Y426260D02*
X7864400D01*
G02Y340820I0J-42720D01*
G01X7741900D01*
G02Y426260I0J42720D01*
G37*
G36*
G01X8947860Y941000D02*
Y1091000D01*
G02X8960580Y1103720I12720J0D01*
G01X9210580D01*
G02X9223300Y1091000I0J-12720D01*
G01Y941000D01*
G02X9210580Y928280I-12720J0D01*
G01X8960580D01*
G02X8947860Y941000I0J12720D01*
G37*
G36*
G01X6791400Y807260D02*
X6913900D01*
G02Y721820I0J-42720D01*
G01X6791400D01*
G02Y807260I0J42720D01*
G37*
G36*
G01X7741900Y680260D02*
X7864400D01*
G02Y594820I0J-42720D01*
G01X7741900D01*
G02Y680260I0J42720D01*
G37*
G36*
G01Y553260D02*
X7864400D01*
G02Y467820I0J-42720D01*
G01X7741900D01*
G02Y553260I0J42720D01*
G37*
G36*
G01X2994680Y1457960D02*
G02X2969260Y1432540I-25420J0D01*
G01X2958480D01*
Y1412430D01*
X2983680Y1387230D01*
G02X2999120Y1349950I-37286J-37280D01*
G01Y1237060D01*
X2999380Y1236200D01*
G02X3001820Y1219950I-52978J-16263D01*
G01Y1079950D01*
G02X2890980I-55420J0D01*
G01Y1219950D01*
G02X2893420Y1236200I55418J-13D01*
G01X2893680Y1237060D01*
Y1289470D01*
G03X2883440Y1293710I-5999J-3D01*
G01X2872120Y1282390D01*
Y1237060D01*
X2872380Y1236200D01*
G02X2874820Y1219950I-52978J-16263D01*
G01Y1079950D01*
G02X2763980I-55420J0D01*
G01Y1219950D01*
G02X2766420Y1236200I55418J-13D01*
G01X2766680Y1237060D01*
Y1248050D01*
G03X2747830Y1257900I-12001J-5D01*
G02X2743110Y1254890I-40192J57820D01*
G03X2740880Y1246800I3022J-5185D01*
G02X2747820Y1219950I-48470J-26850D01*
G01Y1079950D01*
G02X2636980I-55420J0D01*
G01Y1200810D01*
X2631060Y1206730D01*
G03X2620820Y1202490I-4241J-4243D01*
G01Y1079950D01*
G02X2509980I-55420J0D01*
G01Y1219950D01*
G02X2512420Y1236200I55418J-13D01*
G01X2512680Y1237060D01*
Y1365000D01*
X2440060Y1437620D01*
X2362200D01*
G02X2336780Y1463040I0J25420D01*
G01Y1540900D01*
X2306500Y1571180D01*
G03X2286020Y1562690I-8481J-8488D01*
G01Y1463040D01*
G02X2264950Y1438000I-25414J0D01*
G01X2259980Y1437130D01*
Y1427480D01*
G02X2244740Y1386440I-62879J0D01*
G01Y1347450D01*
X2245330Y1346220D01*
G02X2252280Y1315720I-63469J-30504D01*
G02X2181860Y1245300I-70420J0D01*
G01X2181850D01*
G02X2152520Y1251700I3J70421D01*
G03X2135520Y1240800I-5001J-10907D01*
G01Y1237060D01*
X2135780Y1236200D01*
G02X2138220Y1219950I-52978J-16263D01*
G01Y1079950D01*
G02X2027380I-55420J0D01*
G01Y1219950D01*
G02X2027790Y1226680I55420J1D01*
G03X2015880Y1240140I-11910J1460D01*
G01X2009560D01*
Y1233440D01*
X2009720Y1232750D01*
G02X2011220Y1219950I-53919J-12807D01*
G01Y1079950D01*
G02X1900380I-55420J0D01*
G01Y1219950D01*
G02X1902820Y1236200I55418J-13D01*
G01X1903080Y1237060D01*
Y1278910D01*
G02X1906170Y1296680I52723J-14D01*
G02X1905620Y1304250I52172J7596D01*
G01Y1440160D01*
X1894840D01*
G02X1869420Y1465580I0J25420D01*
G01Y1543440D01*
X1837440Y1575420D01*
X1818960D01*
Y1465580D01*
G02X1793240Y1439860I-25720J0D01*
G01X1789130D01*
G02X1774200Y1416040I-59393J20638D01*
G01X1658860Y1300690D01*
X1658460Y1299060D01*
G02X1590040Y1245300I-68420J16659D01*
G02X1519620Y1315720I0J70420D01*
G02X1558620Y1378740I70417J0D01*
G01X1559490Y1379180D01*
X1640990Y1460680D01*
G02X1640520Y1465570I25251J4895D01*
G01Y1575420D01*
X792480D01*
G02X755200Y1590860I0J52726D01*
G01X529140Y1816920D01*
G02X513700Y1854200I37286J37280D01*
G01Y4088040D01*
G02X529140Y4125320I52726J0D01*
G01X735160Y4331340D01*
G02X746380Y4339890I37277J-37281D01*
G01X747080Y4340290D01*
X765210Y4358420D01*
X765630Y4359210D01*
G02X814590Y4388660I48960J-25972D01*
G01X954590D01*
G02Y4277820I0J-55420D01*
G01X833730D01*
X825350Y4269440D01*
G03X833840Y4248960I8488J-8481D01*
G01X954590D01*
G02Y4163520I0J-42720D01*
G01X814590D01*
G02X773370Y4195030I0J42716D01*
G03X753300Y4200370I-11583J-3147D01*
G01X619140Y4066200D01*
Y3987320D01*
G03X639620Y3978830I11999J-2D01*
G01X765210Y4104420D01*
X765630Y4105210D01*
G02X814590Y4134660I48960J-25972D01*
G01X954590D01*
G02X970840Y4132220I-13J-55418D01*
G01X971700Y4131960D01*
X1009990D01*
G02X1047270Y4116520I0J-52726D01*
G01X1251400Y3912390D01*
G02X1266840Y3875110I-37286J-37280D01*
G01Y3867300D01*
X1274940D01*
X1276580Y3868600D01*
G02X1311090Y3880660I34514J-43358D01*
G01X1451090D01*
G02X1473490Y3875930I-3J-55419D01*
G01X1474650Y3875420D01*
X1510830D01*
X1516990Y3881580D01*
G03X1508510Y3902060I-8487J8481D01*
G01X1474650D01*
X1473490Y3901550D01*
G02X1451090Y3896820I-22403J50689D01*
G01X1311090D01*
G02Y4007660I0J55420D01*
G01X1451090D01*
G02X1473490Y4002930I-3J-55419D01*
G01X1474650Y4002420D01*
X1510830D01*
X1531500Y4023080D01*
X1525430Y4029150D01*
X1522850Y4029080D01*
G02X1521470Y4029060I-1417J50159D01*
G01X1474650D01*
X1473490Y4028550D01*
G02X1451090Y4023820I-22403J50689D01*
G01X1311090D01*
G02Y4134660I0J55420D01*
G01X1451090D01*
G02X1473490Y4129930I-3J-55419D01*
G01X1474650Y4129420D01*
X1500680D01*
X1506840Y4135580D01*
G03X1498360Y4156060I-8487J8481D01*
G01X1474650D01*
X1473490Y4155550D01*
G02X1451090Y4150820I-22403J50689D01*
G01X1311090D01*
G02Y4261660I0J55420D01*
G01X1451090D01*
G02X1473490Y4256930I-3J-55419D01*
G01X1474650Y4256420D01*
X1495600D01*
X1516380Y4277200D01*
X1510210Y4283380D01*
X1507480Y4283180D01*
G02X1503950Y4283060I-3469J50062D01*
G01X1474650D01*
X1473490Y4282550D01*
G02X1451090Y4277820I-22403J50689D01*
G01X1311090D01*
G02Y4388660I0J55420D01*
G01X1451090D01*
G02X1473490Y4383930I-3J-55419D01*
G01X1474650Y4383420D01*
X1483160D01*
X1489320Y4389580D01*
G03X1480840Y4410060I-8487J8481D01*
G01X1474650D01*
X1473490Y4409550D01*
G02X1451090Y4404820I-22403J50689D01*
G01X1311090D01*
G02Y4515660I0J55420D01*
G01X1451090D01*
G02X1473490Y4510930I-3J-55419D01*
G01X1474650Y4510420D01*
X1483160D01*
X1489320Y4516580D01*
G03X1480840Y4537060I-8487J8481D01*
G01X1474650D01*
X1473490Y4536550D01*
G02X1451090Y4531820I-22403J50689D01*
G01X1311090D01*
G02Y4642660I0J55420D01*
G01X1451090D01*
G02X1473490Y4637930I-3J-55419D01*
G01X1474650Y4637420D01*
X1483160D01*
X1595740Y4750000D01*
Y4859020D01*
G02X1610440Y4894500I50167J0D01*
G01X1682090Y4966160D01*
G03X1673610Y4986640I-8487J8481D01*
G01X1604820D01*
X1042930Y4424760D01*
G02X1007450Y4410060I-35480J35467D01*
G01X978150D01*
X976990Y4409550D01*
G02X954590Y4404820I-22403J50689D01*
G01X814590D01*
G02Y4515660I0J55420D01*
G01X869530D01*
Y4526030D01*
X865360Y4527370D01*
G02X854880Y4531820I19236J59867D01*
G01X814590D01*
G02Y4642660I0J55420D01*
G01X821710D01*
Y4664110D01*
G02X840130Y4708570I62866J0D01*
G01X1043080Y4911520D01*
X1043530Y4912810D01*
G02X1109980Y4959920I66450J-23310D01*
G02X1180400Y4889500I0J-70420D01*
G02X1133290Y4823050I-70420J0D01*
G01X1132000Y4822600D01*
X968660Y4659260D01*
G03X973130Y4639470I8488J-8483D01*
G02X1010010Y4587240I-18544J-52230D01*
G02X954590Y4531820I-55420J0D01*
G01X914300D01*
G02X903820Y4527370I-29716J55417D01*
G01X899650Y4526030D01*
Y4515660D01*
X954590D01*
G02X976990Y4510930I-3J-55419D01*
G01X978150Y4510420D01*
X986660D01*
X1548550Y5072300D01*
G02X1584030Y5087000I35480J-35467D01*
G01X3192800D01*
G02X3228280Y5072300I0J-50167D01*
G01X3419770Y4880820D01*
X3422920Y4881450D01*
G02X3441720Y4883320I18798J-93550D01*
G02X3537140Y4787900I0J-95420D01*
G02X3519470Y4732580I-95431J0D01*
G03X3529240Y4713620I9773J-6961D01*
G01X3608200D01*
G03X3617970Y4732580I-3J11999D01*
G02X3600300Y4787900I77761J55320D01*
G02X3791140I95420J0D01*
G02X3773470Y4732580I-95431J0D01*
G03X3783240Y4713620I9773J-6961D01*
G01X4604140D01*
Y4720190D01*
X4604030Y4720750D01*
G02X4603580Y4725500I24971J4762D01*
G01Y4865520D01*
G02X4629000Y4890940I25420J0D01*
G01X4769000D01*
G02X4794420Y4865520I0J-25420D01*
G01Y4725500D01*
G02X4793970Y4720750I-25421J12D01*
G01X4793860Y4720190D01*
Y4713620D01*
X4871440D01*
G03X4880550Y4733430I-3J12001D01*
G02X4857580Y4795520I72448J62096D01*
G02X5048420I95420J0D01*
G02X5025450Y4733430I-95418J6D01*
G03X5034560Y4713620I9113J-7809D01*
G01X5054130D01*
X5114080Y4773570D01*
X5113450Y4776720D01*
G02X5111580Y4795520I93550J18798D01*
G02X5207000Y4700100I95420J0D01*
G02X5188200Y4701970I-2J95420D01*
G01X5185050Y4702600D01*
X5176230Y4693780D01*
G03X5184710Y4673300I8487J-8481D01*
G01X5267810D01*
X5368080Y4773570D01*
X5367450Y4776720D01*
G02X5365580Y4795520I93550J18798D01*
G02X5461000Y4700100I95420J0D01*
G02X5442200Y4701970I-2J95420D01*
G01X5439050Y4702600D01*
X5389910Y4653460D01*
G03X5398390Y4632980I8487J-8481D01*
G01X5735490D01*
X5876080Y4773570D01*
X5875450Y4776720D01*
G02X5873580Y4795520I93550J18798D01*
G02X5969000Y4700100I95420J0D01*
G02X5950200Y4701970I-2J95420D01*
G01X5947050Y4702600D01*
X5857590Y4613140D01*
G03X5866070Y4592660I8487J-8481D01*
G01X5949170D01*
X6130080Y4773570D01*
X6129450Y4776720D01*
G02X6127580Y4795520I93550J18798D01*
G02X6223000Y4700100I95420J0D01*
G02X6204200Y4701970I-2J95420D01*
G01X6201050Y4702600D01*
X6005440Y4507000D01*
G02X5969960Y4492300I-35480J35467D01*
G01X2269650D01*
X1918730Y4141380D01*
G03X1926150Y4120950I8487J-8480D01*
G02X1986720Y4091810I-8433J-95048D01*
G01X1988490Y4089950D01*
X1997060D01*
Y4104640D01*
G02X2012500Y4141920I52726J0D01*
G01X2225860Y4355280D01*
G02X2263140Y4370720I37280J-37286D01*
G01X6366260D01*
X6721660Y4726120D01*
G02X6758940Y4741560I37280J-37286D01*
G01X7127160D01*
X7128020Y4741820D01*
G02X7144270Y4744260I16263J-52978D01*
G01X7284270D01*
G02X7333230Y4714810I0J-55422D01*
G01X7333650Y4714020D01*
X7576000Y4471670D01*
G02X7578710Y4468740I-37320J-37236D01*
G03X7597240Y4469140I9100J7823D01*
G02X7640770Y4490260I43530J-34299D01*
G01X7780770D01*
G02X7803170Y4485530I-3J-55419D01*
G01X7804330Y4485020D01*
X9524530D01*
X9820700Y4781190D01*
X9820070Y4784340D01*
G02X9818200Y4803140I93550J18798D01*
G02X9847570Y4872000I95409J0D01*
G03X9839260Y4892660I-8309J8659D01*
G01X9733980D01*
G03X9725670Y4872000I-1J-12001D01*
G02X9755040Y4803140I-66039J-68860D01*
G02X9659620Y4707720I-95420J0D01*
G02X9640820Y4709590I-2J95420D01*
G01X9637670Y4710220D01*
X9453800Y4526360D01*
G02X9418320Y4511660I-35480J35467D01*
G01X7804330D01*
X7803170Y4511150D01*
G02X7780770Y4506420I-22403J50689D01*
G01X7640770D01*
G02Y4617260I0J55420D01*
G01X7780770D01*
G02X7803170Y4612530I-3J-55419D01*
G01X7804330Y4612020D01*
X8117590D01*
G03X8126070Y4632500I-7J11999D01*
G01X8119910Y4638660D01*
X7804330D01*
X7803170Y4638150D01*
G02X7780770Y4633420I-22403J50689D01*
G01X7640770D01*
G02Y4744260I0J55420D01*
G01X7780770D01*
G02X7803170Y4739530I-3J-55419D01*
G01X7804330Y4739020D01*
X8104890D01*
G03X8113370Y4759500I-7J11999D01*
G01X8107210Y4765660D01*
X7804330D01*
X7803170Y4765150D01*
G02X7780770Y4760420I-22403J50689D01*
G01X7640770D01*
G02Y4871260I0J55420D01*
G01X7780770D01*
G02X7803170Y4866530I-3J-55419D01*
G01X7804330Y4866020D01*
X8128000D01*
G02X8163480Y4851320I0J-50167D01*
G01X8270710Y4744100D01*
X8294200D01*
Y4873140D01*
G02X8294720Y4878250I25419J-5D01*
G03X8282970Y4892660I-11756J2410D01*
G01X7804330D01*
X7803170Y4892150D01*
G02X7780770Y4887420I-22403J50689D01*
G01X7640770D01*
G02Y4998260I0J55420D01*
G01X7780770D01*
G02X7803170Y4993530I-3J-55419D01*
G01X7804330Y4993020D01*
X11457940D01*
G02X11493420Y4978320I0J-50167D01*
G01X11585850Y4885900D01*
X11589000Y4886530D01*
G02X11607800Y4888400I18798J-93550D01*
G02X11512380Y4792980I0J-95420D01*
G02X11514250Y4811780I95420J2D01*
G01X11514880Y4814930D01*
X11437150Y4892660D01*
X11415860D01*
G03X11408930Y4870870I2J-11998D01*
G02X11449220Y4792990I-55133J-77884D01*
G01Y4792980D01*
G02X11258380I-95420J0D01*
G01Y4792990D01*
G02X11298670Y4870870I95423J-4D01*
G03X11291740Y4892660I-6932J9792D01*
G01X11202770D01*
G03X11192200Y4874990I7J-12001D01*
G02X11195220Y4862980I-22398J-12017D01*
G01Y4722980D01*
G02X11169800Y4697560I-25420J0D01*
G01X11029800D01*
G02X11004380Y4722980I0J25420D01*
G01Y4862980D01*
G02X11007400Y4874990I25418J-7D01*
G03X10996830Y4892660I-10577J5669D01*
G01X10241980D01*
G03X10233670Y4872000I-1J-12001D01*
G02X10263040Y4803140I-66039J-68860D01*
G02X10072200I-95420J0D01*
G02X10101570Y4872000I95409J0D01*
G03X10093260Y4892660I-8309J8659D01*
G01X9987980D01*
G03X9979670Y4872000I-1J-12001D01*
G02X10009040Y4803140I-66039J-68860D01*
G02X9913620Y4707720I-95420J0D01*
G02X9894820Y4709590I-2J95420D01*
G01X9891670Y4710220D01*
X9580800Y4399360D01*
G02X9545320Y4384660I-35480J35467D01*
G01X7804330D01*
X7803170Y4384150D01*
G02X7780770Y4379420I-22403J50689D01*
G01X7640760D01*
G02X7610080Y4388690I5J55421D01*
G03X7591440Y4378700I-6641J-9993D01*
G01Y4347850D01*
G03X7611630Y4339080I11999J-1D01*
G02X7640770Y4350560I29140J-31243D01*
G01X7780770D01*
G02X7823490Y4307840I0J-42720D01*
G02X7817910Y4286730I-42721J0D01*
G03X7828340Y4268800I10432J-5930D01*
G01X7987160D01*
G03X7998290Y4285280I-2J12000D01*
G02X7993920Y4307840I56048J22560D01*
G02X8054340Y4368260I60420J0D01*
G01X8054350D01*
G02X8083860Y4360560I-6J-60421D01*
G01X12581640D01*
X12898900Y4677820D01*
G03X12889010Y4698220I-8485J8484D01*
G02X12877810Y4697560I-11204J94760D01*
G01X12877800D01*
G02X12973220Y4792980I0J95420D01*
G01Y4792970D01*
G02X12972560Y4781770I-95420J4D01*
G03X12992960Y4771880I11916J-1405D01*
G01X13108850Y4887760D01*
G03X13099390Y4908210I-8484J8488D01*
G02X13093710Y4907980I-5687J70190D01*
G01X13093700D01*
G02X13023280Y4978400I0J70420D01*
G02X13070390Y5044850I70420J0D01*
G01X13071680Y5045300D01*
X13290540Y5264160D01*
G02X13335000Y5282580I44460J-44446D01*
G01X13686190D01*
G02X13715900Y5275120I0J-62891D01*
G01X13756190D01*
G02Y5164280I0J-55420D01*
G01X13715900D01*
G02X13705420Y5159830I-29716J55417D01*
G01X13701250Y5158490D01*
Y5148120D01*
X13756190D01*
G02X13778590Y5143390I-3J-55419D01*
G01X13779750Y5142880D01*
X13791730D01*
X14005640Y5356780D01*
G02X14041120Y5371480I35480J-35467D01*
G01X18582640D01*
G02X18618120Y5356780I0J-50167D01*
G01X19099170Y4875740D01*
X19102320Y4876370D01*
G02X19121120Y4878240I18798J-93550D01*
G02X19025700Y4782820I0J-95420D01*
G02X19027570Y4801620I95420J2D01*
G01X19028200Y4804770D01*
X18561850Y5271120D01*
X18463300D01*
X18459770Y5260270D01*
G02X18465720Y5255180I-29544J-40559D01*
G01X18845170Y4875740D01*
X18848320Y4876370D01*
G02X18867120Y4878240I18798J-93550D01*
G02X18771700Y4782820I0J-95420D01*
G02X18773570Y4801620I95420J2D01*
G01X18774200Y4804770D01*
X18409450Y5169520D01*
X14276250D01*
X14275090Y5169010D01*
G02X14252690Y5164280I-22403J50689D01*
G01X14112690D01*
G02X14057270Y5219700I0J55420D01*
G02X14075380Y5260680I55421J0D01*
G01X14077340Y5262470D01*
Y5271120D01*
X14061910D01*
X13848000Y5057220D01*
G02X13812520Y5042520I-35480J35467D01*
G01X13779750D01*
X13778590Y5042010D01*
G02X13756190Y5037280I-22403J50689D01*
G01X13616190D01*
G02X13560770Y5092700I0J55420D01*
G02X13581040Y5135540I55417J-6D01*
G03X13573440Y5156820I-7612J9279D01*
G01X13361050D01*
X13242260Y5038030D01*
G03X13252710Y5017710I8484J-8484D01*
G02X13261330Y5018420I8623J-52011D01*
G01X13599080D01*
X13599940Y5018680D01*
G02X13616190Y5021120I16263J-52978D01*
G01X13756190D01*
G02Y4910280I0J-55420D01*
G01X13616190D01*
G02X13599940Y4912720I13J55418D01*
G01X13599080Y4912980D01*
X13283180D01*
X13155100Y4784900D01*
G03X13163590Y4764420I8488J-8481D01*
G01X13599080D01*
X13599940Y4764680D01*
G02X13616190Y4767120I16263J-52978D01*
G01X13756190D01*
G02Y4656280I0J-55420D01*
G01X13616190D01*
G02X13599940Y4658720I13J55418D01*
G01X13599080Y4658980D01*
X13123160D01*
X13111840Y4647660D01*
G03X13116080Y4637420I4243J-4241D01*
G01X13599080D01*
X13599940Y4637680D01*
G02X13616190Y4640120I16263J-52978D01*
G01X13756190D01*
G02Y4529280I0J-55420D01*
G01X13701250D01*
Y4518910D01*
X13705420Y4517570D01*
G02X13715900Y4513120I-19236J-59867D01*
G01X13756190D01*
G02Y4402280I0J-55420D01*
G01X13715900D01*
G02X13705420Y4397830I-29716J55417D01*
G01X13701250Y4396490D01*
Y4386120D01*
X13756190D01*
G02Y4275280I0J-55420D01*
G01X13616190D01*
G02X13560770Y4330700I0J55420D01*
G02X13581040Y4373540I55417J-6D01*
G03X13573440Y4394820I-7612J9279D01*
G01X13507720D01*
G02X13493990Y4396340I12J62879D01*
G02X13428410Y4466590I4836J70250D01*
G01Y4466600D01*
G02X13445180Y4512210I70422J-5D01*
G03X13436040Y4531980I-9141J7772D01*
G01X13090140D01*
X12691560Y4133400D01*
G02X12682730Y4126300I-37259J37297D01*
G03X12681900Y4106670I6473J-10106D01*
G02X12719220Y4030980I-58095J-75690D01*
G02X12623800Y3935560I-95420J0D01*
G01X12623770D01*
G02X12607850Y3936900I15J95421D01*
G01X12604800Y3937420D01*
X12331080Y3663700D01*
Y3294320D01*
G02X12330870Y3289650I-52721J31D01*
G03X12339940Y3283970I5975J-540D01*
G02X12383980Y3296200I44040J-73179D01*
G02X12469400Y3210780I0J-85420D01*
G02X12468480Y3198290I-85419J13D01*
G03X12480350Y3184540I11872J-1750D01*
G01X15266110D01*
G03X15272020Y3191860I61J5997D01*
G02X15269910Y3210710I83312J18869D01*
G01Y3210750D01*
G02X15355330Y3296170I85420J0D01*
G02X15422540Y3263470I0J-85420D01*
G01X15509870D01*
G03X15519540Y3282570I-3J11999D01*
G02X15503000Y3333090I68884J50520D01*
G02X15535700Y3400300I85420J0D01*
G01Y3477700D01*
G02X15551140Y3514980I52726J0D01*
G01X16050680Y4014520D01*
X16050160Y4017570D01*
G02X16048820Y4033490I94081J15935D01*
G01Y4033520D01*
G02X16144240Y3938100I95420J0D01*
G01X16144210D01*
G02X16128290Y3939440I15J95421D01*
G01X16125240Y3939960D01*
X15641140Y3455860D01*
Y3400300D01*
G02X15673840Y3333090I-52720J-67210D01*
G02X15657300Y3282570I-85424J0D01*
G03X15666970Y3263470I9673J-7101D01*
G01X15773120D01*
G03X15782790Y3282570I-4J12000D01*
G02X15766240Y3333100I68863J50530D01*
G02X15851660Y3418520I85420J0D01*
G02X15937030Y3336020I0J-85420D01*
G01X15937110Y3333660D01*
X15943030Y3327740D01*
X15954360Y3339080D01*
Y3642360D01*
G02X15969800Y3679640I52726J0D01*
G01X16304680Y4014520D01*
X16304160Y4017570D01*
G02X16302820Y4033490I94081J15935D01*
G01Y4033520D01*
G02X16398240Y3938100I95420J0D01*
G01X16398210D01*
G02X16382290Y3939440I15J95421D01*
G01X16379240Y3939960D01*
X16059800Y3620520D01*
Y3317240D01*
G02X16059170Y3309080I-52723J-34D01*
G03X16072710Y3295350I11853J-1853D01*
G02X16084700Y3296200I12021J-84572D01*
G01X16084760D01*
G02Y3125360I0J-85420D01*
G02X15999440Y3206660I0J85419D01*
G03X15978970Y3214570I-11985J-575D01*
G01X15937870Y3173470D01*
G02X15900590Y3158030I-37280J37286D01*
G01X15422540D01*
G02X15374460Y3127500I-67210J52720D01*
G03X15368670Y3107320I2692J-11693D01*
G01X15459090Y3016900D01*
X15628110D01*
X15628980Y3021870D01*
G02X15654020Y3042940I25040J-4344D01*
G01X15781020D01*
G02X15806440Y3017520I0J-25420D01*
G01Y2954030D01*
X15829930Y2930540D01*
X16151680D01*
G03X16161860Y2948900I1J12001D01*
G02X16148890Y2994140I72447J45249D01*
G02X16319730I85420J0D01*
G02X16306760Y2948900I-85417J9D01*
G03X16316940Y2930540I10179J-6359D01*
G01X17894280D01*
G03X17904460Y2948890I1J11998D01*
G02X17891520Y2994090I72482J45203D01*
G01Y2994100D01*
G02X18062360I85420J0D01*
G01Y2994090D01*
G02X18049420Y2948890I-85422J3D01*
G03X18059600Y2930540I10179J-6352D01*
G01X18378790D01*
X18402280Y2954030D01*
Y3017520D01*
G02X18427700Y3042940I25420J0D01*
G01X18554700D01*
G02X18580120Y3017520I0J-25420D01*
G01Y2954030D01*
X18849990Y2684160D01*
X18946930D01*
G03X18958050Y2700670I-1J12001D01*
G02X18951770Y2732810I79139J32147D01*
G02X19122610I85420J0D01*
G02X19065380Y2652180I-85414J0D01*
G03X19060850Y2632360I3956J-11332D01*
G01X19374120Y2319090D01*
G02X19392540Y2274630I-44446J-44460D01*
G01Y1779120D01*
X19419660D01*
G02X19445080Y1753700I0J-25420D01*
G01Y1573700D01*
G02X19419660Y1548280I-25420J0D01*
G01X19392540D01*
Y1491600D01*
G02X19374120Y1447140I-62866J0D01*
G01X18904160Y977170D01*
Y942490D01*
X19006830Y839820D01*
X19070320D01*
G02X19095740Y814400I0J-25420D01*
G01Y687400D01*
G02X19070320Y661980I-25420J0D01*
G01X18943320D01*
G02X18917900Y687400I0J25420D01*
G01Y750890D01*
X18887620Y781170D01*
G03X18867140Y772690I-8481J-8487D01*
G01Y687400D01*
G02X18846070Y662360I-25414J0D01*
G01X18841100Y661490D01*
Y617260D01*
X18846070Y616390D01*
G02X18867140Y591350I-4344J-25040D01*
G01Y464350D01*
G02X18846070Y439310I-25414J0D01*
G01X18841100Y438440D01*
Y391670D01*
X18846070Y390800D01*
G02X18867140Y365760I-4344J-25040D01*
G01Y238760D01*
G02X18841720Y213340I-25420J0D01*
G01X18714720D01*
G02X18689300Y238760I0J25420D01*
G01Y336250D01*
G03X18674420Y347900I-11999J2D01*
G02X18659330Y346060I-15100J61041D01*
G01X18502900D01*
G02X18500760Y346020I-2246J62878D01*
G01X18318260D01*
G02X18255340Y408940I0J62920D01*
G02X18284440Y462000I62924J0D01*
G01X18287220Y463770D01*
Y473060D01*
X18271250D01*
X18216260Y418070D01*
Y274320D01*
G02X18197840Y229860I-62866J0D01*
G01X18185970Y217980D01*
G03X18194450Y197500I8487J-8481D01*
G01X19493850D01*
X20361260Y1064910D01*
Y2825800D01*
G02Y2889200I62867J31700D01*
G01Y3179360D01*
X20361050Y3180120D01*
G02X20358900Y3196410I60732J16303D01*
G01Y3206350D01*
X20354600Y3207620D01*
G02X20336360Y3232000I7173J24380D01*
G01Y3372000D01*
G02X20354600Y3396380I25413J0D01*
G01X20358900Y3397650D01*
Y3457260D01*
X20358880Y3457480D01*
G02X20358720Y3462020I62722J4483D01*
G01Y3471670D01*
X20353750Y3472540D01*
G02X20332680Y3497580I4344J25040D01*
G01Y3624580D01*
G02X20353750Y3649620I25414J0D01*
G01X20358720Y3650490D01*
Y3679810D01*
G02X20359640Y3690510I62881J-17D01*
G01X20359730Y3691020D01*
Y3701050D01*
X20358770Y3702540D01*
G02X20354690Y3716350I21332J13810D01*
G01Y3916350D01*
G02X20380110Y3941770I25420J0D01*
G01X20465110D01*
G02X20490530Y3916350I0J-25420D01*
G01Y3716350D01*
G02X20486450Y3702540I-25412J0D01*
G01X20485490Y3701050D01*
Y3680760D01*
G02X20484570Y3670060I-62881J17D01*
G01X20484480Y3669550D01*
Y3650490D01*
X20489450Y3649620D01*
G02X20510520Y3624580I-4344J-25040D01*
G01Y3497580D01*
G02X20489460Y3472540I-25416J0D01*
G03X20484510Y3466210I1036J-5910D01*
G02X20484660Y3461900I-62731J-4341D01*
G01Y3397650D01*
X20488960Y3396380D01*
G02X20507200Y3372000I-7173J-24380D01*
G01Y3232000D01*
G02X20490460Y3208110I-25417J0D01*
G03X20486550Y3201740I2047J-5641D01*
G02X20487020Y3194080I-62409J-7674D01*
G01Y2889200D01*
G02X20490590Y2880810I-62876J-31709D01*
G01X20491040Y2879520D01*
X20574190Y2796380D01*
X20607960D01*
Y2802730D01*
X20607920Y2803070D01*
G02X20607750Y2806000I25250J2935D01*
G01Y2886000D01*
G02X20633170Y2911420I25420J0D01*
G01X20733170D01*
G02X20758590Y2886000I0J-25420D01*
G01Y2806000D01*
G02X20753410Y2790620I-25422J0D01*
G03X20756940Y2772980I9553J-7262D01*
G02X20769590Y2751000I-12771J-21980D01*
G01Y2716000D01*
G02X20764690Y2701000I-25409J0D01*
G02X20769590Y2686000I-20509J-15000D01*
G01Y2651000D01*
G02X20764690Y2636000I-25409J0D01*
G02X20769590Y2621000I-20509J-15000D01*
G01Y2586000D01*
G02X20764690Y2571000I-25409J0D01*
G02X20769590Y2556000I-20509J-15000D01*
G01Y2521000D01*
G02X20758890Y2500280I-25412J0D01*
G03X20756540Y2493980I3481J-4887D01*
G02X20756890Y2491000I-12372J-2964D01*
G01Y2456000D01*
G02X20744170Y2443280I-12720J0D01*
G01X20584170D01*
G02X20571450Y2456000I0J12720D01*
G01Y2491000D01*
G02X20571800Y2493980I12722J16D01*
G03X20569450Y2500280I-5831J1413D01*
G02X20558750Y2521000I14712J20720D01*
G01Y2556000D01*
G02X20563650Y2571000I25409J0D01*
G02X20558750Y2586000I20509J15000D01*
G01Y2621000D01*
G02X20563650Y2636000I25409J0D01*
G02X20558750Y2651000I20509J15000D01*
G01Y2670620D01*
X20548140D01*
G02X20503680Y2689040I0J62866D01*
G01X20497260Y2695450D01*
G03X20487020Y2691210I-4241J-4242D01*
G01Y2202830D01*
X20666720Y2023120D01*
G02X20685140Y1978660I-44446J-44460D01*
G01Y1969010D01*
X20690110Y1968140D01*
G02X20711180Y1943100I-4344J-25040D01*
G01Y1816100D01*
G02X20685760Y1790680I-25420J0D01*
G01X20558760D01*
G02X20533340Y1816100I0J25420D01*
G01Y1943100D01*
G02X20538610Y1958600I25429J0D01*
G03X20537590Y1974410I-9506J7325D01*
G01X20507500Y2004490D01*
G03X20487020Y1996010I-8481J-8487D01*
G01Y1038860D01*
G02X20468600Y994400I-62866J0D01*
G01X19564360Y90160D01*
G02X19519900Y71740I-44460J44446D01*
G01X17163320D01*
G02X17118860Y90160I0J62866D01*
G01X16953750Y255260D01*
X16857260D01*
G02X16831840Y280680I0J25420D01*
G01Y440680D01*
G02X16857260Y466100I25420J0D01*
G01X16953750D01*
X16983060Y495410D01*
Y664760D01*
X16795940D01*
G02X16770520Y690180I0J25420D01*
G01Y990180D01*
G02X16795940Y1015600I25420J0D01*
G01X17295940D01*
G02X17321360Y990180I0J-25420D01*
G01Y690180D01*
G02X17295940Y664760I-25420J0D01*
G01X17108820D01*
Y469360D01*
G02X17090400Y424900I-62866J0D01*
G01X17042680Y377170D01*
Y344190D01*
X17189370Y197500D01*
X17987630D01*
X18008600Y218470D01*
X18001500Y225570D01*
X17997780Y223990D01*
G02X17973280Y219020I-24510J57952D01*
G01X17790760D01*
G02X17788620Y219060I106J62918D01*
G01X17635220D01*
G02X17604440Y227110I0J62870D01*
G03X17596780Y225590I-2943J-5230D01*
G02X17576800Y215880I-19980J15701D01*
G01X17449800D01*
G02X17424380Y241300I0J25420D01*
G01Y368300D01*
G02X17449800Y393720I25420J0D01*
G01X17576800D01*
G02X17601840Y372650I0J-25414D01*
G01X17602710Y367680D01*
X17612360D01*
G02X17656820Y349260I0J-62866D01*
G01X17661270Y344820D01*
X17788620D01*
G02X17790760Y344860I2246J-62878D01*
G01X17973260D01*
G02X18036180Y281940I0J-62920D01*
G02X18035880Y275830I-62919J27D01*
G03X18056310Y266180I11943J-1167D01*
G01X18090500Y300370D01*
Y444120D01*
G02X18108920Y488580I62866J0D01*
G01X18200740Y580400D01*
G02X18245200Y598820I44460J-44446D01*
G01X18264440D01*
G03X18273060Y619170I2J12000D01*
G02X18255340Y662940I45198J43770D01*
G02X18318260Y725860I62920J0D01*
G01X18321470D01*
G03X18326850Y734500I-5J5998D01*
G02X18320420Y762190I56452J27701D01*
G01Y874320D01*
G03X18314780Y880310I-6001J0D01*
G02X18290880Y905680I1515J25370D01*
G01Y1135180D01*
G02X18316300Y1160600I25420J0D01*
G01X18450300D01*
G02X18475720Y1135180I0J-25420D01*
G01Y905680D01*
G02X18451820Y880310I-25415J0D01*
G03X18446180Y874320I361J-5990D01*
G01Y788260D01*
X18453970Y780460D01*
G02X18472390Y736000I-44446J-44460D01*
G01Y725860D01*
X18500760D01*
G02X18563680Y662940I0J-62920D01*
G02X18534150Y609610I-62921J0D01*
G03Y589270I6368J-10170D01*
G02X18563680Y535940I-33391J-53330D01*
G02X18545960Y492170I-62918J0D01*
G03X18554580Y471820I8618J-8350D01*
G01X18633260D01*
X18689300Y527860D01*
Y591350D01*
G02X18710370Y616390I25414J0D01*
G01X18715340Y617260D01*
Y661490D01*
X18710370Y662360D01*
G02X18689300Y687400I4344J25040D01*
G01Y814400D01*
G02X18714720Y839820I25420J0D01*
G01X18800010D01*
G03X18808490Y860300I-7J11999D01*
G01X18788530Y880260D01*
X18743740D01*
G02X18718320Y905680I0J25420D01*
G01Y1040680D01*
G02X18743740Y1066100I25420J0D01*
G01X18815230D01*
X19266780Y1517650D01*
Y1548280D01*
X19239660D01*
G02X19214240Y1573700I0J25420D01*
G01Y1753700D01*
G02X19239660Y1779120I25420J0D01*
G01X19266780D01*
Y2248580D01*
X19046230Y2469140D01*
G03X19026180Y2463860I-8486J-8486D01*
G02X18943860Y2401250I-82320J22812D01*
G02X18858440Y2486670I0J85420D01*
G02X18876380Y2539040I85409J0D01*
G03X18866900Y2558400I-9479J7360D01*
G01X18823940D01*
G02X18779480Y2576820I0J62866D01*
G01X18600600Y2755690D01*
G03X18580120Y2747210I-8481J-8487D01*
G01Y2661920D01*
G02X18559050Y2636880I-25414J0D01*
G01X18554080Y2636010D01*
Y2306900D01*
G02X18576620Y2249080I-62890J-57820D01*
G02X18405780I-85420J0D01*
G02X18428320Y2306900I85430J0D01*
G01Y2636010D01*
X18423350Y2636880D01*
G02X18402280Y2661920I4344J25040D01*
G01Y2788920D01*
G02X18402420Y2791540I25418J-44D01*
G03X18390490Y2804780I-11937J1239D01*
G01X18021960D01*
G03X18012510Y2785390I2J-11999D01*
G02X18030630Y2732790I-67302J-52606D01*
G01Y2732780D01*
G02X17859790I-85420J0D01*
G01Y2732790D01*
G02X17877910Y2785390I85422J-6D01*
G03X17868460Y2804780I-9452J7391D01*
G01X16342820D01*
G03X16333370Y2785390I4J-12000D01*
G02X16351470Y2732810I-67322J-52580D01*
G02X16180630I-85420J0D01*
G02X16198730Y2785390I85422J0D01*
G03X16189280Y2804780I-9454J7390D01*
G01X15818230D01*
G03X15806300Y2791540I7J-12001D01*
G02X15806440Y2788920I-25278J-2664D01*
G01Y2661920D01*
G02X15785370Y2636880I-25414J0D01*
G01X15780400Y2636010D01*
Y2362350D01*
X15780620Y2361560D01*
G02X15782940Y2344640I-60560J-16923D01*
G01Y2306900D01*
G02X15805480Y2249080I-62890J-57820D01*
G02X15634640I-85420J0D01*
G02X15655700Y2305240I85410J0D01*
G01X15657180Y2306940D01*
Y2329470D01*
X15656960Y2330260D01*
G02X15654640Y2347180I60560J16923D01*
G01Y2636010D01*
X15649670Y2636880D01*
G02X15628600Y2661920I4344J25040D01*
G01Y2788920D01*
G02X15654020Y2814340I25420J0D01*
G01X15739310D01*
G03X15747790Y2834820I-7J11999D01*
G01X15717510Y2865100D01*
X15654020D01*
G02X15628980Y2886170I0J25414D01*
G01X15628110Y2891140D01*
X15433040D01*
G02X15388580Y2909560I0J62866D01*
G01X15310540Y2987590D01*
G03X15290200Y2980950I-8484J-8486D01*
G02X15205800Y2908680I-84400J13148D01*
G02X15120380Y2994100I0J85420D01*
G02X15133950Y3040290I85418J-6D01*
G03X15123860Y3058780I-10095J6489D01*
G01X14690640D01*
X14066330Y2434470D01*
G03X14074810Y2413990I8487J-8481D01*
G01X14212290D01*
X14277180Y2349100D01*
Y2228030D01*
X14212290Y2163140D01*
X13951230D01*
X13888760Y2225610D01*
X13656940D01*
Y2346440D01*
X13883680D01*
X13904180Y2366940D01*
Y2424130D01*
G02X13922600Y2468590I62866J0D01*
G01X14492300Y3038300D01*
G03X14483820Y3058780I-8487J8481D01*
G01X12615500D01*
G03X12605410Y3040300I6J-11998D01*
G02X12618950Y2994160I-71883J-46151D01*
G01Y2994140D01*
G02X12533530Y2908720I-85420J0D01*
G02X12448590Y2985080I0J85422D01*
G03X12428180Y2992290I-11930J-1278D01*
G01X12337820Y2901940D01*
G02X12293360Y2883520I-44460J44446D01*
G01X12108690D01*
X12107820Y2878550D01*
G02X12082780Y2857480I-25040J4344D01*
G01X12019290D01*
X11987540Y2825740D01*
G02X11977730Y2817730I-44471J44452D01*
G01X11981030Y2806720D01*
X12082780D01*
G02X12108200Y2781300I0J-25420D01*
G01Y2654300D01*
G02X12087130Y2629260I-25414J0D01*
G01X12082160Y2628390D01*
Y2306900D01*
G02X12104700Y2249080I-62890J-57820D01*
G02X11933860I-85420J0D01*
G02X11956400Y2306900I85430J0D01*
G01Y2628390D01*
X11951430Y2629260D01*
G02X11930360Y2654300I4344J25040D01*
G01Y2781300D01*
G02X11932210Y2790820I25420J0D01*
G03X11921090Y2807320I-11124J4500D01*
G01X11547980D01*
G03X11538780Y2787620I4J-12000D01*
G02X11558710Y2732780I-65485J-54840D01*
G02X11387870I-85420J0D01*
G02X11407800Y2787620I85415J0D01*
G03X11398600Y2807320I-9204J7700D01*
G01X9868850D01*
G03X9859650Y2787620I1J-11999D01*
G02X9879550Y2732810I-65531J-54810D01*
G02X9708710I-85420J0D01*
G02X9728610Y2787620I85431J0D01*
G03X9719410Y2807320I-9201J7701D01*
G01X9348510D01*
G03X9336690Y2793270I1J-11998D01*
G02X9337060Y2788920I-25052J-4322D01*
G01Y2661920D01*
G02X9315990Y2636880I-25414J0D01*
G01X9311020Y2636010D01*
Y2306900D01*
G02X9333560Y2249080I-62890J-57820D01*
G02X9162720I-85420J0D01*
G02X9185260Y2306900I85430J0D01*
G01Y2636010D01*
X9180290Y2636880D01*
G02X9159220Y2661920I4344J25040D01*
G01Y2788920D01*
G02X9159590Y2793270I25422J28D01*
G03X9147770Y2807320I-11821J2052D01*
G01X8776840D01*
G03X8767640Y2787620I4J-12000D01*
G02X8787570Y2732780I-65485J-54840D01*
G02X8616730I-85420J0D01*
G02X8636660Y2787620I85415J0D01*
G03X8627460Y2807320I-9204J7700D01*
G01X8139340D01*
X7727950Y2395930D01*
X7787480Y2336400D01*
Y2215330D01*
X7722590Y2150440D01*
X7461530D01*
X7399060Y2212910D01*
X7183080D01*
X7051920Y2081760D01*
G02X7007460Y2063340I-44460J44446D01*
G01X5366780D01*
G02X5322320Y2081760I0J62866D01*
G01X5298430Y2105640D01*
X4389580D01*
G03X4381090Y2085160I-1J-12000D01*
G01X4434230Y2032020D01*
X4508500D01*
G02X4533920Y2006600I0J-25420D01*
G01Y1998360D01*
X6578990D01*
G02X6609080Y2006020I30090J-55270D01*
G02X6672000Y1943100I0J-62920D01*
G01Y1943060D01*
G02X6671260Y1933460I-62921J22D01*
G03X6683110Y1919620I11857J-1841D01*
G01X7188180D01*
Y1930400D01*
G02X7213600Y1955820I25420J0D01*
G01X7340600D01*
G02X7366020Y1930400I0J-25420D01*
G01Y1803400D01*
G02X7365720Y1799530I-25418J24D01*
G01X7365650Y1799080D01*
Y1792620D01*
X7417150D01*
Y1799080D01*
X7417080Y1799530D01*
G02X7416780Y1803400I25118J3894D01*
G01Y1930400D01*
G02X7426560Y1950440I25422J0D01*
G03X7427660Y1968390I-7381J9461D01*
G01X7333170Y2062880D01*
X7194900D01*
G02X7169480Y2088300I0J25420D01*
G01Y2158300D01*
G02X7194900Y2183720I25420J0D01*
G01X7354900D01*
G02X7375940Y2172560I0J-25413D01*
G02X7389970Y2162370I-25054J-49250D01*
G01X7553720Y1998620D01*
G02X7571140Y1958340I-37859J-40280D01*
G01Y1955740D01*
G02X7594620Y1930400I-1934J-25340D01*
G01Y1803400D01*
G02X7594320Y1799530I-25418J24D01*
G01X7594250Y1799080D01*
Y1792620D01*
X7628640D01*
X7752900Y1916880D01*
G02X7790180Y1932320I37280J-37286D01*
G01X13677880D01*
Y1943100D01*
G02X13703300Y1968520I25420J0D01*
G01X13830300D01*
G02X13855720Y1943100I0J-25420D01*
G01Y1816100D01*
G02X13830300Y1790680I-25420J0D01*
G01X13703300D01*
G02X13677880Y1816100I0J25420D01*
G01Y1826880D01*
X7812020D01*
X7687760Y1702620D01*
G02X7650480Y1687180I-37280J37286D01*
G01X7071620D01*
G03X7063140Y1666700I7J-11999D01*
G01X7661120Y1068720D01*
X7718340D01*
X7719500Y1069230D01*
G02X7741900Y1073960I22403J-50689D01*
G01X7864400D01*
G02X7886800Y1069230I-3J-55419D01*
G01X7887960Y1068720D01*
X7944660D01*
X7967710Y1091770D01*
X7960290Y1099180D01*
X7956350Y1097030D01*
G02X7929890Y1090280I-26466J48511D01*
G01X7868610D01*
X7868400Y1090260D01*
G02X7864400Y1090120I-3937J55282D01*
G01X7741900D01*
G02Y1200960I0J55420D01*
G01X7864400D01*
G02X7868400Y1200820I63J-55422D01*
G01X7868610Y1200800D01*
X7906990D01*
X8092420Y1386230D01*
Y1460500D01*
G02X8117840Y1485920I25420J0D01*
G01X8126080D01*
Y1598050D01*
G02X8118420Y1628140I55270J30090D01*
G02X8244260I62920J0D01*
G02X8236600Y1598050I-62930J0D01*
G01Y1485920D01*
X8244840D01*
G02X8270260Y1460500I0J-25420D01*
G01Y1357250D01*
G03X8290740Y1348770I11999J7D01*
G01X8321020Y1379050D01*
Y1460500D01*
G02X8346440Y1485920I25420J0D01*
G01X8473440D01*
G02X8498860Y1460500I0J-25420D01*
G01Y1333500D01*
G02X8473440Y1308080I-25420J0D01*
G01X8391990D01*
X8315880Y1231980D01*
G02X8280400Y1217280I-35480J35467D01*
G01X8235160D01*
X8154780Y1136900D01*
G03X8163260Y1116420I8487J-8481D01*
G01X8346980D01*
G02X8372400Y1091000I0J-25420D01*
G01Y941000D01*
G02X8346980Y915580I-25420J0D01*
G01X8152940D01*
X8089080Y851720D01*
G02X8051800Y836280I-37280J37286D01*
G01X7988180D01*
G02X7972850Y838560I6J52721D01*
G01X7972000Y838820D01*
X7881510D01*
X7880650Y838560D01*
G02X7864400Y836120I-16263J52978D01*
G01X7741900D01*
G02Y946960I0J55420D01*
G01X7864400D01*
G02X7880650Y944520I-13J-55418D01*
G01X7881510Y944260D01*
X7985660D01*
G02X8000990Y941980I-6J-52721D01*
G01X8001840Y941720D01*
X8029960D01*
X8071560Y983320D01*
Y1024720D01*
G03X8051080Y1033200I-11999J-7D01*
G01X8000930Y983060D01*
G02X7965450Y968360I-35480J35467D01*
G01X7887960D01*
X7886800Y967850D01*
G02X7864400Y963120I-22403J50689D01*
G01X7741900D01*
G02X7719500Y967850I3J55419D01*
G01X7718340Y968360D01*
X7640330D01*
G02X7604850Y983060I0J50167D01*
G01X6969300Y1618600D01*
X6822690D01*
G03X6814210Y1598120I7J-11999D01*
G01X7012860Y1399460D01*
G02X7027560Y1363980I-35467J-35480D01*
G01Y1209020D01*
G02X7012860Y1173540I-50167J0D01*
G01X6966040Y1126710D01*
X6965580Y1125530D01*
G02X6946340Y1100610I-51679J20013D01*
G03X6953360Y1078880I7025J-9729D01*
G01X7058670D01*
G02X7101330Y1061210I-5J-60342D01*
G01X7362950Y799590D01*
G02X7380620Y756930I-42672J-42665D01*
G01Y583790D01*
X7718650Y245760D01*
X7879490D01*
X8004160Y370430D01*
Y566430D01*
G02X8021830Y609090I60342J-5D01*
G01X8199630Y786890D01*
G02X8242290Y804560I42665J-42672D01*
G01X9182510D01*
X9365490Y987550D01*
G02X9408150Y1005220I42665J-42672D01*
G01X13909680D01*
Y1069880D01*
G02X13935100Y1095300I25420J0D01*
G01X14335100D01*
G02X14360520Y1069880I0J-25420D01*
G01Y819880D01*
G02X14335100Y794460I-25420J0D01*
G01X13935100D01*
G02X13909680Y819880I0J25420D01*
G01Y884540D01*
X9433150D01*
X9250170Y701550D01*
G02X9207510Y683880I-42665J42672D01*
G01X8267290D01*
X8263170Y679760D01*
G03X8272510Y659300I8482J-8490D01*
G02X8282540Y659660I10049J-140059D01*
G02X8142120Y519240I0J-140420D01*
G02X8144640Y545720I140420J-3D01*
G01X8145240Y548840D01*
X8138750Y555330D01*
X8124840Y541430D01*
Y345430D01*
G02X8107170Y302770I-60342J5D01*
G01X7947150Y142750D01*
G02X7904490Y125080I-42665J42672D01*
G01X7693650D01*
G02X7650990Y142750I5J60342D01*
G01X7277610Y516130D01*
G02X7259940Y558790I42672J42665D01*
G01Y731930D01*
X7033670Y958200D01*
X6852650D01*
G02X6829850Y962680I16J60337D01*
G01X6828760Y963120D01*
X6810540D01*
X6802160Y954740D01*
G03X6810650Y934260I8488J-8481D01*
G01X6913900D01*
G02Y848820I0J-42720D01*
G01X6791400D01*
G02X6749560Y882910I0J42721D01*
G03X6729320Y888970I-11753J-2426D01*
G01X6593860Y753500D01*
Y675640D01*
G02X6568440Y650220I-25420J0D01*
G01X6441440D01*
G02X6416020Y675640I0J25420D01*
G01Y802640D01*
G02X6441440Y828060I25420J0D01*
G01X6519300D01*
X6707880Y1016640D01*
G02X6726090Y1028510I37276J-37282D01*
G01X6727270Y1028970D01*
X6742020Y1043720D01*
X6742440Y1044510D01*
G02X6791400Y1073960I48960J-25972D01*
G01X6828760D01*
X6829850Y1074400D01*
G02X6843540Y1078190I22832J-55852D01*
G01X6848640Y1078970D01*
Y1090120D01*
X6791400D01*
G02X6769000Y1094850I3J55419D01*
G01X6767840Y1095360D01*
X6665430D01*
X6593860Y1023790D01*
Y942340D01*
G02X6568440Y916920I-25420J0D01*
G01X6441440D01*
G02X6416020Y942340I0J25420D01*
G01Y1069340D01*
G02X6441440Y1094760I25420J0D01*
G01X6522890D01*
X6609160Y1181020D01*
G02X6644640Y1195720I35480J-35467D01*
G01X6767840D01*
X6769000Y1196230D01*
G02X6791400Y1200960I22403J-50689D01*
G01X6898350D01*
X6904270Y1206880D01*
G03X6900030Y1217120I-4242J4241D01*
G01X6791400D01*
G02X6769000Y1221850I3J55419D01*
G01X6767840Y1222360D01*
X6683400D01*
X6682530Y1222090D01*
G02X6667610Y1219820I-14920J47897D01*
G01X6593860D01*
Y1206500D01*
G02X6568440Y1181080I-25420J0D01*
G01X6441440D01*
G02X6416020Y1206500I0J25420D01*
G01Y1333500D01*
G02X6422940Y1350930I25411J0D01*
G03X6422690Y1367650I-8734J8231D01*
G01X6344460Y1445870D01*
G03X6323980Y1437390I-8481J-8487D01*
G01Y1389440D01*
G02X6331510Y1364580I-47640J-28000D01*
G01X6331830Y1358920D01*
X6339840D01*
G02X6365260Y1333500I0J-25420D01*
G01Y1206500D01*
G02X6339840Y1181080I-25420J0D01*
G01X6331600D01*
Y1094760D01*
X6339840D01*
G02X6365260Y1069340I0J-25420D01*
G01Y942340D01*
G02X6339840Y916920I-25420J0D01*
G01X6265570D01*
X6087760Y739110D01*
Y568960D01*
G02X6071570Y529890I-55257J8D01*
G01X5621990Y80310D01*
G02X5582920Y64120I-39078J39067D01*
G01X3589020D01*
G02X3549950Y80310I8J55257D01*
G01X3490570Y139680D01*
X3469030D01*
X3412190Y82850D01*
G02X3373120Y66660I-39078J39067D01*
G01X3014980D01*
G02X2975910Y82850I8J55257D01*
G01X2919070Y139680D01*
X2897530D01*
X2827990Y70150D01*
G02X2788920Y53960I-39078J39067D01*
G01X2316480D01*
G02X2277410Y70150I8J55257D01*
G01X2207870Y139680D01*
X2186330D01*
X2129490Y82850D01*
G02X2090420Y66660I-39078J39067D01*
G01X1808480D01*
G02X1769410Y82850I8J55257D01*
G01X1712570Y139680D01*
X1638300D01*
G02X1612980Y162820I0J25423D01*
G03X1606840Y168280I-5974J-536D01*
G02X1605280Y168260I-1488J55241D01*
G01X1183640D01*
G02X1144570Y184450I8J55257D01*
G01X941630Y387390D01*
G02X925440Y426460I39067J39078D01*
G01Y1432690D01*
G02X917780Y1462780I55270J30090D01*
G02X980700Y1525700I62920J0D01*
G02X1040630Y1481940I0J-62918D01*
G01X1041070Y1480550D01*
X1061750Y1459880D01*
X1228680D01*
G02X1267750Y1443690I-8J-55257D01*
G01X1302930Y1408520D01*
X1315200D01*
G02X1340620Y1383100I0J-25420D01*
G01Y1233100D01*
G02X1315200Y1207680I-25420J0D01*
G01X1123200D01*
G02X1097780Y1233100I0J25420D01*
G01Y1349360D01*
X1035960D01*
Y449350D01*
X1091800Y393510D01*
X1097890Y399600D01*
X1097800Y402210D01*
G02X1097780Y403100I25397J1016D01*
G01Y553100D01*
G02X1105520Y571360I25409J0D01*
G01Y604520D01*
G02X1120220Y640000I50167J0D01*
G01X1417400Y937180D01*
G02X1452880Y951880I35480J-35467D01*
G01X3242880D01*
X3244040Y952390D01*
G02X3266440Y957120I22403J-50689D01*
G02X3321860Y901700I0J-55420D01*
G02X3321840Y900150I-55421J-60D01*
G03X3333830Y887820I11995J-331D01*
G01X3394670D01*
X3395600Y892690D01*
G02X3403540Y910100I39700J-7590D01*
G02Y960100I31755J25000D01*
G02Y1010100I31755J25000D01*
G02Y1060100I31755J25000D01*
G02X3396580Y1073490I31755J25010D01*
G03X3382050Y1081650I-11494J-3450D01*
G02X3368040Y1079840I-14027J53448D01*
G01X3355620D01*
G02X3320780Y1092210I0J55248D01*
G02X3308060Y1101710I26362J48563D01*
G01X3077830Y1331940D01*
G02X3061640Y1371010I39067J39078D01*
G01Y1472580D01*
X3015160Y1519060D01*
G03X2994680Y1510570I-8480J-8489D01*
G01Y1457960D01*
G37*
G54D76*
X19679660Y1663700D03*
G54D68*
X11105940Y269240D03*
X8407540D03*
X9756740D03*
X12455140D03*
G54D73*
X1701800Y1149950D03*
X1828800D03*
G54D65*
X599440Y601980D03*
X20675600D03*
Y5001260D03*
X599440D03*
G54D69*
X13749020Y2799080D03*
G54D74*
X15460300Y944880D03*
X14710300D03*
G54D72*
X15890240Y4033520D03*
X18613120Y4020820D03*
G54D70*
X8795500Y2486640D03*
X9700800Y2486670D03*
X8992540Y2312080D03*
X9503770Y2312100D03*
X11566640Y2486640D03*
X12471940Y2486670D03*
X12565270Y2732810D03*
X11763680Y2312080D03*
X12274910Y2312100D03*
X15267420Y2486640D03*
X16172720Y2486670D03*
X15174070Y2732780D03*
X15464460Y2312080D03*
X15975690Y2312100D03*
X18038560Y2486640D03*
X19005450Y2994140D03*
X18235600Y2312080D03*
X18746830Y2312100D03*
G54D75*
X19664680Y876300D03*
X19918680D03*
G54D71*
X12877800Y4030980D03*
X12115800Y4792980D03*
X14874240Y4033520D03*
X15128240D03*
X16652240Y4795520D03*
Y4033520D03*
X15636240D03*
X15382240D03*
X15890240Y4795520D03*
X17597120Y4020820D03*
X17851120D03*
X19375120Y4782820D03*
Y4020820D03*
X18359120D03*
X18105120D03*
X17851120Y4782820D03*
X18613120D03*
X6477000Y4795520D03*
X5715000D03*
G54D67*
X11680940Y519240D03*
X12330140D03*
X13030140D03*
X9631740D03*
X10331740D03*
X8982540D03*
X10980940D03*
G54D64*
X16687260Y360680D03*
G54D66*
X11555940Y269240D03*
X8857540D03*
X10206740D03*
X12905140D03*
%LPD*%
G75*
G36*
G01X6735060Y4509120D02*
X6931020D01*
G02X6938880Y4488050I0J-12001D01*
G03X6914580Y4434840I46107J-53210D01*
G03X6985000Y4364420I70420J0D01*
G03X7016700Y4371960I0J70407D01*
G01X7101500D01*
G02X7109120Y4350680I8J-12001D01*
G03X7088850Y4307840I35147J-42846D01*
G03X7144270Y4252420I55420J0D01*
G01X7284270D01*
G03X7300520Y4254860I-13J55418D01*
G01X7301380Y4255120D01*
X7377120D01*
G03X7406640Y4247420I29516J52721D01*
G03X7428480Y4251500I13J60422D01*
G02X7443500Y4245770I4336J-11186D01*
G03X7453180Y4232460I46956J23974D01*
G01X7550970Y4134670D01*
G03X7584280Y4119380I37277J37281D01*
G03X7596430Y4117960I12153J51300D01*
G01X8303960D01*
G02X8313530Y4098720I1J-11999D01*
G03X8294200Y4041140I76094J-57580D01*
G03X8485040I95420J0D01*
G03X8465710Y4098720I-95424J0D01*
G02X8475280Y4117960I9569J7241D01*
G01X8557960D01*
G02X8567530Y4098720I1J-11999D01*
G03X8548200Y4041140I76094J-57580D01*
G03X8739040I95420J0D01*
G03X8719710Y4098720I-95424J0D01*
G02X8729280Y4117960I9569J7241D01*
G01X8811960D01*
G02X8821530Y4098720I1J-11999D01*
G03X8802200Y4041140I76094J-57580D01*
G03X8993040I95420J0D01*
G03X8973710Y4098720I-95424J0D01*
G02X8983280Y4117960I9569J7241D01*
G01X9065960D01*
G02X9075530Y4098720I1J-11999D01*
G03X9056200Y4041140I76094J-57580D01*
G03X9247040I95420J0D01*
G03X9227710Y4098720I-95424J0D01*
G02X9237280Y4117960I9569J7241D01*
G01X9336550D01*
G02X9345300Y4097750I2J-11998D01*
G03X9322900Y4041140I60333J-56610D01*
G03X9488340I82720J0D01*
G03X9465940Y4097750I-82733J0D01*
G02X9474690Y4117960I8748J8212D01*
G01X9573960D01*
G02X9583530Y4098720I1J-11999D01*
G03X9564200Y4041140I76094J-57580D01*
G03X9565540Y4025190I95421J-15D01*
G01X9566060Y4022140D01*
X9079220Y3535300D01*
G03X9063780Y3498020I37286J-37280D01*
G01Y3400300D01*
G03X9031080Y3333090I52720J-67210D01*
G03X9047620Y3282570I85424J0D01*
G02X9037950Y3263470I-9673J-7101D01*
G01X8950620D01*
G03X8883410Y3296170I-67210J-52720D01*
G03Y3125330I0J-85420D01*
G03X8950620Y3158030I0J85420D01*
G01X9441370D01*
G03X9478650Y3173470I0J52726D01*
G01X9508280Y3203110D01*
G02X9528600Y3196610I8485J-8486D01*
G03X9612840Y3125360I84240J14174D01*
G03Y3296200I0J85420D01*
G03X9597170Y3294750I2J-85420D01*
G02X9590100Y3301310I-1106J5898D01*
G03X9590420Y3307080I-52398J5800D01*
G01Y3643380D01*
X9894620Y3947580D01*
X9897670Y3947060D01*
G03X9913620Y3945720I15935J94081D01*
G03X10009040Y4041140I0J95420D01*
G03X9989710Y4098720I-95424J0D01*
G02X9999280Y4117960I9569J7241D01*
G01X10081960D01*
G02X10091530Y4098720I1J-11999D01*
G03X10072200Y4041140I76094J-57580D01*
G03X10263040I95420J0D01*
G03X10243710Y4098720I-95424J0D01*
G02X10253280Y4117960I9569J7241D01*
G01X11022880D01*
G02X11031470Y4097580I0J-12000D01*
G03X11004380Y4030980I68322J-66600D01*
G03X11195220I95420J0D01*
G03X11168130Y4097580I-95412J0D01*
G02X11176720Y4117960I8590J8380D01*
G01X11276880D01*
G02X11285470Y4097580I0J-12000D01*
G03X11258380Y4030980I68322J-66600D01*
G03X11449220I95420J0D01*
G03X11422130Y4097580I-95412J0D01*
G02X11430720Y4117960I8590J8380D01*
G01X11530880D01*
G02X11539470Y4097580I0J-12000D01*
G03X11512380Y4030980I68322J-66600D01*
G03X11703220I95420J0D01*
G03X11676130Y4097580I-95412J0D01*
G02X11684720Y4117960I8590J8380D01*
G01X11784880D01*
G02X11793470Y4097580I0J-12000D01*
G03X11766380Y4030980I68322J-66600D01*
G03X11957220I95420J0D01*
G03X11930130Y4097580I-95412J0D01*
G02X11938720Y4117960I8590J8380D01*
G01X12057920D01*
G02X12065260Y4096460I5J-12001D01*
G03X12033080Y4030980I50529J-65480D01*
G03X12198520I82720J0D01*
G03X12166340Y4096460I-82709J0D01*
G02X12173680Y4117960I7335J9499D01*
G01X12292880D01*
G02X12301470Y4097580I0J-12000D01*
G03X12274380Y4030980I68322J-66600D01*
G03X12275720Y4015030I95421J-15D01*
G01X12276240Y4011980D01*
X11850360Y3586100D01*
G03X11834920Y3548820I37286J-37280D01*
G01Y3400300D01*
G03X11802220Y3333090I52720J-67210D01*
G03X11818760Y3282570I85424J0D01*
G02X11809090Y3263470I-9673J-7101D01*
G01X11721760D01*
G03X11654550Y3296170I-67210J-52720D01*
G03Y3125330I0J-85420D01*
G03X11721760Y3158030I0J85420D01*
G01X12194730D01*
G03X12232010Y3173470I0J52726D01*
G01X12278080Y3219540D01*
G02X12298560Y3211020I8481J-8488D01*
G01Y3210780D01*
G03X12361170Y3128460I85422J0D01*
G02X12366450Y3108410I-3206J-11564D01*
G01X12267310Y3009280D01*
X12108690D01*
X12107820Y3014250D01*
G03X12082780Y3035320I-25040J-4344D01*
G01X11955780D01*
G03X11930360Y3009900I0J-25420D01*
G01Y2946410D01*
X11917030Y2933080D01*
X11589210D01*
G02X11578840Y2951120I-2J11999D01*
G03X11590440Y2994100I-73824J42980D01*
G03X11419600I-85420J0D01*
G03X11431200Y2951120I85424J0D01*
G02X11420830Y2933080I-10368J-6041D01*
G01X9846550D01*
G02X9836190Y2951120I7J11999D01*
G03X9847810Y2994140I-73802J43014D01*
G03X9676970I-85420J0D01*
G03X9688590Y2951120I85422J-6D01*
G02X9678230Y2933080I-10367J-6041D01*
G01X9358010D01*
X9337060Y2954030D01*
Y3017520D01*
G03X9311640Y3042940I-25420J0D01*
G01X9184640D01*
G03X9159220Y3017520I0J-25420D01*
G01Y2954030D01*
X9138270Y2933080D01*
X8818070D01*
G02X8807700Y2951120I-2J11999D01*
G03X8819300Y2994100I-73824J42980D01*
G03X8648460I-85420J0D01*
G03X8660060Y2951120I85424J0D01*
G02X8649690Y2933080I-10368J-6041D01*
G01X8139340D01*
X7649750Y3422660D01*
G03X7605290Y3441080I-44460J-44446D01*
G01X7218500D01*
X7217700Y3441300D01*
G03X7200720Y3443640I-16994J-60538D01*
G01X7188240D01*
X7125690Y3506190D01*
X6864630D01*
X6797080Y3438640D01*
X6590780D01*
G02X6582290Y3459120I-3J11999D01*
G01X6588490Y3465320D01*
X6678000D01*
G03X6694650Y3467570I-20J62877D01*
G01X6695430Y3467780D01*
X6758000D01*
G03X6783420Y3493200I0J25420D01*
G01Y3563200D01*
G03X6758000Y3588620I-25420J0D01*
G01X6755080D01*
G02X6743080Y3600670I-1J11999D01*
G01Y3695190D01*
X6748050Y3696060D01*
G03X6769120Y3721100I-4344J25040D01*
G01Y3848100D01*
G03X6743700Y3873520I-25420J0D01*
G01X6616700D01*
G03X6591280Y3848100I0J-25420D01*
G01Y3721100D01*
G03X6612350Y3696060I25414J0D01*
G01X6617320Y3695190D01*
Y3615270D01*
X6617130Y3614530D01*
G03X6615120Y3598760I60859J-15770D01*
G01Y3591080D01*
X6562440D01*
G03X6517980Y3572660I0J-62866D01*
G01X6338560Y3393240D01*
G03X6320140Y3348780I44446J-44460D01*
G01Y2644790D01*
X6049630Y2374280D01*
X5902840D01*
X5902410Y2374340D01*
G03X5893470Y2374980I-8949J-62239D01*
G01X5855730D01*
G03X5797910Y2397520I-57820J-62890D01*
G03Y2226680I0J-85420D01*
G03X5855730Y2249220I0J85430D01*
G01X5884800D01*
X5885230Y2249160D01*
G03X5894170Y2248520I8949J62239D01*
G01X6075680D01*
G03X6120140Y2266940I0J62866D01*
G01X6427480Y2574280D01*
G03X6445900Y2618740I-44446J44460D01*
G01Y3322730D01*
X6549860Y3426690D01*
G02X6570340Y3418200I8481J-8487D01*
G01Y3317810D01*
X6802160D01*
X6864630Y3255340D01*
X7125690D01*
X7187580Y3317230D01*
X7190740Y3316580D01*
G03X7203280Y3315320I12525J61622D01*
G01X7579240D01*
X8024360Y2870200D01*
X7555450Y2401290D01*
X7461530D01*
X7398980Y2338740D01*
X7157100D01*
G03X7112640Y2320320I0J-62866D01*
G01X6981410Y2189100D01*
X5627060D01*
G02X5616620Y2207010I4J12000D01*
G03X5627700Y2249080I-74328J42070D01*
G03X5606640Y2305240I-85410J0D01*
G01X5605160Y2306940D01*
Y2329470D01*
X5605380Y2330260D01*
G03X5607700Y2347180I-60560J16923D01*
G01Y2623310D01*
X5612670Y2624180D01*
G03X5633740Y2649220I-4344J25040D01*
G01Y2776220D01*
G03X5608320Y2801640I-25420J0D01*
G01X5508250D01*
G02X5504350Y2812200I-3J5999D01*
G03X5508000Y2815580I-40864J47790D01*
G01X5544830Y2852400D01*
X5608320D01*
G03X5633740Y2877820I0J25420D01*
G01Y3004820D01*
G03X5608320Y3030240I-25420J0D01*
G01X5481320D01*
G03X5455900Y3004820I0J-25420D01*
G01Y2941330D01*
X5437490Y2922920D01*
X5105400D01*
G02X5095870Y2942210I3J12000D01*
G03X5113440Y2994100I-67839J51890D01*
G03X4942600I-85420J0D01*
G01Y2993500D01*
G02X4922120Y2984930I-11998J-85D01*
G01X4481820Y3425220D01*
G03X4437360Y3443640I-44460J-44446D01*
G01X4381540D01*
X4318990Y3506190D01*
X4057930D01*
X3990380Y3438640D01*
X3784080D01*
G02X3775590Y3459120I-3J11999D01*
G01X3781790Y3465320D01*
X3871300D01*
G03X3887950Y3467570I-20J62877D01*
G01X3888730Y3467780D01*
X3951300D01*
G03X3976720Y3493200I0J25420D01*
G01Y3563200D01*
G03X3951300Y3588620I-25420J0D01*
G01X3934180D01*
Y3598760D01*
G03X3923680Y3633550I-62885J0D01*
G01Y3695190D01*
X3928650Y3696060D01*
G03X3949720Y3721100I-4344J25040D01*
G01Y3848100D01*
G03X3924300Y3873520I-25420J0D01*
G01X3797300D01*
G03X3771880Y3848100I0J-25420D01*
G01Y3721100D01*
G03X3792950Y3696060I25414J0D01*
G01X3797920Y3695190D01*
Y3609260D01*
G03X3798130Y3604070I62882J-55D01*
G02X3786180Y3591080I-11957J-992D01*
G01X3755740D01*
G03X3711280Y3572660I0J-62866D01*
G01X3524240Y3385620D01*
G03X3505820Y3341160I44446J-44460D01*
G01Y2652410D01*
X3332240Y2478830D01*
G02X3311760Y2487230I-8482J8486D01*
G03X3226340Y2572090I-85420J-562D01*
G03X3140920Y2486670I0J-85420D01*
G03X3225780Y2401250I85422J0D01*
G02X3234180Y2380770I-86J-11998D01*
G01X3228390Y2374980D01*
X3087130D01*
G03X3029310Y2397520I-57820J-62890D01*
G03X2984410Y2384770I-4J-85421D01*
G02X2966100Y2394970I-6311J10205D01*
G01Y2786380D01*
G03X2947680Y2830840I-62866J0D01*
G01X2862600Y2915930D01*
Y2979420D01*
G03X2837180Y3004840I-25420J0D01*
G01X2710180D01*
G03X2684760Y2979420I0J-25420D01*
G01Y2852420D01*
G03X2710180Y2827000I25420J0D01*
G01X2773670D01*
X2803950Y2796720D01*
G02X2795460Y2776240I-8487J-8481D01*
G01X2710180D01*
G03X2684760Y2750820I0J-25420D01*
G01Y2623820D01*
G03X2705830Y2598780I25414J0D01*
G01X2710800Y2597910D01*
Y2306900D01*
G03X2688260Y2249080I62890J-57820D01*
G03X2773680Y2163660I85420J0D01*
G03X2846670Y2204710I0J85416D01*
G02X2865410Y2206960I10254J-6237D01*
G01X2948310Y2124060D01*
G03X2992770Y2105640I44460J44446D01*
G01X3535220D01*
G02X3543710Y2085160I1J-12000D01*
G01X3490570Y2032020D01*
X3416300D01*
G03X3390880Y2006600I0J-25420D01*
G01Y1879600D01*
G03X3416300Y1854180I25420J0D01*
G01X3424540D01*
Y1582420D01*
G03X3429120Y1560390I55273J0D01*
G01X3429620Y1559240D01*
Y1503460D01*
G03X3431800Y1488830I50181J0D01*
G02X3423750Y1473830I-11480J-3499D01*
G03X3394880Y1435100I11544J-38730D01*
G03X3408930Y1404470I40413J0D01*
G02X3410400Y1397280I-3917J-4546D01*
G03X3408050Y1390180I24900J-12180D01*
G01X3407140Y1385280D01*
X3399490D01*
X3273120Y1511650D01*
Y1537290D01*
G03X3256930Y1576360I-55257J-8D01*
G01X2838940Y1994360D01*
G02X2847430Y2014840I8489J8480D01*
G01X2880330D01*
X3170510Y1724670D01*
X3170950Y1723280D01*
G03X3230880Y1679520I59930J19158D01*
G03X3293800Y1742440I0J62920D01*
G03X3250040Y1802370I-62918J0D01*
G01X3248650Y1802810D01*
X3205070Y1846400D01*
G02X3213560Y1866880I8489J8480D01*
G01X3314700D01*
G03X3327420Y1879600I0J12720D01*
G01Y2006600D01*
G03X3314700Y2019320I-12720J0D01*
G01X3187700D01*
G03X3174980Y2006600I0J-12720D01*
G01Y1905460D01*
G02X3154500Y1896970I-12000J-1D01*
G01X2942290Y2109170D01*
G03X2903220Y2125360I-39078J-39067D01*
G01X2301270D01*
X1470010Y2956610D01*
G03X1430940Y2972800I-39078J-39067D01*
G01X1181330D01*
X1181100Y2978560D01*
G03X1155700Y3002960I-25400J-1020D01*
G01X805700D01*
G03X780280Y2977540I0J-25420D01*
G01Y2857540D01*
G03X805700Y2832120I25420J0D01*
G01X1155700D01*
G03X1181100Y2856520I0J25420D01*
G01X1181330Y2862280D01*
X1408050D01*
X1527050Y2743280D01*
G02X1518560Y2722800I-8489J-8480D01*
G01X1181330D01*
X1181100Y2728560D01*
G03X1155700Y2752960I-25400J-1020D01*
G01X805700D01*
G03X780280Y2727540I0J-25420D01*
G01Y2607540D01*
G03X805700Y2582120I25420J0D01*
G01X1155700D01*
G03X1181100Y2606520I0J25420D01*
G01X1181330Y2612280D01*
X1518350D01*
X1637350Y2493280D01*
G02X1628860Y2472800I-8489J-8480D01*
G01X1181330D01*
X1181100Y2478560D01*
G03X1155700Y2502960I-25400J-1020D01*
G01X805700D01*
G03X780280Y2477540I0J-25420D01*
G01Y2357540D01*
G03X805700Y2332120I25420J0D01*
G01X1155700D01*
G03X1181100Y2356520I0J25420D01*
G01X1181330Y2362280D01*
X1636270D01*
X1769780Y2228770D01*
X1763700Y2222690D01*
X1761100Y2222770D01*
G03X1759300Y2222800I-1821J-55230D01*
G01X1181330D01*
X1181100Y2228560D01*
G03X1155700Y2252960I-25400J-1020D01*
G01X805700D01*
G03X780280Y2227540I0J-25420D01*
G01Y2107540D01*
G03X805700Y2082120I25420J0D01*
G01X1155700D01*
G03X1181100Y2106520I0J25420D01*
G01X1181330Y2112280D01*
X1736410D01*
X1975150Y1873550D01*
G03X2014220Y1857360I39078J39067D01*
G01X2676860D01*
X2903360Y1630860D01*
G02X2894870Y1610380I-8489J-8480D01*
G01X2891400D01*
X2744380Y1757400D01*
G03X2707100Y1772840I-37280J-37286D01*
G01X1054400D01*
G02X1042590Y1787000I-5J12001D01*
G03X1043620Y1798320I-61888J11338D01*
G03X1040900Y1816630I-62921J10D01*
G02X1052380Y1832120I11480J3491D01*
G01X1155700D01*
G03X1181120Y1857540I0J25420D01*
G01Y1977540D01*
G03X1155700Y2002960I-25420J0D01*
G01X805700D01*
G03X780280Y1977540I0J-25420D01*
G01Y1883570D01*
G02X759800Y1875080I-11999J-2D01*
G01X718200Y1916680D01*
Y3781290D01*
X744120Y3807210D01*
G02X763640Y3803440I8485J-8485D01*
G03X814590Y3769820I50950J21797D01*
G01X854880D01*
G03X865360Y3765370I29716J55417D01*
G01X869530Y3764030D01*
Y3753660D01*
X814590D01*
G03Y3642820I0J-55420D01*
G01X954590D01*
G03X970840Y3645260I-13J55418D01*
G01X971700Y3645520D01*
X1022100D01*
X1192080Y3475540D01*
G03X1229360Y3460100I37280J37286D01*
G01X2108200D01*
G03X2145480Y3475540I0J52726D01*
G01X2589980Y3920040D01*
G03X2603520Y3943290I-37280J37278D01*
G02X2622310Y3949690I11570J-3187D01*
G03X2679720Y3930480I57419J76207D01*
G03X2775140Y4025900I0J95420D01*
G03X2682650Y4121280I-95425J0D01*
G02X2674530Y4141750I369J11992D01*
G01X2691380Y4158600D01*
X5713620D01*
X5721040Y4151180D01*
G03X5758320Y4135740I37280J37286D01*
G01X5910700D01*
G02X5917210Y4113660I-2J-12000D01*
G03X5873580Y4033520I51786J-80140D01*
G03X5874920Y4017570I95421J-15D01*
G01X5875440Y4014520D01*
X5370380Y3509460D01*
G03X5354940Y3472180I37286J-37280D01*
G01Y3421470D01*
G03X5357920Y3404000I52719J4D01*
G01Y3400300D01*
G03X5325220Y3333090I52720J-67210D01*
G03X5341760Y3282570I85424J0D01*
G02X5332090Y3263470I-9673J-7101D01*
G01X5244760D01*
G03X5177550Y3296170I-67210J-52720D01*
G03Y3125330I0J-85420D01*
G03X5244760Y3158030I0J85420D01*
G01X5730430D01*
G03X5767710Y3173470I0J52726D01*
G01X5801780Y3207550D01*
G02X5822180Y3200500I8485J-8487D01*
G03X5906980Y3125360I84800J10281D01*
G03Y3296200I0J85420D01*
G03X5879740Y3291740I0J-85416D01*
G02X5871830Y3297630I-1914J5686D01*
G03X5871860Y3299460I-52691J1779D01*
G01Y3607820D01*
X6204000Y3939960D01*
X6207050Y3939440D01*
G03X6223000Y3938100I15935J94081D01*
G03X6318420Y4033520I0J95420D01*
G03X6274790Y4113660I-95416J0D01*
G02X6281300Y4135740I6512J10080D01*
G01X6418700D01*
G02X6425210Y4113660I-2J-12000D01*
G03X6381580Y4033520I51786J-80140D01*
G03X6572420I95420J0D01*
G03X6528790Y4113660I-95416J0D01*
G02X6535300Y4135740I6512J10080D01*
G01X6593840D01*
G03X6631120Y4151180I0J52726D01*
G01X6793100Y4313160D01*
X6794520Y4313600D01*
G03X6837140Y4371340I-17802J57740D01*
G03X6776720Y4431760I-60420J0D01*
G03X6718980Y4389140I0J-60422D01*
G01X6718540Y4387720D01*
X6572000Y4241180D01*
X6496090D01*
G02X6487600Y4261660I-2J11999D01*
G01X6735060Y4509120D01*
G37*
G36*
G01X1567100Y3789760D02*
X1802240Y4024890D01*
G02X1822670Y4017470I8480J-8487D01*
G03X1917720Y3930480I95050J8433D01*
G03X1977540Y3951560I0J95417D01*
G02X1997060Y3942210I7520J-9351D01*
G01Y3938520D01*
X1718060Y3659520D01*
X1498840D01*
G02X1488370Y3677380I2J12000D01*
G03X1493810Y3698240I-37274J20860D01*
G03X1451090Y3740960I-42720J0D01*
G01X1311090D01*
G03X1285910Y3732750I0J-42718D01*
G02X1266840Y3742450I-7070J9696D01*
G01Y3766030D01*
G02X1284580Y3776570I11999J3D01*
G03X1311090Y3769820I26510J48683D01*
G01X1451090D01*
G03X1473490Y3774550I-3J55419D01*
G01X1474650Y3775060D01*
X1531620D01*
G03X1567100Y3789760I0J50167D01*
G37*
G36*
G01X3049890Y682380D02*
X3394670D01*
X3395600Y677510D01*
G03X3435300Y644680I39700J7589D01*
G01X3585300D01*
G03X3591980Y645240I-25J40418D01*
G01X3595030Y645750D01*
X3601460Y639320D01*
X3584110Y621970D01*
X3581090Y622440D01*
G03X3572510Y623110I-8591J-54749D01*
G03X3627930Y567690I0J-55420D01*
G03X3627260Y576270I-55419J-11D01*
G01X3626790Y579290D01*
X3644680Y597180D01*
X3651170Y590700D01*
X3650580Y587590D01*
G03X3649880Y580100I39722J-7490D01*
G01Y534840D01*
G03X3640120Y505100I40431J-29740D01*
G01Y492910D01*
X3597870Y450650D01*
X3596710Y450190D01*
G03X3577890Y437850I20253J-51410D01*
G01X3499150Y359110D01*
G03X3483050Y323180I39068J-39078D01*
G01X3482730Y317520D01*
X3416300D01*
G03X3390880Y292100I0J-25420D01*
G01Y217830D01*
X3350230Y177180D01*
X3327420D01*
Y292100D01*
G03X3314700Y304820I-12720J0D01*
G01X3187700D01*
G03X3174980Y292100I0J-12720D01*
G01Y177180D01*
X3037870D01*
X2997220Y217830D01*
Y292100D01*
G03X2971800Y317520I-25420J0D01*
G01X2872150D01*
G02X2863660Y338000I-2J11999D01*
G01X2983680Y458020D01*
G03X2999120Y495300I-37286J37280D01*
G01Y566340D01*
X2999380Y567200D01*
G03X3001820Y583450I-52978J16263D01*
G01Y634310D01*
X3049890Y682380D01*
G37*
G36*
G01X3631580Y3315110D02*
X3743160Y3426690D01*
G02X3763640Y3418200I8481J-8487D01*
G01Y3317810D01*
X3995460D01*
X4057930Y3255340D01*
X4318990D01*
X4381530Y3317880D01*
X4411310D01*
X4865010Y2864180D01*
X4232220Y2231400D01*
X3082010D01*
G02X3078550Y2242300I2J6000D01*
G03X3087130Y2249220I-49225J69812D01*
G01X3254440D01*
G03X3298900Y2267640I0J62866D01*
G01X3613160Y2581900D01*
G03X3631580Y2626360I-44446J44460D01*
G01Y3315110D01*
G37*
G36*
G01X3728120Y405200D02*
G03X3752480I12180J24894D01*
G02X3759670Y403730I2644J-5387D01*
G03X3790300Y389680I30630J26363D01*
G03X3815300Y398340I0J40415D01*
G03X3840190Y389680I25002J31760D01*
G03X3854820Y356760I50112J2559D01*
G01X3926820Y284750D01*
Y174640D01*
X3863360D01*
Y292100D01*
G03X3850640Y304820I-12720J0D01*
G01X3723640D01*
G03X3710920Y292100I0J-12720D01*
G01Y174640D01*
X3611910D01*
X3568720Y217830D01*
Y239370D01*
X3577290Y247950D01*
G03X3593480Y287020I-39067J39078D01*
G01Y297150D01*
X3656030Y359710D01*
G03X3668370Y378530I-39070J39073D01*
G01X3668830Y379690D01*
X3680030Y390880D01*
X3683120Y390320D01*
G03X3690300Y389680I7164J39781D01*
G03X3720930Y403730I0J40413D01*
G02X3728120Y405200I4546J-3917D01*
G37*
G36*
G01X3603900Y1687180D02*
X3619180D01*
X3620330Y1686680D01*
G03X3622110Y1685950I21854J50753D01*
G01X3623270Y1685490D01*
X3624660Y1684100D01*
G03X3629900Y1679540I35481J35481D01*
G01X3640120Y1669310D01*
Y1615100D01*
G03X3649880Y1585360I50191J0D01*
G01Y1540100D01*
G03X3690300Y1499680I40420J0D01*
G03X3715300Y1508340I0J40415D01*
G03X3765300I25000J31755D01*
G03X3815300I25000J31755D01*
G03X3865300I25000J31755D01*
G03X3915300I25000J31755D01*
G03X3965300I25000J31755D01*
G03X4015300I25000J31755D01*
G03X4065300I25000J31755D01*
G03X4115300I25000J31755D01*
G03X4165300I25000J31755D01*
G03X4190300Y1499680I25000J31755D01*
G03X4202810Y1501670I-16J40417D01*
G02X4210580Y1497000I1858J-5707D01*
G03X4211370Y1493640I29726J5216D01*
G01X4211620Y1492800D01*
Y1434900D01*
X4160690Y1383970D01*
X4157670Y1384440D01*
G03X4149090Y1385110I-8591J-54749D01*
G03X4204510Y1329690I0J-55420D01*
G03X4203840Y1338270I-55419J-11D01*
G01X4203370Y1341290D01*
X4263140Y1401060D01*
G03X4271980Y1422400I-21338J21340D01*
G01Y1488060D01*
G02X4285430Y1499970I11998J0D01*
G03X4290300Y1499680I4833J40132D01*
G03X4315300Y1508340I0J40415D01*
G03X4340300Y1499680I25000J31755D01*
G03X4370930Y1513730I0J40413D01*
G02X4378120Y1515200I4546J-3917D01*
G03X4382020Y1513650I12158J24909D01*
G02X4386920Y1493710I-3583J-11453D01*
G01X4264500Y1371280D01*
G03X4249800Y1335800I35467J-35480D01*
G01Y1160170D01*
G02X4230050Y1151010I-11998J-2D01*
G03X4191000Y1165320I-39045J-46112D01*
G03X4130580Y1104900I0J-60420D01*
G03X4160820Y1052560I60416J0D01*
G01Y1042670D01*
X4160700Y1042090D01*
G03X4160120Y1036180I29602J-5889D01*
G01Y729910D01*
G02X4139640Y721430I-11998J5D01*
G01X3890980Y970080D01*
Y1098280D01*
G03X3921220Y1150620I-30176J52340D01*
G03X3800380I-60420J0D01*
G03X3830620Y1098280I60416J0D01*
G01Y957580D01*
G03X3839460Y936240I30178J0D01*
G01X4110120Y665580D01*
Y631930D01*
G02X4096330Y620070I-11999J4D01*
G03X4090300Y620520I-6015J-39971D01*
G03X4065300Y611860I0J-40415D01*
G03X4015300I-25000J-31755D01*
G03X3965300I-25000J-31755D01*
G03X3940300Y620520I-25000J-31755D01*
G03X3932540Y619770I-10J-40421D01*
G02X3918870Y627680I-2310J11775D01*
G03X3911640Y639300I-28572J-9718D01*
G01X3874280Y676660D01*
G03X3852940Y685500I-21340J-21338D01*
G01X3660140D01*
G03X3638800Y676660I0J-30178D01*
G01X3631080Y668940D01*
X3624650Y675370D01*
X3625160Y678420D01*
G03X3625720Y685100I-39858J6705D01*
G03X3617060Y710100I-40415J0D01*
G03Y760100I-31755J25000D01*
G03Y810100I-31755J25000D01*
G03Y860100I-31755J25000D01*
G03Y910100I-31755J25000D01*
G03Y960100I-31755J25000D01*
G03Y1010100I-31755J25000D01*
G03Y1060100I-31755J25000D01*
G03Y1110100I-31755J25000D01*
G03Y1160100I-31755J25000D01*
G03Y1210100I-31755J25000D01*
G03Y1260100I-31755J25000D01*
G03Y1310100I-31755J25000D01*
G03X3625720Y1335100I-31755J25000D01*
G03X3611670Y1365730I-40413J0D01*
G02X3610200Y1372920I3917J4546D01*
G03Y1397280I-24894J12180D01*
G02X3611670Y1404470I5387J2644D01*
G03X3625720Y1435100I-26363J30630D01*
G03X3585300Y1475520I-40420J0D01*
G01X3560680D01*
X3559890Y1480610D01*
G03X3545780Y1508440I-49591J-7651D01*
G01X3529980Y1524250D01*
Y1559240D01*
X3530480Y1560390D01*
G03X3535060Y1582420I-50693J22030D01*
G01Y1672450D01*
G02X3551340Y1683660I12000J-1D01*
G03X3573780Y1679520I22446J58779D01*
G03X3602610Y1686510I7J62922D01*
G01X3603900Y1687180D01*
G37*
G36*
G01X3650010Y2035160D02*
X3865340D01*
G02X3876100Y2017850I2J-11998D01*
G03X3873480Y2006600I22802J-11240D01*
G01Y1879600D01*
G03X3898900Y1854180I25420J0D01*
G01X3980350D01*
X4056460Y1778080D01*
G03X4091940Y1763380I35480J35467D01*
G01X4133910D01*
X4146350Y1750950D01*
G02X4138420Y1730480I-8487J-8483D01*
G03X4115300Y1721860I1887J-40377D01*
G03X4065300I-25000J-31755D01*
G03X4015300I-25000J-31755D01*
G03X3965300I-25000J-31755D01*
G03X3915300I-25000J-31755D01*
G03X3865300I-25000J-31755D01*
G03X3815300I-25000J-31755D01*
G03X3765300I-25000J-31755D01*
G03X3740300Y1730520I-25000J-31755D01*
G03X3727580Y1728470I-11J-40422D01*
G01X3724060Y1727300D01*
X3696300Y1755060D01*
G03X3693890Y1757320I-35511J-35452D01*
G03X3681430Y1776430I-51520J-19975D01*
G01X3676350Y1781510D01*
G03X3637280Y1797700I-39078J-39067D01*
G01X3603870D01*
G03X3573780Y1805360I-30090J-55270D01*
G03X3551340Y1801220I6J-62919D01*
G02X3535060Y1812430I-4280J11211D01*
G01Y1854180D01*
X3543300D01*
G03X3568720Y1879600I0J25420D01*
G01Y1953870D01*
X3650010Y2035160D01*
G37*
G36*
G01X4725960Y884920D02*
X4738690D01*
X4739540Y884660D01*
G03X4754880Y882380I15336J50441D01*
G01X4879980D01*
X5509500Y252860D01*
X5509940Y251440D01*
G03X5565680Y208850I57741J17798D01*
G02X5573770Y188380I-400J-11992D01*
G01X5560030Y174640D01*
X4579640D01*
Y294640D01*
G03X4566920Y307360I-12720J0D01*
G01X4439920D01*
G03X4427200Y294640I0J-12720D01*
G01Y174640D01*
X4363740D01*
Y294640D01*
G03X4356680Y312220I-25418J0D01*
G02X4356860Y329010I8663J8303D01*
G01X4364690Y336850D01*
G03X4377520Y356940I-39060J39086D01*
G03X4390480Y390600I-37231J33660D01*
G01Y401940D01*
X4395380Y402850D01*
G03X4402480Y405200I-5080J27250D01*
G02X4409670Y403730I2644J-5387D01*
G03X4440300Y389680I30630J26363D01*
G03X4480720Y430100I0J40420D01*
G01Y580100D01*
G03X4440300Y620520I-40420J0D01*
G03X4409670Y606470I0J-40413D01*
G02X4402480Y605000I-4546J3917D01*
G03X4390300Y607820I-12180J-24894D01*
G03X4384840Y607280I-15J-27721D01*
G02X4370480Y619040I-2361J11764D01*
G01Y652960D01*
X4490930Y773410D01*
G02X4510490Y769540I8484J-8484D01*
G03X4516040Y760100I37300J15578D01*
G03Y710100I31755J-25000D01*
G03X4507380Y685100I31755J-25000D01*
G03X4547800Y644680I40420J0D01*
G01X4697800D01*
G03X4738220Y685100I0J40420D01*
G03X4729560Y710100I-40415J0D01*
G03Y760100I-31755J25000D01*
G03Y810100I-31755J25000D01*
G03X4738220Y835100I-31755J25000D01*
G03X4724170Y865730I-40413J0D01*
G02X4722700Y872920I3917J4546D01*
G03X4725050Y880020I-24900J12180D01*
G01X4725960Y884920D01*
G37*
G36*
G01X4292620Y1879600D02*
Y1988360D01*
G02X4313100Y1996850I12000J1D01*
G01X4356080Y1953870D01*
Y1879600D01*
G03X4381500Y1854180I25420J0D01*
G01X4389740D01*
Y1759690D01*
X4389280Y1758590D01*
G03X4385040Y1737360I51030J-21230D01*
G03X4386700Y1723930I55258J13D01*
G02X4382550Y1716720I-5822J-1448D01*
G03X4378120Y1715000I7782J-26608D01*
G02X4370930Y1716470I-2644J5387D01*
G03X4340300Y1730520I-30630J-26363D01*
G03X4315300Y1721860I0J-40415D01*
G03X4290410Y1730520I-25002J-31760D01*
G03X4275780Y1763440I-50112J-2559D01*
G01X4190180Y1849040D01*
G03X4181750Y1855830I-35509J-35457D01*
G01X4184980Y1866880D01*
X4279900D01*
G03X4292620Y1879600I0J12720D01*
G37*
G36*
G01X4059460Y2035160D02*
X4274790D01*
X4280390Y2029560D01*
G02X4276150Y2019320I-4245J-4240D01*
G01X4152900D01*
G03X4140180Y2006600I0J-12720D01*
G01Y1879600D01*
G03X4140340Y1877610I12718J21D01*
G02X4128480Y1863740I-11854J-1869D01*
G01X4112730D01*
X4051320Y1925150D01*
Y2006600D01*
G03X4048700Y2017850I-25422J10D01*
G02X4059460Y2035160I10758J5312D01*
G37*
G36*
G01X6022360Y1518920D02*
X6195520D01*
G02X6207240Y1504370I-5J-11999D01*
G03X6205800Y1490980I61481J-13384D01*
G03X6213460Y1460890I62930J0D01*
G01Y1369060D01*
G03X6213610Y1364930I55262J-61D01*
G02X6208630Y1358570I-5981J-446D01*
G03X6187420Y1333500I4211J-25070D01*
G01Y1206500D01*
G03X6212840Y1181080I25420J0D01*
G01X6221080D01*
Y1094760D01*
X6212840D01*
G03X6187420Y1069340I0J-25420D01*
G01Y995070D01*
X5993430Y801070D01*
G03X5977240Y762000I39067J-39078D01*
G01Y591850D01*
X5737480Y352090D01*
G02X5717000Y360600I-8480J8489D01*
G01Y360680D01*
G03X5656580Y421100I-60420J0D01*
G03X5628340Y414100I-10J-60423D01*
G01X5627030Y413400D01*
X5617520D01*
Y422170D01*
X5619630Y423960D01*
G03X5640800Y469900I-39261J45940D01*
G03X5638680Y485780I-60422J15D01*
G02X5650460Y500930I11577J3153D01*
G03X5651500Y500920I1101J60409D01*
G03Y621760I0J60420D01*
G03X5621980Y614060I-4J-60421D01*
G01X5584440D01*
X5336380Y862120D01*
G02X5342100Y882280I8482J8485D01*
G03X5392870Y915020I-20804J87996D01*
G01X5606980D01*
X5607810Y914770D01*
G03X5620420Y912570I15739J52972D01*
G02X5626080Y906580I-340J-5990D01*
G01Y904240D01*
G03X5651500Y878820I25420J0D01*
G01X5778500D01*
G03X5803920Y904240I0J25420D01*
G01Y1031240D01*
G03X5778500Y1056660I-25420J0D01*
G01X5651500D01*
G03X5626080Y1031480I0J-25421D01*
G01X5626020Y1025540D01*
X5392870D01*
G03X5321300Y1060700I-71570J-55262D01*
G03X5312550Y1060280I-45J-90422D01*
G01X5309730Y1060000D01*
X5159450Y1210280D01*
X5309730Y1360560D01*
X5312550Y1360280D01*
G03X5321300Y1359860I8705J90002D01*
G03X5392870Y1395020I0J90422D01*
G01X5628620D01*
Y1386840D01*
G03X5654040Y1361420I25420J0D01*
G01X5781040D01*
G03X5806460Y1386840I0J25420D01*
G01Y1518920D01*
X5869920D01*
Y1386840D01*
G03X5882640Y1374120I12720J0D01*
G01X6009640D01*
G03X6022360Y1386840I0J12720D01*
G01Y1518920D01*
G37*
%LPC*%
G75*
G36*
G01X792980Y3107540D02*
Y3227540D01*
G02X805700Y3240260I12720J0D01*
G01X1155700D01*
G02X1168420Y3227540I0J-12720D01*
G01Y3107540D01*
G02X1155700Y3094820I-12720J0D01*
G01X805700D01*
G02X792980Y3107540I0J12720D01*
G37*
G36*
G01X4013180Y3721100D02*
Y3848100D01*
G02X4025900Y3860820I12720J0D01*
G01X4152900D01*
G02X4165620Y3848100I0J-12720D01*
G01Y3721100D01*
G02X4152900Y3708380I-12720J0D01*
G01X4025900D01*
G02X4013180Y3721100I0J12720D01*
G37*
G36*
G01X6832580D02*
Y3848100D01*
G02X6845300Y3860820I12720J0D01*
G01X6972300D01*
G02X6985020Y3848100I0J-12720D01*
G01Y3721100D01*
G02X6972300Y3708380I-12720J0D01*
G01X6845300D01*
G02X6832580Y3721100I0J12720D01*
G37*
G36*
G01X7212020Y2547960D02*
G02X7230440Y2592420I62866J0D01*
G01X7440640Y2802630D01*
X7440800Y2804870D01*
G02X7526020Y2884500I85220J-5786D01*
G02X7611440Y2799080I0J-85420D01*
G02X7531810Y2713860I-85416J0D01*
G01X7529570Y2713700D01*
X7337780Y2521910D01*
Y2483720D01*
X7354900D01*
G02X7380320Y2458300I0J-25420D01*
G01Y2388300D01*
G02X7354900Y2362880I-25420J0D01*
G01X7292330D01*
X7291550Y2362670D01*
G02X7274900Y2360420I-16670J60627D01*
G02X7258250Y2362670I20J62877D01*
G01X7257470Y2362880D01*
X7194900D01*
G02X7169480Y2388300I0J25420D01*
G01Y2458300D01*
G02X7194900Y2483720I25420J0D01*
G01X7212020D01*
Y2547960D01*
G37*
G36*
G01X6591280Y2908300D02*
Y3035300D01*
G02X6616700Y3060720I25420J0D01*
G01X6743700D01*
G02X6769120Y3035300I0J-25420D01*
G01Y2908300D01*
G02X6743700Y2882880I-25420J0D01*
G01X6732920D01*
Y2635580D01*
X6733390Y2634470D01*
G02X6738080Y2611120I-55732J-23340D01*
G02X6617240I-60420J0D01*
G02X6627480Y2644770I60409J0D01*
G01Y2882880D01*
X6616700D01*
G02X6591280Y2908300I0J25420D01*
G37*
G36*
G01X6572580Y3193200D02*
Y3263200D01*
G02X6598000Y3288620I25420J0D01*
G01X6758000D01*
G02X6783420Y3263200I0J-25420D01*
G01Y3251530D01*
X6947870Y3087070D01*
G02X6961420Y3064890I-39058J-39090D01*
G01X6962750Y3060720D01*
X6972300D01*
G02X6997720Y3035300I0J-25420D01*
G01Y2908300D01*
G02X6972300Y2882880I-25420J0D01*
G01X6845300D01*
G02X6819880Y2908300I0J25420D01*
G01Y3035300D01*
G02X6823610Y3048550I25418J-6D01*
G01X6826070Y3052580D01*
X6710870Y3167780D01*
X6598000D01*
G02X6572580Y3193200I0J25420D01*
G37*
G36*
G01X3046280Y3705020D02*
X3348160Y4006900D01*
X3347640Y4009950D01*
G02X3346300Y4025900I94081J15935D01*
G02X3441720Y3930480I95420J0D01*
G02X3425770Y3931820I-15J95421D01*
G01X3422720Y3932340D01*
X3136280Y3645900D01*
Y3342640D01*
G02X3128200Y3314590I-52728J0D01*
G03X3138350Y3296200I10156J-6391D01*
G01X3138380D01*
G02Y3125360I0J-85420D01*
G02X3052980Y3208810I0J85423D01*
G03X3032500Y3217020I-11995J-273D01*
G01X2988950Y3173470D01*
G02X2951670Y3158030I-37280J37286D01*
G01X2476160D01*
G02X2408950Y3125330I-67210J52720D01*
G02Y3296170I0J85420D01*
G02X2476160Y3263470I0J-85420D01*
G01X2563490D01*
G03X2573160Y3282570I-3J11999D01*
G02X2556620Y3333090I68884J50520D01*
G02X2589320Y3400300I85420J0D01*
G01Y3480220D01*
G02X2604760Y3517500I52726J0D01*
G01X3094160Y4006900D01*
X3093640Y4009950D01*
G02X3092300Y4025900I94081J15935D01*
G02X3187720Y3930480I95420J0D01*
G02X3171770Y3931820I-15J95421D01*
G01X3168720Y3932340D01*
X2694760Y3458380D01*
Y3400300D01*
G02X2727460Y3333090I-52720J-67210D01*
G02X2710920Y3282570I-85424J0D01*
G03X2720590Y3263470I9673J-7101D01*
G01X2826730D01*
G03X2836410Y3282570I6J12000D01*
G02X2819860Y3333100I68863J50530D01*
G02X2905280Y3418520I85420J0D01*
G02X2989150Y3349270I0J-85413D01*
G03X3009420Y3343060I11783J2275D01*
G01X3030840Y3364480D01*
Y3667740D01*
G02X3046280Y3705020I52726J0D01*
G37*
G36*
G01X3771880Y2908300D02*
Y3035300D01*
G02X3797300Y3060720I25420J0D01*
G01X3924300D01*
G02X3949720Y3035300I0J-25420D01*
G01Y2908300D01*
G02X3924300Y2882880I-25420J0D01*
G01X3913520D01*
Y2561900D01*
G02X3921220Y2532380I-52721J-29516D01*
G02X3800380I-60420J0D01*
G02X3808080Y2561900I60421J4D01*
G01Y2882880D01*
X3797300D01*
G02X3771880Y2908300I0J25420D01*
G37*
G36*
G01X3765880Y3193200D02*
Y3263200D01*
G02X3791300Y3288620I25420J0D01*
G01X3951300D01*
G02X3971020Y3279240I0J-25419D01*
G02X3988910Y3267270I-21194J-51030D01*
G01X4148790Y3107390D01*
G02X4164980Y3068320I-39067J-39078D01*
G01Y3057880D01*
X4167530Y3056090D01*
G02X4178320Y3035300I-14634J-20790D01*
G01Y2908300D01*
G02X4152900Y2882880I-25420J0D01*
G01X4025900D01*
G02X4000480Y2908300I0J25420D01*
G01Y3035300D01*
G02X4016890Y3059070I25421J0D01*
G03X4021120Y3078770I-4258J11218D01*
G01X3932110Y3167780D01*
X3791300D01*
G02X3765880Y3193200I0J25420D01*
G37*
G36*
G01X3657580Y1879600D02*
Y2006600D01*
G02X3670300Y2019320I12720J0D01*
G01X3797300D01*
G02X3810020Y2006600I0J-12720D01*
G01Y1879600D01*
G02X3797300Y1866880I-12720J0D01*
G01X3670300D01*
G02X3657580Y1879600I0J12720D01*
G37*
G36*
G01X5867380Y904240D02*
Y1031240D01*
G02X5880100Y1043960I12720J0D01*
G01X6007100D01*
G02X6019820Y1031240I0J-12720D01*
G01Y904240D01*
G02X6007100Y891520I-12720J0D01*
G01X5880100D01*
G02X5867380Y904240I0J12720D01*
G37*
G54D69*
X7272020Y2799080D03*
G54D72*
X5715000Y4033520D03*
X2933720Y4025900D03*
G54D70*
X6056530Y2994140D03*
X6088270Y2732810D03*
X5994940Y2486670D03*
X2518080Y2312080D03*
X2227690Y2732780D03*
X2259420Y2994100D03*
X3287930Y2994140D03*
X3319670Y2732810D03*
X2321040Y2486640D03*
G54D71*
X5207000Y4033520D03*
X5461000D03*
X4953000D03*
X4699000D03*
X3695720Y4025900D03*
%LPD*%
G75*
G54D10*
X599440Y601980D03*
Y5001260D03*
X20675600Y601980D03*
Y5001260D03*
G54D11*
X267600Y1609840D03*
Y3475240D03*
G54D20*
X1604630Y3324570D03*
X1504630D03*
X1404630D03*
X1604630Y3224570D03*
X1504630D03*
X1404630D03*
X1613600Y3710030D03*
X1717410Y3793080D03*
X3197660Y595430D03*
X3097660D03*
X3160740Y384240D03*
X3060740D03*
X3626190Y220910D03*
X3297660Y595430D03*
X3260740Y384240D03*
X3760650Y753080D03*
X3712690Y1260130D03*
X3730360Y1770300D03*
X3331620Y1584480D03*
X3860650Y753080D03*
X3970450Y1388110D03*
X3950480Y1775840D03*
X4303800Y1795500D03*
X4315830Y2685690D03*
X4215830D03*
X4315830Y2585690D03*
X4215830D03*
X4944110Y422070D03*
X4844110D03*
X4944110Y322070D03*
X4844110D03*
X4944110Y222070D03*
X4844110D03*
X5812640Y1169260D03*
X5712640D03*
X5612640D03*
X6012640D03*
X5912640D03*
X7799680Y3777360D03*
X7699680D03*
X7799680Y3677360D03*
X7699680D03*
X7799680Y3577360D03*
X7699680D03*
X7899680Y3777360D03*
Y3677360D03*
Y3577360D03*
X10766890Y3753760D03*
X10666890D03*
X10566890D03*
X10766890Y3653760D03*
X10666890D03*
X10566890D03*
X10766890Y3553760D03*
X10666890D03*
X10566890D03*
X13686550Y3431070D03*
Y3631070D03*
Y3531070D03*
X13886550Y3431070D03*
X13786550D03*
X13886550Y3631070D03*
X13786550D03*
X13886550Y3531070D03*
X13786550D03*
X17313090Y3427390D03*
X17213090D03*
X17113090D03*
X17313090Y3327390D03*
X17213090D03*
X17113090D03*
X17313090Y3527390D03*
X17213090D03*
X17113090D03*
G54D21*
X1917720Y4025900D03*
X2171720D03*
X2425720D03*
Y4787900D03*
X2171720D03*
X2679720Y4025900D03*
X2933720D03*
X3187720D03*
Y4787900D03*
X2933720D03*
X2679720D03*
X3441720Y4025900D03*
X3695720D03*
Y4787900D03*
X3441720D03*
X4699000Y4033520D03*
X4953000D03*
X5207000D03*
Y4795520D03*
X4953000D03*
X5461000Y4033520D03*
X5715000D03*
Y4795520D03*
X5461000D03*
X5969000Y4033520D03*
X6223000D03*
X6477000D03*
Y4795520D03*
X6223000D03*
X5969000D03*
X8389620Y4041140D03*
X8643620D03*
X8897620D03*
X9151620D03*
Y4803140D03*
X8897620D03*
X8643620D03*
X9405620Y4041140D03*
X9659620D03*
Y4803140D03*
X9405620D03*
X9913620Y4041140D03*
X10167620D03*
Y4803140D03*
X9913620D03*
X11099800Y4030980D03*
X11353800D03*
X11607800D03*
Y4792980D03*
X11353800D03*
X11861800Y4030980D03*
X12115800D03*
X12369800D03*
Y4792980D03*
X12115800D03*
X11861800D03*
X12623800Y4030980D03*
X12877800D03*
Y4792980D03*
X12623800D03*
X14874240Y4033520D03*
X15128240D03*
X15382240D03*
X15636240D03*
Y4795520D03*
X15382240D03*
X15128240D03*
X15890240Y4033520D03*
X16144240D03*
X16398240D03*
Y4795520D03*
X16144240D03*
X15890240D03*
X16652240Y4033520D03*
Y4795520D03*
X17597120Y4020820D03*
X17851120D03*
X18105120D03*
X18359120D03*
Y4782820D03*
X18105120D03*
X17851120D03*
X18613120Y4020820D03*
X18867120D03*
Y4782820D03*
X18613120D03*
X19121120Y4020820D03*
X19375120D03*
Y4782820D03*
X19121120D03*
G54D30*
X6852650Y764540D03*
Y637540D03*
Y510540D03*
Y383540D03*
Y1272540D03*
Y1145540D03*
Y1018540D03*
Y891540D03*
X7803150Y383540D03*
Y510540D03*
Y637540D03*
Y764540D03*
Y891540D03*
Y1018540D03*
Y1145540D03*
Y1272540D03*
G54D12*
X1155700Y478100D03*
Y1308100D03*
X1282700Y478100D03*
Y1308100D03*
G54D40*
X18154300Y1687430D03*
G54D22*
X1917720Y4787900D03*
X4699000Y4795520D03*
X8389620Y4803140D03*
X11099800Y4792980D03*
X14874240Y4795520D03*
X17597120Y4782820D03*
G54D31*
X8282540Y519240D03*
X8982540D03*
X9631740D03*
X10331740D03*
X10980940D03*
X11680940D03*
X12330140D03*
X13030140D03*
G54D13*
X980700Y1462780D03*
Y1798320D03*
X2382520Y400950D03*
X2723250D03*
X3230880Y1742440D03*
X3573780D03*
X6268720Y1490980D03*
X6609080Y1943100D03*
X8181340Y1628140D03*
X19638720Y3472180D03*
G54D41*
X17925300Y1020430D03*
X18383300D03*
G54D50*
X20876260Y1902460D03*
G54D32*
X8407540Y269240D03*
X8857540D03*
X9756740D03*
X10206740D03*
X11105940D03*
X11555940D03*
X12455140D03*
X12905140D03*
G54D23*
X2227690Y2732780D03*
X2321040Y2486640D03*
X2518080Y2312080D03*
X2408950Y3210750D03*
X2259420Y2994100D03*
X3029310Y2312100D03*
X3226340Y2486670D03*
X2773680Y2249080D03*
X3138380Y3210780D03*
X2905280Y3333100D03*
X2642040Y3333090D03*
X3319670Y2732810D03*
X3287930Y2994140D03*
X4996290Y2732780D03*
X5089640Y2486640D03*
X5177550Y3210750D03*
X5028020Y2994100D03*
X5797910Y2312100D03*
X5286680Y2312080D03*
X5542280Y2249080D03*
X5673880Y3333100D03*
X5410640Y3333090D03*
X5994940Y2486670D03*
X6088270Y2732810D03*
X6056530Y2994140D03*
X5906980Y3210780D03*
X7272020Y2799080D03*
X7526020D03*
X8702150Y2732780D03*
X8795500Y2486640D03*
X8992540Y2312080D03*
X9116500Y3333090D03*
X8883410Y3210750D03*
X8733880Y2994100D03*
X9503770Y2312100D03*
X9700800Y2486670D03*
X9794130Y2732810D03*
X9248140Y2249080D03*
X9762390Y2994140D03*
X9612840Y3210780D03*
X9379740Y3333100D03*
X11473290Y2732780D03*
X11566640Y2486640D03*
X11763680Y2312080D03*
X11654550Y3210750D03*
X11505020Y2994100D03*
X12274910Y2312100D03*
X12019280Y2249080D03*
X12383980Y3210780D03*
X12150880Y3333100D03*
X11887640Y3333090D03*
X12471940Y2486670D03*
X12565270Y2732810D03*
X12533530Y2994140D03*
X13749020Y2799080D03*
X14003020D03*
X15174070Y2732780D03*
X15267420Y2486640D03*
X15464460Y2312080D03*
X15720060Y2249080D03*
X15588420Y3333090D03*
X15355330Y3210750D03*
X15205800Y2994100D03*
X15975690Y2312100D03*
X16172720Y2486670D03*
X16266050Y2732810D03*
X16234310Y2994140D03*
X16084760Y3210780D03*
X15851660Y3333100D03*
X17945210Y2732780D03*
X18038560Y2486640D03*
X18235600Y2312080D03*
X18359560Y3333090D03*
X18126470Y3210750D03*
X17976940Y2994100D03*
X18746830Y2312100D03*
X18943860Y2486670D03*
X19037190Y2732810D03*
X18491200Y2249080D03*
X19005450Y2994140D03*
X18855900Y3210780D03*
X18622800Y3333100D03*
G54D14*
X980700Y2167540D03*
Y1917540D03*
Y2667540D03*
Y2417540D03*
Y3167540D03*
Y2917540D03*
G54D60*
G01Y3088820D02*
Y3167540D01*
G01D02*
Y3246260D01*
G01X786980Y3167540D02*
X980700D01*
G01D02*
X1174420D01*
G01X884590Y4157520D02*
Y4206240D01*
G01D02*
Y4254960D01*
G01Y4206240D02*
X1003310D01*
G01X1381090Y3698240D02*
Y3746960D01*
G01Y3698240D02*
X1499810D01*
G01X3168980Y228600D02*
X3251200D01*
G01X3168980Y1943100D02*
X3251200D01*
G01X2933720Y3937180D02*
Y4025900D01*
G01D02*
Y4114620D01*
G01X2845000Y4025900D02*
X2933720D01*
G01D02*
X3022440D01*
G01X3251200Y228600D02*
Y310820D01*
G01Y228600D02*
X3333420D01*
G01X3787140D02*
Y310820D01*
G01X3704920Y228600D02*
X3787140D01*
G01D02*
X3869360D01*
G01X3251200Y1860880D02*
Y1943100D01*
G01D02*
Y2025320D01*
G01Y1943100D02*
X3333420D01*
G01X3733800Y1860880D02*
Y1943100D01*
G01X3651580D02*
X3733800D01*
G01D02*
X3816020D01*
G01X4503420Y231140D02*
Y313360D01*
G01X4421200Y231140D02*
X4503420D01*
G01D02*
X4585640D01*
G01X4216400Y1860880D02*
Y1943100D01*
G01X4134180D02*
X4216400D01*
G01D02*
X4298620D01*
G01X4089400Y3702380D02*
Y3784600D01*
G01D02*
Y3866820D01*
G01X4007180Y3784600D02*
X4089400D01*
G01D02*
X4171620D01*
G01X4754880Y637540D02*
Y511300D01*
X4844110Y422070D01*
G01X5715000Y3944800D02*
Y4033520D01*
G01D02*
Y4122240D01*
G01X5626280Y4033520D02*
X5715000D01*
G01D02*
X5803720D01*
G01X6276340Y656920D02*
Y739140D01*
G01D02*
Y821360D01*
G01X6194120Y739140D02*
X6276340D01*
G01D02*
X6358560D01*
G01X5946140Y1368120D02*
Y1450340D01*
G01X5863920D02*
X5946140D01*
G01D02*
X6028360D01*
G01X5943600Y885520D02*
Y967740D01*
G01D02*
Y1049960D01*
G01X5861380Y967740D02*
X5943600D01*
G01D02*
X6025820D01*
G01X6852650Y334820D02*
Y383540D01*
G01D02*
Y432260D01*
G01X6742680Y383540D02*
X6852650D01*
G01D02*
X6962620D01*
G01X6852650Y461820D02*
Y510540D01*
G01D02*
Y559260D01*
G01X6742680Y510540D02*
X6852650D01*
G01D02*
X6962620D01*
G01X6852650Y588820D02*
Y637540D01*
G01D02*
Y686260D01*
G01X6742680Y637540D02*
X6852650D01*
G01D02*
X6962620D01*
G01X6852650Y715820D02*
Y764540D01*
G01D02*
Y813260D01*
G01X6742680Y764540D02*
X6852650D01*
G01D02*
X6962620D01*
G01X6852650Y842820D02*
Y891540D01*
G01D02*
X6962620D01*
G01X6908800Y3702380D02*
Y3784600D01*
G01D02*
Y3866820D01*
G01X6826580Y3784600D02*
X6908800D01*
G01D02*
X6991020D01*
G01X7095550Y4815840D02*
X7214270D01*
G01X7803150Y461820D02*
Y510540D01*
G01D02*
Y559260D01*
G01X7693180Y510540D02*
X7803150D01*
G01D02*
X7913120D01*
G01X7803150Y715820D02*
Y764540D01*
G01D02*
Y813260D01*
G01X7693180Y764540D02*
X7803150D01*
G01D02*
X7913120D01*
G01X7803150Y588820D02*
Y637540D01*
G01D02*
Y686260D01*
G01X7693180Y637540D02*
X7803150D01*
G01D02*
X7913120D01*
G01X7803150Y334820D02*
Y383540D01*
G01D02*
Y432260D01*
G01X7693180Y383540D02*
X7803150D01*
G01D02*
X7913120D01*
G01X7272020Y2720360D02*
Y2799080D01*
G01D02*
Y2877800D01*
G01X7193300Y2799080D02*
X7272020D01*
G01D02*
X7350740D01*
G01X7214270Y4767120D02*
Y4815840D01*
G01X7710770Y4307840D02*
Y4356560D01*
G01Y4307840D02*
X7829490D01*
G01X7214270Y4815840D02*
Y4864560D01*
G01Y4815840D02*
X7332990D01*
G01X8857540Y165520D02*
Y269240D01*
G01D02*
Y372960D01*
G01X8753820Y269240D02*
X8857540D01*
G01D02*
X8961260D01*
G01X9085580Y922280D02*
Y1016000D01*
G01D02*
Y1109720D01*
G01X8941860Y1016000D02*
X9085580D01*
G01D02*
X9229300D01*
G01X9405620Y3952420D02*
Y4041140D01*
G01X9316900D02*
X9405620D01*
G01D02*
X9494340D01*
G01X10206740Y165520D02*
Y269240D01*
G01D02*
Y372960D01*
G01X10103020Y269240D02*
X10206740D01*
G01D02*
X10310460D01*
G01X11555940Y165520D02*
Y269240D01*
G01D02*
Y372960D01*
G01X11452220Y269240D02*
X11555940D01*
G01D02*
X11659660D01*
G01X12115800Y3942260D02*
Y4030980D01*
G01X12027080D02*
X12115800D01*
G01D02*
X12204520D01*
G01X12905140Y165520D02*
Y269240D01*
G01D02*
Y372960D01*
G01X12801420Y269240D02*
X12905140D01*
G01D02*
X13008860D01*
G01X13670300Y2799080D02*
X13749020D01*
G01X13686190Y4789980D02*
Y4838700D01*
G01D02*
Y4887420D01*
G01X13567470Y4838700D02*
X13686190D01*
G01D02*
X13804910D01*
G01X13749020Y2720360D02*
Y2799080D01*
G01D02*
Y2877800D01*
G01Y2799080D02*
X13827740D01*
G01X14182690Y4281980D02*
Y4330700D01*
G01D02*
Y4379420D01*
G01X14063970Y4330700D02*
X14182690D01*
G01D02*
X14301410D01*
G01X15946100Y801160D02*
Y944880D01*
G01D02*
Y1088600D01*
G01X15727380Y944880D02*
X15946100D01*
G01D02*
X16164820D01*
G01X15890240Y3944800D02*
Y4033520D01*
G01D02*
Y4122240D01*
G01X15801520Y4033520D02*
X15890240D01*
G01D02*
X15978960D01*
G01X16687260Y261960D02*
Y360680D01*
G01D02*
Y459400D01*
G01X16588540Y360680D02*
X16687260D01*
G01D02*
X16785980D01*
G01X17284700Y446580D02*
Y528800D01*
G01D02*
Y611020D01*
G01X17202480Y528800D02*
X17284700D01*
G01D02*
X17366920D01*
G01X17284700Y304800D02*
Y387020D01*
G01X17202480Y304800D02*
X17284700D01*
G01D02*
X17366920D01*
G01X17882010Y408940D02*
Y465160D01*
G01X17734540Y408940D02*
X17882010D01*
G01D02*
X18029480D01*
G01X17882010Y479720D02*
Y535940D01*
G01X17734540D02*
X17882010D01*
G01D02*
X18029480D01*
G01X18262040Y281940D02*
X18409510D01*
G01Y225720D02*
Y281940D01*
G01D02*
X18556980D01*
G01X18924600Y302260D02*
X19006820D01*
G01X18613120Y3932100D02*
Y4020820D01*
G01D02*
Y4109540D01*
G01X18524400Y4020820D02*
X18613120D01*
G01D02*
X18701840D01*
G01X19006820Y302260D02*
Y384480D01*
G01Y302260D02*
X19089040D01*
G01X19570960Y876300D02*
X19664680D01*
G01X19570940Y1663700D02*
X19679660D01*
G01X19918680Y782580D02*
Y876300D01*
G01X19664680Y782580D02*
Y876300D01*
G01X19918680D02*
Y970020D01*
G01X19824960Y876300D02*
X19918680D01*
G01D02*
X20012400D01*
G01X19664680D02*
Y970020D01*
G01Y876300D02*
X19758400D01*
G01X19679660Y1554980D02*
Y1663700D01*
G01D02*
Y1772420D01*
G01Y1663700D02*
X19788380D01*
G01X20134580Y3976700D02*
Y4058920D01*
G01D02*
Y4141140D01*
G01X20052360Y4058920D02*
X20134580D01*
G01D02*
X20216800D01*
G01X19847560Y3868620D02*
Y3947340D01*
G01D02*
Y4026060D01*
G01X19758840Y3947340D02*
X19847560D01*
G01D02*
X19936280D01*
G01X20794040Y1902460D02*
X20876260D01*
G01D02*
X20958480D01*
G01X20876260Y1807540D02*
Y1902460D01*
G01D02*
Y1997380D01*
G01X20565450Y2473500D02*
X20664170D01*
G01D02*
X20762890D01*
G01X20761780Y3213280D02*
Y3302000D01*
G01D02*
Y3390720D01*
G01X20683060Y3302000D02*
X20761780D01*
G01D02*
X20840500D01*
G01X20650200Y3478860D02*
Y3561080D01*
G01D02*
Y3643300D01*
G01X20567980Y3561080D02*
X20650200D01*
G01D02*
X20732420D01*
G01X20882610Y3697630D02*
Y3816350D01*
G01D02*
Y3935070D01*
G01X20821390Y3816350D02*
X20882610D01*
G01D02*
X20943830D01*
G54D42*
X18811240Y973180D03*
G54D33*
X8221980Y1016000D03*
X9085580D03*
G54D51*
X20953170Y2514600D03*
Y2692400D03*
G54D24*
X3510300Y785100D03*
Y735100D03*
Y685100D03*
Y1435100D03*
Y1385100D03*
Y1335100D03*
Y1285100D03*
Y1235100D03*
Y1185100D03*
Y1135100D03*
Y1085100D03*
Y1035100D03*
Y985100D03*
Y935100D03*
Y885100D03*
Y835100D03*
X4622800Y685100D03*
Y735100D03*
Y785100D03*
Y835100D03*
Y885100D03*
Y935100D03*
Y985100D03*
Y1035100D03*
Y1085100D03*
Y1135100D03*
Y1185100D03*
Y1235100D03*
Y1285100D03*
Y1335100D03*
Y1385100D03*
Y1435100D03*
G54D15*
X884590Y4079240D03*
Y3952240D03*
Y3825240D03*
Y3698240D03*
Y4587240D03*
Y4460240D03*
Y4333240D03*
Y4206240D03*
X1381090Y3698240D03*
Y3825240D03*
Y3952240D03*
Y4079240D03*
Y4206240D03*
Y4333240D03*
Y4460240D03*
Y4587240D03*
X7214270Y4688840D03*
Y4561840D03*
Y4434840D03*
Y4307840D03*
Y5196840D03*
Y5069840D03*
Y4942840D03*
Y4815840D03*
X7710770Y4307840D03*
Y4434840D03*
Y4561840D03*
Y4688840D03*
Y4815840D03*
Y4942840D03*
Y5069840D03*
Y5196840D03*
X13686190Y4711700D03*
Y4584700D03*
Y4457700D03*
Y4330700D03*
Y5219700D03*
Y5092700D03*
Y4965700D03*
Y4838700D03*
X14182690Y4330700D03*
Y4457700D03*
Y4584700D03*
Y4711700D03*
Y4838700D03*
Y4965700D03*
Y5092700D03*
Y5219700D03*
G54D61*
G01X6852650Y1018540D02*
X7058660D01*
X7320280Y756920D01*
Y558800D01*
X7693660Y185420D01*
X7904480D01*
X8064500Y345440D01*
Y566420D01*
X8242300Y744220D01*
X9207500D01*
X9408160Y944880D01*
X14135100D01*
G01X20134580Y4287520D02*
X19950760D01*
X19950580Y4287340D01*
X19847560D01*
G01X20652610Y3816350D02*
Y3899030D01*
X20271740Y4279900D01*
Y4285900D01*
X20270120Y4287520D01*
X20134580D01*
G54D43*
X18811240Y1653180D03*
G54D34*
X14135100Y944880D03*
X15946100D03*
G54D52*
X20954170Y2241000D03*
Y2966000D03*
G54D16*
X1052480Y3817620D03*
X1109980Y4889500D03*
X1590040Y1315720D03*
X2181860D03*
X2707640D03*
X6985000Y4434840D03*
X6802120Y4986020D03*
X13093700Y4978400D03*
X13498830Y4466590D03*
X20424140Y2857500D03*
G54D25*
X3690300Y505100D03*
X3740300D03*
X3790300D03*
X3840300D03*
Y1615100D03*
X3790300D03*
X3740300D03*
X3690300D03*
X3890300Y505100D03*
X3940300D03*
X3990300D03*
X4040300D03*
X4090300D03*
X4140300D03*
X4190300D03*
X4240300D03*
X4290300D03*
X4340300D03*
X4390300D03*
X4440300D03*
Y1615100D03*
X4390300D03*
X4340300D03*
X4290300D03*
X4240300D03*
X4190300D03*
X4140300D03*
X4090300D03*
X4040300D03*
X3990300D03*
X3940300D03*
X3890300D03*
G54D62*
G01X1701800Y228600D02*
X1610360D01*
X1605280Y223520D01*
X1183640D01*
X980700Y426460D01*
Y1462780D01*
G01D02*
X1038860Y1404620D01*
X1155700D01*
G01D02*
X1228680D01*
X1282700Y1350600D01*
Y1308100D01*
G01X1155700Y1404620D02*
Y1308100D01*
G01X980700Y1917540D02*
Y1798320D01*
G01X3368040Y1135100D02*
X3355620D01*
X3349940Y1140780D01*
X3347130D01*
X3116900Y1371010D01*
Y1495470D01*
X2699750Y1912620D01*
X2014220D01*
X1759300Y2167540D01*
X980700D01*
G01X3368040Y1338580D02*
X3217860Y1488760D01*
Y1537290D01*
X2738710Y2016440D01*
X2735900D01*
X2733040Y2019300D01*
X2189480D01*
X1541240Y2667540D01*
X980700D01*
G01X3368040Y1191260D02*
X3167380Y1391920D01*
Y1516380D01*
X2717800Y1965960D01*
X2110740D01*
X1659160Y2417540D01*
X980700D01*
G01X3230880Y1742440D02*
X2903220Y2070100D01*
X2278380D01*
X1430940Y2917540D01*
X980700D01*
G01X2197100Y228600D02*
X2090420Y121920D01*
X1808480D01*
X1701800Y228600D01*
G01D02*
X1955800Y482600D01*
Y653450D01*
G01X2908300Y228600D02*
X2788920Y109220D01*
X2316480D01*
X2197100Y228600D01*
G01X2382520Y400950D02*
X2428800Y447230D01*
X2429180D01*
X2565400Y583450D01*
Y653450D01*
G01X2382520Y400950D02*
X2336240Y354670D01*
X2323170D01*
X2197100Y228600D01*
G01X3479800D02*
X3373120Y121920D01*
X3014980D01*
X2908300Y228600D01*
G01X2723250Y400950D02*
X2819400Y497100D01*
Y653450D01*
G01X3479800Y228600D02*
X3589020Y119380D01*
X4190360D01*
G01X3479800Y228600D02*
X3538220Y287020D01*
Y320040D01*
X3616960Y398780D01*
G01X3479800Y1943100D02*
Y1582420D01*
G01X4445000Y1943100D02*
X4297680Y2090420D01*
X3627120D01*
X3479800Y1943100D01*
G01X3642360Y1737360D02*
X3637280Y1742440D01*
X3573780D01*
G01X4190360Y119380D02*
X4274820Y203840D01*
Y231140D01*
G01X6276340Y1005840D02*
X6032500Y762000D01*
Y568960D01*
X5582920Y119380D01*
X4190360D01*
G01X4274820Y231140D02*
X4272280Y233680D01*
Y322580D01*
X4325620Y375920D01*
G01X4445000Y1943100D02*
X6609080D01*
G01X4445000D02*
Y1742060D01*
X4440300Y1737360D01*
G01X4089400Y2971800D02*
X4109720Y2992120D01*
Y3068320D01*
X3949840Y3228200D01*
X3871300D01*
G01X5321300Y970280D02*
X5106960Y1184620D01*
X4754880D01*
G01Y1235100D02*
X5106120D01*
X5321300Y1450280D01*
G01Y970280D02*
X5621020D01*
X5623560Y967740D01*
X5715000D01*
G01X5321300Y1450280D02*
X5626040D01*
X5626100Y1450340D01*
X5717540D01*
G01X6268720Y1490980D02*
Y1369060D01*
X6276340Y1361440D01*
Y1270000D01*
G01D02*
Y1005840D01*
G01X6908800Y2971800D02*
Y3048000D01*
X6728600Y3228200D01*
X6678000D01*
G01X7505700Y1866900D02*
X7515860Y1877060D01*
Y1958340D01*
X7350900Y2123300D01*
X7274900D01*
G01X8181340Y1397000D02*
Y1628140D01*
G01X7803150Y1145540D02*
X7929880D01*
X8181340Y1397000D01*
G01X13995400Y1879600D02*
Y1950200D01*
X13809600Y2136000D01*
X13764600D01*
G01X19638720Y3472180D02*
Y4078500D01*
X19757800Y4197580D01*
Y4207580D01*
X19837560Y4287340D01*
X19847560D01*
G54D17*
X1701800Y228600D03*
X1729740Y1529080D03*
X1930400Y228600D03*
X2197100D03*
X2425700D03*
X2197100Y1526540D03*
X2425700D03*
X1958340Y1529080D03*
X2908300Y228600D03*
X2679700D03*
X2677160Y1521460D03*
X2905760D03*
X2773680Y2687320D03*
Y2915920D03*
X3479800Y228600D03*
X3251200D03*
X3787140D03*
X3479800Y1943100D03*
X3251200D03*
X3733800D03*
X3860800Y2971800D03*
Y3784600D03*
X4274820Y231140D03*
X4503420D03*
X4015740Y228600D03*
X4445000Y1943100D03*
X4216400D03*
X3962400D03*
X4089400Y2971800D03*
Y3784600D03*
X5715000Y967740D03*
X5717540Y1450340D03*
X5544820Y2712720D03*
Y2941320D03*
X6504940Y739140D03*
X6276340D03*
X5943600Y967740D03*
X5946140Y1450340D03*
X6276340Y1270000D03*
X6504940D03*
X6276340Y1005840D03*
X6504940D03*
X6680200Y2971800D03*
X6908800D03*
X6680200Y3784600D03*
X6908800D03*
X7277100Y1866900D03*
X7505700D03*
X8181340Y1397000D03*
X8409940D03*
X9248140Y2725420D03*
Y2954020D03*
X12019280Y2717800D03*
Y2946400D03*
X13766800Y1879600D03*
X13995400D03*
X15717520Y2725420D03*
Y2954020D03*
X17513300Y304800D03*
X17284700D03*
X17513300Y528800D03*
X17284700D03*
X18778220Y302260D03*
X19006820D03*
X18778220Y527850D03*
X19006820D03*
Y750900D03*
X18778220D03*
X18491200Y2725420D03*
Y2954020D03*
X20134580Y4058920D03*
Y4287520D03*
X20622260Y1651000D03*
Y1879600D03*
X20421600Y3561080D03*
X20650200D03*
G54D44*
X19410680Y876300D03*
G54D35*
X14710300Y944880D03*
X15460300D03*
G54D26*
X3860800Y1150620D03*
Y2532380D03*
X4191000Y1104900D03*
X5580380Y469900D03*
X5651500Y561340D03*
X5567680Y269240D03*
X5656580Y360680D03*
X6677660Y2611120D03*
X6776720Y4371340D03*
X6776100Y4826000D03*
X7406640Y4307840D03*
X8054340D03*
G54D53*
X20683170Y2361000D03*
Y2846000D03*
G54D63*
G01X884590Y3825240D02*
X1044860D01*
X1052480Y3817620D01*
G01X1109980Y4889500D02*
X884590Y4664110D01*
Y4587240D01*
G01X1729740Y1529080D02*
Y1460500D01*
X1590040Y1320800D01*
Y1315720D01*
G01X2181860D02*
Y1412240D01*
X2197100Y1427480D01*
Y1526540D01*
G01X2707640Y1315720D02*
Y1490980D01*
X2677160Y1521460D01*
G01X2773680Y2687320D02*
Y2249080D01*
G01Y2915920D02*
X2903220Y2786380D01*
Y2258070D01*
X2992770Y2168520D01*
X4258270D01*
G01X3029310Y2312100D02*
X3254440D01*
X3568700Y2626360D01*
Y3341160D01*
X3755740Y3528200D01*
X3871300D01*
G01X3860800Y3784600D02*
Y3609260D01*
X3871300Y3598760D01*
Y3528200D01*
G01X4258270Y2168520D02*
X5324480D01*
X5366780Y2126220D01*
X7007460D01*
X7157100Y2275860D01*
X7477740D01*
G01X4258270Y2168520D02*
X4945390Y2855640D01*
X4953680D01*
X4958080Y2860040D01*
G01D02*
X4437360Y3380760D01*
X4079260D01*
X4076700Y3378200D01*
G01X5544820Y2941320D02*
X5463540Y2860040D01*
X4958080D01*
G01X5544820Y2712720D02*
Y2347180D01*
X5542280Y2344640D01*
Y2249080D01*
G01X5797910Y2312100D02*
X5893470D01*
X5894170Y2311400D01*
X6075680D01*
X6383020Y2618740D01*
Y3348780D01*
X6562440Y3528200D01*
X6678000D01*
G01X8113290Y2870200D02*
X7605290Y3378200D01*
X7203280D01*
X7200720Y3380760D01*
X6885960D01*
X6883400Y3378200D01*
G01X6680200Y3784600D02*
Y3600960D01*
X6678000Y3598760D01*
Y3528200D01*
G01X7214270Y4434840D02*
X6985000D01*
G01X7214270Y5196840D02*
X7012940D01*
X6802120Y4986020D01*
G01X8113290Y2870200D02*
X7518950Y2275860D01*
X7477740D01*
G01D02*
X7480300Y2273300D01*
G01X7274900Y2423300D02*
Y2547960D01*
X7526020Y2799080D01*
G01X8113290Y2870200D02*
X9164320D01*
X9248140Y2954020D01*
G01Y2725420D02*
Y2249080D01*
G01Y2954020D02*
X9331960Y2870200D01*
X11943080D01*
X12019280Y2946400D01*
G01Y2717800D02*
Y2249080D01*
G01Y2946400D02*
X12293360D01*
X12468620Y3121660D01*
X14664590D01*
G01X13498830Y4466590D02*
X13507720Y4457700D01*
X13686190D01*
G01Y5219700D02*
X13335000D01*
X13093700Y4978400D01*
G01X14664590Y3121660D02*
X13967060Y2424130D01*
Y2288940D01*
X13970000Y2286000D01*
G01X13764600Y2436000D02*
Y2451440D01*
X14003020Y2689860D01*
Y2799080D01*
G01X15717520Y2954020D02*
X15433040D01*
X15265400Y3121660D01*
X14664590D01*
G01X15717520Y2725420D02*
Y2347180D01*
X15720060Y2344640D01*
Y2249080D01*
G01X15717520Y2954020D02*
X15803880Y2867660D01*
X18404840D01*
X18491200Y2954020D01*
G01X17045940Y840180D02*
Y469360D01*
X16937260Y360680D01*
G01D02*
X17163320Y134620D01*
X18013680D01*
G01X17513300Y304800D02*
X17612360D01*
X17635220Y281940D01*
X17882010D01*
G01Y662940D02*
X17647440D01*
X17513300Y528800D01*
G01X17045940Y2040180D02*
X17304460D01*
X17657210Y1687430D01*
X18154300D01*
G01X20424140Y2176780D02*
Y1038860D01*
X19519900Y134620D01*
X18013680D01*
G01D02*
X18153380Y274320D01*
Y444120D01*
X18245200Y535940D01*
X18409510D01*
G01X17925300Y1020430D02*
Y779290D01*
X17882010Y736000D01*
Y662940D01*
G01X18811240Y1653180D02*
X18501110D01*
X18466860Y1687430D01*
X18154300D01*
G01X18383300Y1020430D02*
Y762210D01*
X18409510Y736000D01*
Y662940D01*
G01X19006820Y750900D02*
X18811240Y946480D01*
Y973180D01*
G01X18778220Y527850D02*
Y750900D01*
G01Y302260D02*
Y527850D01*
G01X18409510Y408940D02*
X18659310D01*
X18778220Y527850D01*
G01X19329660Y1663700D02*
Y1491600D01*
X18811240Y973180D01*
G01X18491200Y2954020D02*
X18823940Y2621280D01*
X18983010D01*
X19329660Y2274630D01*
Y1663700D01*
G01X18491200Y2725420D02*
Y2249080D01*
G01X19006820Y527850D02*
X19050470Y571500D01*
X19105880D01*
X19410680Y876300D01*
G01X20622260Y1879600D02*
Y1978660D01*
X20424140Y2176780D01*
G01X20664170Y2733500D02*
X20548140D01*
X20424140Y2857500D01*
G01D02*
Y2176780D01*
G01Y2857500D02*
Y3194080D01*
X20421780Y3196440D01*
Y3302000D01*
G01D02*
Y3461840D01*
X20421600Y3462020D01*
Y3561080D01*
G01D02*
Y3679780D01*
X20422610Y3680790D01*
Y3816350D01*
G54D45*
X19664680Y876300D03*
X19918680D03*
G54D36*
X17045940Y840180D03*
Y2040180D03*
G54D54*
X20664170Y2473500D03*
Y2538500D03*
Y2603500D03*
Y2668500D03*
Y2733500D03*
G54D27*
X3871300Y3228200D03*
Y3528200D03*
X6678000Y3228200D03*
Y3528200D03*
X7274900Y2123300D03*
Y2423300D03*
X13764600Y2136000D03*
Y2436000D03*
G54D18*
X1701800Y653450D03*
X1828800D03*
Y1149950D03*
X1701800D03*
X1955800Y653450D03*
X2082800D03*
Y1149950D03*
X1955800D03*
X2565400Y653450D03*
X2692400D03*
X2819400D03*
X2946400D03*
Y1149950D03*
X2819400D03*
X2692400D03*
X2565400D03*
G54D37*
X16937260Y360680D03*
G54D46*
X19679660Y1663700D03*
G54D28*
X4073760Y3380760D03*
X6880460D03*
X7477360Y2275860D03*
X13967060Y2288560D03*
G54D55*
X20761780Y3302000D03*
X20421780D03*
G54D19*
X1614860Y478100D03*
X3572510Y567690D03*
X3266440Y901700D03*
X4149090Y1329690D03*
X4051300Y1043940D03*
G54D47*
X19329660Y1663700D03*
G54D38*
X16687260Y360680D03*
G54D29*
X5321300Y1450280D03*
Y970280D03*
G54D56*
X20422610Y3816350D03*
X20652610D03*
X20882610D03*
G54D48*
X19847560Y3947340D03*
Y4287340D03*
G54D57*
X20652610Y4464050D03*
G54D39*
X17882010Y662940D03*
Y535940D03*
Y408940D03*
Y281940D03*
X18409510D03*
Y408940D03*
Y535940D03*
Y662940D03*
G54D58*
G01X3266440Y901700D02*
X1452880D01*
X1155700Y604520D01*
Y478100D01*
G01X3510300Y1135100D02*
X3368040D01*
G01X3510300Y1335100D02*
X3371520D01*
X3368040Y1338580D01*
G01X3510300Y1185100D02*
X3374200D01*
X3368040Y1191260D01*
G01X3441720Y4787900D02*
X3192800Y5036820D01*
X1584030D01*
X1007450Y4460240D01*
X884590D01*
G01X1282700Y478100D02*
X1614860D01*
G01X1381090Y4079240D02*
X1521470D01*
X2065350Y4623120D01*
X5288600D01*
X5461000Y4795520D01*
G01X6223000D02*
X5969960Y4542480D01*
X2248860D01*
X1531620Y3825240D01*
X1381090D01*
G01X5969000Y4795520D02*
X5756280Y4582800D01*
X2162180D01*
X1531620Y3952240D01*
X1381090D01*
G01Y4206240D02*
X1516390D01*
X1973590Y4663440D01*
X5074920D01*
X5207000Y4795520D01*
G01X2679720Y4787900D02*
X2512080Y4955540D01*
X1803400D01*
X1686560Y4838700D01*
Y4642850D01*
X1503950Y4460240D01*
X1381090D01*
G01X3187720Y4787900D02*
X2979440Y4996180D01*
X1783080D01*
X1645920Y4859020D01*
Y4729210D01*
X1503950Y4587240D01*
X1381090D01*
G01Y4333240D02*
X1503950D01*
X1727200Y4556490D01*
Y4822310D01*
X1819790Y4914900D01*
X2298720D01*
X2425720Y4787900D01*
G01X3411220Y835100D02*
X3510300D01*
G01Y785100D02*
X3411220D01*
G01Y735100D02*
X3510300D01*
G01X3616960Y398780D02*
X3690300Y472120D01*
Y505100D01*
G01X3572510Y567690D02*
X3660140Y655320D01*
X3852940D01*
X3890300Y617960D01*
Y505100D01*
G01X3740300Y396380D02*
Y505100D01*
G01X3479800Y1582420D02*
Y1503460D01*
X3510300Y1472960D01*
Y1435100D01*
G01Y1385100D02*
X3599170D01*
X3678840Y1305430D01*
G01D02*
Y1293980D01*
X3712690Y1260130D01*
G01X3690300Y1615100D02*
Y1690100D01*
X3660820Y1719580D01*
X3660140D01*
X3642360Y1737360D01*
G01X4325620Y375920D02*
X4340300Y390600D01*
Y505100D01*
G01D02*
Y665460D01*
X4509940Y835100D01*
G01X4015740Y228600D02*
Y266800D01*
X3890300Y392240D01*
Y505100D01*
G01X4240300D02*
Y1045100D01*
X4299980Y1104780D01*
Y1335800D01*
X4594860Y1630680D01*
G01X4191000Y1104900D02*
Y1036880D01*
X4190300Y1036180D01*
Y505100D01*
G01X4390300D02*
Y613820D01*
G01X3860800Y1150620D02*
Y957580D01*
X4140300Y678080D01*
Y505100D01*
G01X4290300D02*
Y1038070D01*
X4340300Y1088070D01*
Y1311910D01*
X4626970Y1598580D01*
G01X4509940Y835100D02*
X4506520D01*
X4462780Y878840D01*
Y1087940D01*
X4509940Y1135100D01*
G01X4622800Y1435100D02*
X4521190D01*
X4470640Y1384550D01*
Y1174400D01*
X4509940Y1135100D01*
G01X4149090Y1329690D02*
X4241800Y1422400D01*
Y1500740D01*
X4240300Y1502240D01*
Y1615100D01*
G01X4051300Y1043940D02*
Y1144150D01*
G01D02*
X4390300Y1483150D01*
Y1615100D01*
G01X4440300Y1737360D02*
Y1615100D01*
G01X3962400Y1943100D02*
X4091940Y1813560D01*
X4154700D01*
X4240300Y1727960D01*
Y1615100D01*
G01X4754880Y935100D02*
X4622800D01*
G01X4754880Y985100D02*
X4622800D01*
G01X4754880Y841890D02*
Y637540D01*
G01X4509940Y835100D02*
X4622800D01*
G01X4509940Y1135100D02*
X4622800D01*
G01X4754880Y1035100D02*
X4622800D01*
G01X4754880Y1085100D02*
X4622800D01*
G01Y1335100D02*
X4860620D01*
X5153980Y1628460D01*
X6712900D01*
X6977380Y1363980D01*
Y1209020D01*
X6913900Y1145540D01*
X6852650D01*
G01X4754880Y1184620D02*
X4733970D01*
X4733500Y1185090D01*
X4622800Y1185100D01*
G01Y1235100D02*
X4754880D01*
G01X4622800Y885100D02*
X4711670D01*
X4754880Y841890D01*
G01X6504940Y1270000D02*
Y1356360D01*
X6292200Y1569100D01*
X5191140D01*
X4907140Y1285100D01*
X4622800D01*
G01Y1385100D02*
X4826800D01*
X5110480Y1668780D01*
X6990090D01*
X7640330Y1018540D01*
X7803150D01*
G01X6504940Y1005840D02*
X6644640Y1145540D01*
X6852650D01*
G01X6504940Y1270000D02*
X6667610D01*
X6670150Y1272540D01*
X6852650D01*
G01X7710770Y4561840D02*
X9418320D01*
X9659620Y4803140D01*
G01X7710770Y4434840D02*
X9545320D01*
X9913620Y4803140D01*
G01X9151620D02*
X9001760Y4653280D01*
X8176260D01*
X8140700Y4688840D01*
X7710770D01*
G01X12623800Y4792980D02*
X12115800Y5300980D01*
X7592060D01*
X7360920Y5069840D01*
X7214270D01*
G01X7710770Y4942840D02*
X11457940D01*
X11607800Y4792980D01*
G01X7710770Y5196840D02*
X11965940D01*
X12369800Y4792980D01*
G01X7710770Y5069840D02*
X11584940D01*
X11861800Y4792980D01*
G01X8897620Y4803140D02*
X8788400Y4693920D01*
X8249920D01*
X8128000Y4815840D01*
X7710770D01*
G01X8409940Y1397000D02*
X8280400Y1267460D01*
X8214370D01*
X7965450Y1018540D01*
X7803150D01*
G01X19121120Y4782820D02*
X18582640Y5321300D01*
X14041120D01*
X13812520Y5092700D01*
X13686190D01*
G01X15636240Y4795520D02*
X15478760Y4638040D01*
X14607540D01*
X14533880Y4711700D01*
X14182690D01*
G01Y4584700D02*
X15933420D01*
X16144240Y4795520D01*
G01X14182690Y4457700D02*
X16060420D01*
X16398240Y4795520D01*
G01X14182690Y4965700D02*
X17922240D01*
X18105120Y4782820D01*
G01X15382240Y4795520D02*
X15265400Y4678680D01*
X14691360D01*
X14531340Y4838700D01*
X14182690D01*
G01Y5092700D02*
X18049240D01*
X18359120Y4782820D01*
G01X14182690Y5219700D02*
X18430240D01*
X18867120Y4782820D01*
G54D49*
X20876260Y1648460D03*
G54D59*
G01X2905760Y1521460D02*
X2707100Y1720120D01*
X840200D01*
X665480Y1894840D01*
Y3803130D01*
X814590Y3952240D01*
X884590D01*
G01X1958340Y1529080D02*
X1859280Y1628140D01*
X792480D01*
X566420Y1854200D01*
Y4088040D01*
X772440Y4294060D01*
X775410D01*
X814590Y4333240D01*
X884590D01*
G01X2425700Y1526540D02*
X2277520Y1674720D01*
X817030D01*
X614680Y1877070D01*
Y3879330D01*
X814590Y4079240D01*
X884590D01*
G01Y3698240D02*
X1043940D01*
X1229360Y3512820D01*
X2108200D01*
X2552700Y3957320D01*
Y4094480D01*
X2669540Y4211320D01*
X5735460D01*
X5758320Y4188460D01*
X6593840D01*
X6776720Y4371340D01*
G01X7214270Y4561840D02*
X6713220D01*
X6418580Y4267200D01*
X2479040D01*
X2293620Y4081780D01*
Y3967480D01*
X1884680Y3558540D01*
X1262380D01*
X1155700Y3665220D01*
Y3825250D01*
X1028710Y3952240D01*
X884590D01*
G01Y4079240D02*
X1009990D01*
X1214120Y3875110D01*
Y3677930D01*
X1285250Y3606800D01*
X1739900D01*
X2049780Y3916680D01*
Y4104640D01*
X2263140Y4318000D01*
X6388100D01*
X6758940Y4688840D01*
X7214270D01*
G01X1930400Y228600D02*
X2082800Y381000D01*
Y653450D01*
G01D02*
Y723450D01*
X2194450Y835100D01*
X3411220D01*
G01X2692400Y653450D02*
Y495300D01*
X2425700Y228600D01*
G01X1958340Y1529080D02*
Y1304300D01*
X1969780Y1292860D01*
G01D02*
X1955800Y1278880D01*
Y1149950D01*
G01X1969780Y1292860D02*
X2067570D01*
X2082800Y1277630D01*
Y1149950D01*
G01X2425700Y1526540D02*
X2565400Y1386840D01*
Y1275350D01*
G01X3441720Y4025900D02*
X3083560Y3667740D01*
Y3342640D01*
X2951670Y3210750D01*
X2408950D01*
G01X3411220Y785100D02*
X2973430D01*
X2972380Y786150D01*
X2920420D01*
X2919370Y785100D01*
X2846430D01*
X2845380Y786150D01*
X2793420D01*
X2792370Y785100D01*
X2754050D01*
X2692400Y723450D01*
Y653450D01*
G01X2946400D02*
Y495300D01*
X2679700Y228600D01*
G01X2946400Y653450D02*
X3028050Y735100D01*
X3411220D01*
G01X2905760Y1521460D02*
Y1390590D01*
G01D02*
X2946400Y1349950D01*
Y1149950D01*
G01X2819400D02*
Y1304230D01*
X2905760Y1390590D01*
G01X2565400Y1275350D02*
Y1149950D01*
G01Y1275350D02*
X2637000D01*
X2692400Y1219950D01*
Y1149950D01*
G01X3187720Y4025900D02*
X2642040Y3480220D01*
Y3333090D01*
G01X4594860Y1630680D02*
X4831080Y1866900D01*
X7277100D01*
G01X4626970Y1598580D02*
X4768290Y1739900D01*
X7650480D01*
X7790180Y1879600D01*
X13766800D01*
G01X3860800Y2971800D02*
Y2532380D01*
G01X5567680Y269240D02*
X4901820Y935100D01*
X4754880D01*
G01X5656580Y360680D02*
X5582920D01*
X4958500Y985100D01*
X4754880D01*
G01X5580380Y469900D02*
X5015180Y1035100D01*
X4754880D01*
G01X5651500Y561340D02*
X5562600D01*
X5038840Y1085100D01*
X4754880D01*
G01X5410640Y3333090D02*
Y3418490D01*
X5407660Y3421470D01*
Y3472180D01*
X5969000Y4033520D01*
G01X5177550Y3210750D02*
X5730430D01*
X5819140Y3299460D01*
Y3629660D01*
X6223000Y4033520D01*
G01X6852650Y1018540D02*
X6791400D01*
X6752220Y979360D01*
X6745160D01*
X6504940Y739140D01*
G01X6677660Y2611120D02*
X6680200Y2613660D01*
Y2971800D01*
G01X6776100Y4826000D02*
X6818810Y4868710D01*
X6819370D01*
X6893500Y4942840D01*
X7214270D01*
G01X13686190Y4584700D02*
X13068300D01*
X12654280Y4170680D01*
X7596430D01*
X7595160Y4171950D01*
X7588250D01*
X7490460Y4269740D01*
Y4356090D01*
X7323890Y4522660D01*
X7323450D01*
X7284270Y4561840D01*
X7214270D01*
G01Y4307840D02*
X7406640D01*
G01X7214270Y4688840D02*
X7284270D01*
X7538720Y4434390D01*
Y4292600D01*
X7615240Y4216080D01*
X12605700D01*
X13101320Y4711700D01*
X13686190D01*
G01X7803150Y891540D02*
X7985650D01*
X7988190Y889000D01*
X8051800D01*
X8178800Y1016000D01*
X8221980D01*
G01X8054340Y4307840D02*
X12603480D01*
X13261340Y4965700D01*
X13686190D01*
G01X9913620Y4041140D02*
X9537700Y3665220D01*
Y3307080D01*
X9441370Y3210750D01*
X8883410D01*
G01X9116500Y3333090D02*
Y3498020D01*
X9659620Y4041140D01*
G01X12623800Y4030980D02*
X12278360Y3685540D01*
Y3294380D01*
X12194730Y3210750D01*
X11654550D01*
G01X11887640Y3333090D02*
Y3548820D01*
X12369800Y4030980D01*
G01X15588420Y3333090D02*
Y3477700D01*
X16144240Y4033520D01*
G01X16398240D02*
X16007080Y3642360D01*
Y3317240D01*
X15900590Y3210750D01*
X15355330D01*
G01X19121120Y4020820D02*
X18790920Y3690620D01*
Y3327400D01*
X18674270Y3210750D01*
X18126470D01*
G01X18359560Y3333090D02*
Y3513260D01*
X18867120Y4020820D01*
G01X20622260Y1651000D02*
X20784820D01*
X20787360Y1648460D01*
X20876260D01*
M02*
