G04 ================== begin FILE IDENTIFICATION RECORD ==================*
G04 Layout Name:  NixieTubeBoard_v1_1.brd*
G04 Film Name:    PASTEMASK_BOTTOM*
G04 File Format:  Gerber RS274X*
G04 File Origin:  Cadence Allegro 17.2-S058*
G04 Origin Date:  Wed Feb 19 18:26:59 2020*
G04 *
G04 Layer:  VIA CLASS/PASTEMASK_BOTTOM*
G04 Layer:  PIN/PASTEMASK_BOTTOM*
G04 Layer:  PACKAGE GEOMETRY/PASTEMASK_BOTTOM*
G04 *
G04 Offset:    (0.0000 0.0000)*
G04 Mirror:    No*
G04 Mode:      Positive*
G04 Rotation:  0*
G04 FullContactRelief:  No*
G04 UndefLineWidth:     0.0000*
G04 ================== end FILE IDENTIFICATION RECORD ====================*
%FSLAX35Y35*MOMM*%
%IR0*IPPOS*OFA0.00000B0.00000*MIA0B0*SFA1.00000B1.00000*%
%ADD18O,.6X2.*%
%ADD15O,2.X.6*%
%ADD53R,1.X.8*%
%ADD25O,.3X1.8*%
%ADD24O,1.8X.3*%
%ADD27R,1.6X.7*%
%ADD56R,.85X2.*%
%ADD54R,1.6X.35*%
%ADD12R,.65X1.5*%
%ADD20C,.5*%
%ADD30O,1.825X.6*%
%ADD19C,.6*%
%ADD26C,.7*%
%ADD16C,.9*%
%ADD13C,.75*%
%ADD39O,2.575X.75*%
%ADD51R,2.X1.*%
%ADD57R,3.2X2.*%
%ADD48R,1.4X1.2*%
%ADD36R,5.X3.*%
%ADD55R,1.2X1.4*%
%ADD52R,2.X1.5*%
%ADD11R,3.5X2.*%
%AMMACRO28*
4,1,12,-2.847,.3246,
-2.847,-.3753,
-.553,-.3753,
-.553,-.5,
-.053,-1.,
2.347,-1.,
2.847,-.5,
2.847,.5001,
2.347,1.0001,
-.053,1.0001,
-.553,.5001,
-.553,.3246,
-2.847,.3246,
0.0*
%
%ADD28MACRO28*%
%ADD14R,3.5X1.2*%
%ADD34R,4.X2.5*%
%ADD33R,2.5X1.5*%
%ADD35C,1.1*%
%ADD23C,1.2*%
%ADD29C,1.3*%
%ADD31C,2.3*%
%ADD21C,1.4*%
%ADD45C,1.5*%
%ADD38C,1.6*%
%ADD49R,1.27X1.524*%
%ADD32C,1.7*%
%ADD46C,1.8*%
%ADD43C,1.35*%
%ADD10C,4.5*%
%AMMACRO50*
4,1,8,.635,.512,
.635,-.512,
.385,-.762,
-.385,-.762,
-.635,-.512,
-.635,.512,
-.385,.762,
.385,.762,
.635,.512,
0.0*
%
%ADD50MACRO50*%
%ADD41R,1.34X2.295*%
%ADD22R,1.4X1.4*%
%ADD44R,1.5X1.5*%
%ADD37R,1.6X1.6*%
%ADD47R,1.8X1.8*%
%ADD42R,1.35X1.35*%
%ADD17R,1.27X1.27*%
%ADD40R,5.54X5.985*%
%LPD*%
G75*
G54D10*
X599440Y601980D03*
Y5001260D03*
X20675600Y601980D03*
Y5001260D03*
G54D11*
X267600Y1609840D03*
Y3475240D03*
G54D20*
X1604630Y3324570D03*
X1504630D03*
X1404630D03*
X1604630Y3224570D03*
X1504630D03*
X1404630D03*
X1613600Y3710030D03*
X1717410Y3793080D03*
X3197660Y595430D03*
X3097660D03*
X3160740Y384240D03*
X3060740D03*
X3626190Y220910D03*
X3297660Y595430D03*
X3260740Y384240D03*
X3760650Y753080D03*
X3712690Y1260130D03*
X3730360Y1770300D03*
X3331620Y1584480D03*
X3860650Y753080D03*
X3970450Y1388110D03*
X3950480Y1775840D03*
X4303800Y1795500D03*
X4315830Y2685690D03*
X4215830D03*
X4315830Y2585690D03*
X4215830D03*
X4944110Y422070D03*
X4844110D03*
X4944110Y322070D03*
X4844110D03*
X4944110Y222070D03*
X4844110D03*
X5812640Y1169260D03*
X5712640D03*
X5612640D03*
X6012640D03*
X5912640D03*
X7799680Y3777360D03*
X7699680D03*
X7799680Y3677360D03*
X7699680D03*
X7799680Y3577360D03*
X7699680D03*
X7899680Y3777360D03*
Y3677360D03*
Y3577360D03*
X10766890Y3753760D03*
X10666890D03*
X10566890D03*
X10766890Y3653760D03*
X10666890D03*
X10566890D03*
X10766890Y3553760D03*
X10666890D03*
X10566890D03*
X13686550Y3431070D03*
Y3631070D03*
Y3531070D03*
X13886550Y3431070D03*
X13786550D03*
X13886550Y3631070D03*
X13786550D03*
X13886550Y3531070D03*
X13786550D03*
X17313090Y3427390D03*
X17213090D03*
X17113090D03*
X17313090Y3327390D03*
X17213090D03*
X17113090D03*
X17313090Y3527390D03*
X17213090D03*
X17113090D03*
G54D21*
X1917720Y4025900D03*
X2171720D03*
X2425720D03*
Y4787900D03*
X2171720D03*
X2679720Y4025900D03*
X2933720D03*
X3187720D03*
Y4787900D03*
X2933720D03*
X2679720D03*
X3441720Y4025900D03*
X3695720D03*
Y4787900D03*
X3441720D03*
X4699000Y4033520D03*
X4953000D03*
X5207000D03*
Y4795520D03*
X4953000D03*
X5461000Y4033520D03*
X5715000D03*
Y4795520D03*
X5461000D03*
X5969000Y4033520D03*
X6223000D03*
X6477000D03*
Y4795520D03*
X6223000D03*
X5969000D03*
X8389620Y4041140D03*
X8643620D03*
X8897620D03*
X9151620D03*
Y4803140D03*
X8897620D03*
X8643620D03*
X9405620Y4041140D03*
X9659620D03*
Y4803140D03*
X9405620D03*
X9913620Y4041140D03*
X10167620D03*
Y4803140D03*
X9913620D03*
X11099800Y4030980D03*
X11353800D03*
X11607800D03*
Y4792980D03*
X11353800D03*
X11861800Y4030980D03*
X12115800D03*
X12369800D03*
Y4792980D03*
X12115800D03*
X11861800D03*
X12623800Y4030980D03*
X12877800D03*
Y4792980D03*
X12623800D03*
X14874240Y4033520D03*
X15128240D03*
X15382240D03*
X15636240D03*
Y4795520D03*
X15382240D03*
X15128240D03*
X15890240Y4033520D03*
X16144240D03*
X16398240D03*
Y4795520D03*
X16144240D03*
X15890240D03*
X16652240Y4033520D03*
Y4795520D03*
X17597120Y4020820D03*
X17851120D03*
X18105120D03*
X18359120D03*
Y4782820D03*
X18105120D03*
X17851120D03*
X18613120Y4020820D03*
X18867120D03*
Y4782820D03*
X18613120D03*
X19121120Y4020820D03*
X19375120D03*
Y4782820D03*
X19121120D03*
G54D30*
X6852650Y764540D03*
Y637540D03*
Y510540D03*
Y383540D03*
Y1272540D03*
Y1145540D03*
Y1018540D03*
Y891540D03*
X7803150Y383540D03*
Y510540D03*
Y637540D03*
Y764540D03*
Y891540D03*
Y1018540D03*
Y1145540D03*
Y1272540D03*
G54D12*
X1155700Y478100D03*
Y1308100D03*
X1282700Y478100D03*
Y1308100D03*
G54D40*
X18154300Y1687430D03*
G54D22*
X1917720Y4787900D03*
X4699000Y4795520D03*
X8389620Y4803140D03*
X11099800Y4792980D03*
X14874240Y4795520D03*
X17597120Y4782820D03*
G54D31*
X8282540Y519240D03*
X8982540D03*
X9631740D03*
X10331740D03*
X10980940D03*
X11680940D03*
X12330140D03*
X13030140D03*
G54D13*
X980700Y1462780D03*
Y1798320D03*
X2382520Y400950D03*
X2723250D03*
X3230880Y1742440D03*
X3573780D03*
X6268720Y1490980D03*
X6609080Y1943100D03*
X8181340Y1628140D03*
X19638720Y3472180D03*
G54D41*
X17925300Y1020430D03*
X18383300D03*
G54D50*
X20876260Y1902460D03*
G54D32*
X8407540Y269240D03*
X8857540D03*
X9756740D03*
X10206740D03*
X11105940D03*
X11555940D03*
X12455140D03*
X12905140D03*
G54D23*
X2227690Y2732780D03*
X2321040Y2486640D03*
X2518080Y2312080D03*
X2408950Y3210750D03*
X2259420Y2994100D03*
X3029310Y2312100D03*
X3226340Y2486670D03*
X2773680Y2249080D03*
X3138380Y3210780D03*
X2905280Y3333100D03*
X2642040Y3333090D03*
X3319670Y2732810D03*
X3287930Y2994140D03*
X4996290Y2732780D03*
X5089640Y2486640D03*
X5177550Y3210750D03*
X5028020Y2994100D03*
X5797910Y2312100D03*
X5286680Y2312080D03*
X5542280Y2249080D03*
X5673880Y3333100D03*
X5410640Y3333090D03*
X5994940Y2486670D03*
X6088270Y2732810D03*
X6056530Y2994140D03*
X5906980Y3210780D03*
X7272020Y2799080D03*
X7526020D03*
X8702150Y2732780D03*
X8795500Y2486640D03*
X8992540Y2312080D03*
X9116500Y3333090D03*
X8883410Y3210750D03*
X8733880Y2994100D03*
X9503770Y2312100D03*
X9700800Y2486670D03*
X9794130Y2732810D03*
X9248140Y2249080D03*
X9762390Y2994140D03*
X9612840Y3210780D03*
X9379740Y3333100D03*
X11473290Y2732780D03*
X11566640Y2486640D03*
X11763680Y2312080D03*
X11654550Y3210750D03*
X11505020Y2994100D03*
X12274910Y2312100D03*
X12019280Y2249080D03*
X12383980Y3210780D03*
X12150880Y3333100D03*
X11887640Y3333090D03*
X12471940Y2486670D03*
X12565270Y2732810D03*
X12533530Y2994140D03*
X13749020Y2799080D03*
X14003020D03*
X15174070Y2732780D03*
X15267420Y2486640D03*
X15464460Y2312080D03*
X15720060Y2249080D03*
X15588420Y3333090D03*
X15355330Y3210750D03*
X15205800Y2994100D03*
X15975690Y2312100D03*
X16172720Y2486670D03*
X16266050Y2732810D03*
X16234310Y2994140D03*
X16084760Y3210780D03*
X15851660Y3333100D03*
X17945210Y2732780D03*
X18038560Y2486640D03*
X18235600Y2312080D03*
X18359560Y3333090D03*
X18126470Y3210750D03*
X17976940Y2994100D03*
X18746830Y2312100D03*
X18943860Y2486670D03*
X19037190Y2732810D03*
X18491200Y2249080D03*
X19005450Y2994140D03*
X18855900Y3210780D03*
X18622800Y3333100D03*
G54D14*
X980700Y2167540D03*
Y1917540D03*
Y2667540D03*
Y2417540D03*
Y3167540D03*
Y2917540D03*
G54D42*
X18811240Y973180D03*
G54D33*
X8221980Y1016000D03*
X9085580D03*
G54D51*
X20953170Y2514600D03*
Y2692400D03*
G54D24*
X3510300Y785100D03*
Y735100D03*
Y685100D03*
Y1435100D03*
Y1385100D03*
Y1335100D03*
Y1285100D03*
Y1235100D03*
Y1185100D03*
Y1135100D03*
Y1085100D03*
Y1035100D03*
Y985100D03*
Y935100D03*
Y885100D03*
Y835100D03*
X4622800Y685100D03*
Y735100D03*
Y785100D03*
Y835100D03*
Y885100D03*
Y935100D03*
Y985100D03*
Y1035100D03*
Y1085100D03*
Y1135100D03*
Y1185100D03*
Y1235100D03*
Y1285100D03*
Y1335100D03*
Y1385100D03*
Y1435100D03*
G54D15*
X884590Y4079240D03*
Y3952240D03*
Y3825240D03*
Y3698240D03*
Y4587240D03*
Y4460240D03*
Y4333240D03*
Y4206240D03*
X1381090Y3698240D03*
Y3825240D03*
Y3952240D03*
Y4079240D03*
Y4206240D03*
Y4333240D03*
Y4460240D03*
Y4587240D03*
X7214270Y4688840D03*
Y4561840D03*
Y4434840D03*
Y4307840D03*
Y5196840D03*
Y5069840D03*
Y4942840D03*
Y4815840D03*
X7710770Y4307840D03*
Y4434840D03*
Y4561840D03*
Y4688840D03*
Y4815840D03*
Y4942840D03*
Y5069840D03*
Y5196840D03*
X13686190Y4711700D03*
Y4584700D03*
Y4457700D03*
Y4330700D03*
Y5219700D03*
Y5092700D03*
Y4965700D03*
Y4838700D03*
X14182690Y4330700D03*
Y4457700D03*
Y4584700D03*
Y4711700D03*
Y4838700D03*
Y4965700D03*
Y5092700D03*
Y5219700D03*
G54D43*
X18811240Y1653180D03*
G54D34*
X14135100Y944880D03*
X15946100D03*
G54D52*
X20954170Y2241000D03*
Y2966000D03*
G54D16*
X1052480Y3817620D03*
X1109980Y4889500D03*
X1590040Y1315720D03*
X2181860D03*
X2707640D03*
X6985000Y4434840D03*
X6802120Y4986020D03*
X13093700Y4978400D03*
X13498830Y4466590D03*
X20424140Y2857500D03*
G54D25*
X3690300Y505100D03*
X3740300D03*
X3790300D03*
X3840300D03*
Y1615100D03*
X3790300D03*
X3740300D03*
X3690300D03*
X3890300Y505100D03*
X3940300D03*
X3990300D03*
X4040300D03*
X4090300D03*
X4140300D03*
X4190300D03*
X4240300D03*
X4290300D03*
X4340300D03*
X4390300D03*
X4440300D03*
Y1615100D03*
X4390300D03*
X4340300D03*
X4290300D03*
X4240300D03*
X4190300D03*
X4140300D03*
X4090300D03*
X4040300D03*
X3990300D03*
X3940300D03*
X3890300D03*
G54D17*
X1701800Y228600D03*
X1729740Y1529080D03*
X1930400Y228600D03*
X2197100D03*
X2425700D03*
X2197100Y1526540D03*
X2425700D03*
X1958340Y1529080D03*
X2908300Y228600D03*
X2679700D03*
X2677160Y1521460D03*
X2905760D03*
X2773680Y2687320D03*
Y2915920D03*
X3479800Y228600D03*
X3251200D03*
X3787140D03*
X3479800Y1943100D03*
X3251200D03*
X3733800D03*
X3860800Y2971800D03*
Y3784600D03*
X4274820Y231140D03*
X4503420D03*
X4015740Y228600D03*
X4445000Y1943100D03*
X4216400D03*
X3962400D03*
X4089400Y2971800D03*
Y3784600D03*
X5715000Y967740D03*
X5717540Y1450340D03*
X5544820Y2712720D03*
Y2941320D03*
X6504940Y739140D03*
X6276340D03*
X5943600Y967740D03*
X5946140Y1450340D03*
X6276340Y1270000D03*
X6504940D03*
X6276340Y1005840D03*
X6504940D03*
X6680200Y2971800D03*
X6908800D03*
X6680200Y3784600D03*
X6908800D03*
X7277100Y1866900D03*
X7505700D03*
X8181340Y1397000D03*
X8409940D03*
X9248140Y2725420D03*
Y2954020D03*
X12019280Y2717800D03*
Y2946400D03*
X13766800Y1879600D03*
X13995400D03*
X15717520Y2725420D03*
Y2954020D03*
X17513300Y304800D03*
X17284700D03*
X17513300Y528800D03*
X17284700D03*
X18778220Y302260D03*
X19006820D03*
X18778220Y527850D03*
X19006820D03*
Y750900D03*
X18778220D03*
X18491200Y2725420D03*
Y2954020D03*
X20134580Y4058920D03*
Y4287520D03*
X20622260Y1651000D03*
Y1879600D03*
X20421600Y3561080D03*
X20650200D03*
G54D44*
X19410680Y876300D03*
G54D35*
X14710300Y944880D03*
X15460300D03*
G54D26*
X3860800Y1150620D03*
Y2532380D03*
X4191000Y1104900D03*
X5580380Y469900D03*
X5651500Y561340D03*
X5567680Y269240D03*
X5656580Y360680D03*
X6677660Y2611120D03*
X6776720Y4371340D03*
X6776100Y4826000D03*
X7406640Y4307840D03*
X8054340D03*
G54D53*
X20683170Y2361000D03*
Y2846000D03*
G54D45*
X19664680Y876300D03*
X19918680D03*
G54D36*
X17045940Y840180D03*
Y2040180D03*
G54D54*
X20664170Y2473500D03*
Y2538500D03*
Y2603500D03*
Y2668500D03*
Y2733500D03*
G54D27*
X3871300Y3228200D03*
Y3528200D03*
X6678000Y3228200D03*
Y3528200D03*
X7274900Y2123300D03*
Y2423300D03*
X13764600Y2136000D03*
Y2436000D03*
G54D18*
X1701800Y653450D03*
X1828800D03*
Y1149950D03*
X1701800D03*
X1955800Y653450D03*
X2082800D03*
Y1149950D03*
X1955800D03*
X2565400Y653450D03*
X2692400D03*
X2819400D03*
X2946400D03*
Y1149950D03*
X2819400D03*
X2692400D03*
X2565400D03*
G54D37*
X16937260Y360680D03*
G54D46*
X19679660Y1663700D03*
G54D28*
X4073760Y3380760D03*
X6880460D03*
X7477360Y2275860D03*
X13967060Y2288560D03*
G54D55*
X20761780Y3302000D03*
X20421780D03*
G54D19*
X1614860Y478100D03*
X3572510Y567690D03*
X3266440Y901700D03*
X4149090Y1329690D03*
X4051300Y1043940D03*
G54D47*
X19329660Y1663700D03*
G54D38*
X16687260Y360680D03*
G54D29*
X5321300Y1450280D03*
Y970280D03*
G54D56*
X20422610Y3816350D03*
X20652610D03*
X20882610D03*
G54D48*
X19847560Y3947340D03*
Y4287340D03*
G54D57*
X20652610Y4464050D03*
G54D39*
X17882010Y662940D03*
Y535940D03*
Y408940D03*
Y281940D03*
X18409510D03*
Y408940D03*
Y535940D03*
Y662940D03*
G54D49*
X20876260Y1648460D03*
M02*
