G04 ================== begin FILE IDENTIFICATION RECORD ==================*
G04 Layout Name:  NixieTubeBoard_v1_1.brd*
G04 Film Name:    PASTEMASK_TOP*
G04 File Format:  Gerber RS274X*
G04 File Origin:  Cadence Allegro 17.2-S058*
G04 Origin Date:  Wed Feb 19 18:26:59 2020*
G04 *
G04 Layer:  VIA CLASS/PASTEMASK_TOP*
G04 Layer:  PIN/PASTEMASK_TOP*
G04 Layer:  PACKAGE GEOMETRY/PASTEMASK_TOP*
G04 *
G04 Offset:    (0.0000 0.0000)*
G04 Mirror:    No*
G04 Mode:      Positive*
G04 Rotation:  0*
G04 FullContactRelief:  No*
G04 UndefLineWidth:     0.0000*
G04 ================== end FILE IDENTIFICATION RECORD ====================*
%FSLAX35Y35*MOMM*%
%IR0*IPPOS*OFA0.00000B0.00000*MIA0B0*SFA1.00000B1.00000*%
%ADD35R,1.X.8*%
%ADD16C,.5*%
%ADD15C,.6*%
%ADD20C,.7*%
%ADD14C,.9*%
%ADD12C,.75*%
%ADD25R,5.X3.*%
%ADD34R,2.X1.5*%
%ADD11R,3.5X2.*%
%ADD13R,3.5X1.2*%
%ADD24C,1.1*%
%ADD19C,1.2*%
%ADD21C,1.3*%
%ADD22C,2.3*%
%ADD17C,1.4*%
%ADD31C,1.5*%
%ADD27C,1.6*%
%ADD23C,1.7*%
%ADD32C,1.8*%
%ADD29C,1.35*%
%ADD10C,4.5*%
%ADD18R,1.4X1.4*%
%ADD30R,1.5X1.5*%
%ADD26R,1.6X1.6*%
%ADD33R,1.8X1.8*%
%ADD28R,1.35X1.35*%
%LPD*%
G75*
G54D10*
X599440Y601980D03*
Y5001260D03*
X20675600Y601980D03*
Y5001260D03*
G54D11*
X267600Y1609840D03*
Y3475240D03*
G54D20*
X3860800Y1150620D03*
Y2532380D03*
X4191000Y1104900D03*
X5580380Y469900D03*
X5651500Y561340D03*
X5567680Y269240D03*
X5656580Y360680D03*
X6677660Y2611120D03*
X6776720Y4371340D03*
X6776100Y4826000D03*
X7406640Y4307840D03*
X8054340D03*
G54D30*
X19410680Y876300D03*
G54D21*
X5321300Y1450280D03*
Y970280D03*
G54D12*
X980700Y1462780D03*
Y1798320D03*
X2382520Y400950D03*
X2723250D03*
X3230880Y1742440D03*
X3573780D03*
X6268720Y1490980D03*
X6609080Y1943100D03*
X8181340Y1628140D03*
X19638720Y3472180D03*
G54D31*
X19664680Y876300D03*
X19918680D03*
G54D22*
X8282540Y519240D03*
X8982540D03*
X9631740D03*
X10331740D03*
X10980940D03*
X11680940D03*
X12330140D03*
X13030140D03*
G54D13*
X980700Y2167540D03*
Y1917540D03*
Y2667540D03*
Y2417540D03*
Y3167540D03*
Y2917540D03*
G54D32*
X19679660Y1663700D03*
G54D23*
X8407540Y269240D03*
X8857540D03*
X9756740D03*
X10206740D03*
X11105940D03*
X11555940D03*
X12455140D03*
X12905140D03*
G54D14*
X1052480Y3817620D03*
X1109980Y4889500D03*
X1590040Y1315720D03*
X2181860D03*
X2707640D03*
X6985000Y4434840D03*
X6802120Y4986020D03*
X13093700Y4978400D03*
X13498830Y4466590D03*
X20424140Y2857500D03*
G54D33*
X19329660Y1663700D03*
G54D24*
X14710300Y944880D03*
X15460300D03*
G54D15*
X1614860Y478100D03*
X3572510Y567690D03*
X3266440Y901700D03*
X4149090Y1329690D03*
X4051300Y1043940D03*
G54D34*
X20954170Y2241000D03*
Y2966000D03*
G54D25*
X17045940Y840180D03*
Y2040180D03*
G54D16*
X1604630Y3324570D03*
X1504630D03*
X1404630D03*
X1604630Y3224570D03*
X1504630D03*
X1404630D03*
X1613600Y3710030D03*
X1717410Y3793080D03*
X3197660Y595430D03*
X3097660D03*
X3160740Y384240D03*
X3060740D03*
X3626190Y220910D03*
X3297660Y595430D03*
X3260740Y384240D03*
X3760650Y753080D03*
X3712690Y1260130D03*
X3730360Y1770300D03*
X3331620Y1584480D03*
X3860650Y753080D03*
X3970450Y1388110D03*
X3950480Y1775840D03*
X4303800Y1795500D03*
X4315830Y2685690D03*
X4215830D03*
X4315830Y2585690D03*
X4215830D03*
X4944110Y422070D03*
X4844110D03*
X4944110Y322070D03*
X4844110D03*
X4944110Y222070D03*
X4844110D03*
X5812640Y1169260D03*
X5712640D03*
X5612640D03*
X6012640D03*
X5912640D03*
X7799680Y3777360D03*
X7699680D03*
X7799680Y3677360D03*
X7699680D03*
X7799680Y3577360D03*
X7699680D03*
X7899680Y3777360D03*
Y3677360D03*
Y3577360D03*
X10766890Y3753760D03*
X10666890D03*
X10566890D03*
X10766890Y3653760D03*
X10666890D03*
X10566890D03*
X10766890Y3553760D03*
X10666890D03*
X10566890D03*
X13686550Y3431070D03*
Y3631070D03*
Y3531070D03*
X13886550Y3431070D03*
X13786550D03*
X13886550Y3631070D03*
X13786550D03*
X13886550Y3531070D03*
X13786550D03*
X17313090Y3427390D03*
X17213090D03*
X17113090D03*
X17313090Y3327390D03*
X17213090D03*
X17113090D03*
X17313090Y3527390D03*
X17213090D03*
X17113090D03*
G54D26*
X16937260Y360680D03*
G54D17*
X1917720Y4025900D03*
X2171720D03*
X2425720D03*
Y4787900D03*
X2171720D03*
X2679720Y4025900D03*
X2933720D03*
X3187720D03*
Y4787900D03*
X2933720D03*
X2679720D03*
X3441720Y4025900D03*
X3695720D03*
Y4787900D03*
X3441720D03*
X4699000Y4033520D03*
X4953000D03*
X5207000D03*
Y4795520D03*
X4953000D03*
X5461000Y4033520D03*
X5715000D03*
Y4795520D03*
X5461000D03*
X5969000Y4033520D03*
X6223000D03*
X6477000D03*
Y4795520D03*
X6223000D03*
X5969000D03*
X8389620Y4041140D03*
X8643620D03*
X8897620D03*
X9151620D03*
Y4803140D03*
X8897620D03*
X8643620D03*
X9405620Y4041140D03*
X9659620D03*
Y4803140D03*
X9405620D03*
X9913620Y4041140D03*
X10167620D03*
Y4803140D03*
X9913620D03*
X11099800Y4030980D03*
X11353800D03*
X11607800D03*
Y4792980D03*
X11353800D03*
X11861800Y4030980D03*
X12115800D03*
X12369800D03*
Y4792980D03*
X12115800D03*
X11861800D03*
X12623800Y4030980D03*
X12877800D03*
Y4792980D03*
X12623800D03*
X14874240Y4033520D03*
X15128240D03*
X15382240D03*
X15636240D03*
Y4795520D03*
X15382240D03*
X15128240D03*
X15890240Y4033520D03*
X16144240D03*
X16398240D03*
Y4795520D03*
X16144240D03*
X15890240D03*
X16652240Y4033520D03*
Y4795520D03*
X17597120Y4020820D03*
X17851120D03*
X18105120D03*
X18359120D03*
Y4782820D03*
X18105120D03*
X17851120D03*
X18613120Y4020820D03*
X18867120D03*
Y4782820D03*
X18613120D03*
X19121120Y4020820D03*
X19375120D03*
Y4782820D03*
X19121120D03*
G54D35*
X20683170Y2361000D03*
Y2846000D03*
G54D18*
X1917720Y4787900D03*
X4699000Y4795520D03*
X8389620Y4803140D03*
X11099800Y4792980D03*
X14874240Y4795520D03*
X17597120Y4782820D03*
G54D27*
X16687260Y360680D03*
G54D28*
X18811240Y973180D03*
G54D19*
X2227690Y2732780D03*
X2321040Y2486640D03*
X2518080Y2312080D03*
X2408950Y3210750D03*
X2259420Y2994100D03*
X3029310Y2312100D03*
X3226340Y2486670D03*
X2773680Y2249080D03*
X3138380Y3210780D03*
X2905280Y3333100D03*
X2642040Y3333090D03*
X3319670Y2732810D03*
X3287930Y2994140D03*
X4996290Y2732780D03*
X5089640Y2486640D03*
X5177550Y3210750D03*
X5028020Y2994100D03*
X5797910Y2312100D03*
X5286680Y2312080D03*
X5542280Y2249080D03*
X5673880Y3333100D03*
X5410640Y3333090D03*
X5994940Y2486670D03*
X6088270Y2732810D03*
X6056530Y2994140D03*
X5906980Y3210780D03*
X7272020Y2799080D03*
X7526020D03*
X8702150Y2732780D03*
X8795500Y2486640D03*
X8992540Y2312080D03*
X9116500Y3333090D03*
X8883410Y3210750D03*
X8733880Y2994100D03*
X9503770Y2312100D03*
X9700800Y2486670D03*
X9794130Y2732810D03*
X9248140Y2249080D03*
X9762390Y2994140D03*
X9612840Y3210780D03*
X9379740Y3333100D03*
X11473290Y2732780D03*
X11566640Y2486640D03*
X11763680Y2312080D03*
X11654550Y3210750D03*
X11505020Y2994100D03*
X12274910Y2312100D03*
X12019280Y2249080D03*
X12383980Y3210780D03*
X12150880Y3333100D03*
X11887640Y3333090D03*
X12471940Y2486670D03*
X12565270Y2732810D03*
X12533530Y2994140D03*
X13749020Y2799080D03*
X14003020D03*
X15174070Y2732780D03*
X15267420Y2486640D03*
X15464460Y2312080D03*
X15720060Y2249080D03*
X15588420Y3333090D03*
X15355330Y3210750D03*
X15205800Y2994100D03*
X15975690Y2312100D03*
X16172720Y2486670D03*
X16266050Y2732810D03*
X16234310Y2994140D03*
X16084760Y3210780D03*
X15851660Y3333100D03*
X17945210Y2732780D03*
X18038560Y2486640D03*
X18235600Y2312080D03*
X18359560Y3333090D03*
X18126470Y3210750D03*
X17976940Y2994100D03*
X18746830Y2312100D03*
X18943860Y2486670D03*
X19037190Y2732810D03*
X18491200Y2249080D03*
X19005450Y2994140D03*
X18855900Y3210780D03*
X18622800Y3333100D03*
G54D29*
X18811240Y1653180D03*
M02*
