G04 ================== begin FILE IDENTIFICATION RECORD ==================*
G04 Layout Name:  NixieTubeBoard_v1_1.brd*
G04 Film Name:    SILKSCREEN_BOTTOM*
G04 File Format:  Gerber RS274X*
G04 File Origin:  Cadence Allegro 17.2-S058*
G04 Origin Date:  Wed Feb 19 18:26:59 2020*
G04 *
G04 Layer:  BOARD GEOMETRY/SILKSCREEN_BOTTOM*
G04 Layer:  PACKAGE GEOMETRY/SILKSCREEN_BOTTOM*
G04 Layer:  REF DES/SILKSCREEN_BOTTOM*
G04 *
G04 Offset:    (0.0000 0.0000)*
G04 Mirror:    No*
G04 Mode:      Positive*
G04 Rotation:  0*
G04 FullContactRelief:  No*
G04 UndefLineWidth:     0.0000*
G04 ================== end FILE IDENTIFICATION RECORD ====================*
%FSLAX35Y35*MOMM*%
%IR0*IPPOS*OFA0.00000B0.00000*MIA0B0*SFA1.00000B1.00000*%
%ADD10C,.2*%
%ADD11C,.3*%
%ADD12C,.6*%
%ADD13C,.1524*%
%ADD14C,.1499*%
G75*
%LPD*%
G75*
G36*
G01X1170940Y749300D02*
Y891540D01*
X1107440D01*
Y749300D01*
X1170940D01*
G37*
G36*
G01X1325880D02*
Y891540D01*
X1262380D01*
Y749300D01*
X1325880D01*
G37*
G36*
G01X1481090Y4662240D02*
G02I-20000J0D01*
G37*
G36*
G01X2177800Y573450D02*
G02I-20000J0D01*
G37*
G36*
G01X1957720Y4599940D02*
G02I-40000J0D01*
G37*
G36*
G01X3041400Y573450D02*
G02I-20000J0D01*
G37*
G36*
G01X3884220Y3149600D02*
G03I-23420J0D01*
G37*
G36*
G01X4739000Y4607560D02*
G02I-40000J0D01*
G37*
G36*
G01X6690920Y3149600D02*
G03I-23420J0D01*
G37*
G36*
G01X7287820Y2044700D02*
G03I-23420J0D01*
G37*
G36*
G01X7810770Y5271840D02*
G02I-20000J0D01*
G37*
G36*
G01X7979400Y1302540D02*
G02I-20000J0D01*
G37*
G36*
G01X8429620Y4615180D02*
G02I-40000J0D01*
G37*
G36*
G01X11139800Y4605020D02*
G02I-40000J0D01*
G37*
G36*
G01X13777520Y2057400D02*
G03I-23420J0D01*
G37*
G36*
G01X14282690Y5294700D02*
G02I-20000J0D01*
G37*
G36*
G01X14914240Y4607560D02*
G02I-40000J0D01*
G37*
G36*
G01X17637120Y4594860D02*
G02I-40000J0D01*
G37*
G36*
G01X18538260Y745440D02*
G02I-20000J0D01*
G37*
G36*
G01X18525300Y1020430D02*
G02I-15000J0D01*
G37*
G36*
G01X18721240Y1103180D02*
Y1187180D01*
X18901240D01*
Y1103180D01*
X18721240D01*
G37*
G54D10*
G01X76200Y2007540D02*
X546200D01*
Y1956740D01*
X419200Y1880540D01*
X76200D01*
G01Y1742540D02*
Y3342540D01*
G01X889000Y1836420D02*
Y1657540D01*
X636200D01*
Y1526540D01*
X466200D01*
G01X79200Y3076600D02*
X549200D01*
Y3127400D01*
X422200Y3203600D01*
X79200D01*
G01X889000Y3248660D02*
Y3427540D01*
X636200D01*
Y3558540D01*
X466200D01*
G01X1130440Y680720D02*
G03I-23000J0D01*
G01X1201420Y657860D02*
Y703580D01*
X1158240Y660400D01*
Y703580D01*
G01X1176020Y744220D02*
Y1041400D01*
G01X1104900D02*
Y744220D01*
G01D02*
X1176020D01*
G01X1013500Y1159800D02*
X1425000D01*
Y621300D01*
X1013500D01*
Y1159800D01*
G01X1176020Y1041400D02*
X1104900D01*
G01X1176020Y896620D02*
X1104900D01*
G01X711200Y1657540D02*
Y3427540D01*
G01X1246090Y3647740D02*
Y4637740D01*
X1019590D01*
Y3647740D01*
X1246090D01*
G01X1173480Y4635500D02*
G02X1092200I-40640J0D01*
G01X2004060Y312420D02*
X2014220D01*
Y144780D01*
X1617980D01*
Y312420D01*
X2004060D01*
G01X1330960Y744220D02*
Y1041400D01*
X1259840D01*
Y744220D01*
X1330960D01*
G01X1647300Y788450D02*
X2137300D01*
Y1014950D01*
X1647300D01*
Y788450D01*
G01X2032000Y1612900D02*
X2042160D01*
Y1445260D01*
X1645920D01*
Y1612900D01*
X2032000D01*
G01X1330960Y896620D02*
X1259840D01*
G01X1856720Y4476900D02*
G02Y4336900I0J-70000D01*
G01X3765220Y4679030D02*
X1848220D01*
Y4134770D01*
X3765220D01*
Y4679030D01*
G01X2499360Y312420D02*
X2509520D01*
Y144780D01*
X2113280D01*
Y312420D01*
X2499360D01*
G01X2510900Y788450D02*
X3000900D01*
Y1014950D01*
X2510900D01*
Y788450D01*
G01X2499360Y1610360D02*
X2509520D01*
Y1442720D01*
X2113280D01*
Y1610360D01*
X2499360D01*
G01X3322320Y142240D02*
X3164840D01*
Y314960D01*
X3319780D01*
G01X2606040Y144780D02*
X2595880D01*
Y312420D01*
X2992120D01*
Y144780D01*
X2606040D01*
G01X2979420Y1605280D02*
X2989580D01*
Y1437640D01*
X2593340D01*
Y1605280D01*
X2979420D01*
G01X3322320Y1856740D02*
X3164840D01*
Y2029460D01*
X3319780D01*
G01X2857500Y2613660D02*
Y2603500D01*
X2689860D01*
Y2999740D01*
X2857500D01*
Y2613660D01*
G01X3566160Y142240D02*
Y314960D01*
G01X3408680Y142240D02*
X3566160D01*
G01X4089400Y312420D02*
X4099560D01*
Y144780D01*
X3703320D01*
Y312420D01*
X4089400D01*
G01X3566160Y314960D02*
X3411220D01*
G01X3644900Y1473200D02*
X4483100D01*
Y647700D01*
X3644900D01*
Y1473200D01*
G01X3566160Y2029460D02*
X3411220D01*
G01X3566160Y1856740D02*
Y2029460D01*
G01X3408680Y1856740D02*
X3566160D01*
G01X4036060Y2026920D02*
X4046220D01*
Y1859280D01*
X3649980D01*
Y2026920D01*
X4036060D01*
G01X4163060Y3055620D02*
X4173220D01*
Y2887980D01*
X3776980D01*
Y3055620D01*
X4163060D01*
G01Y3868420D02*
X4173220D01*
Y3700780D01*
X3776980D01*
Y3868420D01*
X4163060D01*
G01X4188460Y144780D02*
X4343400D01*
G01X4188460Y317500D02*
Y144780D01*
G01X4432300Y317500D02*
X4589780D01*
Y144780D01*
X4434840D01*
G01X4345940Y317500D02*
X4188460D01*
G01X4531360Y2029460D02*
X4376420D01*
G01X4373880Y1856740D02*
X4531360D01*
G01X4287520D02*
X4130040D01*
Y2029460D01*
X4284980D01*
G01X4229100Y3251200D02*
Y3124200D01*
X4102100D01*
G01X4229100Y3505200D02*
Y3632200D01*
X4102100D01*
G01X4762500Y299720D02*
X5354320D01*
Y147320D01*
X4762500D01*
Y299720D01*
G01X5553800Y892980D02*
G02X5088800I-232500J-2685D01*
G01D02*
Y1527780D01*
G01X4531360Y1856740D02*
Y2029460D01*
G01X5553800Y1527580D02*
G03X5088800I-232500J2685D01*
G01X4638000Y4484520D02*
G02Y4344520I0J-70000D01*
G01X6546500Y4686650D02*
X4629500D01*
Y4142390D01*
X6546500D01*
Y4686650D01*
G01X5628640Y881380D02*
X5783580D01*
G01X5628640Y1054100D02*
Y881380D01*
G01X5786120Y1054100D02*
X5628640D01*
G01X5631180Y1363980D02*
X5786120D01*
G01X5631180Y1536700D02*
Y1363980D01*
G01X5422900Y1155700D02*
Y1262380D01*
X5219700D01*
Y1155700D01*
X5422900D01*
G01X5321300Y1349340D02*
Y1299340D01*
G01X5221300D02*
X5421300D01*
G01Y1120280D02*
X5221300D01*
G01X5321300Y1070280D02*
Y1120280D01*
G01X5553800Y892980D02*
Y1527780D01*
G01X5788660Y1536700D02*
X5631180D01*
G01X5628640Y2639060D02*
Y2628900D01*
X5461000D01*
Y3025140D01*
X5628640D01*
Y2639060D01*
G01X6266180Y601980D02*
X6489700D01*
Y154940D01*
X6266180D01*
Y601980D01*
G01X6433820Y652780D02*
X6591300D01*
G01X6347460D02*
X6189980D01*
Y825500D01*
X6344920D01*
G01X5872480Y1054100D02*
X6029960D01*
Y881380D01*
X5875020D01*
G01X6591300Y825500D02*
X6436360D01*
G01X5875020Y1536700D02*
X6032500D01*
Y1363980D01*
X5877560D01*
G01X6578600Y1353820D02*
X6588760D01*
Y1186180D01*
X6192520D01*
Y1353820D01*
X6578600D01*
G01Y1089660D02*
X6588760D01*
Y922020D01*
X6192520D01*
Y1089660D01*
X6578600D01*
G01X6591300Y652780D02*
Y825500D01*
G01X7676900Y313790D02*
Y1342290D01*
X6978900D01*
Y313790D01*
X7676900D01*
G01X6982460Y3055620D02*
X6992620D01*
Y2887980D01*
X6596380D01*
Y3055620D01*
X6982460D01*
G01X7035800Y3251200D02*
Y3124200D01*
X6908800D01*
G01X6982460Y3868420D02*
X6992620D01*
Y3700780D01*
X6596380D01*
Y3868420D01*
X6982460D01*
G01X7035800Y3505200D02*
Y3632200D01*
X6908800D01*
G01X7579360Y1950720D02*
X7589520D01*
Y1783080D01*
X7193280D01*
Y1950720D01*
X7579360D01*
G01X7632700Y2146300D02*
Y2019300D01*
X7505700D01*
G01X7632700Y2400300D02*
Y2527300D01*
X7505700D01*
G01X7575770Y4257340D02*
Y5247340D01*
X7349270D01*
Y4257340D01*
X7575770D01*
G01X7503160Y5245100D02*
G02X7421880I-40640J0D01*
G01X8483600Y1480820D02*
X8493760D01*
Y1313180D01*
X8097520D01*
Y1480820D01*
X8483600D01*
G01X8348980Y1117600D02*
Y1193800D01*
X8958580D01*
Y1117600D01*
G01X8348980Y914400D02*
Y838200D01*
X8958580D01*
Y914400D01*
G01X8328620Y4492140D02*
G02Y4352140I0J-70000D01*
G01X10237120Y4694270D02*
X8320120D01*
Y4150010D01*
X10237120D01*
Y4694270D01*
G01X8768080Y939800D02*
Y977900D01*
G01X8539480Y939800D02*
X8768080D01*
G01X8577580Y1092200D02*
X8729980D01*
G01X8653780Y939800D02*
Y1028700D01*
G01X8539480Y977900D02*
Y939800D01*
G01X9331960Y2651760D02*
Y2641600D01*
X9164320D01*
Y3037840D01*
X9331960D01*
Y2651760D01*
G01X11038800Y4481980D02*
G02Y4341980I0J-70000D01*
G01X12947300Y4684110D02*
X11030300D01*
Y4139850D01*
X12947300D01*
Y4684110D01*
G01X12103100Y2644140D02*
Y2633980D01*
X11935460D01*
Y3030220D01*
X12103100D01*
Y2644140D01*
G01X14069060Y1963420D02*
X14079220D01*
Y1795780D01*
X13682980D01*
Y1963420D01*
X14069060D01*
G01X14280300Y744880D02*
Y358380D01*
G03X14343800Y294880I63500J0D01*
G01X14463000D01*
G01X14280300Y1144880D02*
Y1531380D01*
G02X14343800Y1594880I63500J0D01*
G01X14463000D01*
X14617700Y1440180D01*
G01X14008100Y1186180D02*
X13906500D01*
G01X13957300Y1135380D02*
Y1236980D01*
G01X14122400Y2159000D02*
Y2032000D01*
X13995400D01*
G01X14122400Y2413000D02*
Y2540000D01*
X13995400D01*
G01X14047690Y4280200D02*
Y5270200D01*
X13821190D01*
Y4280200D01*
X14047690D01*
G01X13975080Y5267960D02*
G02X13893800I-40640J0D01*
G01X14463000Y294880D02*
X14617700Y449580D01*
G01X15773400Y792480D02*
G02X15772750Y1100130I-673101J152404D01*
G01X14813240Y4484520D02*
G02Y4344520I0J-70000D01*
G01X16721740Y4686650D02*
X14804740D01*
Y4142390D01*
X16721740D01*
Y4686650D01*
G01X15801340Y2651760D02*
Y2641600D01*
X15633700D01*
Y3037840D01*
X15801340D01*
Y2651760D01*
G01X16812260Y620680D02*
Y100680D01*
G01X17072260Y360680D02*
G03I-260000J0D01*
G01X16903700Y571500D02*
Y474980D01*
G01X16951960Y523240D02*
X16855440D01*
G01X16698440Y820180D02*
X16525940D01*
G02X16425940Y920180I0J100000D01*
G01Y1960180D01*
G02X16525940Y2060180I100000J0D01*
G01X16698440D01*
G01X16505940Y1440180D02*
G03X16698830Y1026520I540000J0D01*
G01X16505940Y1440180D02*
G02X16698830Y1853840I540000J0D01*
G01X17599660Y391160D02*
X17444720D01*
G01X17599660Y218440D02*
Y391160D01*
G01X17442180Y218440D02*
X17599660D01*
G01X17355820D02*
X17198340D01*
Y391160D01*
X17353280D01*
G01X17211040Y444980D02*
X17200880D01*
Y612620D01*
X17597120D01*
Y444980D01*
X17211040D01*
G01X17393440Y820180D02*
X17565940D01*
G03X17665940Y920180I0J100000D01*
G01Y1960180D01*
G03X17565940Y2060180I-100000J0D01*
G01X17393440D01*
G01X17045940Y1390180D02*
G02Y1290180I0J-50000D01*
G01Y1190180D01*
G01Y1490180D02*
G02Y1390180I0J-50000D01*
G01X17585940Y1440180D02*
G02X17393050Y1026520I-540000J0D01*
G01X17585940Y1440180D02*
G03X17393050Y1853840I-540000J0D01*
G01X17045940Y1490180D02*
G03Y1590180I0J50000D01*
G01Y1690180D01*
G01X17536120Y4471820D02*
G02Y4331820I0J-70000D01*
G01X19444620Y4673950D02*
X17527620D01*
Y4129690D01*
X19444620D01*
Y4673950D01*
G01X18245760Y222440D02*
Y722440D01*
X18045760D01*
Y222440D01*
X18245760D01*
G01X18495300Y1687430D02*
Y1180180D01*
X17813300D01*
Y1687430D01*
G01X18691860Y215900D02*
X18846800D01*
G01X18691860Y388620D02*
Y215900D01*
G01X18849340Y388620D02*
X18691860D01*
G01X18935700D02*
X19093180D01*
Y215900D01*
X18938240D01*
G01X19080480Y611670D02*
X19090640D01*
Y444030D01*
X18694400D01*
Y611670D01*
X19080480D01*
G01X18704560Y667080D02*
X18694400D01*
Y834720D01*
X19090640D01*
Y667080D01*
X18704560D01*
G01X18811240Y1070270D02*
Y1103180D01*
G01X18721240D02*
X18901240D01*
Y1523180D01*
X18721240D01*
Y1103180D01*
G01X18811240Y1523180D02*
Y1556090D01*
G01X18575020Y2651760D02*
Y2641600D01*
X18407380D01*
Y3037840D01*
X18575020D01*
Y2651760D01*
G01X19243040Y690880D02*
X19304000Y751840D01*
G01X19320360Y721360D02*
G03I-46840J0D01*
G01X20064680Y1036300D02*
Y1116300D01*
X20139680D01*
Y636300D01*
X19184680D01*
Y1116300D01*
X19259680D01*
Y1036300D01*
X20059680D01*
G01X19504660Y1263700D02*
Y2063700D01*
G01X19904660Y1663700D02*
G03I-400000J0D01*
G01X19352260Y1816100D02*
Y1945640D01*
G01X19418300Y1882140D02*
X19288760D01*
G01X20220940Y4130040D02*
Y3972560D01*
X20048220D01*
Y4127500D01*
G01X19753580Y4023360D02*
Y3863340D01*
X19941540D01*
Y4023360D01*
G01X20048220Y4373880D02*
Y4218940D01*
G01X20220940Y4373880D02*
X20048220D01*
G01X20220940Y4216400D02*
Y4373880D01*
G01X19753580Y4213860D02*
Y4356100D01*
X19773900Y4376420D01*
X19921220D01*
X19941540Y4356100D01*
Y4213860D01*
G01X20960080Y1998980D02*
Y2026920D01*
X20792440D01*
Y1998980D01*
G01X20960080Y1821180D02*
Y1998980D01*
X20792440D01*
Y1821180D01*
G01X20960080Y1729740D02*
Y1551940D01*
X20792440D01*
Y1732280D01*
G01X20538440Y1953260D02*
Y1963420D01*
X20706080D01*
Y1567180D01*
X20538440D01*
Y1953260D01*
G01X20524470Y2705100D02*
X20549870Y2730500D01*
G01D02*
X20524470Y2755900D01*
G01D02*
Y2705100D01*
G01X20778470Y2755900D02*
Y2451100D01*
G01X20829270Y2171700D02*
X20651470D01*
Y2298700D01*
G01X20685760Y3208020D02*
X20845780D01*
Y3395980D01*
X20685760D01*
G01X20495260Y3208020D02*
X20353020D01*
X20332700Y3228340D01*
Y3375660D01*
X20353020Y3395980D01*
X20495260D01*
G01X20829270Y3035300D02*
X20651470D01*
Y2908300D01*
G01X20335240Y3474720D02*
X20490180D01*
G01X20335240Y3647440D02*
Y3474720D01*
G01X20492720Y3647440D02*
X20335240D01*
G01X20579080D02*
X20736560D01*
Y3474720D01*
X20581620D01*
G01X20977610Y3971550D02*
X20327610D01*
Y4321550D01*
X20977610D01*
Y3971550D01*
G01X21233570Y2903500D02*
Y2303500D01*
G54D11*
G01X16578580Y480060D02*
G03X16565680Y270930I233681J-119377D01*
G01X19914660Y1663700D02*
G02X19859730Y1458700I-409997J0D01*
G01X19914660Y1663700D02*
G03X19859730Y1868700I-409997J0D01*
G54D12*
G01X1046480Y1296670D02*
Y1299210D01*
G01X4411980Y1397000D02*
Y1394460D01*
G01X4569460Y1544320D02*
Y1541780D01*
G01X20928330Y4029710D02*
X20925790D01*
G01X21015960Y3846830D02*
X21013420D01*
G54D13*
G01X3383280Y228600D02*
X3393440D01*
G01X3383280Y246380D02*
Y210820D01*
G01X3347720Y228600D02*
X3337560D01*
G01X3347720Y210820D02*
Y246380D01*
G01X3383280Y1943100D02*
X3393440D01*
G01X3383280Y1960880D02*
Y1925320D01*
G01X3347720Y1943100D02*
X3337560D01*
G01X3347720Y1925320D02*
Y1960880D01*
G01X4371340Y231140D02*
X4361180D01*
G01X4371340Y213360D02*
Y248920D01*
G01X4406900Y231140D02*
X4417060D01*
G01X4406900Y248920D02*
Y213360D01*
G01X4348480Y1943100D02*
X4358640D01*
G01X4348480Y1960880D02*
Y1925320D01*
G01X4312920Y1943100D02*
X4302760D01*
G01X4312920Y1925320D02*
Y1960880D01*
G01X5811520Y967740D02*
X5801360D01*
G01X5811520Y949960D02*
Y985520D01*
G01X5814060Y1450340D02*
X5803900D01*
G01X6408420Y739140D02*
X6418580D01*
G01X6408420Y756920D02*
Y721360D01*
G01X6372860Y739140D02*
X6362700D01*
G01X6372860Y721360D02*
Y756920D01*
G01X5847080Y967740D02*
X5857240D01*
G01X5847080Y985520D02*
Y949960D01*
G01X5814060Y1432560D02*
Y1468120D01*
G01X5849620Y1450340D02*
X5859780D01*
G01X5849620Y1468120D02*
Y1432560D01*
G01X17416780Y304800D02*
X17426940D01*
G01X17416780Y322580D02*
Y287020D01*
G01X17381220Y304800D02*
X17371060D01*
G01X17381220Y287020D02*
Y322580D01*
G01X18874740Y302260D02*
X18864580D01*
G01X18874740Y284480D02*
Y320040D01*
G01X18910300Y302260D02*
X18920460D01*
G01X18910300Y320040D02*
Y284480D01*
G01X20134580Y4191000D02*
Y4201160D01*
G01X20116800Y4191000D02*
X20152360D01*
G01X20134580Y4155440D02*
Y4145280D01*
G01X20152360Y4155440D02*
X20116800D01*
G01X20518120Y3561080D02*
X20507960D01*
G01X20518120Y3543300D02*
Y3578860D01*
G01X20553680Y3561080D02*
X20563840D01*
G01X20553680Y3578860D02*
Y3543300D01*
G54D14*
G01X949320Y1346990D02*
X957660Y1338660D01*
X962660Y1329290D01*
Y1320950D01*
X957660Y1312620D01*
X949320Y1306380D01*
X937640Y1303250D01*
X925970Y1305330D01*
X915960Y1310540D01*
X909280Y1319910D01*
X905950Y1332410D01*
X899280Y1339700D01*
X887600Y1342820D01*
X875920Y1340740D01*
X867590Y1335530D01*
X862580Y1328240D01*
Y1320950D01*
X865920Y1313660D01*
X874260Y1307420D01*
G01X862580Y1268990D02*
X962660Y1254410D01*
X862580Y1237750D01*
X962660Y1221090D01*
X862580Y1206510D01*
G01X962660Y1152460D02*
X940980Y1150380D01*
X922630Y1147260D01*
X905950Y1143090D01*
X887600Y1137880D01*
X862580Y1129550D01*
Y1171210D01*
G01X1039170Y3522730D02*
X1049170Y3517520D01*
X1055840Y3511270D01*
X1059180Y3503980D01*
X1055840Y3495650D01*
X1049170Y3489400D01*
X1039170Y3483160D01*
X1025820Y3481070D01*
X959100D01*
G01X1059180Y3435360D02*
X959100D01*
Y3410360D01*
X964110Y3402030D01*
X975780Y3395790D01*
X989120Y3393700D01*
X1002470Y3395790D01*
X1012480Y3400990D01*
X1017480Y3410360D01*
Y3435360D01*
G01X1059180Y3327160D02*
X959100D01*
X979110Y3339660D01*
G01X1059180D02*
Y3314670D01*
G01X1181660Y4786380D02*
Y4714660D01*
X1177490Y4699640D01*
X1169160Y4689640D01*
X1158750Y4686300D01*
X1148340Y4689640D01*
X1140010Y4699640D01*
X1135840Y4714660D01*
Y4786380D01*
G01X1091170Y4728000D02*
X1083880Y4739680D01*
X1077630Y4746350D01*
X1069300Y4749680D01*
X1062010Y4746350D01*
X1056800Y4739680D01*
X1052640Y4729670D01*
X1051590Y4717990D01*
X1052640Y4707980D01*
X1056800Y4697970D01*
X1063050Y4689640D01*
X1070340Y4686300D01*
X1078670Y4689640D01*
X1085960Y4699640D01*
X1090120Y4714660D01*
X1091170Y4731340D01*
X1089080Y4753020D01*
X1085960Y4764700D01*
X1080750Y4776370D01*
X1073460Y4784710D01*
X1066170Y4786380D01*
X1058880Y4783040D01*
X1053680Y4774700D01*
G01X2006350Y342900D02*
Y442980D01*
X1980310D01*
X1971980Y437970D01*
X1966780Y431300D01*
X1964690Y417960D01*
X1966780Y404620D01*
X1973020Y396280D01*
X1980310Y391270D01*
X2006350D01*
G01X1980310D02*
X1964690Y342900D01*
G01X1898150D02*
Y442980D01*
X1910650Y422970D01*
G01Y342900D02*
X1885660D01*
G01X1830570Y426300D02*
X1824320Y436310D01*
X1817030Y441310D01*
X1808700Y442980D01*
X1798280Y439640D01*
X1790990Y431300D01*
X1788910Y421300D01*
X1789950Y411290D01*
X1794120Y402950D01*
X1814950Y386270D01*
X1824320Y374590D01*
X1830570Y357910D01*
X1832650Y342900D01*
X1788910D01*
G01X2034290Y1661160D02*
Y1761240D01*
X2008250D01*
X1999920Y1756230D01*
X1994720Y1749560D01*
X1992630Y1736220D01*
X1994720Y1722880D01*
X2000960Y1714540D01*
X2008250Y1709530D01*
X2034290D01*
G01X2008250D02*
X1992630Y1661160D01*
G01X1926090D02*
Y1761240D01*
X1938590Y1741230D01*
G01Y1661160D02*
X1913600D01*
G01X1861630Y1681170D02*
X1855380Y1669500D01*
X1847050Y1662830D01*
X1837680Y1661160D01*
X1829350Y1662830D01*
X1821020Y1671170D01*
X1815810Y1681170D01*
X1814770Y1691180D01*
X1816850Y1702860D01*
X1824140Y1711200D01*
X1831430Y1714540D01*
X1840800D01*
G01X1831430D02*
X1825180Y1719540D01*
X1819980Y1727880D01*
X1817890Y1737890D01*
X1819980Y1747900D01*
X1825180Y1756230D01*
X1834550Y1761240D01*
X1843930Y1759570D01*
X1853300Y1752900D01*
G01X2242570Y340360D02*
Y440440D01*
X2216530D01*
X2208200Y435430D01*
X2203000Y428760D01*
X2200910Y415420D01*
X2203000Y402080D01*
X2209240Y393740D01*
X2216530Y388730D01*
X2242570D01*
G01X2216530D02*
X2200910Y340360D01*
G01X2134370D02*
X2127080Y342030D01*
X2118750Y347030D01*
X2113540Y355370D01*
X2111460Y367050D01*
X2113540Y378720D01*
X2119790Y388730D01*
X2129160Y393740D01*
X2139580D01*
X2145830Y397070D01*
X2151030Y405410D01*
X2153110Y417090D01*
X2149990Y428760D01*
X2142700Y437100D01*
X2134370Y440440D01*
X2126040Y437100D01*
X2118750Y428760D01*
X2115630Y417090D01*
X2117710Y405410D01*
X2122910Y397070D01*
X2129160Y393740D01*
X2139580D01*
X2148950Y388730D01*
X2155200Y378720D01*
X2157280Y367050D01*
X2155200Y355370D01*
X2149990Y347030D01*
X2141660Y342030D01*
X2134370Y340360D01*
G01X2206240Y960680D02*
X2277960D01*
X2292980Y956510D01*
X2302980Y948180D01*
X2306320Y937770D01*
X2302980Y927360D01*
X2292980Y919030D01*
X2277960Y914860D01*
X2206240D01*
G01X2291310Y873310D02*
X2299650Y867060D01*
X2304650Y859770D01*
X2306320Y850400D01*
X2302980Y841030D01*
X2296310Y833740D01*
X2284640Y828530D01*
X2271290Y827490D01*
X2257950Y829570D01*
X2249610Y834780D01*
X2242940Y842070D01*
X2241270Y849360D01*
X2242940Y856650D01*
X2249610Y866020D01*
X2206240Y862900D01*
Y834780D01*
G01X2504190Y1666240D02*
Y1766320D01*
X2478150D01*
X2469820Y1761310D01*
X2464620Y1754640D01*
X2462530Y1741300D01*
X2464620Y1727960D01*
X2470860Y1719620D01*
X2478150Y1714610D01*
X2504190D01*
G01X2478150D02*
X2462530Y1666240D01*
G01X2395990D02*
Y1766320D01*
X2408490Y1746310D01*
G01Y1666240D02*
X2383500D01*
G01X2308620D02*
Y1766320D01*
X2321120Y1746310D01*
G01Y1666240D02*
X2296130D01*
G01X2984250Y347980D02*
Y448060D01*
X2958210D01*
X2949880Y443050D01*
X2944680Y436380D01*
X2942590Y423040D01*
X2944680Y409700D01*
X2950920Y401360D01*
X2958210Y396350D01*
X2984250D01*
G01X2958210D02*
X2942590Y347980D01*
G01X2893750Y359650D02*
X2886460Y351320D01*
X2878130Y347980D01*
X2869800Y351320D01*
X2862510Y361320D01*
X2857310Y376340D01*
X2855220Y391350D01*
Y409700D01*
X2857310Y424710D01*
X2862510Y438050D01*
X2868760Y444720D01*
X2876050Y448060D01*
X2884380Y444720D01*
X2890630Y438050D01*
X2894790Y428050D01*
X2896880Y414700D01*
X2894790Y403020D01*
X2889590Y391350D01*
X2883340Y384670D01*
X2876050Y383010D01*
X2867720Y386340D01*
X2861470Y394680D01*
X2855220Y409700D01*
G01X3064760Y968300D02*
X3136480D01*
X3151500Y964130D01*
X3161500Y955800D01*
X3164840Y945390D01*
X3161500Y934980D01*
X3151500Y926650D01*
X3136480Y922480D01*
X3064760D01*
G01X3164840Y845520D02*
X3064760D01*
X3136480Y884050D01*
Y831990D01*
G01X2971550Y1656080D02*
Y1756160D01*
X2945510D01*
X2937180Y1751150D01*
X2931980Y1744480D01*
X2929890Y1731140D01*
X2931980Y1717800D01*
X2938220Y1709460D01*
X2945510Y1704450D01*
X2971550D01*
G01X2945510D02*
X2929890Y1656080D01*
G01X2863350D02*
Y1756160D01*
X2875850Y1736150D01*
G01Y1656080D02*
X2850860D01*
G01X2775980Y1756160D02*
X2784310Y1752820D01*
X2790560Y1744480D01*
X2794720Y1734480D01*
X2797850Y1721130D01*
X2798890Y1706120D01*
X2797850Y1691110D01*
X2794720Y1677760D01*
X2790560Y1667750D01*
X2784310Y1659420D01*
X2775980Y1656080D01*
X2767650Y1659420D01*
X2761400Y1667750D01*
X2757240Y1677760D01*
X2754110Y1691110D01*
X2753070Y1706120D01*
X2754110Y1721130D01*
X2757240Y1734480D01*
X2761400Y1744480D01*
X2767650Y1752820D01*
X2775980Y1756160D01*
G01X3121410Y2882900D02*
Y2982980D01*
X3095370D01*
X3087040Y2977970D01*
X3081840Y2971300D01*
X3079750Y2957960D01*
X3081840Y2944620D01*
X3088080Y2936280D01*
X3095370Y2931270D01*
X3121410D01*
G01X3095370D02*
X3079750Y2882900D01*
G01X3013210D02*
Y2982980D01*
X3025710Y2962970D01*
G01Y2882900D02*
X3000720D01*
G01X2927920D02*
X2925840Y2904580D01*
X2922720Y2922930D01*
X2918550Y2939610D01*
X2913340Y2957960D01*
X2905010Y2982980D01*
X2946670D01*
G01X3485690Y2079960D02*
X3479440Y2074960D01*
X3472150Y2071620D01*
X3463820D01*
X3454450Y2076630D01*
X3447160Y2084960D01*
X3441950Y2094970D01*
X3437790Y2111650D01*
X3436750Y2126660D01*
X3438830Y2141680D01*
X3441950Y2151690D01*
X3448200Y2161690D01*
X3455490Y2168360D01*
X3462780Y2171700D01*
X3470070D01*
X3477360Y2168360D01*
X3483610Y2163360D01*
X3488810Y2156690D01*
G01X3532450Y2160030D02*
X3539740Y2168360D01*
X3548070Y2171700D01*
X3556400Y2168360D01*
X3563690Y2158360D01*
X3568890Y2143340D01*
X3570980Y2128330D01*
Y2109980D01*
X3568890Y2094970D01*
X3563690Y2081630D01*
X3557440Y2074960D01*
X3550150Y2071620D01*
X3541820Y2074960D01*
X3535570Y2081630D01*
X3531410Y2091630D01*
X3529320Y2104980D01*
X3531410Y2116660D01*
X3536610Y2128330D01*
X3542860Y2135010D01*
X3550150Y2136670D01*
X3558480Y2133340D01*
X3564730Y2125000D01*
X3570980Y2109980D01*
G01X4482290Y2159300D02*
X4488540Y2164300D01*
X4495830Y2167640D01*
X4504160D01*
X4513530Y2162630D01*
X4520820Y2154300D01*
X4526030Y2144290D01*
X4530190Y2127610D01*
X4531230Y2112600D01*
X4529150Y2097580D01*
X4526030Y2087570D01*
X4519780Y2077570D01*
X4512490Y2070900D01*
X4505200Y2067560D01*
X4497910D01*
X4490620Y2070900D01*
X4484370Y2075900D01*
X4479170Y2082570D01*
G01X4440740D02*
X4434490Y2074230D01*
X4427200Y2069230D01*
X4417830Y2067560D01*
X4408460Y2070900D01*
X4401170Y2077570D01*
X4395960Y2089240D01*
X4394920Y2102590D01*
X4397000Y2115930D01*
X4402210Y2124270D01*
X4409500Y2130940D01*
X4416790Y2132610D01*
X4424080Y2130940D01*
X4433450Y2124270D01*
X4430330Y2167640D01*
X4402210D01*
G01X4048510Y2057400D02*
Y2157480D01*
X4022470D01*
X4014140Y2152470D01*
X4008940Y2145800D01*
X4006850Y2132460D01*
X4008940Y2119120D01*
X4015180Y2110780D01*
X4022470Y2105770D01*
X4048510D01*
G01X4022470D02*
X4006850Y2057400D01*
G01X3960100Y2099100D02*
X3952810Y2110780D01*
X3946560Y2117450D01*
X3938230Y2120780D01*
X3930940Y2117450D01*
X3925730Y2110780D01*
X3921570Y2100770D01*
X3920520Y2089090D01*
X3921570Y2079080D01*
X3925730Y2069070D01*
X3931980Y2060740D01*
X3939270Y2057400D01*
X3947600Y2060740D01*
X3954890Y2070740D01*
X3959050Y2085760D01*
X3960100Y2102440D01*
X3958010Y2124120D01*
X3954890Y2135800D01*
X3949680Y2147470D01*
X3942390Y2155810D01*
X3935100Y2157480D01*
X3927810Y2154140D01*
X3922610Y2145800D01*
G01X4434590Y2915920D02*
Y3016000D01*
X4408550D01*
X4400220Y3010990D01*
X4395020Y3004320D01*
X4392930Y2990980D01*
X4395020Y2977640D01*
X4401260Y2969300D01*
X4408550Y2964290D01*
X4434590D01*
G01X4408550D02*
X4392930Y2915920D01*
G01X4326390D02*
Y3016000D01*
X4338890Y2995990D01*
G01Y2915920D02*
X4313900D01*
G01X4256720Y2927590D02*
X4249430Y2919260D01*
X4241100Y2915920D01*
X4232770Y2919260D01*
X4225480Y2929260D01*
X4220280Y2944280D01*
X4218190Y2959290D01*
Y2977640D01*
X4220280Y2992650D01*
X4225480Y3005990D01*
X4231730Y3012660D01*
X4239020Y3016000D01*
X4247350Y3012660D01*
X4253600Y3005990D01*
X4257760Y2995990D01*
X4259850Y2982640D01*
X4257760Y2970960D01*
X4252560Y2959290D01*
X4246310Y2952610D01*
X4239020Y2950950D01*
X4230690Y2954280D01*
X4224440Y2962620D01*
X4218190Y2977640D01*
G01X4380740Y3124200D02*
X4389070Y3125870D01*
X4396360Y3132540D01*
X4402610Y3142550D01*
X4406770Y3154220D01*
X4408860Y3167570D01*
Y3180910D01*
X4406770Y3194260D01*
X4402610Y3205930D01*
X4396360Y3215940D01*
X4389070Y3222610D01*
X4380740Y3224280D01*
X4372410Y3222610D01*
X4365120Y3215940D01*
X4358870Y3205930D01*
X4354710Y3194260D01*
X4352620Y3180910D01*
Y3167570D01*
X4354710Y3154220D01*
X4358870Y3142550D01*
X4365120Y3132540D01*
X4372410Y3125870D01*
X4380740Y3124200D01*
G01X4372410Y3150890D02*
X4359910Y3124200D01*
G01X4293370D02*
Y3224280D01*
X4305870Y3204270D01*
G01Y3124200D02*
X4280880D01*
G01X4452370Y3733800D02*
Y3833880D01*
X4426330D01*
X4418000Y3828870D01*
X4412800Y3822200D01*
X4410710Y3808860D01*
X4412800Y3795520D01*
X4419040Y3787180D01*
X4426330Y3782170D01*
X4452370D01*
G01X4426330D02*
X4410710Y3733800D01*
G01X4363960Y3817200D02*
X4357710Y3827210D01*
X4350420Y3832210D01*
X4342090Y3833880D01*
X4331670Y3830540D01*
X4324380Y3822200D01*
X4322300Y3812200D01*
X4323340Y3802190D01*
X4327510Y3793850D01*
X4348340Y3777170D01*
X4357710Y3765490D01*
X4363960Y3748810D01*
X4366040Y3733800D01*
X4322300D01*
G01X4256800Y3833880D02*
X4265130Y3830540D01*
X4271380Y3822200D01*
X4275540Y3812200D01*
X4278670Y3798850D01*
X4279710Y3783840D01*
X4278670Y3768830D01*
X4275540Y3755480D01*
X4271380Y3745470D01*
X4265130Y3737140D01*
X4256800Y3733800D01*
X4248470Y3737140D01*
X4242220Y3745470D01*
X4238060Y3755480D01*
X4234930Y3768830D01*
X4233890Y3783840D01*
X4234930Y3798850D01*
X4238060Y3812200D01*
X4242220Y3822200D01*
X4248470Y3830540D01*
X4256800Y3833880D01*
G01X3849620Y4463340D02*
X3921340D01*
X3936360Y4459170D01*
X3946360Y4450840D01*
X3949700Y4440430D01*
X3946360Y4430020D01*
X3936360Y4421690D01*
X3921340Y4417520D01*
X3849620D01*
G01X3949700Y4355140D02*
X3928020Y4353060D01*
X3909670Y4349940D01*
X3892990Y4345770D01*
X3874640Y4340560D01*
X3849620Y4332230D01*
Y4373890D01*
G01X4881070Y264460D02*
X4887320Y269460D01*
X4894610Y272800D01*
X4902940D01*
X4912310Y267790D01*
X4919600Y259460D01*
X4924810Y249450D01*
X4928970Y232770D01*
X4930010Y217760D01*
X4927930Y202740D01*
X4924810Y192730D01*
X4918560Y182730D01*
X4911270Y176060D01*
X4903980Y172720D01*
X4896690D01*
X4889400Y176060D01*
X4883150Y181060D01*
X4877950Y187730D01*
G01X4836400Y214420D02*
X4829110Y226100D01*
X4822860Y232770D01*
X4814530Y236100D01*
X4807240Y232770D01*
X4802030Y226100D01*
X4797870Y216090D01*
X4796820Y204410D01*
X4797870Y194400D01*
X4802030Y184390D01*
X4808280Y176060D01*
X4815570Y172720D01*
X4823900Y176060D01*
X4831190Y186060D01*
X4835350Y201080D01*
X4836400Y217760D01*
X4834310Y239440D01*
X4831190Y251120D01*
X4825980Y262790D01*
X4818690Y271130D01*
X4811400Y272800D01*
X4804110Y269460D01*
X4798910Y261120D01*
G01X5125470Y167640D02*
Y267720D01*
X5099430D01*
X5091100Y262710D01*
X5085900Y256040D01*
X5083810Y242700D01*
X5085900Y229360D01*
X5092140Y221020D01*
X5099430Y216010D01*
X5125470D01*
G01X5099430D02*
X5083810Y167640D01*
G01X5040180Y182650D02*
X5033930Y174310D01*
X5026640Y169310D01*
X5017270Y167640D01*
X5007900Y170980D01*
X5000610Y177650D01*
X4995400Y189320D01*
X4994360Y202670D01*
X4996440Y216010D01*
X5001650Y224350D01*
X5008940Y231020D01*
X5016230Y232690D01*
X5023520Y231020D01*
X5032890Y224350D01*
X5029770Y267720D01*
X5001650D01*
G01X5041900Y1210820D02*
X4996860D01*
X4941820Y1231650D01*
G01Y1189990D02*
X4996860Y1210820D01*
G01X5041900Y1123450D02*
X4941820D01*
X4961830Y1135950D01*
G01X5041900D02*
Y1110960D01*
G01X4743700Y1627430D02*
X4815420D01*
X4830440Y1623260D01*
X4840440Y1614930D01*
X4843780Y1604520D01*
X4840440Y1594110D01*
X4830440Y1585780D01*
X4815420Y1581610D01*
X4743700D01*
G01X4760380Y1536940D02*
X4750370Y1530690D01*
X4745370Y1523400D01*
X4743700Y1515070D01*
X4747040Y1504650D01*
X4755380Y1497360D01*
X4765380Y1495280D01*
X4775390Y1496320D01*
X4783730Y1500490D01*
X4800410Y1521320D01*
X4812090Y1530690D01*
X4828770Y1536940D01*
X4843780Y1539020D01*
Y1495280D01*
G01X5264610Y264460D02*
X5270860Y269460D01*
X5278150Y272800D01*
X5286480D01*
X5295850Y267790D01*
X5303140Y259460D01*
X5308350Y249450D01*
X5312510Y232770D01*
X5313550Y217760D01*
X5311470Y202740D01*
X5308350Y192730D01*
X5302100Y182730D01*
X5294810Y176060D01*
X5287520Y172720D01*
X5280230D01*
X5272940Y176060D01*
X5266690Y181060D01*
X5261490Y187730D01*
G01X5202230Y172720D02*
X5200150Y194400D01*
X5197030Y212750D01*
X5192860Y229430D01*
X5187650Y247780D01*
X5179320Y272800D01*
X5220980D01*
G01X5892550Y2941320D02*
Y3041400D01*
X5866510D01*
X5858180Y3036390D01*
X5852980Y3029720D01*
X5850890Y3016380D01*
X5852980Y3003040D01*
X5859220Y2994700D01*
X5866510Y2989690D01*
X5892550D01*
G01X5866510D02*
X5850890Y2941320D01*
G01X5784350D02*
Y3041400D01*
X5796850Y3021390D01*
G01Y2941320D02*
X5771860D01*
G01X5696980D02*
X5689690Y2942990D01*
X5681360Y2947990D01*
X5676150Y2956330D01*
X5674070Y2968010D01*
X5676150Y2979680D01*
X5682400Y2989690D01*
X5691770Y2994700D01*
X5702190D01*
X5708440Y2998030D01*
X5713640Y3006370D01*
X5715720Y3018050D01*
X5712600Y3029720D01*
X5705310Y3038060D01*
X5696980Y3041400D01*
X5688650Y3038060D01*
X5681360Y3029720D01*
X5678240Y3018050D01*
X5680320Y3006370D01*
X5685520Y2998030D01*
X5691770Y2994700D01*
X5702190D01*
X5711560Y2989690D01*
X5717810Y2979680D01*
X5719890Y2968010D01*
X5717810Y2956330D01*
X5712600Y2947990D01*
X5704270Y2942990D01*
X5696980Y2941320D01*
G01X6399990Y277160D02*
X6406240Y282160D01*
X6413530Y285500D01*
X6421860D01*
X6431230Y280490D01*
X6438520Y272160D01*
X6443730Y262150D01*
X6447890Y245470D01*
X6448930Y230460D01*
X6446850Y215440D01*
X6443730Y205430D01*
X6437480Y195430D01*
X6430190Y188760D01*
X6422900Y185420D01*
X6415610D01*
X6408320Y188760D01*
X6402070Y193760D01*
X6396870Y200430D01*
G01X6355320Y268820D02*
X6349070Y278830D01*
X6341780Y283830D01*
X6333450Y285500D01*
X6323030Y282160D01*
X6315740Y273820D01*
X6313660Y263820D01*
X6314700Y253810D01*
X6318870Y245470D01*
X6339700Y228790D01*
X6349070Y217110D01*
X6355320Y200430D01*
X6357400Y185420D01*
X6313660D01*
G01X5996130Y820720D02*
X6002380Y825720D01*
X6009670Y829060D01*
X6018000D01*
X6027370Y824050D01*
X6034660Y815720D01*
X6039870Y805710D01*
X6044030Y789030D01*
X6045070Y774020D01*
X6042990Y759000D01*
X6039870Y748990D01*
X6033620Y738990D01*
X6026330Y732320D01*
X6019040Y728980D01*
X6011750D01*
X6004460Y732320D01*
X5998210Y737320D01*
X5993010Y743990D01*
G01X5931670Y728980D02*
Y829060D01*
X5944170Y809050D01*
G01Y728980D02*
X5919180D01*
G01X5844300Y829060D02*
X5852630Y825720D01*
X5858880Y817380D01*
X5863040Y807380D01*
X5866170Y794030D01*
X5867210Y779020D01*
X5866170Y764010D01*
X5863040Y750660D01*
X5858880Y740650D01*
X5852630Y732320D01*
X5844300Y728980D01*
X5835970Y732320D01*
X5829720Y740650D01*
X5825560Y750660D01*
X5822430Y764010D01*
X5821390Y779020D01*
X5822430Y794030D01*
X5825560Y807380D01*
X5829720Y817380D01*
X5835970Y825720D01*
X5844300Y829060D01*
G01X6443730Y472440D02*
Y572520D01*
X6417690D01*
X6409360Y567510D01*
X6404160Y560840D01*
X6402070Y547500D01*
X6404160Y534160D01*
X6410400Y525820D01*
X6417690Y520810D01*
X6443730D01*
G01X6417690D02*
X6402070Y472440D01*
G01X6358440Y492450D02*
X6352190Y480780D01*
X6343860Y474110D01*
X6334490Y472440D01*
X6326160Y474110D01*
X6317830Y482450D01*
X6312620Y492450D01*
X6311580Y502460D01*
X6313660Y514140D01*
X6320950Y522480D01*
X6328240Y525820D01*
X6337610D01*
G01X6328240D02*
X6321990Y530820D01*
X6316790Y539160D01*
X6314700Y549170D01*
X6316790Y559180D01*
X6321990Y567510D01*
X6331360Y572520D01*
X6340740Y570850D01*
X6350110Y564180D01*
G01X6441190Y332740D02*
Y432820D01*
X6415150D01*
X6406820Y427810D01*
X6401620Y421140D01*
X6399530Y407800D01*
X6401620Y394460D01*
X6407860Y386120D01*
X6415150Y381110D01*
X6441190D01*
G01X6415150D02*
X6399530Y332740D01*
G01X6320490D02*
Y432820D01*
X6359020Y361100D01*
X6306960D01*
G01X5985970Y1318560D02*
X5992220Y1323560D01*
X5999510Y1326900D01*
X6007840D01*
X6017210Y1321890D01*
X6024500Y1313560D01*
X6029710Y1303550D01*
X6033870Y1286870D01*
X6034910Y1271860D01*
X6032830Y1256840D01*
X6029710Y1246830D01*
X6023460Y1236830D01*
X6016170Y1230160D01*
X6008880Y1226820D01*
X6001590D01*
X5994300Y1230160D01*
X5988050Y1235160D01*
X5982850Y1241830D01*
G01X5909010Y1226820D02*
Y1326900D01*
X5947540Y1255180D01*
X5895480D01*
G01X7276850Y2931160D02*
Y3031240D01*
X7250810D01*
X7242480Y3026230D01*
X7237280Y3019560D01*
X7235190Y3006220D01*
X7237280Y2992880D01*
X7243520Y2984540D01*
X7250810Y2979530D01*
X7276850D01*
G01X7250810D02*
X7235190Y2931160D01*
G01X7188440Y3014560D02*
X7182190Y3024570D01*
X7174900Y3029570D01*
X7166570Y3031240D01*
X7156150Y3027900D01*
X7148860Y3019560D01*
X7146780Y3009560D01*
X7147820Y2999550D01*
X7151990Y2991210D01*
X7172820Y2974530D01*
X7182190Y2962850D01*
X7188440Y2946170D01*
X7190520Y2931160D01*
X7146780D01*
G01X7104190Y2951170D02*
X7097940Y2939500D01*
X7089610Y2932830D01*
X7080240Y2931160D01*
X7071910Y2932830D01*
X7063580Y2941170D01*
X7058370Y2951170D01*
X7057330Y2961180D01*
X7059410Y2972860D01*
X7066700Y2981200D01*
X7073990Y2984540D01*
X7083360D01*
G01X7073990D02*
X7067740Y2989540D01*
X7062540Y2997880D01*
X7060450Y3007890D01*
X7062540Y3017900D01*
X7067740Y3026230D01*
X7077110Y3031240D01*
X7086490Y3029570D01*
X7095860Y3022900D01*
G01X7184900Y3119120D02*
X7193230Y3120790D01*
X7200520Y3127460D01*
X7206770Y3137470D01*
X7210930Y3149140D01*
X7213020Y3162490D01*
Y3175830D01*
X7210930Y3189180D01*
X7206770Y3200850D01*
X7200520Y3210860D01*
X7193230Y3217530D01*
X7184900Y3219200D01*
X7176570Y3217530D01*
X7169280Y3210860D01*
X7163030Y3200850D01*
X7158870Y3189180D01*
X7156780Y3175830D01*
Y3162490D01*
X7158870Y3149140D01*
X7163030Y3137470D01*
X7169280Y3127460D01*
X7176570Y3120790D01*
X7184900Y3119120D01*
G01X7176570Y3145810D02*
X7164070Y3119120D01*
G01X7117320Y3202520D02*
X7111070Y3212530D01*
X7103780Y3217530D01*
X7095450Y3219200D01*
X7085030Y3215860D01*
X7077740Y3207520D01*
X7075660Y3197520D01*
X7076700Y3187510D01*
X7080870Y3179170D01*
X7101700Y3162490D01*
X7111070Y3150810D01*
X7117320Y3134130D01*
X7119400Y3119120D01*
X7075660D01*
G01X7279390Y3733800D02*
Y3833880D01*
X7253350D01*
X7245020Y3828870D01*
X7239820Y3822200D01*
X7237730Y3808860D01*
X7239820Y3795520D01*
X7246060Y3787180D01*
X7253350Y3782170D01*
X7279390D01*
G01X7253350D02*
X7237730Y3733800D01*
G01X7190980Y3817200D02*
X7184730Y3827210D01*
X7177440Y3832210D01*
X7169110Y3833880D01*
X7158690Y3830540D01*
X7151400Y3822200D01*
X7149320Y3812200D01*
X7150360Y3802190D01*
X7154530Y3793850D01*
X7175360Y3777170D01*
X7184730Y3765490D01*
X7190980Y3748810D01*
X7193060Y3733800D01*
X7149320D01*
G01X7071320D02*
Y3833880D01*
X7109850Y3762160D01*
X7057790D01*
G01X6651240Y4450640D02*
X6722960D01*
X6737980Y4446470D01*
X6747980Y4438140D01*
X6751320Y4427730D01*
X6747980Y4417320D01*
X6737980Y4408990D01*
X6722960Y4404820D01*
X6651240D01*
G01X6751320Y4340360D02*
X6749650Y4333070D01*
X6744650Y4324740D01*
X6736310Y4319530D01*
X6724630Y4317450D01*
X6712960Y4319530D01*
X6702950Y4325780D01*
X6697940Y4335150D01*
Y4345570D01*
X6694610Y4351820D01*
X6686270Y4357020D01*
X6674590Y4359100D01*
X6662920Y4355980D01*
X6654580Y4348690D01*
X6651240Y4340360D01*
X6654580Y4332030D01*
X6662920Y4324740D01*
X6674590Y4321620D01*
X6686270Y4323700D01*
X6694610Y4328900D01*
X6697940Y4335150D01*
Y4345570D01*
X6702950Y4354940D01*
X6712960Y4361190D01*
X6724630Y4363270D01*
X6736310Y4361190D01*
X6744650Y4355980D01*
X6749650Y4347650D01*
X6751320Y4340360D01*
G01X7394500Y1494870D02*
Y1423150D01*
X7390330Y1408130D01*
X7382000Y1398130D01*
X7371590Y1394790D01*
X7361180Y1398130D01*
X7352850Y1408130D01*
X7348680Y1423150D01*
Y1494870D01*
G01X7284220Y1394790D02*
Y1494870D01*
X7296720Y1474860D01*
G01Y1394790D02*
X7271730D01*
G01X7861050Y1805940D02*
Y1906020D01*
X7835010D01*
X7826680Y1901010D01*
X7821480Y1894340D01*
X7819390Y1881000D01*
X7821480Y1867660D01*
X7827720Y1859320D01*
X7835010Y1854310D01*
X7861050D01*
G01X7835010D02*
X7819390Y1805940D01*
G01X7772640Y1889340D02*
X7766390Y1899350D01*
X7759100Y1904350D01*
X7750770Y1906020D01*
X7740350Y1902680D01*
X7733060Y1894340D01*
X7730980Y1884340D01*
X7732020Y1874330D01*
X7736190Y1865990D01*
X7757020Y1849310D01*
X7766390Y1837630D01*
X7772640Y1820950D01*
X7774720Y1805940D01*
X7730980D01*
G01X7667560D02*
X7665480Y1827620D01*
X7662360Y1845970D01*
X7658190Y1862650D01*
X7652980Y1881000D01*
X7644650Y1906020D01*
X7686310D01*
G01X7814820Y2019300D02*
X7823150Y2020970D01*
X7830440Y2027640D01*
X7836690Y2037650D01*
X7840850Y2049320D01*
X7842940Y2062670D01*
Y2076010D01*
X7840850Y2089360D01*
X7836690Y2101030D01*
X7830440Y2111040D01*
X7823150Y2117710D01*
X7814820Y2119380D01*
X7806490Y2117710D01*
X7799200Y2111040D01*
X7792950Y2101030D01*
X7788790Y2089360D01*
X7786700Y2076010D01*
Y2062670D01*
X7788790Y2049320D01*
X7792950Y2037650D01*
X7799200Y2027640D01*
X7806490Y2020970D01*
X7814820Y2019300D01*
G01X7806490Y2045990D02*
X7793990Y2019300D01*
G01X7750360Y2039310D02*
X7744110Y2027640D01*
X7735780Y2020970D01*
X7726410Y2019300D01*
X7718080Y2020970D01*
X7709750Y2029310D01*
X7704540Y2039310D01*
X7703500Y2049320D01*
X7705580Y2061000D01*
X7712870Y2069340D01*
X7720160Y2072680D01*
X7729530D01*
G01X7720160D02*
X7713910Y2077680D01*
X7708710Y2086020D01*
X7706620Y2096030D01*
X7708710Y2106040D01*
X7713910Y2114370D01*
X7723280Y2119380D01*
X7732660Y2117710D01*
X7742030Y2111040D01*
G01X7524040Y5380740D02*
Y5309020D01*
X7519870Y5294000D01*
X7511540Y5284000D01*
X7501130Y5280660D01*
X7490720Y5284000D01*
X7482390Y5294000D01*
X7478220Y5309020D01*
Y5380740D01*
G01X7431460Y5292330D02*
X7424170Y5284000D01*
X7415840Y5280660D01*
X7407510Y5284000D01*
X7400220Y5294000D01*
X7395020Y5309020D01*
X7392930Y5324030D01*
Y5342380D01*
X7395020Y5357390D01*
X7400220Y5370730D01*
X7406470Y5377400D01*
X7413760Y5380740D01*
X7422090Y5377400D01*
X7428340Y5370730D01*
X7432500Y5360730D01*
X7434590Y5347380D01*
X7432500Y5335700D01*
X7427300Y5324030D01*
X7421050Y5317350D01*
X7413760Y5315690D01*
X7405430Y5319020D01*
X7399180Y5327360D01*
X7392930Y5342380D01*
G01X8689090Y1356360D02*
Y1456440D01*
X8663050D01*
X8654720Y1451430D01*
X8649520Y1444760D01*
X8647430Y1431420D01*
X8649520Y1418080D01*
X8655760Y1409740D01*
X8663050Y1404730D01*
X8689090D01*
G01X8663050D02*
X8647430Y1356360D01*
G01X8600680Y1439760D02*
X8594430Y1449770D01*
X8587140Y1454770D01*
X8578810Y1456440D01*
X8568390Y1453100D01*
X8561100Y1444760D01*
X8559020Y1434760D01*
X8560060Y1424750D01*
X8564230Y1416410D01*
X8585060Y1399730D01*
X8594430Y1388050D01*
X8600680Y1371370D01*
X8602760Y1356360D01*
X8559020D01*
G01X9193050Y1237620D02*
X9184720Y1229280D01*
X9175350Y1224280D01*
X9167010D01*
X9158680Y1229280D01*
X9152440Y1237620D01*
X9149310Y1249300D01*
X9151390Y1260970D01*
X9156600Y1270980D01*
X9165970Y1277660D01*
X9178470Y1280990D01*
X9185760Y1287660D01*
X9188880Y1299340D01*
X9186800Y1311020D01*
X9181590Y1319350D01*
X9174300Y1324360D01*
X9167010D01*
X9159720Y1321020D01*
X9153480Y1312680D01*
G01X9115050Y1324360D02*
X9100470Y1224280D01*
X9083810Y1324360D01*
X9067150Y1224280D01*
X9052570Y1324360D01*
G01X9019350Y1239290D02*
X9013100Y1230950D01*
X9005810Y1225950D01*
X8996440Y1224280D01*
X8987070Y1227620D01*
X8979780Y1234290D01*
X8974570Y1245960D01*
X8973530Y1259310D01*
X8975610Y1272650D01*
X8980820Y1280990D01*
X8988110Y1287660D01*
X8995400Y1289330D01*
X9002690Y1287660D01*
X9012060Y1280990D01*
X9008940Y1324360D01*
X8980820D01*
G01X9580630Y2966720D02*
Y3066800D01*
X9554590D01*
X9546260Y3061790D01*
X9541060Y3055120D01*
X9538970Y3041780D01*
X9541060Y3028440D01*
X9547300Y3020100D01*
X9554590Y3015090D01*
X9580630D01*
G01X9554590D02*
X9538970Y2966720D01*
G01X9492220Y3050120D02*
X9485970Y3060130D01*
X9478680Y3065130D01*
X9470350Y3066800D01*
X9459930Y3063460D01*
X9452640Y3055120D01*
X9450560Y3045120D01*
X9451600Y3035110D01*
X9455770Y3026770D01*
X9476600Y3010090D01*
X9485970Y2998410D01*
X9492220Y2981730D01*
X9494300Y2966720D01*
X9450560D01*
G01X9385060D02*
Y3066800D01*
X9397560Y3046790D01*
G01Y2966720D02*
X9372570D01*
G01X10324080Y4519720D02*
X10395800D01*
X10410820Y4515550D01*
X10420820Y4507220D01*
X10424160Y4496810D01*
X10420820Y4486400D01*
X10410820Y4478070D01*
X10395800Y4473900D01*
X10324080D01*
G01X10424160Y4409440D02*
X10324080D01*
X10344090Y4421940D01*
G01X10424160D02*
Y4396950D01*
G01X10324080Y4322070D02*
X10327420Y4330400D01*
X10335760Y4336650D01*
X10345760Y4340810D01*
X10359110Y4343940D01*
X10374120Y4344980D01*
X10389130Y4343940D01*
X10402480Y4340810D01*
X10412490Y4336650D01*
X10420820Y4330400D01*
X10424160Y4322070D01*
X10420820Y4313740D01*
X10412490Y4307490D01*
X10402480Y4303330D01*
X10389130Y4300200D01*
X10374120Y4299160D01*
X10359110Y4300200D01*
X10345760Y4303330D01*
X10335760Y4307490D01*
X10327420Y4313740D01*
X10324080Y4322070D01*
G01X12364470Y2938780D02*
Y3038860D01*
X12338430D01*
X12330100Y3033850D01*
X12324900Y3027180D01*
X12322810Y3013840D01*
X12324900Y3000500D01*
X12331140Y2992160D01*
X12338430Y2987150D01*
X12364470D01*
G01X12338430D02*
X12322810Y2938780D01*
G01X12276060Y3022180D02*
X12269810Y3032190D01*
X12262520Y3037190D01*
X12254190Y3038860D01*
X12243770Y3035520D01*
X12236480Y3027180D01*
X12234400Y3017180D01*
X12235440Y3007170D01*
X12239610Y2998830D01*
X12260440Y2982150D01*
X12269810Y2970470D01*
X12276060Y2953790D01*
X12278140Y2938780D01*
X12234400D01*
G01X12188690Y3022180D02*
X12182440Y3032190D01*
X12175150Y3037190D01*
X12166820Y3038860D01*
X12156400Y3035520D01*
X12149110Y3027180D01*
X12147030Y3017180D01*
X12148070Y3007170D01*
X12152240Y2998830D01*
X12173070Y2982150D01*
X12182440Y2970470D01*
X12188690Y2953790D01*
X12190770Y2938780D01*
X12147030D01*
G01X13054580Y4527340D02*
X13126300D01*
X13141320Y4523170D01*
X13151320Y4514840D01*
X13154660Y4504430D01*
X13151320Y4494020D01*
X13141320Y4485690D01*
X13126300Y4481520D01*
X13054580D01*
G01X13154660Y4417060D02*
X13054580D01*
X13074590Y4429560D01*
G01X13154660D02*
Y4404570D01*
G01Y4329690D02*
X13054580D01*
X13074590Y4342190D01*
G01X13154660D02*
Y4317200D01*
G01X14343130Y1828800D02*
Y1928880D01*
X14317090D01*
X14308760Y1923870D01*
X14303560Y1917200D01*
X14301470Y1903860D01*
X14303560Y1890520D01*
X14309800Y1882180D01*
X14317090Y1877170D01*
X14343130D01*
G01X14317090D02*
X14301470Y1828800D01*
G01X14254720Y1912200D02*
X14248470Y1922210D01*
X14241180Y1927210D01*
X14232850Y1928880D01*
X14222430Y1925540D01*
X14215140Y1917200D01*
X14213060Y1907200D01*
X14214100Y1897190D01*
X14218270Y1888850D01*
X14239100Y1872170D01*
X14248470Y1860490D01*
X14254720Y1843810D01*
X14256800Y1828800D01*
X14213060D01*
G01X14147560D02*
X14140270Y1830470D01*
X14131940Y1835470D01*
X14126730Y1843810D01*
X14124650Y1855490D01*
X14126730Y1867160D01*
X14132980Y1877170D01*
X14142350Y1882180D01*
X14152770D01*
X14159020Y1885510D01*
X14164220Y1893850D01*
X14166300Y1905530D01*
X14163180Y1917200D01*
X14155890Y1925540D01*
X14147560Y1928880D01*
X14139230Y1925540D01*
X14131940Y1917200D01*
X14128820Y1905530D01*
X14130900Y1893850D01*
X14136100Y1885510D01*
X14142350Y1882180D01*
X14152770D01*
X14162140Y1877170D01*
X14168390Y1867160D01*
X14170470Y1855490D01*
X14168390Y1843810D01*
X14163180Y1835470D01*
X14154850Y1830470D01*
X14147560Y1828800D01*
G01X14291820Y2029460D02*
X14300150Y2031130D01*
X14307440Y2037800D01*
X14313690Y2047810D01*
X14317850Y2059480D01*
X14319940Y2072830D01*
Y2086170D01*
X14317850Y2099520D01*
X14313690Y2111190D01*
X14307440Y2121200D01*
X14300150Y2127870D01*
X14291820Y2129540D01*
X14283490Y2127870D01*
X14276200Y2121200D01*
X14269950Y2111190D01*
X14265790Y2099520D01*
X14263700Y2086170D01*
Y2072830D01*
X14265790Y2059480D01*
X14269950Y2047810D01*
X14276200Y2037800D01*
X14283490Y2031130D01*
X14291820Y2029460D01*
G01X14283490Y2056150D02*
X14270990Y2029460D01*
G01X14191950D02*
Y2129540D01*
X14230480Y2057820D01*
X14178420D01*
G01X14037100Y5426460D02*
Y5354740D01*
X14032930Y5339720D01*
X14024600Y5329720D01*
X14014190Y5326380D01*
X14003780Y5329720D01*
X13995450Y5339720D01*
X13991280Y5354740D01*
Y5426460D01*
G01X13926820Y5326380D02*
Y5426460D01*
X13939320Y5406450D01*
G01Y5326380D02*
X13914330D01*
G01X13859240Y5409780D02*
X13852990Y5419790D01*
X13845700Y5424790D01*
X13837370Y5426460D01*
X13826950Y5423120D01*
X13819660Y5414780D01*
X13817580Y5404780D01*
X13818620Y5394770D01*
X13822790Y5386430D01*
X13843620Y5369750D01*
X13852990Y5358070D01*
X13859240Y5341390D01*
X13861320Y5326380D01*
X13817580D01*
G01X16227760Y700230D02*
X16222760Y706480D01*
X16219420Y713770D01*
Y722100D01*
X16224430Y731470D01*
X16232760Y738760D01*
X16242770Y743970D01*
X16259450Y748130D01*
X16274460Y749170D01*
X16289480Y747090D01*
X16299490Y743970D01*
X16309490Y737720D01*
X16316160Y730430D01*
X16319500Y723140D01*
Y715850D01*
X16316160Y708560D01*
X16311160Y702310D01*
X16304490Y697110D01*
G01X16319500Y656600D02*
X16219420D01*
Y630560D01*
X16224430Y622230D01*
X16231100Y617030D01*
X16244440Y614940D01*
X16257780Y617030D01*
X16266120Y623270D01*
X16271130Y630560D01*
Y656600D01*
G01Y630560D02*
X16319500Y614940D01*
G01Y548400D02*
X16219420D01*
X16239430Y560900D01*
G01X16319500D02*
Y535910D01*
G01X16275300Y1815850D02*
X16375380D01*
Y1774190D01*
G01Y1707650D02*
X16275300D01*
X16295310Y1720150D01*
G01X16375380D02*
Y1695160D01*
G01X16062710Y2933700D02*
Y3033780D01*
X16036670D01*
X16028340Y3028770D01*
X16023140Y3022100D01*
X16021050Y3008760D01*
X16023140Y2995420D01*
X16029380Y2987080D01*
X16036670Y2982070D01*
X16062710D01*
G01X16036670D02*
X16021050Y2933700D01*
G01X15974300Y3017100D02*
X15968050Y3027110D01*
X15960760Y3032110D01*
X15952430Y3033780D01*
X15942010Y3030440D01*
X15934720Y3022100D01*
X15932640Y3012100D01*
X15933680Y3002090D01*
X15937850Y2993750D01*
X15958680Y2977070D01*
X15968050Y2965390D01*
X15974300Y2948710D01*
X15976380Y2933700D01*
X15932640D01*
G01X15890050Y2948710D02*
X15883800Y2940370D01*
X15876510Y2935370D01*
X15867140Y2933700D01*
X15857770Y2937040D01*
X15850480Y2943710D01*
X15845270Y2955380D01*
X15844230Y2968730D01*
X15846310Y2982070D01*
X15851520Y2990410D01*
X15858810Y2997080D01*
X15866100Y2998750D01*
X15873390Y2997080D01*
X15882760Y2990410D01*
X15879640Y3033780D01*
X15851520D01*
G01X16390320Y418290D02*
X16385320Y424540D01*
X16381980Y431830D01*
Y440160D01*
X16386990Y449530D01*
X16395320Y456820D01*
X16405330Y462030D01*
X16422010Y466190D01*
X16437020Y467230D01*
X16452040Y465150D01*
X16462050Y462030D01*
X16472050Y455780D01*
X16478720Y448490D01*
X16482060Y441200D01*
Y433910D01*
X16478720Y426620D01*
X16473720Y420370D01*
X16467050Y415170D01*
G01X16482060Y353830D02*
X16381980D01*
X16401990Y366330D01*
G01X16482060D02*
Y341340D01*
G01X16440360Y286250D02*
X16428680Y278960D01*
X16422010Y272710D01*
X16418680Y264380D01*
X16422010Y257090D01*
X16428680Y251880D01*
X16438690Y247720D01*
X16450370Y246670D01*
X16460380Y247720D01*
X16470390Y251880D01*
X16478720Y258130D01*
X16482060Y265420D01*
X16478720Y273750D01*
X16468720Y281040D01*
X16453700Y285200D01*
X16437020Y286250D01*
X16415340Y284160D01*
X16403660Y281040D01*
X16391990Y275830D01*
X16383650Y268540D01*
X16381980Y261250D01*
X16385320Y253960D01*
X16393660Y248760D01*
G01X16801080Y4529880D02*
X16872800D01*
X16887820Y4525710D01*
X16897820Y4517380D01*
X16901160Y4506970D01*
X16897820Y4496560D01*
X16887820Y4488230D01*
X16872800Y4484060D01*
X16801080D01*
G01X16901160Y4419600D02*
X16801080D01*
X16821090Y4432100D01*
G01X16901160D02*
Y4407110D01*
G01X16881150Y4355140D02*
X16892820Y4348890D01*
X16899490Y4340560D01*
X16901160Y4331190D01*
X16899490Y4322860D01*
X16891150Y4314530D01*
X16881150Y4309320D01*
X16871140Y4308280D01*
X16859460Y4310360D01*
X16851120Y4317650D01*
X16847780Y4324940D01*
Y4334310D01*
G01Y4324940D02*
X16842780Y4318690D01*
X16834440Y4313490D01*
X16824430Y4311400D01*
X16814420Y4313490D01*
X16806090Y4318690D01*
X16801080Y4328060D01*
X16802750Y4337440D01*
X16809420Y4346810D01*
G01X17575990Y167940D02*
X17582240Y172940D01*
X17589530Y176280D01*
X17597860D01*
X17607230Y171270D01*
X17614520Y162940D01*
X17619730Y152930D01*
X17623890Y136250D01*
X17624930Y121240D01*
X17622850Y106220D01*
X17619730Y96210D01*
X17613480Y86210D01*
X17606190Y79540D01*
X17598900Y76200D01*
X17591610D01*
X17584320Y79540D01*
X17578070Y84540D01*
X17572870Y91210D01*
G01X17511530Y76200D02*
Y176280D01*
X17524030Y156270D01*
G01Y76200D02*
X17499040D01*
G01X17443950Y159600D02*
X17437700Y169610D01*
X17430410Y174610D01*
X17422080Y176280D01*
X17411660Y172940D01*
X17404370Y164600D01*
X17402290Y154600D01*
X17403330Y144590D01*
X17407500Y136250D01*
X17428330Y119570D01*
X17437700Y107890D01*
X17443950Y91210D01*
X17446030Y76200D01*
X17402290D01*
G01X17589250Y662940D02*
Y763020D01*
X17563210D01*
X17554880Y758010D01*
X17549680Y751340D01*
X17547590Y738000D01*
X17549680Y724660D01*
X17555920Y716320D01*
X17563210Y711310D01*
X17589250D01*
G01X17563210D02*
X17547590Y662940D01*
G01X17481050D02*
Y763020D01*
X17493550Y743010D01*
G01Y662940D02*
X17468560D01*
G01X17381180D02*
Y763020D01*
X17419710Y691300D01*
X17367650D01*
G01X18225060Y859540D02*
Y787820D01*
X18220890Y772800D01*
X18212560Y762800D01*
X18202150Y759460D01*
X18191740Y762800D01*
X18183410Y772800D01*
X18179240Y787820D01*
Y859540D01*
G01X18137690Y779470D02*
X18131440Y767800D01*
X18123110Y761130D01*
X18113740Y759460D01*
X18105410Y761130D01*
X18097080Y769470D01*
X18091870Y779470D01*
X18090830Y789480D01*
X18092910Y801160D01*
X18100200Y809500D01*
X18107490Y812840D01*
X18116860D01*
G01X18107490D02*
X18101240Y817840D01*
X18096040Y826180D01*
X18093950Y836190D01*
X18096040Y846200D01*
X18101240Y854530D01*
X18110610Y859540D01*
X18119990Y857870D01*
X18129360Y851200D01*
G01X19103090Y861060D02*
Y961140D01*
X19077050D01*
X19068720Y956130D01*
X19063520Y949460D01*
X19061430Y936120D01*
X19063520Y922780D01*
X19069760Y914440D01*
X19077050Y909430D01*
X19103090D01*
G01X19077050D02*
X19061430Y861060D01*
G01X18996970D02*
X18994890Y882740D01*
X18991770Y901090D01*
X18987600Y917770D01*
X18982390Y936120D01*
X18974060Y961140D01*
X19015720D01*
G01X19055080Y1407720D02*
X18955000D01*
Y1386890D01*
X18960010Y1378560D01*
X18966680Y1372310D01*
X18976680Y1367110D01*
X18988360Y1362940D01*
X19005040Y1361900D01*
X19021720Y1362940D01*
X19033400Y1367110D01*
X19043410Y1372310D01*
X19050080Y1378560D01*
X19055080Y1386890D01*
Y1407720D01*
G01Y1297440D02*
X18955000D01*
X18975010Y1309940D01*
G01X19055080D02*
Y1284950D01*
G01X18618200Y1414430D02*
X18518120D01*
X18601520Y1387350D01*
X18518120Y1360270D01*
X18618200D01*
G01Y1299980D02*
X18518120D01*
X18538130Y1312480D01*
G01X18618200D02*
Y1287490D01*
G01X18841470Y2936240D02*
Y3036320D01*
X18815430D01*
X18807100Y3031310D01*
X18801900Y3024640D01*
X18799810Y3011300D01*
X18801900Y2997960D01*
X18808140Y2989620D01*
X18815430Y2984610D01*
X18841470D01*
G01X18815430D02*
X18799810Y2936240D01*
G01X18753060Y3019640D02*
X18746810Y3029650D01*
X18739520Y3034650D01*
X18731190Y3036320D01*
X18720770Y3032980D01*
X18713480Y3024640D01*
X18711400Y3014640D01*
X18712440Y3004630D01*
X18716610Y2996290D01*
X18737440Y2979610D01*
X18746810Y2967930D01*
X18753060Y2951250D01*
X18755140Y2936240D01*
X18711400D01*
G01X18665690Y2977940D02*
X18658400Y2989620D01*
X18652150Y2996290D01*
X18643820Y2999620D01*
X18636530Y2996290D01*
X18631320Y2989620D01*
X18627160Y2979610D01*
X18626110Y2967930D01*
X18627160Y2957920D01*
X18631320Y2947910D01*
X18637570Y2939580D01*
X18644860Y2936240D01*
X18653190Y2939580D01*
X18660480Y2949580D01*
X18664640Y2964600D01*
X18665690Y2981280D01*
X18663600Y3002960D01*
X18660480Y3014640D01*
X18655270Y3026310D01*
X18647980Y3034650D01*
X18640690Y3036320D01*
X18633400Y3032980D01*
X18628200Y3024640D01*
G01X19315890Y350820D02*
X19322140Y355820D01*
X19329430Y359160D01*
X19337760D01*
X19347130Y354150D01*
X19354420Y345820D01*
X19359630Y335810D01*
X19363790Y319130D01*
X19364830Y304120D01*
X19362750Y289100D01*
X19359630Y279090D01*
X19353380Y269090D01*
X19346090Y262420D01*
X19338800Y259080D01*
X19331510D01*
X19324220Y262420D01*
X19317970Y267420D01*
X19312770Y274090D01*
G01X19251430Y259080D02*
Y359160D01*
X19263930Y339150D01*
G01Y259080D02*
X19238940D01*
G01X19151560D02*
Y359160D01*
X19190090Y287440D01*
X19138030D01*
G01X19352010Y477520D02*
Y577600D01*
X19325970D01*
X19317640Y572590D01*
X19312440Y565920D01*
X19310350Y552580D01*
X19312440Y539240D01*
X19318680Y530900D01*
X19325970Y525890D01*
X19352010D01*
G01X19325970D02*
X19310350Y477520D01*
G01X19243810D02*
Y577600D01*
X19256310Y557590D01*
G01Y477520D02*
X19231320D01*
G01X19179350Y492530D02*
X19173100Y484190D01*
X19165810Y479190D01*
X19156440Y477520D01*
X19147070Y480860D01*
X19139780Y487530D01*
X19134570Y499200D01*
X19133530Y512550D01*
X19135610Y525890D01*
X19140820Y534230D01*
X19148110Y540900D01*
X19155400Y542570D01*
X19162690Y540900D01*
X19172060Y534230D01*
X19168940Y577600D01*
X19140820D01*
G01X19529040Y4481620D02*
X19600760D01*
X19615780Y4477450D01*
X19625780Y4469120D01*
X19629120Y4458710D01*
X19625780Y4448300D01*
X19615780Y4439970D01*
X19600760Y4435800D01*
X19529040D01*
G01X19629120Y4371340D02*
X19529040D01*
X19549050Y4383840D01*
G01X19629120D02*
Y4358850D01*
G01Y4271470D02*
X19529040D01*
X19600760Y4310000D01*
Y4257940D01*
G01X20111470Y495300D02*
Y595380D01*
X20085430D01*
X20077100Y590370D01*
X20071900Y583700D01*
X20069810Y570360D01*
X20071900Y557020D01*
X20078140Y548680D01*
X20085430Y543670D01*
X20111470D01*
G01X20085430D02*
X20069810Y495300D01*
G01X20003270D02*
Y595380D01*
X20015770Y575370D01*
G01Y495300D02*
X19990780D01*
G01X19935690Y537000D02*
X19928400Y548680D01*
X19922150Y555350D01*
X19913820Y558680D01*
X19906530Y555350D01*
X19901320Y548680D01*
X19897160Y538670D01*
X19896110Y526990D01*
X19897160Y516980D01*
X19901320Y506970D01*
X19907570Y498640D01*
X19914860Y495300D01*
X19923190Y498640D01*
X19930480Y508640D01*
X19934640Y523660D01*
X19935690Y540340D01*
X19933600Y562020D01*
X19930480Y573700D01*
X19925270Y585370D01*
X19917980Y593710D01*
X19910690Y595380D01*
X19903400Y592040D01*
X19898200Y583700D01*
G01X19974260Y1723850D02*
X19969260Y1730100D01*
X19965920Y1737390D01*
Y1745720D01*
X19970930Y1755090D01*
X19979260Y1762380D01*
X19989270Y1767590D01*
X20005950Y1771750D01*
X20020960Y1772790D01*
X20035980Y1770710D01*
X20045990Y1767590D01*
X20055990Y1761340D01*
X20062660Y1754050D01*
X20066000Y1746760D01*
Y1739470D01*
X20062660Y1732180D01*
X20057660Y1725930D01*
X20050990Y1720730D01*
G01X20066000Y1659390D02*
X19965920D01*
X19985930Y1671890D01*
G01X20066000D02*
Y1646900D01*
G01X20050990Y1594930D02*
X20059330Y1588680D01*
X20064330Y1581390D01*
X20066000Y1572020D01*
X20062660Y1562650D01*
X20055990Y1555360D01*
X20044320Y1550150D01*
X20030970Y1549110D01*
X20017630Y1551190D01*
X20009290Y1556400D01*
X20002620Y1563690D01*
X20000950Y1570980D01*
X20002620Y1578270D01*
X20009290Y1587640D01*
X19965920Y1584520D01*
Y1556400D01*
G01X20166790Y4501180D02*
X20173040Y4506180D01*
X20180330Y4509520D01*
X20188660D01*
X20198030Y4504510D01*
X20205320Y4496180D01*
X20210530Y4486170D01*
X20214690Y4469490D01*
X20215730Y4454480D01*
X20213650Y4439460D01*
X20210530Y4429450D01*
X20204280Y4419450D01*
X20196990Y4412780D01*
X20189700Y4409440D01*
X20182410D01*
X20175120Y4412780D01*
X20168870Y4417780D01*
X20163670Y4424450D01*
G01X20125240Y4429450D02*
X20118990Y4417780D01*
X20110660Y4411110D01*
X20101290Y4409440D01*
X20092960Y4411110D01*
X20084630Y4419450D01*
X20079420Y4429450D01*
X20078380Y4439460D01*
X20080460Y4451140D01*
X20087750Y4459480D01*
X20095040Y4462820D01*
X20104410D01*
G01X20095040D02*
X20088790Y4467820D01*
X20083590Y4476160D01*
X20081500Y4486170D01*
X20083590Y4496180D01*
X20088790Y4504510D01*
X20098160Y4509520D01*
X20107540Y4507850D01*
X20116910Y4501180D01*
G01X19874230Y4406900D02*
X19915890D01*
Y4506980D01*
X19874230D01*
G01X19890890Y4458610D02*
X19915890D01*
G01X19827480Y4490300D02*
X19821230Y4500310D01*
X19813940Y4505310D01*
X19805610Y4506980D01*
X19795190Y4503640D01*
X19787900Y4495300D01*
X19785820Y4485300D01*
X19786860Y4475290D01*
X19791030Y4466950D01*
X19811860Y4450270D01*
X19821230Y4438590D01*
X19827480Y4421910D01*
X19829560Y4406900D01*
X19785820D01*
G01X20826980Y1485650D02*
X20927060D01*
Y1443990D01*
G01Y1356620D02*
Y1398280D01*
X20826980D01*
Y1356620D01*
G01X20875350Y1373280D02*
Y1398280D01*
G01X20927060Y1312990D02*
X20826980D01*
Y1292160D01*
X20831990Y1283830D01*
X20838660Y1277580D01*
X20848660Y1272380D01*
X20860340Y1268210D01*
X20877020Y1267170D01*
X20893700Y1268210D01*
X20905380Y1272380D01*
X20915390Y1277580D01*
X20922060Y1283830D01*
X20927060Y1292160D01*
Y1312990D01*
G01Y1202710D02*
X20826980D01*
X20846990Y1215210D01*
G01X20927060D02*
Y1190220D01*
G01X20642580Y1475490D02*
X20542500D01*
Y1449450D01*
X20547510Y1441120D01*
X20554180Y1435920D01*
X20567520Y1433830D01*
X20580860Y1435920D01*
X20589200Y1442160D01*
X20594210Y1449450D01*
Y1475490D01*
G01Y1449450D02*
X20642580Y1433830D01*
G01Y1367290D02*
X20542500D01*
X20562510Y1379790D01*
G01X20642580D02*
Y1354800D01*
G01X20367240Y2440230D02*
X20438960D01*
X20453980Y2436060D01*
X20463980Y2427730D01*
X20467320Y2417320D01*
X20463980Y2406910D01*
X20453980Y2398580D01*
X20438960Y2394410D01*
X20367240D01*
G01X20453980Y2351820D02*
X20462320Y2343490D01*
X20467320Y2334120D01*
Y2325780D01*
X20462320Y2317450D01*
X20453980Y2311210D01*
X20442300Y2308080D01*
X20430630Y2310160D01*
X20420620Y2315370D01*
X20413940Y2324740D01*
X20410610Y2337240D01*
X20403940Y2344530D01*
X20392260Y2347650D01*
X20380580Y2345570D01*
X20372250Y2340360D01*
X20367240Y2333070D01*
Y2325780D01*
X20370580Y2318490D01*
X20378920Y2312250D01*
G01X20413940Y2234250D02*
X20408940Y2230080D01*
X20400600Y2226960D01*
X20388920Y2224880D01*
X20378920Y2226960D01*
X20372250Y2231120D01*
X20367240Y2238410D01*
Y2266530D01*
X20467320D01*
Y2232170D01*
X20460650Y2224880D01*
X20450640Y2220710D01*
X20438960Y2218630D01*
X20427290Y2220710D01*
X20417280Y2226960D01*
X20413940Y2234250D01*
Y2266530D01*
G01X20467320Y2155210D02*
X20367240D01*
X20387250Y2167710D01*
G01X20467320D02*
Y2142720D01*
G01X20976590Y3256280D02*
X21018250D01*
Y3356360D01*
X20976590D01*
G01X20993250Y3307990D02*
X21018250D01*
G01X20910050Y3256280D02*
Y3356360D01*
X20922550Y3336350D01*
G01Y3256280D02*
X20897560D01*
G01X20857670Y3602020D02*
X20863920Y3607020D01*
X20871210Y3610360D01*
X20879540D01*
X20888910Y3605350D01*
X20896200Y3597020D01*
X20901410Y3587010D01*
X20905570Y3570330D01*
X20906610Y3555320D01*
X20904530Y3540300D01*
X20901410Y3530290D01*
X20895160Y3520290D01*
X20887870Y3513620D01*
X20880580Y3510280D01*
X20873290D01*
X20866000Y3513620D01*
X20859750Y3518620D01*
X20854550Y3525290D01*
G01X20793210Y3510280D02*
Y3610360D01*
X20805710Y3590350D01*
G01Y3510280D02*
X20780720D01*
G01X21020910Y4494280D02*
X20994880Y4394200D01*
X20968850Y4494280D01*
G01X20907510Y4394200D02*
Y4494280D01*
X20920010Y4474270D01*
G01Y4394200D02*
X20895020D01*
M02*
