G04 ================== begin FILE IDENTIFICATION RECORD ==================*
G04 Layout Name:  NixieTubeBoard_v1_1.brd*
G04 Film Name:    SILKSCREEN_TOP*
G04 File Format:  Gerber RS274X*
G04 File Origin:  Cadence Allegro 17.2-S058*
G04 Origin Date:  Wed Feb 19 18:26:59 2020*
G04 *
G04 Layer:  BOARD GEOMETRY/SILKSCREEN_TOP*
G04 Layer:  REF DES/SILKSCREEN_TOP*
G04 Layer:  PACKAGE GEOMETRY/SILKSCREEN_TOP*
G04 *
G04 Offset:    (0.0000 0.0000)*
G04 Mirror:    No*
G04 Mode:      Positive*
G04 Rotation:  0*
G04 FullContactRelief:  No*
G04 UndefLineWidth:     0.0000*
G04 ================== end FILE IDENTIFICATION RECORD ====================*
%FSLAX35Y35*MOMM*%
%IR0*IPPOS*OFA0.00000B0.00000*MIA0B0*SFA1.00000B1.00000*%
%ADD10C,.2*%
%ADD11C,.3*%
%ADD12C,.6*%
%ADD13C,.1499*%
G75*
%LPD*%
G75*
G36*
G01X17300050Y191800D02*
Y149080D01*
X17291250D01*
Y170440D01*
Y191800D01*
X17300050D01*
G37*
G36*
G01X17634350D02*
X17634010Y170760D01*
X17633660Y149710D01*
X17624870D01*
X17624520Y170760D01*
X17624180Y191800D01*
X17634350D01*
G37*
G36*
G01X17546960Y348240D02*
X17547310Y327190D01*
X17547650Y306150D01*
X17537540D01*
Y327580D01*
Y349020D01*
X17546960Y348240D01*
G37*
G36*
G01X17233510Y191800D02*
X17233170Y170760D01*
X17232820Y149710D01*
X17223400Y148930D01*
Y170370D01*
Y191800D01*
X17233510D01*
G37*
G36*
G01X17583720Y270730D02*
X17588430Y270340D01*
X17588770Y248660D01*
X17589110Y226990D01*
X17579000D01*
Y249050D01*
Y271120D01*
X17583720Y270730D01*
G37*
G36*
G01X17219920Y270340D02*
X17219710Y253060D01*
X17219510Y235780D01*
X17238480D01*
Y226990D01*
X17210840D01*
Y249050D01*
Y271120D01*
X17219920Y270340D01*
G37*
G36*
G01X17511150Y348870D02*
Y312430D01*
X17520570D01*
G02X17526670Y312370I40J-306066D01*
G02X17528740Y312010I-149J-6986D01*
G02X17529670Y311110I-471J-1417D01*
G02X17530000Y309290I-4944J-1836D01*
G01Y306150D01*
X17502350D01*
Y327510D01*
Y348870D01*
X17511150D01*
G37*
G36*
G01X17585290D02*
Y341330D01*
X17566440D01*
Y331280D01*
X17584030D01*
Y323740D01*
X17566440D01*
Y306150D01*
X17557640D01*
Y327510D01*
Y348870D01*
X17585290D01*
G37*
G36*
G01X17635690Y426520D02*
G02X17637120Y426600I1416J-12482D01*
G02X17638640Y426520I-88J-16159D01*
G01X17642460Y426150D01*
X17642800Y405100D01*
X17643150Y384050D01*
X17633030D01*
Y404580D01*
G02X17633100Y412510I485447J-320D01*
G02X17633300Y419340I267753J-4423D01*
G02X17633570Y425180I642371J-26772D01*
G02X17633930Y426000I1246J-58D01*
G02X17634520Y426320I854J-870D01*
G02X17635690Y426520I2296J-9910D01*
G37*
G36*
G01X17325180Y348870D02*
Y331280D01*
X17341520D01*
Y348870D01*
X17350310D01*
Y306150D01*
X17341520D01*
Y325000D01*
X17325180D01*
Y306150D01*
X17316390D01*
Y327510D01*
Y348870D01*
X17325180D01*
G37*
G36*
G01X17470630Y270690D02*
X17487900Y270340D01*
Y266570D01*
G02X17487710Y264310I-13583J4D01*
G02X17487040Y263270I-1529J249D01*
G02X17485570Y262750I-1795J2736D01*
G02X17481620Y262430I-9454J92163D01*
G01X17475340Y262060D01*
X17475720Y244450D01*
X17476100Y226830D01*
X17470690Y227220D01*
X17465290Y227610D01*
Y262170D01*
X17453350D01*
Y266600D01*
Y271040D01*
X17470630Y270690D01*
G37*
G36*
G01X17493240Y191590D02*
G02X17504360Y190240I-3086J-71894D01*
G02X17511310Y187080I-3300J-16480D01*
G02X17515340Y181600I-7526J-9756D01*
G02X17517170Y173150I-28760J-10652D01*
G02X17517300Y169330I-46887J-3508D01*
G02X17517040Y166160I-22774J272D01*
G02X17516380Y163230I-19703J2899D01*
G02X17515230Y160160I-26869J8315D01*
G02X17512230Y155530I-16023J7095D01*
G02X17508120Y152450I-9837J8845D01*
G02X17502100Y150550I-9705J20262D01*
G02X17492920Y149460I-16047J95945D01*
G01X17482250Y148710D01*
Y170380D01*
Y192050D01*
X17493240Y191590D01*
G37*
G36*
G01X17278690Y191800D02*
Y188030D01*
G02X17278510Y185750I-14797J21D01*
G02X17277850Y184770I-1377J215D01*
G02X17276430Y184340I-1549J2557D01*
G02X17272410Y184260I-4067J103326D01*
G01X17266120D01*
Y149080D01*
X17257330D01*
Y184260D01*
X17251040D01*
G02X17247020Y184340I47J103406D01*
G02X17245600Y184770I129J2987D01*
G02X17244940Y185750I717J1195D01*
G02X17244760Y188030I14617J2301D01*
G01Y191800D01*
X17278690D01*
G37*
G36*
G01X17468680Y348490D02*
G02X17477730Y347250I-13879J-134937D01*
G02X17482390Y345560I-2307J-13631D01*
G02X17486960Y342200I-13849J-23625D01*
G02X17489750Y338500I-8433J-9261D01*
G02X17491220Y333720I-13691J-6826D01*
G02X17491670Y326880I-51103J-6797D01*
G02X17490330Y316970I-37212J-14D01*
G02X17486270Y310670I-12118J3351D01*
G02X17478850Y307210I-10214J12219D01*
G02X17466860Y306150I-12008J67480D01*
G01X17455860D01*
Y326670D01*
G02X17455930Y334610I462820J-110D01*
G02X17456140Y341450I256907J-4464D01*
G02X17456420Y347300I582045J-24927D01*
G02X17456800Y348170I1358J-75D01*
G02X17459450Y349210I2461J-2374D01*
G02X17468680Y348490I-10781J-197726D01*
G37*
G36*
G01X17180900Y348620D02*
G02X17185280Y348810I7403J-120081D01*
G02X17190310Y348870I5006J-208799D01*
G01X17203300D01*
Y341330D01*
X17184450D01*
Y331280D01*
X17202040D01*
Y323740D01*
X17184450D01*
Y306150D01*
X17175650D01*
Y326670D01*
G02X17175710Y334600I519283J36D01*
G02X17175900Y341410I284680J-4535D01*
G02X17176150Y347270I730019J-28209D01*
G02X17176490Y348030I1152J-59D01*
G02X17177220Y348370I826J-819D01*
G02X17180900Y348620I15679J-203588D01*
G37*
G36*
G01X17542630Y270720D02*
G02X17548230Y270900I9027J-193650D01*
G02X17554710Y270960I6450J-346623D01*
G01X17571460D01*
Y262170D01*
X17558900D01*
Y226990D01*
X17548710D01*
X17549470Y262170D01*
X17542880D01*
G02X17538680Y262240I-144J117409D01*
G02X17537180Y262650I127J3414D01*
G02X17536480Y263610I658J1215D01*
G02X17536280Y265730I11200J2126D01*
G02X17536340Y267150I16473J15D01*
G02X17536530Y268490I13233J-1193D01*
G02X17536790Y269580I10758J-1990D01*
G02X17537120Y270130I1254J-378D01*
G02X17537870Y270460I809J-822D01*
G02X17542630Y270720I24849J-411220D01*
G37*
G36*
G01X17676880Y426200D02*
G02X17683720Y423230I-4913J-20676D01*
G02X17688560Y418220I-9043J-13580D01*
G02X17690710Y412800I-14119J-8737D01*
G02X17691480Y405590I-37984J-7703D01*
G02X17690900Y398370I-38694J-525D01*
G02X17688900Y392920I-16121J2824D01*
G02X17682250Y386650I-14107J8300D01*
G02X17672570Y384130I-10484J20419D01*
G02X17662630Y385960I-817J23475D01*
G02X17655300Y391760I6823J16155D01*
G02X17654220Y393680I7297J5368D01*
G02X17653350Y396270I19692J8056D01*
G02X17652690Y399430I28131J7524D01*
G02X17652290Y403060I47655J7088D01*
G02X17652520Y410160I33677J2463D01*
G02X17654290Y416330I22455J-3103D01*
G02X17657490Y421220I16820J-7515D01*
G02X17661940Y424580I11270J-10299D01*
G02X17669200Y426700I9492J-19013D01*
G02X17676880Y426200I2382J-22641D01*
G37*
G36*
G01X17389470Y270540D02*
G02X17396930Y266990I-5303J-20758D01*
G02X17402380Y260910I-12201J-16419D01*
G02X17404370Y255690I-14515J-8523D01*
G02X17405040Y249010I-34032J-6787D01*
G02X17404410Y242340I-34587J-98D01*
G02X17402450Y237170I-16037J3123D01*
G02X17397350Y231290I-18348J10763D01*
G02X17390570Y227800I-12194J15359D01*
G02X17382880Y227120I-5587J19364D01*
G02X17375180Y229320I2451J23153D01*
G02X17370240Y232540I10283J21176D01*
G02X17367050Y236510I8560J10145D01*
G02X17365320Y241820I14887J7787D01*
G02X17364770Y249200I49415J7393D01*
G02X17365210Y255840I49819J33D01*
G02X17366640Y260510I14833J-1988D01*
G02X17369430Y264300I12184J-6047D01*
G02X17374170Y268140I25659J-26827D01*
G02X17381400Y270960I9777J-14387D01*
G02X17389470Y270540I2995J-20191D01*
G37*
G36*
G01X17046130Y426410D02*
G02X17053510Y423220I-4785J-21203D01*
G02X17058800Y417680I-10075J-14916D01*
G02X17060860Y412280I-13487J-8238D01*
G02X17061450Y405090I-36726J-6633D01*
G02X17060660Y397960I-37047J496D01*
G02X17058450Y392720I-14685J3107D01*
G02X17053430Y387650I-15551J10378D01*
G02X17046800Y384740I-11149J16395D01*
G02X17039270Y384310I-4983J21119D01*
G02X17031680Y386430I3043J25540D01*
G02X17027390Y389330I6450J14164D01*
G02X17024340Y393450I10297J10811D01*
G02X17022560Y398880I17233J8656D01*
G02X17022020Y405680I38015J6440D01*
G02X17022610Y411550I32539J-306D01*
G02X17024260Y416420I18758J-3641D01*
G02X17027060Y420490I15577J-7718D01*
G02X17031090Y423940I16832J-15583D01*
G02X17038130Y426700I9676J-14321D01*
G02X17046130Y426410I3234J-21267D01*
G37*
G36*
G01X17307590Y426780D02*
Y419240D01*
X17288740D01*
Y409180D01*
X17297540D01*
G02X17303170Y409120I136J-251442D01*
G02X17305140Y408760I-128J-6271D01*
G02X17306030Y407860I-491J-1376D01*
G02X17306330Y406040I-5288J-1806D01*
G02X17306030Y404230I-5558J-9D01*
G02X17305140Y403330I-1381J476D01*
G02X17303170Y402960I-2129J5906D01*
G02X17297540Y402900I-5494J251382D01*
G01X17288740D01*
Y391590D01*
X17308850D01*
Y384050D01*
X17279950D01*
Y405410D01*
Y426780D01*
X17307590D01*
G37*
G36*
G01X17230160Y348830D02*
G02X17236020Y348330I405J-29837D01*
G02X17240950Y346670I-3334J-18053D01*
G02X17244770Y343930I-6873J-13615D01*
G02X17247660Y340110I-11576J-11761D01*
G02X17249610Y335160I-18320J-10076D01*
G02X17250630Y329070I-36365J-9221D01*
G02X17249800Y319660I-27685J-2300D01*
G02X17245800Y312110I-18257J4838D01*
G02X17239040Y307310I-13275J11536D01*
G02X17230330Y305700I-8385J21000D01*
G02X17221660Y307120I438J29852D01*
G02X17215590Y311000I4298J13412D01*
G02X17212030Y317550I11278J10372D01*
G02X17210840Y326880I36201J9358D01*
G02X17211350Y333710I46664J-50D01*
G02X17212910Y338910I18611J-2749D01*
G02X17215710Y342980I13536J-6314D01*
G02X17219930Y346360I15320J-14803D01*
G02X17224430Y348170I7638J-12491D01*
G02X17230160Y348830I6151J-28197D01*
G37*
G36*
G01X17340890Y270960D02*
G02X17347400Y270900I374J-312672D01*
G02X17352900Y270690I-3366J-160296D01*
G02X17357560Y270400I-22249J-395108D01*
G02X17357950Y270020I-32J-423D01*
G03X17358030Y269460I15259J1894D01*
G03X17358190Y268340I205100J28729D01*
G03X17358400Y267020I214963J33522D01*
G03X17358630Y265620I264847J42792D01*
G02X17358790Y263530I-12409J-2001D01*
G02X17358280Y262630I-1054J3D01*
G02X17356950Y262240I-1416J2367D01*
G02X17352870Y262170I-4191J125365D01*
G01X17346540D01*
Y226990D01*
X17336490D01*
Y262170D01*
X17323920D01*
Y266570D01*
Y270960D01*
X17340890D01*
G37*
G36*
G01X17560320Y191800D02*
X17559920Y188350D01*
G02X17559370Y186310I-7036J803D01*
G02X17558300Y185300I-1736J767D01*
G02X17556110Y184830I-2640J6962D01*
G02X17549790Y184520I-17936J301090D01*
G01X17540050Y184160D01*
Y175580D01*
X17549160Y175210D01*
G02X17555020Y174900I-10120J-246839D01*
G02X17557110Y174430I-420J-6748D01*
G02X17558130Y173410I-715J-1735D01*
G02X17558670Y171380I-6812J-2899D01*
G01X17559070Y167930D01*
X17540050D01*
Y156620D01*
X17560150D01*
Y149080D01*
X17531250D01*
Y170440D01*
Y191800D01*
X17560320D01*
G37*
G36*
G01X17176200Y270680D02*
G02X17180880Y270760I4519J-127451D01*
G02X17186270Y270690I-203J-223163D01*
G01X17200150Y270340D01*
X17200550Y266250D01*
X17200940Y262170D01*
X17180680D01*
Y253370D01*
X17199530D01*
Y245830D01*
X17180680D01*
Y235780D01*
X17200780D01*
Y226990D01*
X17170630D01*
Y248140D01*
G02X17170690Y256310I527166J214D01*
G02X17170880Y263330I289237J-4316D01*
G02X17171150Y269370I733323J-29755D01*
G02X17171500Y270170I1210J-53D01*
G02X17172270Y270510I829J-834D01*
G02X17176200Y270680I11458J-219375D01*
G37*
G36*
G01X17109220Y191800D02*
X17108820Y188350D01*
G02X17108270Y186310I-7036J803D01*
G02X17107200Y185300I-1736J767D01*
G02X17105010Y184830I-2640J6962D01*
G02X17098690Y184520I-17936J301090D01*
G01X17088950Y184160D01*
Y175580D01*
X17098060Y175210D01*
G02X17103920Y174900I-10120J-246839D01*
G02X17106010Y174430I-420J-6748D01*
G02X17107030Y173410I-715J-1735D01*
G02X17107570Y171380I-6812J-2899D01*
G01X17107970Y167930D01*
X17088950D01*
Y156620D01*
X17109060D01*
Y149080D01*
X17080150D01*
Y170440D01*
Y191800D01*
X17109220D01*
G37*
G36*
G01X17131030Y191550D02*
X17137920Y191170D01*
X17145430Y175620D01*
G03X17148350Y169610I879894J423788D01*
G03X17150930Y164440I491715J242153D01*
G03X17153190Y159970I1335046J672183D01*
G03X17153610Y159390I2037J1033D01*
G03X17153890Y159500I115J117D01*
G03X17154090Y163770I-402949J21013D01*
G03X17154240Y168960I-189801J8083D01*
G03X17154290Y175260I-409222J6398D01*
G01Y191800D01*
X17161830D01*
Y149080D01*
X17149630D01*
X17141590Y166240D01*
X17133560Y183410D01*
X17132300Y149710D01*
X17128220Y149310D01*
X17124130Y148920D01*
Y170420D01*
Y191930D01*
X17131030Y191550D01*
G37*
G36*
G01X17434810Y426500D02*
X17448950Y426150D01*
X17449350Y422690D01*
X17449750Y419240D01*
X17429470D01*
Y409180D01*
X17438900D01*
G02X17444950Y409120I51J-299881D01*
G02X17447050Y408770I-123J-7210D01*
G02X17447990Y407870I-479J-1441D01*
G02X17448320Y406100I-4580J-1770D01*
G02X17447990Y404330I-4864J-9D01*
G02X17447040Y403390I-1533J599D01*
G02X17444960Y402940I-2534J6680D01*
G02X17439210Y402640I-15886J249234D01*
G01X17430100Y402270D01*
X17429720Y396930D01*
X17429330Y391590D01*
X17449580D01*
Y384050D01*
X17420680D01*
Y405460D01*
Y426860D01*
X17434810Y426500D01*
G37*
G36*
G01X17250240Y270870D02*
G02X17254920Y270940I7535J-347297D01*
G02X17260470Y270960I5229J-680910D01*
G01X17274920D01*
Y262170D01*
X17254660D01*
X17255050Y258080D01*
X17255440Y254000D01*
X17273660Y253260D01*
Y245940D01*
X17264550Y245570D01*
X17255440Y245210D01*
X17255050Y240490D01*
X17254660Y235780D01*
X17274920D01*
Y226910D01*
X17245580Y227610D01*
X17245730Y248980D01*
X17245790Y257190D01*
G02X17245850Y264150I3467669J-26413D01*
G01X17245920Y270390D01*
G02X17245950Y270650I1214J-8D01*
G02X17246100Y270780I159J-32D01*
G02X17250240Y270870I50263J-2216819D01*
G37*
G36*
G01X17385690Y192350D02*
G02X17390570Y191380I-2496J-25316D01*
G02X17394910Y189500I-6038J-19887D01*
G02X17399950Y184360I-6579J-11492D01*
G02X17403010Y175950I-26489J-14400D01*
G02X17403530Y166720I-31423J-6400D01*
G02X17401100Y159110I-18183J1613D01*
G02X17397810Y154600I-23959J14023D01*
G02X17394170Y151750I-9922J8923D01*
G02X17389640Y150210I-6893J12844D01*
G02X17383570Y149730I-5945J36554D01*
G02X17377410Y150260I127J37545D01*
G02X17372840Y151850I2410J14290D01*
G02X17369300Y154750I6049J10994D01*
G02X17366330Y159220I17924J15131D01*
G02X17364300Y166190I17333J8829D01*
G02X17364420Y174930I39879J3823D01*
G02X17366360Y183080I37403J-4597D01*
G02X17369890Y188120I11000J-3948D01*
G02X17370880Y188800I4219J-5082D01*
G02X17372520Y189660I17390J-31169D01*
G02X17374440Y190550I18137J-36611D01*
G02X17376370Y191320I15342J-35650D01*
G02X17380780Y192340I6224J-16865D01*
G02X17385690Y192350I2505J-24645D01*
G37*
G36*
G01X17079210Y426750D02*
G02X17086660Y426390I-417J-85891D01*
G02X17092450Y425350I-3052J-33630D01*
G02X17096830Y423610I-5460J-20127D01*
G02X17099950Y421120I-5141J-9642D01*
G02X17102030Y417970I-11343J-9752D01*
G02X17102600Y415110I-4995J-2482D01*
G02X17101650Y412250I-6068J428D01*
G02X17099100Y409090I-15948J10261D01*
G03X17097790Y407680I19070J-19031D01*
G03X17096910Y406490I7057J-6139D01*
G03X17096590Y405710I2278J-1390D01*
G03X17096820Y405410I233J-60D01*
G02X17099170Y404610I11J-3820D01*
G02X17101580Y402140I-7995J-10212D01*
G02X17103410Y398920I-11699J-8779D01*
G02X17104030Y395770I-7705J-3152D01*
G02X17102480Y390620I-9358J8D01*
G02X17098300Y386920I-8954J5904D01*
G02X17091080Y384730I-10078J20229D01*
G02X17080470Y384060I-10652J84339D01*
G01X17071360Y384050D01*
Y405410D01*
Y426780D01*
X17079210Y426750D01*
G37*
G36*
G01X17348900Y426720D02*
G02X17355120Y426250I-4405J-99694D01*
G02X17360300Y425420I-5363J-50051D01*
G02X17363080Y424670I-5893J-27371D01*
G02X17365460Y423700I-5576J-17086D01*
G02X17367330Y422580I-5821J-11840D01*
G02X17368530Y421370I-2955J-4131D01*
G02X17369810Y418430I-6611J-4627D01*
G02X17370350Y414160I-24623J-5283D01*
G02X17370150Y409810I-25468J-1009D01*
G02X17369120Y406600I-9330J1224D01*
G02X17367080Y404180I-6690J3570D01*
G02X17363760Y402180I-10177J13138D01*
G02X17359680Y400840I-8271J18301D01*
G02X17355400Y400390I-4266J19991D01*
G01X17350310D01*
Y384050D01*
X17341630D01*
X17341260Y404890D01*
G02X17341160Y412920I839515J14470D01*
G02X17341150Y419770I445476J4075D01*
G02X17341200Y425760I1825564J-12243D01*
G02X17341410Y426260I715J-6D01*
G02X17342950Y426880I1511J-1532D01*
G02X17348900Y426720I-1650J-172066D01*
G37*
G36*
G01X17410090Y348620D02*
G02X17412270Y348810I3852J-31594D01*
G02X17414680Y348870I2392J-47640D01*
G01X17420830D01*
X17436830Y315570D01*
X17437010Y348870D01*
X17445810D01*
Y306150D01*
X17432480D01*
X17425100Y322170D01*
G03X17422200Y328390I-670075J-308628D01*
G03X17419590Y333830I-398861J-188019D01*
G03X17417320Y338440I-713083J-348264D01*
G03X17416690Y339380I-4010J-2006D01*
G03X17416270Y339250I-182J-154D01*
G03X17415960Y335170I151632J-13573D01*
G03X17415730Y329880I126103J-8133D01*
G03X17415650Y323360I288641J-6802D01*
G01Y306150D01*
X17406860D01*
Y326670D01*
G02X17406920Y334600I519283J36D01*
G02X17407100Y341410I284675J-4117D01*
G02X17407360Y347270I730024J-29454D01*
G02X17407690Y348030I1147J-47D01*
G02X17408320Y348360I839J-836D01*
G02X17410090Y348620I5486J-31191D01*
G37*
G36*
G01X17597730Y426530D02*
G02X17603130Y426720I9047J-180298D01*
G02X17609370Y426780I6211J-321476D01*
G02X17617890Y426710I-128J-534116D01*
G02X17622340Y426430I-748J-47391D01*
G02X17624810Y425920I-1504J-13523D01*
G02X17625500Y424990I-283J-931D01*
G03X17625550Y424170I6265J-29D01*
G03X17625720Y423150I14988J1974D01*
G03X17625970Y422120I15321J3173D01*
G03X17626260Y421220I9226J2476D01*
G02X17626250Y420240I-1254J-477D01*
G02X17625570Y419610I-1006J404D01*
G02X17623820Y419300I-2009J6245D01*
G02X17619980Y419240I-3652J110798D01*
G01X17612930D01*
Y384050D01*
X17604130D01*
Y419240D01*
X17597850D01*
G02X17594120Y419320I14J87650D01*
G02X17592560Y419700I172J4097D01*
G02X17591820Y420550I591J1262D01*
G02X17591570Y422170I5205J1632D01*
G02X17591630Y423350I11360J14D01*
G02X17591810Y424490I10027J-999D01*
G02X17592080Y425420I7935J-1800D01*
G02X17592410Y425940I1307J-465D01*
G02X17593150Y426280I819J-808D01*
G02X17597730Y426530I22464J-369468D01*
G37*
G36*
G01X17574090Y191500D02*
G02X17575590Y191630I1605J-9804D01*
G02X17577380Y191560I135J-19460D01*
G01X17582040Y191170D01*
X17587120Y175180D01*
G03X17589110Y169050I459504J145782D01*
G03X17590890Y163890I236455J78681D01*
G03X17592500Y159420I887004J316955D01*
G03X17592830Y159190I329J120D01*
G03X17593150Y159420I-4J343D01*
G03X17594760Y163890I-885394J321425D01*
G03X17596540Y169050I-234675J83841D01*
G03X17598530Y175180I-457514J151912D01*
G01X17603610Y191170D01*
X17608270Y191560D01*
X17612920Y191950D01*
X17609030Y181510D01*
G03X17607260Y176720I1166972J-433941D01*
G03X17605120Y170890I2529492J-931801D01*
G03X17602980Y165010I2551195J-931826D01*
G03X17601190Y160020I1316642J-475119D01*
G01X17597230Y148970D01*
X17587490Y149710D01*
X17580100Y169690D01*
G02X17577270Y177430I1112825J411273D01*
G02X17574890Y184130I620979J224359D01*
G02X17572860Y189960I1757059J615075D01*
G02X17572720Y190810I2460J842D01*
G02X17573020Y191230I448J-3D01*
G02X17574090Y191500I2021J-5754D01*
G37*
G36*
G01X17159680Y426490D02*
G02X17164160Y426570I4325J-116727D01*
G02X17169300Y426500I-190J-202708D01*
G01X17182560Y426150D01*
X17182960Y422690D01*
X17183360Y419240D01*
X17163090D01*
Y409180D01*
X17172350D01*
G02X17178300Y409120I81J-286981D01*
G02X17180360Y408770I-124J-6966D01*
G02X17181300Y407870I-478J-1440D01*
G02X17181620Y406100I-4670J-1758D01*
G02X17181290Y404330I-4947J7D01*
G02X17180360Y403390I-1523J576D01*
G02X17178300Y402940I-2500J6505D01*
G02X17172670Y402640I-15453J237027D01*
G01X17163710Y402270D01*
X17163330Y396930D01*
X17162940Y391590D01*
X17183190D01*
Y384050D01*
X17154290D01*
Y404580D01*
G02X17154350Y412510I496041J212D01*
G02X17154550Y419330I272961J-4592D01*
G02X17154810Y425180I670486J-26869D01*
G02X17155170Y425980I1218J-67D01*
G02X17155930Y426320I826J-826D01*
G02X17159680Y426490I10610J-192608D01*
G37*
G36*
G01X17314000Y191520D02*
G02X17315520Y191720I2367J-12116D01*
G02X17317330Y191790I1818J-23566D01*
G01X17322040Y191770D01*
X17327070Y175470D01*
G03X17329040Y169220I473404J145781D01*
G03X17330800Y163960I243329J78494D01*
G03X17332390Y159400I927278J320770D01*
G03X17332720Y159170I326J116D01*
G03X17333050Y159400I-1J353D01*
G03X17334660Y163880I-893566J323655D01*
G03X17336450Y169040I-235802J84690D01*
G03X17338450Y175180I-460063J153253D01*
G01X17343550Y191170D01*
X17352770Y191950D01*
X17348270Y179630D01*
G03X17346310Y174240I2912456J-1062126D01*
G01X17344140Y168230D01*
X17342080Y162510D01*
G03X17340510Y158130I1484158J-534464D01*
G01X17337240Y148960D01*
X17332270Y149330D01*
X17327300Y149710D01*
X17319960Y169800D01*
G02X17317140Y177570I1347641J493502D01*
G02X17314770Y184260I740220J265995D01*
G02X17312740Y190120I2486045J864488D01*
G02X17312620Y190840I2080J717D01*
G02X17312880Y191220I395J9D01*
G02X17314000Y191520I2872J-8483D01*
G37*
G36*
G01X17556390Y426780D02*
Y411350D01*
G03X17556660Y399520I253003J-144D01*
G03X17557880Y394000I16684J793D01*
G03X17560460Y391320I4656J1900D01*
G03X17564940Y390360I4436J9770D01*
G03X17566830Y390440I-80J24259D01*
G03X17568680Y390670I-1889J22747D01*
G03X17570260Y390990I-3093J19333D01*
G03X17571170Y391390I-787J3025D01*
G03X17572990Y393650I-2392J3789D01*
G03X17574230Y398280I-26897J9685D01*
G03X17575000Y404930I-52486J9447D01*
G03X17575230Y413970I-172670J8916D01*
G01Y426940D01*
X17579320Y426540D01*
X17583400Y426150D01*
X17583730Y411700D01*
G02X17583810Y403980I-306474J-7036D01*
G02X17583570Y399200I-49101J69D01*
G02X17582960Y395780I-22199J2195D01*
G02X17581850Y392850I-14359J3765D01*
G02X17577510Y387850I-12082J6104D01*
G02X17570780Y384760I-11893J17029D01*
G02X17562980Y384110I-5815J22660D01*
G02X17555580Y386110I1825J21443D01*
G02X17551420Y389070I6259J13200D01*
G02X17549030Y393020I7128J7011D01*
G02X17547880Y399340I23550J7550D01*
G02X17547590Y411010I233434J11639D01*
G01Y426780D01*
X17556390D01*
G37*
G36*
G01X17518900D02*
G02X17521730Y426630I-35J-27440D01*
G02X17523300Y426090I-399J-3713D01*
G02X17524410Y424960I-1701J-2781D01*
G02X17525540Y422690I-16209J-9485D01*
G02X17527830Y416720I-114116J-47197D01*
G02X17532970Y402160I-2864182J-1019306D01*
G01X17538570Y386110D01*
G02X17538790Y384770I-3850J-1320D01*
G02X17538580Y384490I-286J-4D01*
G02X17537530Y384260I-3013J11243D01*
G02X17536140Y384110I-2166J13560D01*
G02X17534490Y384050I-1788J26450D01*
G02X17532060Y384220I41J18037D01*
G02X17530670Y384800I400J2915D01*
G02X17529710Y386000I1939J2535D01*
G02X17528740Y388450I21195J9808D01*
G01X17527290Y392850D01*
X17510090D01*
X17508640Y388450D01*
G02X17507670Y385990I-22230J7344D01*
G02X17506690Y384780I-2885J1335D01*
G02X17505290Y384210I-1779J2366D01*
G02X17502780Y384050I-2506J19551D01*
G02X17501120Y384130I90J19138D01*
G02X17499790Y384350I696J8337D01*
G02X17498940Y384680I1011J3863D01*
G02X17498790Y385060I132J272D01*
G03X17499100Y385840I-18017J7612D01*
G01X17501260Y391760D01*
X17503730Y398550D01*
X17506590Y406430D01*
X17513960Y426780D01*
X17518900D01*
G37*
G36*
G01X17390840Y426500D02*
G02X17399500Y425770I-6404J-127705D01*
G02X17404940Y424460I-2765J-23432D01*
G02X17408430Y422330I-3717J-10014D01*
G02X17410670Y419140I-6054J-6632D01*
G02X17411520Y415160I-10438J-4310D01*
G02X17410780Y411490I-8204J-255D01*
G02X17408410Y408340I-8443J3886D01*
G02X17404580Y405860I-10726J12367D01*
G03X17404540Y405680I52J-106D01*
G03X17405250Y404790I25572J19672D01*
G03X17406200Y403710I19047J15796D01*
G03X17407410Y402460I38099J35669D01*
G02X17408710Y400920I-8311J-8334D01*
G02X17409740Y399160I-9907J-6979D01*
G02X17410400Y397370I-9706J-4595D01*
G02X17410630Y395730I-5977J-1674D01*
G03X17410710Y394090I16278J-28D01*
G03X17410970Y392040I39735J3998D01*
G03X17411350Y389950I40926J6361D01*
G03X17411790Y388130I24364J4927D01*
G01X17412960Y384050D01*
X17408170D01*
G02X17404950Y384490I6J12049D01*
G02X17403080Y385830I879J3201D01*
G02X17402120Y388470I4860J3262D01*
G02X17401830Y393480I50873J5458D01*
G03X17401410Y397120I-17445J-169D01*
G03X17400160Y399340I-4286J-951D01*
G03X17397810Y400600I-3457J-3626D01*
G03X17393770Y401170I-5482J-24251D01*
G01X17388010Y401510D01*
Y384050D01*
X17379210D01*
Y405560D01*
Y427080D01*
X17390840Y426500D01*
G37*
G36*
G01X17508330Y270480D02*
G02X17510090Y270850I2310J-6617D01*
G02X17512760Y270960I2672J-32393D01*
G01X17518210D01*
X17525680Y249980D01*
X17528570Y241860D01*
X17531080Y234840D01*
X17533260Y228740D01*
G03X17533580Y227910I18294J6576D01*
G02X17533400Y227520I-272J-111D01*
G02X17532300Y227260I-1970J5876D01*
G02X17530650Y227150I-1627J11982D01*
G02X17528600Y227220I-62J28244D01*
G02X17525440Y227580I2839J38970D01*
G02X17523850Y228200I583J3843D01*
G02X17522850Y229390I1622J2378D01*
G02X17522000Y231700I14959J6816D01*
G03X17521060Y234190I-15282J-4347D01*
G03X17519940Y235270I-1994J-947D01*
G03X17517970Y235700I-2113J-4954D01*
G03X17512480Y235780I-5559J-193043D01*
G01X17504120D01*
X17502520Y231380D01*
G02X17501440Y228860I-22356J8090D01*
G02X17500390Y227670I-2746J1365D01*
G02X17498860Y227130I-1846J2792D01*
G02X17495890Y226990I-2952J31044D01*
G02X17493980Y227050I-117J26697D01*
G02X17492440Y227270I892J11741D01*
G02X17491410Y227570I1278J6306D01*
G02X17491250Y227940I97J262D01*
G03X17492810Y231760I-71869J31578D01*
G03X17498380Y246600I-7943655J2990013D01*
G03X17503700Y260910I-4159278J1554430D01*
G03X17506530Y268770I-430351J159388D01*
G02X17507210Y269800I2413J-854D01*
G02X17508330Y270480I2204J-2368D01*
G37*
G36*
G01X17232970Y426380D02*
G02X17234130Y426700I1286J-2399D01*
G02X17236810Y426780I2832J-49933D01*
G01X17241690D01*
X17247080Y410440D01*
G03X17249180Y404180I667721J220514D01*
G03X17251030Y398900I342365J116993D01*
G03X17252690Y394280I1826391J653628D01*
G03X17252930Y394110I241J86D01*
G03X17253170Y394280I-1J256D01*
G03X17254830Y398900I-1824731J658248D01*
G03X17256680Y404180I-340515J122273D01*
G03X17258780Y410440I-665621J226774D01*
G01X17264170Y426780D01*
X17268290D01*
G02X17269870Y426720I-40J-21887D01*
G02X17271200Y426540I-867J-11407D01*
G02X17272180Y426290I-1630J-8434D01*
G02X17272410Y425990I-90J-307D01*
G02X17272250Y425100I-2602J8D01*
G01X17266630Y409680D01*
G02X17261490Y395700I-2863261J1044795D01*
G02X17257910Y386250I-635789J235457D01*
G02X17257230Y385250I-2489J961D01*
G02X17256120Y384560I-2357J2555D01*
G02X17254490Y384170I-2292J5978D01*
G02X17252170Y384050I-2323J22423D01*
G02X17250290Y384090I223J54665D01*
G02X17248710Y384190I963J27744D01*
G02X17247430Y384320I3477J40603D01*
G02X17247280Y384500I27J175D01*
G03X17247180Y385070I-1677J0D01*
G01X17240840Y402610D01*
G03X17235190Y418160I-7683420J-2782924D01*
G03X17232780Y424580I-311083J-113115D01*
G02X17232570Y425710I2825J1110D01*
G02X17232970Y426380I772J-6D01*
G37*
G36*
G01X17204870Y426480D02*
G02X17209560Y426110I-6205J-108566D01*
G02X17214070Y425560I-9091J-93308D01*
G02X17217860Y424910I-12279J-82972D01*
G02X17219860Y424260I-1642J-8454D01*
G02X17223630Y420950I-3824J-8157D01*
G02X17225370Y415910I-9530J-6111D01*
G02X17224560Y410830I-10342J-956D01*
G02X17221440Y407390I-6588J2840D01*
G01X17220470Y406850D01*
X17219570Y406360D01*
X17218820Y405940D01*
G03X17218510Y405760I13896J-24288D01*
G03X17218460Y405530I81J-138D01*
G03X17218940Y404910I6145J4262D01*
G03X17219690Y404120I8002J6846D01*
G03X17220680Y403250I15523J16666D01*
G02X17221940Y401760I-3745J-4445D01*
G02X17223090Y399440I-15009J-8885D01*
G02X17224130Y396370I-24897J-10145D01*
G02X17225040Y392540I-56037J-15337D01*
G01X17226740Y384050D01*
X17222080D01*
G02X17218940Y384500I7J11226D01*
G02X17217100Y385850I917J3179D01*
G02X17216150Y388500I4995J3286D01*
G02X17215860Y393480I50504J5439D01*
G03X17215450Y397150I-18321J-189D01*
G03X17214230Y399330I-4174J-905D01*
G03X17211960Y400520I-3168J-3283D01*
G03X17208110Y400930I-4193J-21091D01*
G01X17202670Y401020D01*
X17202300Y392540D01*
X17201920Y384050D01*
X17193240D01*
Y405590D01*
Y427120D01*
X17204870Y426480D01*
G37*
G36*
G01X17570290Y732910D02*
G02X17573520Y734380I570701J-1249706D01*
G02X17573990Y734520I764J-1706D01*
G02X17574380Y734350I68J-376D01*
G01X17578930Y726940D01*
G02X17584000Y718550I-674515J-413330D01*
G02X17589910Y708560I-1328166J-792475D01*
G01X17598610Y693700D01*
X17614550Y666530D01*
X17633170Y634790D01*
X17652340Y602100D01*
G02X17670400Y571260I-15909901J-9337595D01*
G02X17685540Y545230I-8054094J-4701974D01*
G01X17699190Y521690D01*
G02X17699150Y521370I-228J-134D01*
G02X17698830Y521330I-186J188D01*
G01X17692280Y525130D01*
G02X17684940Y529450I375373J646182D01*
G02X17676280Y534650I751855J1261939D01*
G01X17626250Y564940D01*
X17567660Y600410D01*
X17511060Y634670D01*
X17496400Y643530D01*
X17483530Y651300D01*
X17490500Y656100D01*
G03X17499520Y663390I-42834J62224D01*
G03X17515920Y679260I-644989J682938D01*
G03X17531960Y695590I-612395J617562D01*
G03X17540560Y705730I-80006J76572D01*
G03X17543070Y709220I-84480J63406D01*
G03X17545560Y712970I-103758J71597D01*
G03X17547670Y716440I-95214J60273D01*
G03X17548960Y718920I-22800J13435D01*
G02X17550650Y721850I15459J-6964D01*
G02X17552730Y723980I8337J-6060D01*
G02X17556010Y726070I13303J-17259D01*
G02X17562290Y729180I91871J-177619D01*
G02X17566580Y731200I370735J-781787D01*
G02X17570290Y732910I203866J-437426D01*
G37*
G36*
G01X17374910Y348320D02*
G02X17376530Y348750I2058J-4488D01*
G02X17379210Y348870I2665J-29529D01*
G02X17382040Y348740I1J-30852D01*
G02X17383640Y348260I-381J-4175D01*
G02X17384710Y347260I-1371J-2539D01*
G02X17385650Y345410I-9052J-5763D01*
G02X17387860Y339450I-192794J-74879D01*
G02X17393220Y324240I-5656205J-2001795D01*
G01X17399180Y307250D01*
G02X17399320Y306470I-2221J-801D01*
G02X17399150Y306290I-180J0D01*
G02X17397940Y306250I-1650J31604D01*
G02X17396440Y306270I-432J23882D01*
G02X17394640Y306390I2303J48112D01*
G02X17392040Y306760I1898J22656D01*
G02X17390580Y307420I681J3452D01*
G02X17389620Y308640I1946J2519D01*
G02X17388790Y310910I15526J6964D01*
G01X17387620Y315050D01*
X17378740Y314680D01*
G03X17372950Y314360I8827J-212258D01*
G03X17370850Y313840I426J-6220D01*
G03X17369670Y312710I979J-2204D01*
G03X17368710Y310230I12961J-6443D01*
G02X17367910Y307990I-17621J5031D01*
G02X17367010Y306850I-2621J1144D01*
G02X17365680Y306300I-1706J2241D01*
G02X17363320Y306150I-2313J17747D01*
G02X17361710Y306200I-53J24240D01*
G02X17360350Y306370I887J12619D01*
G02X17359330Y306600I1723J10017D01*
G02X17359110Y306890I82J291D01*
G02X17359250Y307730I2502J15D01*
G01X17364060Y321210D01*
G02X17368790Y334370I2490849J-887837D01*
G02X17373070Y346040I1557114J-564455D01*
G02X17373860Y347470I5232J-1957D01*
G02X17374910Y348320I2224J-1674D01*
G37*
G36*
G01X17264860Y348690D02*
G02X17268820Y348750I3237J-82913D01*
G02X17273330Y348620I-1782J-140109D01*
G02X17279390Y348260I-7031J-169534D01*
G02X17283300Y347710I-2521J-32093D01*
G02X17286100Y346850I-3165J-15292D01*
G02X17288410Y345550I-4017J-9840D01*
G02X17291520Y341640I-5785J-7793D01*
G02X17292530Y336430I-11241J-4882D01*
G02X17291240Y331540I-10953J274D01*
G02X17287980Y328470I-6171J3287D01*
G03X17285940Y327510I32785J-72315D01*
G03X17285590Y327090I291J-598D01*
G03X17285770Y326690I322J-96D01*
G03X17287320Y326070I10756J24642D01*
G02X17289050Y324720I-1268J-3408D01*
G02X17290470Y322000I-10505J-7215D01*
G02X17291760Y317650I-28571J-10839D01*
G02X17293080Y310860I-152059J-33084D01*
G01X17293880Y306150D01*
X17284070D01*
X17283360Y313030D01*
G03X17283030Y315750I-77576J-8032D01*
G03X17282620Y318260I-56704J-7974D01*
G03X17282200Y320340I-56181J-10262D01*
G03X17281850Y321190I-2696J-613D01*
G03X17281210Y321700I-1014J-616D01*
G03X17279650Y322100I-4303J-13540D01*
G03X17277670Y322390I-3540J-17268D01*
G03X17275470Y322480I-2148J-25570D01*
G01X17269890D01*
Y306150D01*
X17259840D01*
Y326670D01*
G02X17259910Y334610I462820J-110D01*
G02X17260120Y341450I256571J-4454D01*
G02X17260400Y347290I584092J-25078D01*
G02X17260780Y348160I1345J-69D01*
G02X17261580Y348520I871J-866D01*
G02X17264860Y348690I7572J-114359D01*
G37*
G36*
G01X17406920Y1012210D02*
G02X17409030Y1014970I95121J-70533D01*
G02X17409590Y1015010I298J-235D01*
G02X17410610Y1013720I-4100J-4290D01*
G01X17426400Y986980D01*
G02X17447430Y951240I-14616272J-8624510D01*
G01X17481230Y893580D01*
X17503840Y854970D01*
G02X17510180Y844010I-1048683J-613942D01*
G02X17513620Y837910I-574064J-327755D01*
G02X17513500Y837110I-574J-323D01*
G02X17513090Y836820I-1163J1210D01*
G01X17506530Y833600D01*
G02X17499120Y829990I-775486J1582378D01*
G02X17490420Y825780I-1448752J2982763D01*
G02X17470090Y816550I-217438J451924D01*
G02X17455930Y811630I-42255J98776D01*
G02X17441070Y808670I-29050J107060D01*
G02X17418170Y806210I-71014J553245D01*
G03X17379360Y802550I226144J-2605586D01*
G03X17354990Y799390I44988J-442497D01*
G03X17338330Y796010I30619J-193670D01*
G03X17326490Y791730I14603J-58913D01*
G03X17319850Y788000I27615J-56935D01*
G03X17314020Y783650I28572J-44375D01*
G03X17308640Y778380I37145J-43301D01*
G03X17303360Y771860I65341J-58312D01*
G01X17297450Y763810D01*
X17282200Y773060D01*
G02X17276270Y776690I466522J768773D01*
G02X17271100Y779920I280386J454545D01*
G02X17266720Y782710I527131J832372D01*
G02X17265840Y783410I2790J4410D01*
G02X17265710Y784410I585J585D01*
G02X17273090Y797070I3441433J-1997662D01*
G02X17281870Y811760I805963J-471743D01*
G02X17292890Y829620I1791364J-1092980D01*
G01X17327830Y885650D01*
X17362110Y940680D01*
X17392350Y989260D01*
G03X17401680Y1004330I-2844990J1771787D01*
G02X17404450Y1008680I138467J-85117D01*
G02X17406920Y1012210I66462J-43876D01*
G37*
G36*
G01X17305880Y270450D02*
G02X17312820Y267810I-4335J-21837D01*
G02X17317070Y263320I-5661J-9614D01*
G02X17318760Y259500I-31499J-16219D01*
G02X17318750Y257400I-2754J-1037D01*
G02X17317390Y256240I-1760J686D01*
G02X17314190Y255890I-3210J14548D01*
G02X17311630Y256060I46J20057D01*
G02X17309960Y256610I621J4697D01*
G02X17308660Y257710I2094J3793D01*
G02X17307330Y259660I11896J9542D01*
G03X17304660Y262630I-8107J-4603D01*
G03X17301360Y263660I-3208J-4476D01*
G03X17298100Y262510I102J-5485D01*
G03X17295550Y259460I5615J-7285D01*
G03X17293950Y254040I13312J-6876D01*
G03X17293840Y246520I44680J-4414D01*
G03X17294920Y239430I44087J3088D01*
G03X17297210Y235790I6478J1535D01*
G03X17300230Y234260I5091J6303D01*
G03X17303390Y234240I1619J6100D01*
G03X17306100Y235750I-1465J5817D01*
G03X17307840Y238460I-4841J5022D01*
G02X17308710Y240410I11459J-3943D01*
G02X17309730Y241440I2408J-1364D01*
G02X17311250Y241930I1876J-3216D01*
G02X17313990Y242060I2714J-28271D01*
G02X17317360Y241720I21J-16663D01*
G02X17318750Y240540I-381J-1858D01*
G02Y238400I-2788J-1070D01*
G02X17316930Y234360I-38124J14745D01*
G02X17314550Y231350I-8997J4668D01*
G02X17310930Y228990I-10433J12046D01*
G02X17306390Y227490I-8414J17845D01*
G02X17301280Y226990I-5076J25514D01*
G02X17293700Y228440I-1J20530D01*
G02X17287960Y232550I5387J13587D01*
G02X17284410Y239270I13330J11339D01*
G02X17283190Y248270I33461J9118D01*
G02X17283680Y255050I43844J239D01*
G02X17285260Y260630I23078J-3521D01*
G02X17287930Y265050I16549J-6980D01*
G02X17291690Y268380I12444J-10263D01*
G02X17298170Y270730I8438J-13158D01*
G02X17305880Y270450I2993J-23868D01*
G37*
G36*
G01X17671820Y191620D02*
G02X17677070Y188960I-7422J-21161D01*
G02X17680200Y185430I-5426J-7964D01*
G02X17681870Y181670I-30983J-16012D01*
G02X17681910Y179550I-2966J-1116D01*
G02X17680630Y178350I-1747J581D01*
G02X17677710Y177980I-2905J11219D01*
G02X17675430Y178140I-3J16289D01*
G02X17673910Y178660I578J4172D01*
G02X17672770Y179690I1864J3209D01*
G02X17671730Y181440I8931J6492D01*
G03X17670680Y183170I-8917J-4228D01*
G03X17669450Y184260I-3465J-2671D01*
G03X17667800Y184920I-2801J-4610D01*
G03X17665350Y185280I-4013J-18797D01*
G03X17662510Y185370I-2259J-26444D01*
G03X17661030Y184910I74J-2851D01*
G03X17659950Y183720I1732J-2657D01*
G03X17658630Y180930I31138J-16439D01*
G03X17657240Y175420I17809J-7423D01*
G03X17657090Y168400I43993J-4452D01*
G03X17658000Y161800I42522J2500D01*
G03X17659990Y157950I8228J1814D01*
G03X17663310Y155870I5307J4781D01*
G03X17667420Y155720I2359J8253D01*
G03X17670720Y157450I-1359J6604D01*
G03X17671990Y160430I-2857J2978D01*
G02X17672240Y161690I3274J5D01*
G02X17672940Y162430I1334J-561D01*
G02X17674330Y162810I1666J-3361D01*
G02X17677010Y162900I2623J-38175D01*
G02X17679760Y162810I61J-40193D01*
G02X17681120Y162420I-257J-3462D01*
G02X17681800Y161640I-657J-1259D01*
G02X17682040Y160290I-3742J-1362D01*
G02X17679980Y155350I-6959J3D01*
G02X17674120Y151360I-13621J13707D01*
G02X17666400Y149390I-9867J22556D01*
G02X17659070Y150240I-1601J18225D01*
G02X17653450Y153570I4815J14533D01*
G02X17649410Y159070I12293J13263D01*
G02X17647350Y166360I20690J9783D01*
G02X17647440Y174790I34746J3845D01*
G02X17648940Y181260I34585J-4609D01*
G02X17651520Y186140I16105J-5393D01*
G02X17655370Y189710I11999J-9080D01*
G02X17660680Y192240I12608J-19625D01*
G02X17665870Y192860I4137J-12595D01*
G02X17671820Y191620I-1821J-23632D01*
G37*
G36*
G01X17615000Y270880D02*
G02X17620160Y270630I1189J-28830D01*
G02X17624120Y269380I-1696J-12270D01*
G02X17626640Y267620I-5253J-10206D01*
G02X17629080Y264970I-14536J-15832D01*
G02X17631100Y261860I-17866J-13815D01*
G02X17632390Y258710I-14008J-7576D01*
G02X17632650Y257100I-6644J-1899D01*
G02X17632220Y256310I-864J-42D01*
G02X17630970Y255950I-1355J2353D01*
G02X17627460Y255890I-3350J93281D01*
G02X17624430Y255970I-129J52538D01*
G02X17622840Y256320I297J5138D01*
G02X17622030Y257020I599J1512D01*
G02X17621730Y258150I1955J1124D01*
G03X17620400Y261450I-4795J-15D01*
G03X17617020Y263340I-4712J-4459D01*
G03X17612940Y263030I-1501J-7253D01*
G03X17609910Y260600I2131J-5761D01*
G03X17607570Y254350I13277J-8534D01*
G03X17607260Y245960I37943J-5603D01*
G03X17608700Y238250I35161J2578D01*
G03X17611830Y234440I6178J1885D01*
G03X17614550Y233900I2253J4228D01*
G03X17617710Y234800I-855J8998D01*
G03X17620320Y236770I-3999J8012D01*
G03X17621500Y239250I-3415J3145D01*
G02X17621960Y240740I4830J-675D01*
G02X17622820Y241570I1617J-815D01*
G02X17624390Y241970I1840J-3940D01*
G02X17627550Y242060I3065J-52086D01*
G02X17631000Y242000I154J-90362D01*
G02X17632230Y241640I-100J-2622D01*
G02X17632650Y240860I-426J-733D01*
G02X17632360Y239240I-7169J447D01*
G02X17629670Y233560I-19870J5933D01*
G02X17625620Y229640I-11331J7654D01*
G02X17620160Y227560I-7944J12647D01*
G02X17613320Y227270I-4572J27036D01*
G02X17605660Y229430I1714J20742D01*
G02X17600220Y234210I6502J12885D01*
G02X17597290Y241620I15175J10285D01*
G02X17596900Y251470I40985J6555D01*
G02X17597820Y257380I40714J-3311D01*
G02X17599540Y262000I18581J-4287D01*
G02X17602210Y265640I13708J-7256D01*
G02X17605970Y268620I13973J-13769D01*
G02X17609870Y270200I6736J-11024D01*
G02X17615000Y270880I6353J-28234D01*
G37*
G36*
G01X17477040Y426670D02*
G02X17482100Y426210I5J-28000D01*
G02X17486180Y424810I-2679J-14453D01*
G02X17488550Y422980I-3846J-7430D01*
G02X17491030Y419770I-20031J-18039D01*
G02X17492970Y416290I-22296J-14710D01*
G02X17493560Y413620I-5763J-2674D01*
G02X17493340Y413360I-271J6D01*
G02X17492170Y413150I-3574J16547D01*
G02X17490640Y413000I-2481J17429D01*
G02X17488830Y412950I-1846J34036D01*
G02X17486440Y413090I54J21387D01*
G02X17484840Y413530I580J5238D01*
G02X17483720Y414360I1402J3063D01*
G02X17482860Y415680I3959J3519D01*
G03X17480080Y419110I-7994J-3637D01*
G03X17476210Y420370I-3840J-5221D01*
G03X17472400Y419080I13J-6310D01*
G03X17469750Y415630I5082J-6647D01*
G03X17468570Y410990I15500J-6412D01*
G03X17468310Y404710I48223J-5142D01*
G03X17468860Y398510I48213J1153D01*
G03X17470250Y394220I13791J2098D01*
G03X17471420Y392320I13465J6981D01*
G03X17472610Y391160I3926J2837D01*
G03X17474030Y390540I2302J3336D01*
G03X17475910Y390340I1859J8537D01*
G03X17478680Y390790I10J8688D01*
G03X17481170Y392100I-2775J8297D01*
G03X17482900Y393990I-4333J5703D01*
G03X17483510Y396080I-3304J2098D01*
G02X17483830Y396880I1158J1D01*
G02X17484700Y397450I1638J-1552D01*
G02X17486220Y397780I2025J-5662D01*
G02X17488530Y397880I2350J-27548D01*
G02X17492280Y397780I-148J-75930D01*
G02X17493190Y397210I-58J-1104D01*
G02X17493280Y396070I-1187J-667D01*
G02X17491720Y392140I-109705J41272D01*
G02X17488130Y387570I-10040J4192D01*
G02X17482190Y384740I-10326J14024D01*
G02X17474960Y384120I-5431J20869D01*
G02X17467710Y385900I2036J23947D01*
G02X17463530Y388870I4455J10696D01*
G02X17460490Y393690I12893J11500D01*
G02X17458830Y400000I21506J9031D01*
G02X17458690Y407370I37244J4394D01*
G02X17459660Y413590I42474J-3438D01*
G02X17461480Y418530I20567J-4772D01*
G02X17464170Y422240I13717J-7116D01*
G02X17467730Y424830I9399J-9178D01*
G02X17471930Y426210I7022J-14290D01*
G02X17477040Y426670I5091J-27937D01*
G37*
G36*
G01X17435140Y192860D02*
G02X17437920Y192470I-77J-10653D01*
G02X17441370Y191270I-8018J-28611D01*
G02X17444200Y189500I-3977J-9506D01*
G02X17446920Y186590I-13447J-15296D01*
G02X17448930Y183340I-15285J-11700D01*
G02X17449580Y180560I-5681J-2794D01*
G02X17449290Y180050I-595J1D01*
G02X17448350Y179620I-2295J3774D01*
G02X17446990Y179330I-2239J7168D01*
G02X17445380Y179240I-1560J13457D01*
G02X17443280Y179390I-9J14648D01*
G02X17441800Y179870I628J4459D01*
G02X17440710Y180780I1671J3110D01*
G02X17439830Y182200I5275J4252D01*
G03X17436970Y185170I-5618J-2548D01*
G03X17432710Y185850I-3222J-6503D01*
G03X17429050Y184010I898J-6347D01*
G03X17427590Y180460I3597J-3555D01*
G03X17428010Y178670I4045J5D01*
G03X17429160Y177350I3048J1495D01*
G03X17431590Y176100I6563J9772D01*
G03X17436910Y174210I60440J161694D01*
G02X17444560Y171120I-22475J-66656D01*
G02X17448690Y167940I-5289J-11141D01*
G02X17450260Y164100I-5119J-4334D01*
G02X17449710Y159080I-13889J-1018D01*
G02X17448670Y156310I-20894J6264D01*
G02X17447450Y154450I-6629J3018D01*
G02X17445690Y152990I-5808J5211D01*
G02X17442900Y151520I-13938J23072D01*
G02X17435240Y149350I-11044J24381D01*
G02X17427600Y149650I-2936J22668D01*
G02X17421350Y152310I3658J17266D01*
G02X17417610Y156870I5812J8580D01*
G02X17416430Y160190I28451J11982D01*
G02X17416650Y161810I1957J559D01*
G02X17417970Y162680I1568J-942D01*
G02X17421240Y162900I3272J-24220D01*
G02X17423450Y162770I52J-17962D01*
G02X17424770Y162290I-420J-3209D01*
G02X17425620Y161370I-1249J-2006D01*
G02X17426220Y159780I-6655J-3420D01*
G03X17428500Y156840I4484J1123D01*
G03X17433090Y155490I5450J10053D01*
G03X17437800Y156140I852J11217D01*
G03X17440410Y158710I-1521J4155D01*
G03X17440530Y161070I-3554J1364D01*
G03X17439250Y163160I-4193J-1131D01*
G03X17436200Y165160I-8032J-8922D01*
G03X17430820Y167360I-29632J-64785D01*
G02X17424480Y170030I23357J64325D01*
G02X17420610Y172670I6774J14087D01*
G02X17418550Y175670I5623J6068D01*
G02X17417890Y179380I8662J3455D01*
G02X17418670Y183320I12244J-377D01*
G02X17420670Y186810I11546J-4298D01*
G02X17423770Y189570I10214J-8351D01*
G02X17427720Y191390I8528J-13312D01*
G02X17432110Y192540I17929J-59486D01*
G02X17435140Y192860I2909J-13038D01*
G37*
G36*
G01X17193650Y192900D02*
G02X17196490Y192530I102J-10298D01*
G02X17200030Y191310I-7811J-28410D01*
G02X17203210Y189510I-5883J-14102D01*
G02X17205890Y186990I-9338J-12616D01*
G02X17207710Y184170I-10074J-8499D01*
G02X17208320Y181470I-5661J-2698D01*
G02X17207280Y179780I-1887J-4D01*
G02X17204540Y179130I-2760J5533D01*
G02X17201520Y179730I-40J7697D01*
G02X17199890Y181440I1156J2733D01*
G03X17198850Y183390I-7518J-2757D01*
G03X17197430Y184620I-3419J-2513D01*
G03X17195390Y185290I-2871J-5300D01*
G03X17192350Y185500I-3120J-23055D01*
G03X17189450Y184970I-43J-7963D01*
G03X17187260Y183430I1990J-5157D01*
G03X17186210Y181200I3426J-2975D01*
G03X17186470Y178710I4716J-766D01*
G03X17187240Y177800I1692J651D01*
G03X17189540Y176570I15370J25975D01*
G03X17192530Y175300I15243J31733D01*
G03X17195960Y174150I19039J51096D01*
G02X17199490Y172970I-16418J-54984D01*
G02X17202850Y171590I-18233J-49175D01*
G02X17205650Y170220I-18571J-41501D01*
G02X17207140Y169110I-3013J-5600D01*
G02X17208920Y166210I-5166J-5167D01*
G02X17209510Y162390I-11363J-3711D01*
G02X17208850Y158380I-13236J119D01*
G02X17207010Y154950I-10651J3505D01*
G02X17200730Y150550I-10431J8206D01*
G02X17191480Y149140I-8798J26670D01*
G02X17182630Y150850I437J26016D01*
G02X17177500Y155440I3452J9020D01*
G02X17175850Y159150I30663J15859D01*
G02X17175770Y161300I3145J1194D01*
G02X17176990Y162510I1721J-515D01*
G02X17179740Y162890I2703J-9421D01*
G02X17181870Y162700I-20J-12256D01*
G02X17183420Y162120I-784J-4455D01*
G02X17184690Y161000I-2488J-4101D01*
G02X17185960Y159120I-11544J-9167D01*
G03X17188190Y156620I7018J4015D01*
G03X17191130Y155380I4009J5399D01*
G03X17194490Y155600I1194J7540D01*
G03X17197880Y157240I-3334J11216D01*
G03X17199790Y159490I-3342J4773D01*
G03X17199770Y161860I-2419J1165D01*
G03X17197620Y164140I-4921J-2487D01*
G03X17193430Y166070I-11971J-20475D01*
G02X17186680Y168620I41987J121351D01*
G02X17182160Y170900I12351J30105D01*
G02X17179250Y173160I8297J13687D01*
G02X17177700Y175600I4455J4542D01*
G02X17177030Y180410I11624J4071D01*
G02X17178330Y184880I10473J-622D01*
G02X17181550Y188570I10347J-5779D01*
G02X17186350Y191160I10829J-14326D01*
G02X17190620Y192490I18035J-50381D01*
G02X17193650Y192900I3159J-11945D01*
G37*
G36*
G01X17608550Y348350D02*
G02X17612010Y348570I4181J-38440D01*
G02X17615900Y348520I1162J-60967D01*
G02X17621030Y348180I-4627J-108690D01*
G02X17623750Y347570I-1010J-10875D01*
G02X17625800Y346380I-2285J-6298D01*
G02X17628160Y344090I-15323J-18152D01*
G02X17629540Y342350I-15076J-13374D01*
G02X17630710Y340490I-15768J-11216D01*
G02X17631540Y338770I-14090J-7860D01*
G02X17631780Y337540I-3019J-1228D01*
G02X17631530Y336270I-3375J5D01*
G02X17630830Y335520I-1340J549D01*
G02X17629450Y335140I-1650J3297D01*
G02X17626750Y335050I-2639J38633D01*
G02X17624070Y335140I-57J38265D01*
G02X17622680Y335520I276J3741D01*
G02X17621980Y336260I634J1301D01*
G02X17621730Y337520I3024J1255D01*
G03X17620410Y340320I-3637J-3D01*
G03X17616810Y342170I-6010J-7267D01*
G03X17612090Y342550I-3418J-12954D01*
G03X17607710Y341230I1107J-11601D01*
G03X17605450Y339200I3052J-5671D01*
G03X17603470Y335600I16806J-11588D01*
G03X17602090Y331250I22251J-9453D01*
G03X17601620Y326880I20248J-4388D01*
G03X17602740Y319830I22747J0D01*
G03X17605990Y314640I12068J3944D01*
G03X17611040Y311870I7586J7841D01*
G03X17617310Y311720I3487J14644D01*
G03X17619860Y312330I-4566J24723D01*
G03X17621030Y313100I-720J2368D01*
G03X17621580Y314360I-1787J1530D01*
G03X17621730Y316890I-22079J2579D01*
G03X17621610Y319430I-28894J-92D01*
G03X17621140Y320550I-1962J-165D01*
G03X17620140Y321090I-1209J-1042D01*
G03X17617960Y321230I-2185J-16975D01*
G02X17615830Y321360I-8J17381D01*
G02X17614810Y321850I202J1728D01*
G02X17614320Y322870I1238J1222D01*
G02X17614190Y325000I17251J2122D01*
G01Y328770D01*
X17630340D01*
X17630740Y318070D01*
G02X17630780Y309950I-123178J-4667D01*
G02X17629510Y307280I-3631J90D01*
G02X17626500Y306090I-3258J3840D01*
G02X17616280Y305770I-13877J279849D01*
G02X17606470Y306450I-829J59146D01*
G02X17599850Y308980I2562J16629D01*
G02X17595490Y313700I7119J10950D01*
G02X17592710Y321110I25322J13727D01*
G02X17592200Y326510I20923J4700D01*
G02X17592920Y332770I38693J-1279D01*
G02X17594570Y338550I35742J-7078D01*
G02X17596920Y342370I11007J-4139D01*
G02X17598270Y343660I11176J-10344D01*
G02X17600020Y345040I19506J-22936D01*
G02X17601860Y346280I17661J-24221D01*
G02X17603510Y347160I7993J-13001D01*
G02X17605650Y347880I4310J-9269D01*
G02X17608550Y348350I6041J-28095D01*
G37*
G36*
G01X17436970Y269820D02*
G02X17443360Y265740I-5646J-15887D01*
G02X17445770Y259970I-5996J-5893D01*
G02X17445600Y258490I-5864J-76D01*
G02X17445030Y257670I-1353J333D01*
G02X17443870Y257250I-1398J2049D01*
G02X17441610Y257140I-2290J23783D01*
G02X17439460Y257300I22J14816D01*
G02X17437980Y257810I619J4198D01*
G02X17436890Y258770I1737J3071D01*
G02X17435950Y260360I7001J5212D01*
G03X17434970Y262050I-9073J-4132D01*
G03X17433900Y262930I-2198J-1582D01*
G03X17432380Y263270I-1572J-3459D01*
G03X17429780Y263190I-496J-26186D01*
G03X17427170Y262850I2317J-27971D01*
G03X17425830Y262260I567J-3105D01*
G03X17425090Y261220I1275J-1691D01*
G03X17424680Y259350I9140J-2984D01*
G03X17424950Y256920I5399J-630D01*
G03X17426280Y255220I3217J1146D01*
G03X17429230Y253830I6130J9184D01*
G03X17435590Y252070I42765J142167D01*
G02X17440410Y250270I-5781J-22835D01*
G02X17444040Y247630I-6187J-12322D01*
G02X17446280Y244270I-7691J-7554D01*
G02X17447070Y240410I-9115J-3876D01*
G02X17445530Y234530I-11999J1D01*
G02X17441300Y230100I-10815J6092D01*
G02X17434620Y227590I-9507J15157D01*
G02X17426110Y227270I-5575J34940D01*
G02X17420740Y228330I1990J24212D01*
G02X17416610Y230520I3997J12527D01*
G02X17413940Y233720I6221J7904D01*
G02X17412780Y237740I8974J4767D01*
G02X17412770Y239890I15419J1147D01*
G02X17413260Y240920I1564J-113D01*
G02X17414390Y241480I1475J-1557D01*
G02X17417070Y241820I5590J-33332D01*
G02X17419630Y241920I2400J-28624D01*
G02X17420980Y241580I-28J-2961D01*
G02X17421810Y240720I-882J-1682D01*
G02X17422430Y239030I-7934J-3870D01*
G03X17422900Y237720I6570J1618D01*
G03X17423670Y236420I8409J4103D01*
G03X17424590Y235320I7048J4960D01*
G03X17425530Y234620I2792J2768D01*
G03X17428060Y233980I2554J4777D01*
G03X17431320Y234370I88J13081D01*
G03X17434350Y235560I-3172J12528D01*
G03X17436220Y237310I-2431J4472D01*
G03X17436650Y239500I-2638J1655D01*
G03X17435520Y241470I-3280J-572D01*
G03X17432460Y243290I-6855J-8044D01*
G03X17427090Y245070I-21943J-57209D01*
G02X17420730Y247440I11137J39605D01*
G02X17416340Y250470I6853J14624D01*
G02X17413980Y254090I6785J7003D01*
G02X17413590Y258170I7563J2782D01*
G02X17414440Y261510I18889J-3029D01*
G02X17415810Y264080I9377J-3348D01*
G02X17417970Y266320I9473J-6974D01*
G02X17421310Y268650I20759J-26198D01*
G02X17428720Y270980I8382J-13710D01*
G02X17436970Y269820I1275J-20849D01*
G37*
G36*
G01X17056550Y191650D02*
G02X17060970Y189330I-4344J-13646D01*
G02X17063730Y185840I-5680J-7328D01*
G02X17064960Y182590I-24204J-11018D01*
G02X17064910Y180670I-2865J-886D01*
G02X17063750Y179590I-1652J611D01*
G02X17061280Y179240I-2468J8523D01*
G02X17059400Y179400I-45J10592D01*
G02X17058010Y179920I747J4116D01*
G02X17056950Y180860I1906J3217D01*
G02X17056080Y182320I5970J4546D01*
G03X17054630Y184510I-7689J-3516D01*
G03X17052790Y185690I-3125J-2848D01*
G03X17050380Y185900I-1672J-5251D01*
G03X17047170Y185160I2387J-17688D01*
G03X17045600Y184470I2939J-8818D01*
G03X17044530Y183610I1860J-3410D01*
G03X17043920Y182520I2338J-2024D01*
G03X17043710Y181150I4352J-1368D01*
G03X17044180Y178770I6348J17D01*
G03X17045490Y176950I4346J1746D01*
G03X17047820Y175620I4759J5632D01*
G03X17051370Y174660I8242J23434D01*
G02X17055830Y173440I-5372J-28402D01*
G02X17060320Y171450I-12688J-34688D01*
G02X17064020Y169200I-15521J-29690D01*
G02X17065550Y167250I-2426J-3479D01*
G02X17066320Y161380I-11860J-4541D01*
G02X17064310Y155950I-11581J1200D01*
G02X17059740Y151830I-11060J7673D01*
G02X17053350Y149670I-9231J16777D01*
G02X17047490Y149220I-6050J40402D01*
G02X17042690Y149820I-80J18860D01*
G02X17038800Y151490I3473J13455D01*
G02X17035620Y154240I7120J11447D01*
G02X17032940Y158000I22196J18655D01*
G02X17032390Y160670I3573J2128D01*
G02X17033660Y162310I2026J-257D01*
G02X17036740Y162900I3083J-7762D01*
G02X17039010Y162740I-3J-16220D01*
G02X17040530Y162220I-578J-4172D01*
G02X17041670Y161190I-1864J-3209D01*
G02X17042710Y159450I-8877J-6487D01*
G03X17043730Y157780I8658J4141D01*
G03X17044920Y156660I3879J2930D01*
G03X17046470Y155970I2909J4449D01*
G03X17048550Y155590I3303J12199D01*
G03X17051520Y155800I857J8982D01*
G03X17054520Y156950I-2830J11872D01*
G03X17056790Y158660I-4662J8550D01*
G03X17057540Y160490I-1857J1830D01*
G03X17056810Y162230I-2451J-5D01*
G03X17054460Y164090I-9471J-9552D01*
G03X17050740Y166000I-13605J-21920D01*
G03X17045620Y167920I-28561J-68376D01*
G02X17039940Y170210I15582J46839D01*
G02X17036340Y172710I5853J12270D01*
G02X17034360Y175720I5789J5965D01*
G02X17033660Y179500I9900J3788D01*
G02X17034560Y183080I7585J-4D01*
G02X17037270Y186890I16388J-8788D01*
G02X17041000Y190070I14878J-13674D01*
G02X17044990Y191810I6992J-10589D01*
G02X17051010Y192520I5917J-24293D01*
G02X17056550Y191650I-66J-18492D01*
G37*
G36*
G01X17132870Y426440D02*
G02X17139060Y424050I-3473J-18206D01*
G02X17142740Y419900I-4926J-8075D01*
G02X17144030Y416680I-34899J-15850D01*
G02X17143930Y415190I-1793J-628D01*
G02X17142820Y414410I-1296J664D01*
G02X17139840Y414210I-3018J22673D01*
G02X17137850Y414310I-28J19290D01*
G02X17136510Y414660I516J4715D01*
G02X17135730Y415240I762J1839D01*
G02X17135440Y416050I998J814D01*
G03X17134850Y417620I-2373J4D01*
G03X17133090Y419090I-5591J-4906D01*
G03X17130640Y420140I-5119J-8561D01*
G03X17128010Y420490I-2599J-9472D01*
G03X17126870Y420260I-19J-2848D01*
G03X17125570Y419520I3069J-6904D01*
G03X17124300Y418450I5136J-7385D01*
G03X17123280Y417190I5888J-5809D01*
G03X17122010Y415090I27295J-17941D01*
G03X17121810Y414020I1529J-839D01*
G03X17122290Y413070I1598J211D01*
G03X17124020Y411540I18393J19055D01*
G03X17125330Y410630I6529J8002D01*
G03X17126860Y409870I6893J11956D01*
G03X17128380Y409330I4984J11619D01*
G03X17129610Y409160I1255J4542D01*
G02X17133500Y408460I-137J-11921D01*
G02X17138210Y406360I-11209J-31472D01*
G02X17142390Y403660I-15663J-28835D01*
G02X17144430Y401110I-4040J-5323D01*
G02X17145210Y397640I-7917J-3602D01*
G02X17144650Y393820I-12002J-192D01*
G02X17142850Y390190I-12621J3997D01*
G02X17140050Y387320I-10439J7383D01*
G02X17137800Y386000I-7218J9725D01*
G02X17135350Y385200I-4769J10454D01*
G02X17132090Y384800I-4210J20828D01*
G02X17127070Y384680I-5117J108993D01*
G02X17121370Y384780I12J163163D01*
G02X17118600Y385210I394J11676D01*
G02X17116660Y386220I1511J5271D01*
G02X17114600Y388210I9788J12194D01*
G02X17113440Y389780I9806J8458D01*
G02X17112460Y391600I13643J8520D01*
G02X17111780Y393380I12956J5969D01*
G02X17111570Y394800I4638J1411D01*
G02X17111740Y396460I7904J29D01*
G02X17112320Y397340I1433J-313D01*
G02X17113470Y397770I1363J-1893D01*
G02X17115830Y397880I2375J-25580D01*
G02X17118080Y397740I-53J-19000D01*
G02X17119420Y397270I-392J-3264D01*
G02X17120270Y396350I-1231J-1990D01*
G02X17120880Y394750I-6660J-3456D01*
G03X17123000Y391840I4660J1168D01*
G03X17127180Y390380I5339J8571D01*
G03X17131690Y390830I1222J10578D01*
G03X17134680Y393160I-1714J5282D01*
G03X17135280Y395650I-3412J2139D01*
G03X17134230Y397920I-3663J-316D01*
G03X17131230Y399960I-6779J-6743D01*
G03X17126080Y401830I-18262J-42267D01*
G02X17120280Y404010I12468J41977D01*
G02X17116150Y406660I7298J15918D01*
G02X17113690Y409750I6930J8041D01*
G02X17112820Y413260I6657J3513D01*
G02X17113220Y416690I15157J-29D01*
G02X17114390Y419570I9669J-2250D01*
G02X17116440Y422050I9289J-5592D01*
G02X17119500Y424330I13979J-15568D01*
G02X17125770Y426590I8685J-14269D01*
G02X17132870Y426440I3105J-21130D01*
G37*
G36*
G01X17239150Y743350D02*
G02X17239230Y743410I106J-58D01*
G02X17240370Y743170I250J-1638D01*
G01X17255190Y733810D01*
X17270100Y724360D01*
G02X17270510Y723610I-466J-742D01*
G02X17270330Y722980I-1289J28D01*
G02X17268680Y720190I-257001J150107D01*
G02X17266690Y716950I-133115J79528D01*
G02X17264320Y713270I-227170J143699D01*
G03X17255730Y699760I488710J-320220D01*
G03X17246590Y684590I745341J-459410D01*
G03X17238490Y670590I914765J-538600D01*
G03X17235460Y664280I43205J-24629D01*
G03X17234450Y661220I26742J-10523D01*
G03X17233900Y658360I18557J-5051D01*
G03X17233780Y655320I21166J-2358D01*
G03X17234040Y651720I42234J1241D01*
G03X17236030Y638610I192686J22542D01*
G03X17239360Y622320I466201J86815D01*
G03X17243840Y603590I604070J134586D01*
G03X17249390Y582900I916025J234630D01*
G01X17252640Y571280D01*
X17259700Y571270D01*
X17266750D01*
X17279310Y546790D01*
G03X17284240Y537360I617128J316630D01*
G03X17288640Y529320I338922J180256D01*
G03X17292530Y522480I813334J458028D01*
G03X17293440Y521700I1553J891D01*
G03X17294180Y521520I1104J2926D01*
G03X17295080Y521470I796J6194D01*
G03X17296000Y521560I-170J6488D01*
G03X17296800Y521780I-687J4063D01*
G03X17298930Y523860I-1355J3518D01*
G03X17302020Y531940I-142638J59179D01*
G03X17304800Y541080I-110160J38499D01*
G03X17306540Y549640I-79036J20523D01*
G03X17307210Y558510I-60892J9060D01*
G03X17306490Y566700I-45106J161D01*
G03X17304170Y575480I-56373J-10199D01*
G03X17299900Y586240I-140668J-49595D01*
G01X17294680Y598070D01*
X17297380Y621430D01*
G03X17298410Y630700I-1139247J131275D01*
G03X17299280Y639220I-813158J87338D01*
G03X17299940Y646370I-894130J86141D01*
G03X17300060Y649190I-30741J2721D01*
G02X17300410Y651820I9851J27D01*
G02X17301450Y654340I10616J-2907D01*
G02X17303490Y657340I19768J-11248D01*
G02X17307180Y661760I103986J-83062D01*
G03X17313620Y669410I-199585J174552D01*
G03X17319480Y676980I-173141J140083D01*
G03X17324190Y683590I-179704J133033D01*
G03X17325820Y686920I-10431J7170D01*
G02X17326200Y687870I7062J-2274D01*
G02X17326670Y688670I4656J-2198D01*
G02X17327170Y689220I2868J-2105D01*
G02X17327610Y689390I441J-486D01*
G02X17328680Y689100I6J-2097D01*
G01X17355320Y673310D01*
X17380830Y658160D01*
G02X17384150Y655870I-15107J-25454D01*
G02X17384310Y654410I-647J-810D01*
G02X17374680Y642530I-1279476J1027308D01*
G02X17363450Y629260I-421735J345514D01*
G02X17350420Y614670I-656523J573213D01*
G03X17339900Y601290I85353J-77935D01*
G03X17332940Y588070I57193J-38553D01*
G03X17329040Y573770I62985J-24860D01*
G03X17327720Y557140I106681J-16835D01*
G03X17327740Y552930I280162J-774D01*
G03X17327830Y549380I141780J1818D01*
G03X17327960Y546320I487078J19160D01*
G03X17328130Y546150I174J4D01*
G03X17330820Y546680I1J7086D01*
G03X17333780Y548280I-5907J14466D01*
G03X17336400Y550540I-9335J13471D01*
G03X17338120Y553050I-7193J6773D01*
G02X17340980Y557800I25628J-12195D01*
G02X17345240Y562870I45783J-34144D01*
G02X17349850Y567220I39929J-37698D01*
G02X17353730Y569590I9723J-11557D01*
G02X17359800Y571080I7800J-18667D01*
G02X17366020Y570650I1746J-19952D01*
G02X17372480Y568190I-5707J-24700D01*
G02X17379250Y563710I-22897J-41956D01*
G01X17384090Y559880D01*
X17443130Y619660D01*
X17449550Y616100D01*
G02X17452910Y614180I-78790J-141783D01*
G02X17458090Y611130I-447800J-766450D01*
G02X17463910Y607630I-509966J-854589D01*
G02X17469600Y604160I-478548J-791109D01*
G03X17478810Y598550I899948J1467090D01*
G01X17506740Y581630D01*
X17540010Y561510D01*
X17576870Y539240D01*
G02X17613950Y516720I-4742709J-7850830D01*
G02X17643360Y498580I-1946310J-3188423D01*
G01X17668350Y482980D01*
G02X17668220Y482310I-192J-310D01*
G02X17662990Y481900I-4870J28565D01*
G01X17373950Y485720D01*
X17083000Y489580D01*
G02X17081790Y490070I15J1776D01*
G02X17081760Y490280I118J124D01*
G01X17084140Y494290D01*
G02X17086860Y498790I350720J-208919D01*
G02X17090130Y504090I682501J-417431D01*
G01X17116570Y546530D01*
X17151760Y603040D01*
X17186280Y658480D01*
X17209610Y695970D01*
X17230480Y729460D01*
X17239150Y743350D01*
G37*
G36*
G01X17546330Y1190760D02*
Y1114110D01*
X17527480D01*
Y1152430D01*
Y1190760D01*
X17546330D01*
G37*
G36*
G01X17517430D02*
Y1175680D01*
X17494810D01*
Y1114110D01*
X17475970D01*
Y1175680D01*
X17454610D01*
Y1183220D01*
Y1190760D01*
X17517430D01*
G37*
G36*
G01X17229680D02*
Y1175680D01*
X17208320D01*
Y1114110D01*
X17189470D01*
Y1175680D01*
X17166860D01*
Y1183220D01*
Y1190760D01*
X17229680D01*
G37*
G36*
G01X17297540D02*
Y1175680D01*
X17274920D01*
Y1114110D01*
X17256070D01*
Y1175680D01*
X17234710D01*
Y1183220D01*
Y1190760D01*
X17297540D01*
G37*
G36*
G01X17401330D02*
X17413120Y1165940D01*
G03X17417720Y1156340I1721169J818825D01*
G03X17421750Y1148060I964299J464218D01*
G03X17425280Y1140920I2558587J1260517D01*
G03X17425940Y1139930I4304J2155D01*
G03X17426350Y1140070I177J152D01*
G03X17426660Y1146730I-617298J32070D01*
G03X17426890Y1154850I-307160J12764D01*
G03X17426960Y1164750I-670435J9691D01*
G01Y1190760D01*
X17444550D01*
Y1114020D01*
X17431950Y1114380D01*
X17419340Y1114730D01*
X17393660Y1169810D01*
X17393320Y1141960D01*
X17392990Y1114110D01*
X17375440D01*
Y1152430D01*
Y1190760D01*
X17401330D01*
G37*
G36*
G01X17359110D02*
Y1175680D01*
X17326670D01*
X17326240Y1168760D01*
X17325810Y1161850D01*
X17341200D01*
X17356590Y1161860D01*
Y1145390D01*
X17341520Y1145600D01*
G03X17335740Y1145620I-3933J-301318D01*
G03X17330870Y1145520I694J-152429D01*
G03X17326730Y1145340I15590J-406259D01*
G03X17326440Y1145040I13J-302D01*
G03Y1144480I248726J-280D01*
G01Y1129060D01*
X17343090Y1129270D01*
X17359740Y1129470D01*
X17360480Y1114110D01*
X17306330D01*
Y1152430D01*
Y1190760D01*
X17359110D01*
G37*
G36*
G01X17603410Y1191260D02*
G02X17613890Y1188110I-8152J-46131D01*
G02X17621410Y1182910I-9296J-21480D01*
G02X17629010Y1170150I-23206J-22465D01*
G02X17631750Y1152950I-56844J-17874D01*
G02X17629410Y1136000I-57645J-678D01*
G02X17622100Y1123980I-26227J7717D01*
G02X17616900Y1119650I-33717J35204D01*
G02X17611930Y1116870I-14467J20032D01*
G02X17606290Y1115230I-10233J24672D01*
G02X17599000Y1114370I-11142J63124D01*
G02X17586530Y1114960I-3471J58719D01*
G02X17576260Y1118320I5112J33000D01*
G02X17568280Y1124470I13040J25173D01*
G02X17562540Y1133280I24837J22457D01*
G02X17561030Y1137260I34398J15327D01*
G02X17560150Y1141000I24002J7621D01*
G02X17559710Y1145570I39457J6105D01*
G02X17559560Y1152460I191353J7613D01*
G02X17559670Y1160110I227139J560D01*
G02X17560160Y1164430I26730J-844D01*
G02X17561300Y1168210I19574J-3841D01*
G02X17563690Y1173500I81605J-33684D01*
G02X17567220Y1179620I47360J-23239D01*
G02X17571030Y1184050I20718J-13965D01*
G02X17575610Y1187340I15568J-16839D01*
G02X17581520Y1189940I18588J-34236D01*
G02X17591960Y1191970I12382J-35819D01*
G02X17603410Y1191260I2589J-50936D01*
G37*
G36*
G01X17117660Y1190380D02*
G02X17120960Y1190670I4406J-31218D01*
G02X17125800Y1190760I4955J-136279D01*
G01X17136340D01*
X17149030Y1154550D01*
X17153960Y1140520D01*
X17158240Y1128340D01*
X17161950Y1117820D01*
G03X17162560Y1116170I61176J21679D01*
G02X17162520Y1115060I-1322J-508D01*
G02X17161690Y1114410I-1062J501D01*
G02X17159440Y1114200I-2080J10126D01*
G02X17153660Y1114370I6070J304740D01*
G01X17143910Y1114730D01*
X17138570Y1129810D01*
X17125150Y1130020D01*
X17111720Y1130240D01*
X17108830Y1122170D01*
X17105940Y1114110D01*
X17096680D01*
G02X17091230Y1114160I-359J257870D01*
G02X17089080Y1114470I232J9221D01*
G02X17088310Y1115160I285J1093D01*
G02X17088320Y1116310I1467J562D01*
G03X17089810Y1120170I-98552J40260D01*
G01X17099490Y1146900D01*
X17108590Y1172090D01*
G03X17114700Y1189190I-3750800J1349840D01*
G02X17115470Y1189910I1086J-389D01*
G02X17117660Y1190380I4458J-15436D01*
G37*
G36*
G01X17671960Y1190760D02*
X17681480Y1170970D01*
G02X17685320Y1162950I-1873637J-902032D01*
G02X17688960Y1155230I-1600798J-759499D01*
G02X17692040Y1148660I-1492240J-703566D01*
G02X17693590Y1145210I-130473J-60691D01*
G03X17694630Y1142920I55618J23878D01*
G03X17695640Y1140990I30650J14811D01*
G03X17696550Y1139470I36950J21089D01*
G03X17696960Y1139240I412J254D01*
G03X17697280Y1139550I2J318D01*
G03X17697410Y1146800I-1978001J39094D01*
G03X17697470Y1155120I-435300J7299D01*
G03X17697380Y1165000I-861652J-2909D01*
G01X17697020Y1190760D01*
X17715340D01*
X17714990Y1152430D01*
X17714640Y1114110D01*
X17690210D01*
X17677640Y1141220D01*
G03X17672760Y1151660I-1390294J-643509D01*
G03X17668490Y1160550I-744633J-352188D01*
G03X17664690Y1168310I-2907880J-1419152D01*
G03X17664130Y1168940I-1408J-687D01*
G03X17663750Y1168740I-133J-209D01*
G03X17663470Y1161220I1305506J-52374D01*
G03X17663260Y1152410I400495J-13954D01*
G03X17663190Y1141820I829998J-10782D01*
G01Y1114110D01*
X17645600D01*
Y1152430D01*
Y1190760D01*
X17671960D01*
G37*
G36*
G01X18241820Y256530D02*
G02X18246740Y256610I4868J-148078D01*
G02X18252410Y256560I527J-261793D01*
G01X18267070Y256250D01*
X18268140Y163950D01*
X18324010D01*
Y137980D01*
X18236100D01*
Y196590D01*
G02X18236160Y219120I4246316J-43D01*
G02X18236340Y238230I2207581J-11238D01*
G01X18236590Y255230D01*
G02X18236930Y256030I1158J-20D01*
G02X18237660Y256360I792J-779D01*
G02X18241820Y256530I13539J-280322D01*
G37*
G36*
G01X18162590Y259390D02*
G02X18176020Y257450I-4920J-81518D01*
G02X18187140Y253380I-10743J-46578D01*
G02X18199990Y244670I-29338J-57116D01*
G02X18209160Y233740I-30346J-34771D01*
G02X18214920Y220000I-43753J-26419D01*
G02X18217620Y202910I-89114J-22837D01*
G02X18216760Y182330I-98845J-6177D01*
G02X18211430Y165090I-58431J8621D01*
G02X18201630Y151380I-45335J22048D01*
G02X18187600Y141200I-39653J39892D01*
G02X18175080Y136720I-23520J45996D01*
G02X18160460Y134970I-16433J75342D01*
G02X18145660Y136030I-1841J78149D01*
G02X18132620Y139910I9229J54869D01*
G02X18123410Y145260I18786J42943D01*
G02X18114870Y152920I37496J50394D01*
G02X18107900Y161960I45588J42356D01*
G02X18103380Y171410I37554J23768D01*
G02X18100870Y182900I48989J16721D01*
G02X18100210Y197820I131553J13294D01*
G02X18101240Y212660I131732J-1687D01*
G02X18104020Y223840I48175J-6044D01*
G02X18109590Y235290I66580J-25309D01*
G02X18116610Y244190I38529J-23172D01*
G02X18125640Y251040I31468J-32105D01*
G02X18137190Y256390I35583J-61677D01*
G02X18148950Y259080I17105J-47729D01*
G02X18162590Y259390I8686J-81947D01*
G37*
G36*
G01X18001220Y256520D02*
G02X18014430Y256510I6287J-419758D01*
G02X18017730Y255110I-80J-4778D01*
G02X18018690Y253480I-2699J-2687D01*
G02X18022080Y241710I-1866363J-543924D01*
G02X18026610Y225370I-1216744J-346121D01*
G02X18033570Y199430I-7141957J-1930173D01*
G03X18037110Y186980I376582J100348D01*
G03X18039840Y179850I50326J15182D01*
G03X18041290Y179310I1000J468D01*
G03X18042290Y180860I-696J1546D01*
G02X18042900Y185390I17044J11D01*
G02X18052160Y218820I13985630J-3855976D01*
G01X18061710Y253070D01*
G02X18062980Y255250I4793J-1333D01*
G02X18065930Y256490I2995J-2997D01*
G02X18079320Y256470I5870J-552316D01*
G02X18092950Y256160I-10149J-746019D01*
G02X18094240Y254830I-41J-1330D01*
G02X18093990Y253310I-4898J25D01*
G02X18090070Y241380I-4884376J1598316D01*
G02X18085490Y227710I-1532032J505690D01*
G02X18080050Y211870I-2769679J942349D01*
G01X18074220Y195030D01*
X18068450Y178270D01*
X18063460Y163690D01*
G03X18060500Y154960I1523492J-521423D01*
G01X18055130Y138980D01*
X18041410Y138380D01*
G02X18036040Y138270I-5110J118308D01*
G02X18031250Y138430I109J75040D01*
G02X18027350Y138780I5257J80480D01*
G02X18026090Y139390I244J2111D01*
G02X18024170Y142450I5689J5702D01*
G01X18005540Y196400D01*
X17987140Y249840D01*
G02X17986340Y254640I14018J4803D01*
G02X17987790Y256160I1515J7D01*
G02X18001220Y256520I21650J-556985D01*
G37*
G36*
G01X17723510Y191800D02*
Y184260D01*
X17704660D01*
Y175470D01*
X17722250D01*
Y167930D01*
X17704660D01*
Y156620D01*
X17723510D01*
Y149000D01*
X17709370Y149350D01*
X17695230Y149710D01*
X17694890Y170760D01*
X17694540Y191800D01*
X17723510D01*
G37*
G36*
G01X17704060Y426530D02*
G02X17706170Y426720I3742J-29750D01*
G02X17708500Y426780I2312J-44504D01*
G01X17714440D01*
X17730840Y393480D01*
X17730940Y410210D01*
X17731050Y426940D01*
X17735130Y426540D01*
X17739210Y426150D01*
X17739560Y405100D01*
X17739900Y384050D01*
X17726450D01*
X17718080Y401960D01*
X17709720Y419870D01*
X17709680Y384050D01*
X17700890D01*
Y404580D01*
G02X17700950Y412500I518629J31D01*
G02X17701130Y419320I285093J-4112D01*
G02X17701390Y425170I728779J-29459D01*
G02X17701730Y425940I1165J-54D01*
G02X17702350Y426270I840J-831D01*
G02X17704060Y426530I5255J-28806D01*
G37*
G36*
G01X17755300Y192900D02*
G02X17758110Y192550I155J-10211D01*
G02X17761560Y191370I-7154J-26551D01*
G02X17764710Y189770I-9320J-22250D01*
G02X17766860Y188000I-4915J-8161D01*
G02X17768340Y185750I-6475J-5871D01*
G02X17769410Y182690I-16451J-7470D01*
G02X17769810Y180610I-19131J-4758D01*
G02X17769520Y179740I-1031J-140D01*
G02X17768610Y179320I-1004J979D01*
G02X17766030Y179240I-2502J39052D01*
G02X17763930Y179380I-43J15182D01*
G02X17762450Y179850I638J4574D01*
G02X17761380Y180720I1566J3019D01*
G02X17760560Y182060I4477J3660D01*
G03X17758410Y184360I-4338J-1900D01*
G03X17754710Y185450I-4634J-8906D01*
G03X17750990Y185050I-873J-9382D01*
G03X17748720Y183170I1176J-3730D01*
G03X17748000Y180350I5411J-2884D01*
G03X17748900Y178100I3163J-40D01*
G03X17751790Y176180I5982J5869D01*
G03X17757500Y174190I24864J62157D01*
G02X17765120Y171160I-13169J-44214D01*
G02X17769550Y167400I-5585J-11070D01*
G02X17771020Y162810I-6197J-4515D01*
G02X17769800Y157320I-13536J128D01*
G02X17767820Y154350I-10149J4621D01*
G02X17764950Y152050I-9143J8468D01*
G02X17761120Y150440I-8235J14230D01*
G02X17756290Y149490I-8559J30765D01*
G02X17748930Y149550I-3445J28895D01*
G02X17742810Y151590I2360J17281D01*
G02X17738790Y155270I5734J10300D01*
G02X17737330Y160040I7028J4760D01*
G02X17737520Y161550I5966J16D01*
G02X17738120Y162380I1373J-361D01*
G02X17739330Y162800I1445J-2210D01*
G02X17741730Y162900I2348J-27512D01*
G02X17743460Y162800I22J-14631D01*
G02X17744870Y162480I-855J-7033D01*
G02X17745820Y162010I-1203J-3627D01*
G02X17746120Y161430I-401J-575D01*
G03X17746730Y159440I3562J3D01*
G03X17748550Y157410I8199J5520D01*
G03X17750960Y155880I6886J8184D01*
G03X17753310Y155360I2356J5078D01*
G03X17756320Y155730I-13J12537D01*
G03X17758880Y156810I-2123J8606D01*
G03X17760590Y158410I-3244J5180D01*
G03X17761200Y160280I-2574J1874D01*
G03X17760650Y162420I-4432J2D01*
G03X17759110Y164160I-4659J-2572D01*
G03X17756260Y165700I-7249J-10008D01*
G03X17751480Y167320I-23921J-62719D01*
G02X17745440Y169550I14208J47778D01*
G02X17741530Y172110I5828J13168D01*
G02X17739350Y175250I5915J6433D01*
G02X17738580Y179190I9699J3941D01*
G02X17739160Y183260I14649J-11D01*
G02X17740850Y186550I9283J-2689D01*
G02X17743770Y189150I8696J-6826D01*
G02X17748010Y191170I11806J-19321D01*
G02X17752270Y192480I18047J-51104D01*
G02X17755300Y192900I3231J-12167D01*
G37*
G36*
G01X17761210Y426190D02*
G02X17763970Y426620I6335J-31590D01*
G02X17766520Y426770I2610J-22613D01*
G02X17769700Y426610I37J-30939D01*
G02X17772020Y426080I-1021J-9812D01*
G02X17774020Y425060I-2836J-8032D01*
G02X17776160Y423320I-10941J-15642D01*
G02X17777640Y421790I-13881J-14909D01*
G02X17779010Y420050I-18212J-15749D01*
G02X17780100Y418360I-17294J-12350D01*
G02X17780670Y417040I-5016J-2949D01*
G02X17780960Y415440I-8116J-2297D01*
G02X17780610Y414660I-875J-76D01*
G02X17779580Y414290I-1130J1527D01*
G02X17776880Y414210I-2765J47723D01*
G02X17774560Y414330I0J22486D01*
G02X17773110Y414740I454J4374D01*
G02X17772190Y415520I1054J2176D01*
G02X17771620Y416740I3038J2163D01*
G03X17769230Y419460I-3916J-1031D01*
G03X17764630Y420140I-3684J-9024D01*
G03X17760340Y418610I873J-9229D01*
G03X17758690Y415520I2069J-3090D01*
G03X17759390Y413370I3639J-4D01*
G03X17761440Y411380I6980J5140D01*
G03X17764630Y409710I8171J11725D01*
G03X17768740Y408530I9761J26252D01*
G02X17775810Y406200I-6507J-31636D01*
G02X17780220Y402620I-4853J-10484D01*
G02X17781850Y397920I-6600J-4922D01*
G02X17780810Y392340I-13530J-365D01*
G02X17778190Y388440I-11204J4697D01*
G02X17774270Y385770I-8926J8892D01*
G02X17768950Y384400I-7051J16365D01*
G02X17762200Y384320I-3845J39620D01*
G02X17756480Y385320I2059J28639D01*
G02X17752200Y387410I3588J12775D01*
G02X17749580Y390480I5325J7198D01*
G02X17748640Y394330I7389J3844D01*
G02X17748790Y396340I13527J1D01*
G02X17749340Y397310I1521J-221D01*
G02X17750480Y397770I1321J-1632D01*
G02X17753030Y397880I2565J-29860D01*
G02X17755230Y397770I-75J-23550D01*
G02X17756510Y397400I-318J-3500D01*
G02X17757190Y396700I-699J-1359D01*
G02X17757430Y395610I-2283J-1074D01*
G03X17757940Y393340I5376J15D01*
G03X17759340Y391670I3815J1776D01*
G03X17761690Y390660I3591J5115D01*
G03X17764970Y390340I3246J16306D01*
G03X17768270Y390670I-5J16710D01*
G03X17770620Y391680I-1208J6050D01*
G03X17772010Y393370I-2431J3416D01*
G03X17772510Y395680I-5085J2310D01*
G03X17771920Y397290I-2508J-6D01*
G03X17770260Y398660I-4475J-3731D01*
G03X17766740Y400290I-13838J-25267D01*
G03X17758350Y403440I-220856J-575500D01*
G02X17752930Y406410I7228J19621D01*
G02X17749960Y410360I5399J7151D01*
G02X17749600Y415190I7965J3022D01*
G02X17751780Y420720I18010J-3905D01*
G02X17752520Y421670I4073J-2410D01*
G02X17753770Y422790I12149J-12302D01*
G02X17755270Y423890I12408J-15348D01*
G02X17756810Y424800I9309J-13996D01*
G02X17758670Y425550I4828J-9293D01*
G02X17761210Y426190I8495J-28354D01*
G37*
G36*
G01X18326070Y447680D02*
X18325010Y328960D01*
X18310030Y329030D01*
X18295040Y329100D01*
X18294510Y388390D01*
X18293980Y447680D01*
X18326070D01*
G37*
G36*
G01X18361200Y255400D02*
X18410380Y254860D01*
X18410930Y231880D01*
X18376960Y231890D01*
X18377530Y184930D01*
X18378100Y137980D01*
X18345990D01*
Y231890D01*
X18312020D01*
Y243910D01*
Y255930D01*
X18361200Y255400D01*
G37*
G36*
G01X18200130Y447680D02*
Y405720D01*
X18240090D01*
Y447680D01*
X18272120D01*
X18271590Y388230D01*
X18271060Y328790D01*
X18256080Y329040D01*
X18241090Y329300D01*
X18239970Y377740D01*
X18200130D01*
Y353270D01*
X18200120Y328790D01*
X18184140Y328700D01*
X18168160Y328600D01*
Y388140D01*
Y447680D01*
X18200130D01*
G37*
G36*
G01X18360390Y1211720D02*
G02X18364080Y1212650I5244J-13023D01*
G02X18369280Y1212930I5152J-47255D01*
G02X18374810Y1212610I11J-47760D01*
G02X18378450Y1211540I-1279J-11077D01*
G02X18381850Y1209200I-6337J-12847D01*
G02X18386790Y1204300I-70557J-76073D01*
G02X18391060Y1199030I-32501J-30699D01*
G02X18398090Y1188560I-377100J-260796D01*
G02X18405980Y1176040I-420488J-273734D01*
G02X18413790Y1162840I-494618J-301560D01*
G01X18421740Y1149030D01*
X18430020Y1134670D01*
X18437480Y1121760D01*
G03X18442540Y1113030I2796897J1615280D01*
G01X18452750Y1095480D01*
X18466460Y1071880D01*
X18481450Y1046050D01*
X18495900Y1021120D01*
X18502950Y1008960D01*
X18514000Y989920D01*
X18526510Y968380D01*
X18538820Y947190D01*
X18562870Y905810D01*
X18574610Y885600D01*
X18584610Y868380D01*
X18599150Y843290D01*
X18608010Y828020D01*
X18620200Y807040D01*
X18633380Y784380D01*
X18645600Y763370D01*
X18657320Y743240D01*
X18668960Y723220D01*
X18679080Y705820D01*
X18685100Y695440D01*
X18691200Y684930D01*
X18701690Y666910D01*
X18713810Y646090D01*
X18726110Y625000D01*
G02X18746770Y588860I-2169272J-1264074D01*
G02X18754350Y572540I-102319J-57444D01*
G02X18755990Y562090I-24692J-9229D01*
G02X18753030Y552960I-18177J848D01*
G02X18751240Y550680I-14172J9284D01*
G02X18748680Y548180I-28130J26244D01*
G02X18745820Y545870I-26508J29894D01*
G02X18743090Y544120I-14381J19430D01*
G02X18734260Y541780I-9174J16790D01*
G01X18005320Y540590D01*
X17997040Y545330D01*
G02X17988940Y551980I15686J27364D01*
G02X17984830Y560110I13939J12150D01*
G02X17984890Y569850I21352J4739D01*
G02X17989050Y581260I49634J-11633D01*
G02X17991610Y586130I157762J-79823D01*
G02X17995780Y593680I874223J-477922D01*
G02X18000570Y602190I975617J-543539D01*
G02X18005370Y610520I911487J-519678D01*
G01X18010570Y619480D01*
X18016610Y629910D01*
X18022530Y640160D01*
X18027330Y648480D01*
X18032550Y657560D01*
X18245130Y1025120D01*
X18254490Y1041350D01*
X18264050Y1057920D01*
X18272540Y1072590D01*
G02X18278050Y1082060I2828747J-1639533D01*
G03X18291850Y1105760I-12450986J7265809D01*
G01X18308090Y1133740D01*
X18323610Y1160550D01*
G03X18334800Y1179970I-6539600J3781118D01*
G02X18339690Y1188090I197650J-113496D01*
G02X18344900Y1195980I190702J-120261D01*
G02X18349730Y1202670I164126J-113406D01*
G02X18353090Y1206440I24595J-18538D01*
G02X18357080Y1209840I33395J-35149D01*
G02X18360390Y1211720I8553J-11204D01*
G37*
G36*
G01X18734520Y256910D02*
X18746570Y257210D01*
G03X18746940Y257400I-9J473D01*
G02X18747220Y257530I250J-171D01*
G02X18748100Y257370I-1594J-11269D01*
G02X18749200Y257080I-2569J-11974D01*
G02X18750430Y256650I-6487J-20530D01*
G02X18751940Y255420I-1114J-2909D01*
G02X18752910Y253160I-6326J-4053D01*
G02X18753440Y249510I-19121J-4640D01*
G02X18753590Y243710I-111603J-5788D01*
G01Y231990D01*
X18694650Y230890D01*
X18693430Y211910D01*
X18749110D01*
X18748710Y199750D01*
X18748320Y187600D01*
X18721480Y187260D01*
X18694650Y186930D01*
X18693450Y163950D01*
X18755590D01*
Y137980D01*
X18663680D01*
Y255780D01*
X18705140Y256360D01*
G03X18721060Y256620I-55702J3898196D01*
G03X18734520Y256910I-36428J2003257D01*
G37*
G36*
G01X18451520Y255310D02*
G02X18456820Y255590I5157J-47311D01*
G02X18465240Y255440I-763J-279238D01*
G01X18482650Y254860D01*
X18493060Y224890D01*
X18497780Y211350D01*
X18503370Y195360D01*
X18508930Y179510D01*
X18513540Y166450D01*
X18523600Y137980D01*
X18490050D01*
X18483130Y159960D01*
X18444410D01*
X18441490Y149470D01*
X18438580Y138980D01*
X18422000Y138390D01*
G02X18412030Y138130I-19852J569954D01*
G02X18408200Y138460I-344J18396D01*
G02X18406730Y139530I409J2107D01*
G02X18406550Y141390I2082J1140D01*
G02X18407440Y144050I68052J-21291D01*
G01X18412970Y159470D01*
X18419410Y177370D01*
X18426830Y197920D01*
X18434240Y218400D01*
X18440630Y236070D01*
X18446200Y251460D01*
G03X18446910Y253440I-444529J160519D01*
G02X18448190Y254660I1833J-641D01*
G02X18451520Y255310I5387J-18742D01*
G37*
G36*
G01X18591010Y259510D02*
G02X18602550Y258760I-3694J-146000D01*
G02X18610240Y257010I-3472J-33029D01*
G02X18620540Y251930I-16749J-46942D01*
G02X18629140Y244720I-24657J-38145D01*
G02X18635850Y235480I-34556J-32151D01*
G02X18640580Y224390I-51033J-28320D01*
G02X18640850Y221820I-6307J-1962D01*
G02X18639800Y220500I-1541J148D01*
G02X18636780Y219980I-3188J9486D01*
G02X18627230Y219900I-9400J552090D01*
G02X18618110Y220050I-65J273343D01*
G02X18613980Y220750I551J15783D01*
G02X18611140Y222390I2116J6943D01*
G02X18608120Y225800I17491J18533D01*
G03X18603700Y230080I-15144J-11217D01*
G03X18597770Y233150I-14758J-21244D01*
G03X18591100Y234650I-9241J-25513D01*
G03X18584510Y234350I-2232J-23508D01*
G03X18573010Y228860I4603J-24431D01*
G03X18564710Y218030I20858J-24581D01*
G03X18560800Y203180I38159J-17987D01*
G03X18561900Y186370I60396J-4489D01*
G03X18568720Y171120I38209J7938D01*
G03X18580810Y161780I22448J16563D01*
G03X18595080Y160720I8814J22079D01*
G03X18608040Y167940I-6217J26401D01*
G03X18613400Y174090I-42293J42271D01*
G03X18613560Y177460I-2380J1802D01*
G03X18610280Y179500I-3680J-2261D01*
G03X18600640Y179940I-9637J-105315D01*
G01X18587560D01*
X18588160Y191430D01*
X18588750Y202910D01*
X18615230Y203470D01*
X18641700Y204030D01*
Y137980D01*
X18631710D01*
G02X18625320Y138100I-109J164366D01*
G02X18623050Y138780I192J4771D01*
G02X18622000Y140340I1141J1901D01*
G02X18621720Y143970I23274J3621D01*
G03X18621670Y146270I-45996J151D01*
G03X18621490Y148210I-23626J-1214D01*
G03X18621240Y149710I-23891J-3211D01*
G03X18620920Y149970I-318J-65D01*
G03X18620370Y149810I8J-1053D01*
G03X18617310Y147910I255219J-414451D01*
G03X18613780Y145650I108528J-173402D01*
G03X18609730Y142970I199485J-305860D01*
G02X18602250Y138680I-33544J49821D01*
G02X18595410Y136360I-12948J26931D01*
G02X18587370Y135510I-8224J39338D01*
G02X18575770Y135860I-881J163206D01*
G02X18564090Y138490I2591J38758D01*
G02X18553080Y144620I17428J44255D01*
G02X18543360Y153950I32837J43938D01*
G02X18535480Y165950I54671J44488D01*
G02X18532990Y171700I39674J20595D01*
G02X18531620Y177190I28262J9969D01*
G02X18530980Y184440I58712J8836D01*
G02X18530810Y196920I461806J12532D01*
G02X18530980Y209450I467450J-76D01*
G02X18531620Y216670I58329J-1532D01*
G02X18533000Y222130I28988J-4422D01*
G02X18535530Y227890I42466J-15217D01*
G02X18542290Y238380I61524J-32225D01*
G02X18550480Y246810I43190J-33767D01*
G02X18560260Y253300I34934J-42029D01*
G02X18571770Y257990I31515J-60873D01*
G02X18579460Y259350I9418J-30833D01*
G02X18591010Y259510I7799J-146026D01*
G37*
G36*
G01X18493350Y447260D02*
X18508830Y446680D01*
X18509190Y426700D01*
X18509540Y406720D01*
X18550020Y405580D01*
X18549640Y426130D01*
X18549250Y446680D01*
X18564510Y447260D01*
X18579760Y447840D01*
Y330340D01*
X18566690Y329000D01*
G02X18561540Y328580I-13433J132929D01*
G02X18556890Y328400I-5728J87819D01*
G02X18553050Y328440I-920J96042D01*
G02X18551700Y328850I89J2721D01*
G02X18550940Y330070I856J1380D01*
G02X18550350Y336690I274148J27769D01*
G02X18549930Y344660I172144J13068D01*
G02X18549790Y353890I308089J9289D01*
G01Y377740D01*
X18529310Y377750D01*
X18508830D01*
X18509440Y354040D01*
X18510060Y330330D01*
X18495960Y328940D01*
G02X18490420Y328500I-14533J147882D01*
G02X18485420Y328320I-6000J97132D01*
G02X18481290Y328360I-1019J108058D01*
G02X18479860Y328790I86J2877D01*
G02X18478940Y330360I1019J1652D01*
G02X18478390Y345210I1833427J75340D01*
G02X18477990Y363870I797629J26432D01*
G02X18477860Y388940I2533257J25671D01*
G01Y447840D01*
X18493350Y447260D01*
G37*
G36*
G01X18431570Y444090D02*
G02X18446730Y431730I-23880J-44767D01*
G02X18455000Y415210I-31349J-26023D01*
G01X18456320Y409710D01*
X18441070D01*
G02X18431690Y409830I-54J362437D01*
G02X18427780Y410430I404J15675D01*
G02X18425580Y411860I1258J4342D01*
G02X18423950Y414610I7202J6127D01*
G03X18417900Y421710I-12990J-4942D01*
G03X18407300Y425160I-13419J-23220D01*
G03X18395400Y424100I-3231J-31058D01*
G03X18385850Y418600I6382J-22122D01*
G03X18381030Y412640I20857J-21797D01*
G03X18377770Y405560I27508J-16957D01*
G03X18375960Y396920I40806J-13058D01*
G03X18375480Y386280I89610J-9373D01*
G03X18376630Y375950I54030J786D01*
G03X18379730Y366670I41576J8731D01*
G03X18384430Y359300I30642J14357D01*
G03X18390330Y354570I14720J12316D01*
G03X18396570Y352480I9876J19125D01*
G03X18404310Y351890I6976J40456D01*
G03X18411960Y352770I-790J40560D01*
G03X18417940Y355100I-4129J19437D01*
G03X18421380Y357760I-8812J14950D01*
G03X18424680Y361630I-22689J22690D01*
G03X18427160Y365690I-24230J17588D01*
G03X18427910Y368850I-6250J3152D01*
G03X18427580Y369210I-362J0D01*
G03X18424100Y369490I-16775J-186724D01*
G03X18419900Y369690I-6703J-96567D01*
G03X18414920Y369750I-4786J-190562D01*
G01X18401940D01*
Y393730D01*
X18455880D01*
Y328580D01*
X18447390Y328990D01*
G02X18444030Y329160I29740J621096D01*
G02X18440950Y329330I22510J435814D01*
G02X18438380Y329500I31183J490918D01*
G02X18437400Y329590I894J15118D01*
G02X18436820Y330040I101J729D01*
G02X18436340Y331490I8877J3743D01*
G02X18436010Y333470I13624J3288D01*
G02X18435900Y335790I24579J2328D01*
G03X18435520Y339920I-22469J15D01*
G03X18434150Y341530I-2090J-391D01*
G03X18432150Y341110I-658J-1838D01*
G03X18429520Y338080I13794J-14629D01*
G02X18421600Y331480I-16294J11501D01*
G02X18408720Y327310I-23681J51167D01*
G02X18394050Y326150I-12419J63719D01*
G02X18380670Y328560I1677J47656D01*
G02X18371500Y332570I17208J51841D01*
G02X18363590Y338060I22619J41033D01*
G02X18356810Y345190I32026J37243D01*
G02X18351000Y354060I52283J40584D01*
G02X18347890Y360510I62595J34156D01*
G02X18346070Y366160I31325J13209D01*
G02X18345010Y372890I47981J11006D01*
G02X18344340Y383250I249454J21334D01*
G02X18344090Y393480I254130J11328D01*
G02X18344480Y400460I58026J259D01*
G02X18345650Y406490I40999J-4827D01*
G02X18347850Y413350I75109J-20305D01*
G02X18354660Y426440I56787J-21227D01*
G02X18364280Y437100I44992J-30932D01*
G02X18376380Y444920I35630J-41859D01*
G02X18390480Y449630I26604J-56181D01*
G02X18411810Y450420I13022J-63255D01*
G02X18431570Y444090I-7478J-57351D01*
G37*
%LPC*%
G75*
G36*
G01X17501290Y183630D02*
G03X17499200Y184110I-3159J-8967D01*
G03X17496480Y184260I-2703J-24281D01*
G01X17491040D01*
Y156620D01*
X17496130D01*
G03X17500380Y157350I-10J12795D01*
G03X17504020Y159440I-3859J10936D01*
G03X17506540Y162570I-6777J8035D01*
G03X17507560Y166300I-7997J4191D01*
G03X17507620Y171590I-62881J3359D01*
G03X17507130Y175760I-25398J-871D01*
G03X17506120Y179010I-15781J-3122D01*
G03X17504530Y181440I-7924J-3450D01*
G03X17503000Y182770I-6758J-6229D01*
G03X17501290Y183630I-4080J-5983D01*
G37*
G36*
G01X17473490Y340790D02*
G03X17471470Y341200I-5529J-22058D01*
G03X17469750Y341330I-1708J-11155D01*
G01X17465910D01*
Y312100D01*
X17471250Y312820D01*
G03X17476070Y314210I-2253J16863D01*
G03X17479510Y316840I-4060J8875D01*
G03X17481550Y320790I-7961J6613D01*
G03X17482230Y326010I-19311J5170D01*
G03X17481980Y331600I-67274J-208D01*
G03X17481170Y335180I-13303J-1128D01*
G03X17479620Y337630I-6771J-2568D01*
G03X17477130Y339500I-6885J-6575D01*
G03X17475490Y340200I-5700J-11083D01*
G03X17473490Y340790I-7522J-21812D01*
G37*
G36*
G01X17671750Y420430D02*
G03X17668130Y419560I457J-9867D01*
G03X17665020Y417410I4342J-9606D01*
G03X17663380Y415390I8949J-8942D01*
G03X17662470Y413350I5805J-3813D01*
G03X17662050Y410550I13020J-3385D01*
G03X17661940Y405640I107920J-4874D01*
G03X17662460Y398450I49244J-52D01*
G03X17664210Y393830I11456J1698D01*
G03X17667300Y391250I5721J3712D01*
G03X17671880Y390340I4562J10982D01*
G03X17676060Y391030I24J12863D01*
G03X17678980Y393050I-2144J6220D01*
G03X17680830Y396660I-7137J5936D01*
G03X17681770Y402240I-32232J8299D01*
G03X17681980Y407820I-60152J5058D01*
G03X17681490Y412000I-20009J-227D01*
G03X17680270Y415270I-12522J-2809D01*
G03X17678240Y418010I-10329J-5531D01*
G03X17675300Y419880I-5704J-5722D01*
G03X17671750Y420430I-3145J-8565D01*
G37*
G36*
G01X17384650Y263370D02*
G03X17380840Y262730I402J-14051D01*
G03X17378120Y261080I2005J-6372D01*
G03X17375540Y256280I6728J-6709D01*
G03X17374800Y248580I34872J-7237D01*
G03X17375760Y240860I35839J537D01*
G03X17378470Y235980I9937J2326D01*
G03X17381050Y234530I3882J3887D01*
G03X17384920Y234090I3681J15137D01*
G03X17388790Y234620I-174J15664D01*
G03X17391400Y236120I-1488J5610D01*
G03X17392320Y237480I-3124J3104D01*
G03X17393090Y239650I-14815J6478D01*
G03X17393680Y242440I-22875J6295D01*
G03X17394040Y245750I-43720J6430D01*
G03X17394240Y251550I-76735J5549D01*
G03X17393830Y255790I-23117J-96D01*
G03X17392800Y258980I-13020J-2443D01*
G03X17391060Y261450I-7981J-3775D01*
G03X17388430Y262950I-4050J-4046D01*
G03X17384650Y263370I-3386J-13251D01*
G37*
G36*
G01X17038240Y419670D02*
G03X17033770Y415640I4776J-9792D01*
G03X17031520Y409390I13400J-8354D01*
G03X17031340Y401570I35174J-4722D01*
G03X17033160Y395520I15513J1368D01*
G03X17036790Y391730I8722J4720D01*
G03X17041830Y390340I5035J8424D01*
G03X17043800Y390500I40J11710D01*
G03X17045700Y391000I-1916J11141D01*
G03X17047370Y391780I-3388J9430D01*
G03X17048670Y392780I-3201J5507D01*
G03X17051460Y397710I-7501J7499D01*
G03X17052330Y405060I-28427J7091D01*
G03X17051330Y412480I-29843J-245D01*
G03X17048460Y417650I-11684J-3104D01*
G03X17043620Y420350I-6663J-6256D01*
G03X17038240Y419670I-1688J-8265D01*
G37*
G36*
G01X17230730Y342520D02*
G03X17227130Y341690I387J-9900D01*
G03X17224070Y339600I4023J-9175D01*
G03X17221040Y334300I8238J-8226D01*
G03X17219980Y326360I31617J-8262D01*
G03X17220880Y318570I31641J-291D01*
G03X17223840Y313840I8633J2111D01*
G03X17226840Y312140I6315J7647D01*
G03X17230220Y311570I3281J9150D01*
G03X17233600Y312210I-101J9779D01*
G03X17236580Y313990I-3610J9428D01*
G03X17238420Y315880I-9477J11067D01*
G03X17239550Y317810I-6004J4811D01*
G03X17240250Y320300I-10432J4276D01*
G03X17240710Y324100I-50581J8051D01*
G03X17240930Y329820I-64033J5327D01*
G03X17240450Y334060I-20368J-159D01*
G03X17239240Y337350I-12487J-2725D01*
G03X17237190Y340110I-10345J-5542D01*
G03X17234280Y341960I-5642J-5661D01*
G03X17230730Y342520I-3197J-8735D01*
G37*
G36*
G01X17386870Y185430D02*
G03X17383390Y185830I-2631J-7548D01*
G03X17379480Y184820I1487J-13830D01*
G03X17377500Y183740I4248J-10144D01*
G03X17376100Y182400I3474J-5031D01*
G03X17375040Y180530I6293J-4803D01*
G03X17374130Y177780I23719J-9374D01*
G03X17373130Y168400I29175J-7854D01*
G03X17375500Y160720I16329J833D01*
G03X17380650Y156360I9114J5543D01*
G03X17387460Y155900I4116J10292D01*
G03X17391410Y158920I-1517J6078D01*
G03X17393790Y165510I-19083J10617D01*
G03X17394140Y173440I-27291J5177D01*
G03X17392090Y180430I-19759J-1999D01*
G03X17389800Y183600I-11135J-5632D01*
G03X17386870Y185430I-5447J-5460D01*
G37*
G36*
G01X17088470Y402540D02*
G03X17086520Y402810I-4209J-23225D01*
G03X17084640Y402900I-1884J-19672D01*
G03X17081790Y402770I-2J-31272D01*
G03X17080720Y402190I142J-1539D01*
G03X17080240Y400930I1720J-1377D01*
G03X17080150Y397250I76445J-3711D01*
G01Y391590D01*
X17086390D01*
G03X17089580Y391700I17J45810D01*
G03X17091610Y392090I-593J8566D01*
G03X17092960Y392830I-1254J3890D01*
G03X17093930Y394020I-2532J3054D01*
G03X17094620Y396190I-5471J2934D01*
G03X17094410Y398330I-4875J602D01*
G03X17093290Y400220I-4901J-1627D01*
G03X17091400Y401680I-5303J-4911D01*
G03X17090210Y402150I-2655J-4981D01*
G03X17088470Y402540I-5427J-20134D01*
G37*
G36*
G01X17088070Y419010D02*
G03X17086240Y419180I-3834J-31336D01*
G03X17084450Y419240I-1853J-28561D01*
G03X17081800Y419110I17J-27416D01*
G03X17080740Y418560I152J-1589D01*
G03X17080250Y417360I1554J-1334D01*
G03X17080150Y414210I49804J-3158D01*
G03X17080250Y411060I49904J8D01*
G03X17080740Y409870I2029J139D01*
G03X17081800Y409310I1224J1034D01*
G03X17084450Y409180I2667J27286D01*
G03X17086240Y409240I-63J28621D01*
G03X17088070Y409410I-2004J31506D01*
G03X17089680Y409650I-3272J27469D01*
G03X17090730Y409950I-1077J5757D01*
G03X17092190Y411410I-895J2355D01*
G03X17092700Y414210I-7444J2802D01*
G03X17092190Y417010I-7954J-2D01*
G03X17090730Y418470I-2355J-895D01*
G03X17089680Y418770I-2127J-5457D01*
G03X17088070Y419010I-4882J-27229D01*
G37*
G36*
G01X17357170Y418660D02*
G03X17355550Y419090I-3685J-10615D01*
G03X17353990Y419240I-1581J-8259D01*
G03X17351780Y419060I2J-13681D01*
G03X17350810Y418400I228J-1378D01*
G03X17350390Y416990I2550J-1527D01*
G03X17350310Y413120I93585J-3870D01*
G01Y407000D01*
X17354260Y407460D01*
G03X17358610Y408680I-1652J14257D01*
G03X17361180Y411080I-2357J5100D01*
G03X17361510Y414130I-3497J1921D01*
G03X17359650Y417260I-7079J-2089D01*
G03X17358620Y418020I-3072J-3085D01*
G03X17357170Y418660I-4863J-9056D01*
G37*
G36*
G01X17520710Y412600D02*
G02X17519990Y414930I187930J59349D01*
G02X17519630Y416250I21106J6465D01*
G03X17519100Y417190I-1854J-426D01*
G03X17518510Y417090I-258J-271D01*
G03X17517620Y414980I13332J-6866D01*
G03X17515170Y407610I1026191J-345228D01*
G01X17512800Y400390D01*
X17524840D01*
X17522510Y407140D01*
G02X17521580Y409900I226414J77828D01*
G02X17520710Y412600I206102J67901D01*
G37*
G36*
G01X17397670Y418790D02*
G03X17395590Y419130I-4044J-18207D01*
G03X17393410Y419240I-2170J-21351D01*
G01X17388010D01*
Y407930D01*
X17393410D01*
G03X17397290Y408240I19J24199D01*
G03X17399860Y409250I-1025J6384D01*
G03X17401310Y411020I-2240J3314D01*
G03X17401830Y413580I-6066J2565D01*
G03X17401720Y414700I-5713J4D01*
G03X17401390Y415890I-8006J-1579D01*
G03X17400900Y416960I-7112J-2610D01*
G03X17400320Y417730I-3011J-1665D01*
G03X17399390Y418310I-1722J-1726D01*
G03X17397670Y418790I-4953J-14426D01*
G37*
G36*
G01X17515840Y250190D02*
X17515130Y252480D01*
X17514430Y254770D01*
G03X17513460Y257810I-104527J-31678D01*
G03X17512880Y258800I-2724J-931D01*
G03X17512350Y258790I-261J-228D01*
G03X17511760Y257770I3095J-2471D01*
G02X17511270Y256520I-367525J143349D01*
G01X17510570Y254750D01*
X17509800Y252830D01*
X17509080Y251020D01*
G03X17507620Y247030I64717J-25943D01*
G03X17507750Y245520I1833J-603D01*
G03X17508910Y244740I1301J683D01*
G03X17512490Y244580I3517J38558D01*
G03X17515350Y244650I60J56007D01*
G03X17516570Y244990I-150J2897D01*
G03X17517010Y245690I-403J742D01*
G03X17516860Y246910I-3396J202D01*
G02X17516470Y248170I203164J63574D01*
G01X17515840Y250190D01*
G37*
G36*
G01X17211700Y418790D02*
G03X17209620Y419130I-4044J-18207D01*
G03X17207440Y419240I-2170J-21351D01*
G01X17202040D01*
Y413580D01*
G03X17202130Y409900I76535J31D01*
G03X17202600Y408640I2195J101D01*
G03X17203680Y408060I1217J971D01*
G03X17206520Y407930I2843J31032D01*
G03X17208410Y408020I53J18780D01*
G03X17210400Y408310I-2404J23471D01*
G03X17212190Y408730I-3907J20676D01*
G03X17213430Y409230I-1665J5917D01*
G03X17215010Y410780I-1870J3486D01*
G03X17215780Y413160I-5423J3069D01*
G03X17215550Y415710I-6526J697D01*
G03X17214350Y417730I-4548J-1335D01*
G03X17213420Y418310I-1722J-1726D01*
G03X17211700Y418790I-4953J-14426D01*
G37*
G36*
G01X17380200Y336790D02*
G03X17379440Y338840I-134307J-48626D01*
G03X17379130Y339320I-1278J-485D01*
G03X17378820Y339260I-134J-139D01*
G03X17378100Y337620I33990J-15900D01*
G03X17377280Y335430I33021J-13613D01*
G03X17376430Y332710I74276J-24704D01*
G02X17375560Y329820I-373372J110823D01*
G02X17374720Y327090I-301800J91367D01*
G02X17373990Y324780I-288715J89969D01*
G02X17373590Y323650I-20742J6707D01*
G03X17373580Y322760I1192J-458D01*
G03X17374170Y322170I929J339D01*
G03X17375630Y321880I1657J4521D01*
G03X17378550Y321820I2669J58785D01*
G03X17380730Y321920I-108J26160D01*
G03X17382560Y322210I-1236J13717D01*
G03X17383890Y322620I-2109J9204D01*
G03X17384220Y323110I-189J483D01*
G03X17384110Y323920I-3519J-65D01*
G03X17383550Y326110I-128972J-31813D01*
G03X17382820Y328710I-110626J-29658D01*
G03X17381960Y331550I-160741J-47125D01*
G03X17381060Y334340I-147371J-45999D01*
G03X17380200Y336790I-89608J-30078D01*
G37*
G36*
G01X17278920Y340770D02*
G03X17276910Y341190I-3964J-13949D01*
G03X17274830Y341330I-2063J-15134D01*
G01X17269890D01*
Y330020D01*
X17274830D01*
G03X17279630Y330800I-19J15277D01*
G03X17282760Y333060I-2001J6068D01*
G03X17283450Y336160I-3154J2329D01*
G03X17281740Y339360I-6132J-1220D01*
G03X17280620Y340130I-2710J-2743D01*
G03X17278920Y340770I-5031J-10785D01*
G37*
G36*
G01X17338750Y670190D02*
G03X17338240Y670460I-1526J-2265D01*
G03X17337760Y670550I-479J-1232D01*
G03X17336100Y669800I2J-2216D01*
G03X17333880Y666900I19841J-17489D01*
G03X17332030Y663590I21029J-13926D01*
G03X17331460Y661040I5486J-2565D01*
G03X17331950Y658570I6490J4D01*
G03X17333350Y656360I6969J2867D01*
G03X17335210Y655020I4164J3820D01*
G03X17337000Y654970I955J2124D01*
G03X17338310Y656420I-758J2002D01*
G03X17339460Y661630I-67081J17539D01*
G03X17340180Y666900I-59907J10869D01*
G03X17339610Y669330I-3918J363D01*
G03X17339240Y669800I-2196J-1348D01*
G03X17338750Y670190I-2175J-2230D01*
G37*
G36*
G01X17371880Y558780D02*
G03X17369220Y559300I-4361J-15244D01*
G03X17365230Y559630I-7954J-71888D01*
G03X17358740Y559450I-2118J-40741D01*
G03X17354290Y558030I1233J-11547D01*
G03X17350470Y554850I6726J-11964D01*
G03X17345990Y548830I51113J-42715D01*
G03X17343290Y544410I67276J-44131D01*
G03X17342120Y541520I10170J-5799D01*
G03X17341690Y538290I13059J-3382D01*
G03X17341780Y532390I125830J-1031D01*
G01X17342140Y522900D01*
X17352480Y522950D01*
G03X17358770Y523080I-806J191236D01*
G03X17361860Y523540I-532J14181D01*
G03X17364140Y524590I-1839J6993D01*
G03X17366770Y526720I-13098J18861D01*
G03X17372050Y533540I-18770J19986D01*
G03X17375610Y542380I-35674J19503D01*
G03X17376830Y550970I-33590J9152D01*
G03X17374970Y556830I-9666J157D01*
G03X17373700Y557990I-3510J-2568D01*
G03X17371880Y558780I-3907J-6510D01*
G37*
G36*
G01X17399830Y559700D02*
G03X17398460Y559050I618J-3072D01*
G03X17395100Y556190I87661J-106390D01*
G03X17390620Y551000I16501J-18772D01*
G03X17385550Y542330I91570J-59365D01*
G03X17381310Y533480I117615J-61789D01*
G03X17380970Y529250I6055J-2615D01*
G03X17382350Y526920I4589J1144D01*
G03X17385110Y525130I6625J7192D01*
G03X17389240Y523920I7069J16475D01*
G03X17394760Y523320I8001J47919D01*
G03X17398230Y523280I2243J44021D01*
G03X17400340Y523660I-176J7024D01*
G03X17402010Y524620I-1701J4892D01*
G03X17403870Y526480I-11250J13110D01*
G03X17405520Y528910I-9696J8359D01*
G03X17406390Y531450I-7946J4141D01*
G03X17406770Y535220I-23793J4302D01*
G03X17406860Y542930I-338446J7806D01*
G03X17406780Y551060I-460319J-464D01*
G03X17406420Y554360I-17886J-282D01*
G03X17405520Y556310I-4657J-967D01*
G03X17403760Y557940I-5747J-4441D01*
G03X17401150Y559500I-20283J-30972D01*
G03X17399830Y559700I-935J-1715D01*
G37*
G36*
G01X17432020Y587980D02*
G03X17430230Y588650I-4660J-9725D01*
G03X17428590Y588870I-1635J-5964D01*
G03X17422420Y587490I6J-14512D01*
G03X17416460Y583480I10052J-21374D01*
G03X17412120Y577990I15248J-16514D01*
G03X17410630Y572300I10100J-5685D01*
G03X17411240Y568460I12312J-13D01*
G03X17413160Y563830I31334J10281D01*
G03X17415740Y559570I29240J14797D01*
G03X17418430Y556910I9130J6543D01*
G03X17422010Y555320I5852J8350D01*
G03X17426320Y554980I3310J14476D01*
G03X17430600Y555900I-1031J15211D01*
G03X17434120Y557980I-4046J10866D01*
G03X17436110Y560080I-9211J10721D01*
G03X17437170Y562180I-5009J3846D01*
G03X17437720Y565280I-14444J4161D01*
G03X17438080Y571730I-215793J15279D01*
G03X17438260Y578320I-247002J10044D01*
G03X17437990Y581350I-14465J238D01*
G03X17437120Y583450I-5754J-1153D01*
G03X17435310Y585660I-11957J-7947D01*
G03X17433770Y586960I-8311J-8283D01*
G03X17432020Y587980I-6926J-9872D01*
G37*
G36*
G01X17265200Y562770D02*
G03X17264080Y563570I-12746J-16661D01*
G03X17263510Y563740I-566J-857D01*
G03X17261390Y562060I-3J-2174D01*
G03X17260650Y556210I28210J-6540D01*
G03X17261150Y548660I42506J-977D01*
G03X17262970Y541040I48084J7457D01*
G03X17265020Y535340I97250J31757D01*
G03X17266660Y532670I8252J3230D01*
G03X17268680Y531500I2818J2537D01*
G03X17271670Y531320I2067J9413D01*
G03X17273930Y531750I-1234J12640D01*
G03X17275090Y532570I-582J2054D01*
G03X17275770Y534180I-3330J2355D01*
G03X17276370Y537980I-71945J13307D01*
G03X17276640Y541500I-34464J4414D01*
G03X17276440Y544290I-13993J399D01*
G03X17275670Y547100I-15290J-2679D01*
G03X17274150Y550710I-46036J-17258D01*
G03X17272750Y553410I-36320J-17119D01*
G03X17271040Y556220I-47279J-26846D01*
G03X17269300Y558730I-41643J-27010D01*
G03X17267820Y560440I-12311J-9160D01*
G03X17266480Y561710I-23019J-22946D01*
G03X17265200Y562770I-14695J-16442D01*
G37*
G36*
G01X17338390Y639850D02*
G03X17336860Y641540I-21382J-17820D01*
G03X17335610Y642570I-5402J-5282D01*
G03X17333920Y643490I-6479J-9890D01*
G03X17332770Y643600I-739J-1665D01*
G03X17331590Y643000I626J-2691D01*
G03X17329640Y641190I23427J-27194D01*
G03X17327360Y637780I7470J-7462D01*
G03X17326490Y633700I10432J-4357D01*
G03X17327110Y628910I15914J-375D01*
G03X17329220Y623410I33149J9562D01*
G03X17331570Y619530I22398J10914D01*
G03X17334060Y617430I5636J4156D01*
G03X17336980Y616850I2499J4939D01*
G03X17340620Y617670I-1032J13072D01*
G03X17342500Y618620I-3546J9352D01*
G03X17343470Y619740I-1455J2240D01*
G03X17343910Y621490I-4397J2036D01*
G03X17344010Y624970I-54799J3316D01*
G03X17343820Y627850I-23127J-80D01*
G03X17343270Y630680I-22775J-2958D01*
G03X17342380Y633380I-21579J-5616D01*
G03X17341180Y635860I-18391J-7368D01*
G03X17339900Y637870I-22350J-12820D01*
G03X17338390Y639850I-25485J-17869D01*
G37*
G36*
G01X17354430Y659490D02*
G03X17350210Y659320I-1605J-12615D01*
G03X17346860Y657710I1614J-7649D01*
G03X17345520Y655210I2346J-2867D01*
G03X17345340Y649620I42389J-4163D01*
G03X17345980Y643660I41321J1423D01*
G03X17347490Y639130I16583J3011D01*
G03X17348780Y636910I17687J8793D01*
G03X17350070Y635550I4783J3245D01*
G03X17351630Y634760I2929J3848D01*
G03X17353770Y634340I3251J10902D01*
G03X17356510Y634490I872J9171D01*
G03X17357750Y635610I-326J1607D01*
G03X17357790Y637930I-3958J1229D01*
G03X17356310Y642590I-60095J-16521D01*
G02X17355580Y645020I21850J7889D01*
G02X17355440Y646770I5428J1315D01*
G02X17355850Y648440I5317J-420D01*
G02X17356940Y650630I18889J-8035D01*
G03X17357770Y652210I-21677J12395D01*
G03X17358470Y653810I-20984J10134D01*
G03X17358970Y655240I-18795J7374D01*
G03X17359110Y656150I-2945J919D01*
G03X17357860Y658320I-2514J-3D01*
G03X17354430Y659490I-4586J-7832D01*
G37*
G36*
G01X17321410Y666590D02*
G03X17319760I-825J-1058D01*
G03X17316900Y663950I14479J-18555D01*
G03X17311660Y657730I74930J-68442D01*
G03X17309430Y653510I10757J-8384D01*
G03X17308260Y647880I25935J-8326D01*
G03X17306890Y632650I910165J-89550D01*
G03X17305280Y611100I1617420J-131673D01*
G03X17305170Y601450I84163J-5785D01*
G03X17306260Y595440I23111J1088D01*
G03X17308850Y590320I17372J5573D01*
G03X17312590Y586110I23134J16785D01*
G03X17315750Y584930I3010J3241D01*
G03X17318490Y586390I-128J3542D01*
G03X17320850Y590750I-15277J11088D01*
G03X17321970Y594650I-22606J8603D01*
G03X17322410Y598630I-22530J4505D01*
G03X17322280Y604430I-64965J1445D01*
G03X17321420Y616190I-902423J-60082D01*
G02X17320710Y626300I478355J38674D01*
G02X17320470Y633680I138986J8214D01*
G02X17320650Y639610I84176J413D01*
G02X17321250Y645030I59750J-3871D01*
G03X17321790Y648880I-118828J18630D01*
G03X17322250Y653000I-152946J19162D01*
G03X17322560Y656780I-138936J13297D01*
G03X17322650Y659480I-36939J2583D01*
G03X17322420Y664730I-65062J-220D01*
G03X17321410Y666590I-2628J-223D01*
G37*
G36*
G01X17593610Y1177990D02*
G03X17588670Y1176310I1987J-13945D01*
G03X17584310Y1172870I8851J-15701D01*
G03X17581870Y1169390I11454J-10626D01*
G03X17580230Y1165110I18607J-9584D01*
G03X17579300Y1159670I30931J-8087D01*
G03X17579000Y1152590I84951J-7146D01*
G03X17579940Y1141380I67246J-6D01*
G03X17582950Y1133820I19124J3235D01*
G03X17588130Y1129480I10051J6735D01*
G03X17595520Y1127930I7380J16793D01*
G03X17600920Y1128320I-16J37802D01*
G03X17604440Y1129590I-1317J9164D01*
G03X17607070Y1132110I-4472J7299D01*
G03X17609520Y1136520I-24732J16626D01*
G03X17610790Y1139930I-25799J11550D01*
G03X17611580Y1143400I-24529J7409D01*
G03X17611990Y1147520I-36543J5717D01*
G03X17612090Y1153060I-115647J4858D01*
G03X17611610Y1161600I-83881J-431D01*
G03X17610170Y1167810I-26407J-2851D01*
G03X17607650Y1172330I-15180J-5501D01*
G03X17603900Y1175650I-11174J-8844D01*
G03X17598800Y1177740I-9149J-15059D01*
G03X17593610Y1177990I-3256J-13591D01*
G37*
G36*
G01X17126780Y1166530D02*
G03X17125780Y1169140I-147683J-55087D01*
G03X17125410Y1169390I-369J-147D01*
G03X17125030Y1169140I-5J-407D01*
G03X17123740Y1165890I276865J-111775D01*
G03X17122310Y1162030I114463J-44599D01*
G03X17120750Y1157460I220176J-77710D01*
G01X17116820Y1145520D01*
X17125020D01*
G03X17129730Y1145580I140J173900D01*
G03X17131720Y1145890I-213J7907D01*
G03X17132510Y1146580I-354J1203D01*
G03X17132600Y1147720I-1512J693D01*
G03X17132200Y1149080I-130941J-37773D01*
G01X17131300Y1152130D01*
X17130220Y1155770D01*
X17129060Y1159660D01*
G03X17127890Y1163390I-145173J-43488D01*
G03X17126780Y1166530I-76041J-25114D01*
G37*
G36*
G01X18160570Y233170D02*
G03X18152310Y233230I-4464J-45911D01*
G03X18146380Y231470I1259J-15114D01*
G03X18136020Y220380I11197J-20844D01*
G03X18131070Y201670I53312J-24114D01*
G03X18132470Y181960I60720J-5592D01*
G03X18140500Y167950I27711J6577D01*
G03X18147000Y163340I19013J19920D01*
G03X18154380Y160920I11368J22204D01*
G03X18162090Y160910I3886J24201D01*
G03X18169520Y163280I-3990J25341D01*
G03X18176850Y168040I-17113J34376D01*
G03X18181520Y173690I-12356J14968D01*
G03X18184280Y181410I-22750J12487D01*
G03X18185700Y192810I-94127J17513D01*
G03X18185670Y205030I-90997J5887D01*
G03X18183810Y215110I-45585J-3200D01*
G03X18180160Y223010I-30488J-9293D01*
G03X18174800Y228710I-17784J-11353D01*
G03X18168830Y231620I-11131J-15258D01*
G03X18160570Y233170I-12773J-45283D01*
G37*
G36*
G01X18374990Y1157390D02*
X18371670Y1162820D01*
G03X18371400Y1162970I-264J-157D01*
G03X18371140Y1162820I11J-319D01*
G03X18369690Y1160470I380705J-236525D01*
G03X18368050Y1157730I118650J-72878D01*
G03X18366180Y1154470I227963J-132931D01*
G02X18362940Y1148860I-327275J185274D01*
G01X18353410Y1132640D01*
X18342010Y1113330D01*
X18329410Y1092050D01*
X18314450Y1066820D01*
X18295690Y1035170D01*
X18276360Y1002570D01*
X18259520Y974170D01*
X18215380Y899720D01*
X18190350Y857470D01*
X18173670Y829250D01*
G03X18160760Y807330I9805443J-5789774D01*
G01X18155010Y797540D01*
X18149860Y788810D01*
X18145520Y781440D01*
G02X18144280Y779360I-210434J124041D01*
G03X18137450Y767940I1463658J-883127D01*
G03X18126670Y749700I8776750J-5199442D01*
G01X18115450Y730660D01*
G03X18113050Y726410I117920J-69393D01*
G02X18111370Y723450I-78271J42468D01*
G01X18101370Y706560D01*
X18089720Y686960D01*
X18076320Y664470D01*
X18045400Y612590D01*
G03X18032620Y591030I5140673J-3061776D01*
G01X18024610Y577440D01*
G03X18024300Y576320I1902J-1129D01*
G03X18024600Y576020I300J0D01*
G01X18126190Y575800D01*
X18238140Y575630D01*
X18371140Y575560D01*
X18717970Y575530D01*
X18713480Y583030D01*
G02X18702570Y601320I9608669J5743978D01*
G02X18693430Y616720I4843530J2885079D01*
G02X18683690Y633260I5809066J3431954D01*
G01X18670660Y655470D01*
X18661550Y671020D01*
X18652050Y687160D01*
X18643500Y701650D01*
G03X18637700Y711420I-2490807J-1472071D01*
G02X18632130Y720780I3969721J2368660D01*
G01X18624520Y733630D01*
X18616320Y747510D01*
X18608730Y760370D01*
X18600860Y773740D01*
X18591760Y789170D01*
X18582890Y804220D01*
X18575760Y816320D01*
X18568880Y828000D01*
X18560830Y841710D01*
X18552900Y855220D01*
X18546430Y866270D01*
G03X18539440Y878210I-6457376J-3772307D01*
G01X18529610Y894940D01*
X18518890Y913150D01*
X18508840Y930210D01*
X18498560Y947630D01*
X18487180Y966940D01*
X18476410Y985220D01*
X18468220Y999140D01*
X18448370Y1032900D01*
G03X18434550Y1056320I-12909475J-7602016D01*
G03X18423450Y1075040I-7612475J-4501157D01*
G03X18412710Y1093050I-6536359J-3885655D01*
G02X18407270Y1102180I2586933J1547578D01*
G02X18402300Y1110590I1857966J1103663D01*
G02X18398160Y1117660I2043792J1201536D01*
G02X18396580Y1120500I71811J41811D01*
G03X18395080Y1123220I-86845J-46119D01*
G03X18391620Y1129230I-1618384J-927714D01*
G03X18387480Y1136370I-1606349J-926642D01*
G03X18383020Y1143970I-2085711J-1218874D01*
G03X18378700Y1151260I-1124969J-661723D01*
G03X18374990Y1157390I-576683J-344832D01*
G37*
G36*
G01X18466510Y214700D02*
G03X18464760Y219210I-316381J-120170D01*
G03X18464060Y220350I-3558J-1400D01*
G03X18462900Y220100I-509J-456D01*
G03X18458250Y205280I1434419J-458210D01*
G03X18453970Y190920I760365J-234445D01*
G03X18453660Y186610I10007J-2886D01*
G03X18455060Y185300I1510J211D01*
G03X18463910Y184820I16496J222324D01*
G03X18472750Y184720I6718J203085D01*
G03X18474850Y185900I-21J2495D01*
G03X18475040Y187030I-1297J799D01*
G03X18473970Y191580I-177990J-39456D01*
G03X18472490Y197000I-119701J-29774D01*
G03X18470560Y203150I-203927J-60619D01*
G03X18468470Y209290I-356745J-118007D01*
G03X18466510Y214700I-220495J-76823D01*
G37*
%LPD*%
G75*
G36*
G01X18375980Y1031040D02*
G02X18388230Y1030840I-4968J-679533D01*
G02X18398700Y1030430I-9053J-365075D01*
G02X18407660Y1029900I-50532J-930276D01*
G02X18408710Y1029270I-85J-1331D01*
G02X18408830Y1028050I-1180J-732D01*
G02X18405540Y1019440I-967033J364583D01*
G02X18401530Y1009490I-367427J142295D01*
G02X18396590Y997970I-674600J282462D01*
G01X18368800Y934810D01*
X18344880Y880620D01*
X18325500Y836910D01*
G02X18317770Y819850I-1115864J495324D01*
G03X18314900Y813530I420596J-194810D01*
G03X18312620Y808210I206064J-91462D01*
G03X18310750Y803650I625606J-259217D01*
G03X18310940Y803360I193J-81D01*
G03X18311530Y803510I2J1229D01*
G03X18316960Y806490I-1208216J2207986D01*
G03X18323120Y809930I-308287J559285D01*
G03X18330290Y814020I-583730J1031642D01*
G02X18365630Y834080I2170001J-3781764D01*
G02X18402560Y854630I2497247J-4444296D01*
G01X18439680Y875060D01*
G02X18440820Y874900I463J-839D01*
G02X18441330Y872980I-1401J-1400D01*
G02X18432660Y841200I-15052758J4089517D01*
G02X18420280Y796800I-4815102J1318663D01*
G02X18398240Y719450I-39580905J11236312D01*
G01X18386530Y678490D01*
X18399010Y676490D01*
G02X18403870Y675640I-28006J-174450D01*
G02X18408150Y674740I-20316J-107241D01*
G02X18411690Y673880I-32638J-142062D01*
G02X18412610Y673350I-493J-1920D01*
G02X18412770Y671800I-890J-875D01*
G02X18401380Y654170I-3998276J2570623D01*
G02X18386640Y631900I-1271933J825850D01*
G02X18365410Y600620I-4880740J3289755D01*
G02X18361330Y594900I-139955J95513D01*
G02X18358200Y591200I-32145J24019D01*
G02X18356020Y589370I-9444J9037D01*
G02X18355000Y589710I-379J564D01*
G02X18354350Y591820I27790J9716D01*
G01X18351650Y602000D01*
G02X18348530Y613930I3105430J818522D01*
G02X18345010Y627540I5231764J1360369D01*
G01X18341340Y641790D01*
X18337760Y655710D01*
X18334680Y667660D01*
X18332960Y674340D01*
G02X18331850Y678940I139848J36180D01*
G02X18331060Y682960I79397J17691D01*
G02X18330530Y686310I119168J20570D01*
G02X18330780Y687060I875J125D01*
G02X18331530Y687340I681J-679D01*
G02X18335060Y687040I-10390J-143180D01*
G02X18339280Y686520I-9195J-92004D01*
G02X18344120Y685750I-23168J-161226D01*
G03X18348920Y684940I53794J304151D01*
G03X18353040Y684330I26263J163162D01*
G03X18356600Y683870I62648J470837D01*
G03X18357010Y684020I58J476D01*
G03X18357610Y685450I-1616J1519D01*
G01X18359530Y736510D01*
X18361450Y787660D01*
G03X18360950Y788930I-1706J62D01*
G03X18360330Y789040I-388J-383D01*
G01X18346320Y782330D01*
G03X18330630Y774710I714986J-1492158D01*
G03X18312110Y765520I1433333J-2911757D01*
G02X18293520Y756280I-1663706J3323898D01*
G02X18277580Y748500I-882006J1786872D01*
G02X18263510Y741730I-3809901J7900060D01*
G02X18262160Y741420I-1356J2810D01*
G02X18261630Y742100I6J551D01*
G02X18263990Y752140I1149376J-264875D01*
G02X18267000Y763910I407969J-98062D01*
G02X18270910Y777890I822627J-222540D01*
G01X18276780Y798210D01*
X18286970Y833580D01*
X18298780Y874570D01*
X18310780Y916250D01*
X18322170Y955780D01*
X18332100Y990150D01*
X18340680Y1019770D01*
G02X18342160Y1024710I247929J-71587D01*
G01X18344200Y1031270D01*
X18375980Y1031040D01*
G37*
G54D10*
G01X3698680Y2799080D02*
G03I-925000J0D01*
G01X6467280D02*
G03I-925000J0D01*
G01X7606320D02*
G03I-207300J0D01*
G01X8251540Y383540D02*
Y53340D01*
X9013540D01*
Y383540D01*
G01X8442040Y523240D02*
Y396240D01*
X8823040D01*
Y523240D01*
G01X10173140Y2799080D02*
G03I-925000J0D01*
G01X8632540Y179240D02*
X8562540D01*
G01X8632540Y189240D02*
Y179240D01*
X8702540D01*
G01X8632540Y239240D02*
Y219240D01*
G01Y319240D02*
X8562540D01*
Y294240D01*
G01X8632540Y269240D02*
Y319240D01*
X8702540D01*
Y294240D01*
G01X9600740Y383540D02*
Y53340D01*
X10362740D01*
Y383540D01*
G01X9981740Y179240D02*
X9911740D01*
G01X9981740Y189240D02*
Y179240D01*
X10051740D01*
G01X9981740Y239240D02*
Y219240D01*
G01Y319240D02*
X9911740D01*
Y294240D01*
G01X9981740Y269240D02*
Y319240D01*
X10051740D01*
Y294240D01*
G01X9791240Y523240D02*
Y396240D01*
X10172240D01*
Y523240D01*
G01X10949940Y383540D02*
Y53340D01*
X11711940D01*
Y383540D01*
G01X11330940Y179240D02*
X11260940D01*
G01X11330940Y189240D02*
Y179240D01*
X11400940D01*
G01X11330940Y239240D02*
Y219240D01*
G01Y319240D02*
X11260940D01*
Y294240D01*
G01X11330940Y269240D02*
Y319240D01*
X11400940D01*
Y294240D01*
G01X11140440Y523240D02*
Y396240D01*
X11521440D01*
Y523240D01*
G01X12944280Y2799080D02*
G03I-925000J0D01*
G01X12299140Y383540D02*
Y53340D01*
X13061140D01*
Y383540D01*
G01X12680140Y179240D02*
X12610140D01*
G01X12680140Y189240D02*
Y179240D01*
X12750140D01*
G01X12680140Y239240D02*
Y219240D01*
G01Y319240D02*
X12610140D01*
Y294240D01*
G01X12680140Y269240D02*
Y319240D01*
X12750140D01*
Y294240D01*
G01X12489640Y523240D02*
Y396240D01*
X12870640D01*
Y523240D01*
G01X14083320Y2799080D02*
G03I-207300J0D01*
G01X16645060D02*
G03I-925000J0D01*
G01X19416200D02*
G03I-925000J0D01*
G54D11*
G01X9584940Y1475740D02*
Y1655740D01*
X9661660Y1475740D01*
Y1655740D01*
G01X9743240D02*
X9783270D01*
G01X9763260D02*
Y1475740D01*
G01X9743240D02*
X9783270D01*
G01X9868190D02*
X9938250Y1655740D01*
G01X9868190D02*
X9938250Y1475740D01*
G01X10023160Y1655740D02*
X10063190D01*
G01X10043180D02*
Y1475740D01*
G01X10023160D02*
X10063190D01*
G01X10216500D02*
X10149780D01*
Y1655740D01*
X10216500D01*
G01X10189810Y1568740D02*
X10149780D01*
G01X10463060Y1655740D02*
Y1475740D01*
G01X10424700Y1655740D02*
X10501420D01*
G01X10566320D02*
Y1526740D01*
X10572990Y1499730D01*
X10586340Y1481740D01*
X10603020Y1475740D01*
X10619700Y1481740D01*
X10633050Y1499730D01*
X10639720Y1526740D01*
Y1655740D01*
G01X10756320Y1571740D02*
X10763000Y1580740D01*
X10768000Y1595740D01*
X10771340Y1616740D01*
X10768000Y1634740D01*
X10761330Y1646740D01*
X10749650Y1655740D01*
X10704620D01*
Y1475740D01*
X10759660D01*
X10771340Y1487740D01*
X10778010Y1505740D01*
X10781340Y1526740D01*
X10778010Y1547740D01*
X10768000Y1565740D01*
X10756320Y1571740D01*
X10704620D01*
G01X10916300Y1475740D02*
X10849580D01*
Y1655740D01*
X10916300D01*
G01X10889610Y1568740D02*
X10849580D01*
G01X11199560Y1640740D02*
X11189550Y1649740D01*
X11177870Y1655740D01*
X11164530D01*
X11149510Y1646740D01*
X11137840Y1631740D01*
X11129500Y1613740D01*
X11122830Y1583740D01*
X11121160Y1556740D01*
X11124500Y1529740D01*
X11129500Y1511740D01*
X11139510Y1493740D01*
X11151180Y1481740D01*
X11162860Y1475740D01*
X11174540D01*
X11186210Y1481740D01*
X11196220Y1490740D01*
X11204560Y1502730D01*
G01X11269460Y1655740D02*
Y1475740D01*
X11336180D01*
G01X11442780D02*
X11429430Y1478740D01*
X11417760Y1490740D01*
X11407750Y1508740D01*
X11401080Y1529740D01*
X11397740Y1553740D01*
Y1577740D01*
X11401080Y1601740D01*
X11407750Y1622740D01*
X11417760Y1640740D01*
X11429430Y1652740D01*
X11442780Y1655740D01*
X11456120Y1652740D01*
X11467800Y1640740D01*
X11477810Y1622740D01*
X11484480Y1601740D01*
X11487820Y1577740D01*
Y1553740D01*
X11484480Y1529740D01*
X11477810Y1508740D01*
X11467800Y1490740D01*
X11456120Y1478740D01*
X11442780Y1475740D01*
G01X11619440Y1640740D02*
X11609430Y1649740D01*
X11597750Y1655740D01*
X11584410D01*
X11569390Y1646740D01*
X11557720Y1631740D01*
X11549380Y1613740D01*
X11542710Y1583740D01*
X11541040Y1556740D01*
X11544380Y1529740D01*
X11549380Y1511740D01*
X11559390Y1493740D01*
X11571060Y1481740D01*
X11582740Y1475740D01*
X11594420D01*
X11606090Y1481740D01*
X11616100Y1490740D01*
X11624440Y1502730D01*
G01X11686000Y1475740D02*
Y1655740D01*
G01X11749390D02*
X11686000Y1544740D01*
G01X11759400Y1475740D02*
X11714360Y1595740D01*
G01X13295800Y190940D02*
X13304140Y172940D01*
X13314150Y160940D01*
X13325820Y154940D01*
X13339170Y160940D01*
X13349180Y172940D01*
X13359190Y190940D01*
X13362520Y214940D01*
Y334940D01*
G01X13432420Y154940D02*
Y334940D01*
G01X13495810D02*
X13432420Y223940D01*
G01X13505820Y154940D02*
X13460780Y274940D01*
G01X13609080Y154940D02*
X13595730Y157940D01*
X13584060Y169940D01*
X13574050Y187940D01*
X13567380Y208940D01*
X13564040Y232940D01*
Y256940D01*
X13567380Y280940D01*
X13574050Y301940D01*
X13584060Y319940D01*
X13595730Y331940D01*
X13609080Y334940D01*
X13622420Y331940D01*
X13634100Y319940D01*
X13644110Y301940D01*
X13650780Y280940D01*
X13654120Y256940D01*
Y232940D01*
X13650780Y208940D01*
X13644110Y187940D01*
X13634100Y169940D01*
X13622420Y157940D01*
X13609080Y154940D01*
G01X13710680D02*
Y334940D01*
X13787400Y154940D01*
Y334940D01*
G01X13922360Y154940D02*
X13855640D01*
Y334940D01*
X13922360D01*
G01X13895670Y247940D02*
X13855640D01*
G01X13995600Y334940D02*
Y154940D01*
X14062320D01*
G54D12*
G01X2773960Y2499360D02*
X2664740Y2608580D01*
G01X2773680Y2799080D02*
Y2499080D01*
X2882900Y2608300D01*
G01X5542560Y2499360D02*
X5433340Y2608580D01*
G01X5542280Y2799080D02*
Y2499080D01*
X5651500Y2608300D01*
G01X9248420Y2499360D02*
X9139200Y2608580D01*
G01X9248140Y2799080D02*
Y2499080D01*
X9357360Y2608300D01*
G01X12019560Y2499360D02*
X11910340Y2608580D01*
G01X12019280Y2799080D02*
Y2499080D01*
X12128500Y2608300D01*
G01X15720340Y2499360D02*
X15611120Y2608580D01*
G01X15720060Y2799080D02*
Y2499080D01*
X15829280Y2608300D01*
G01X18491480Y2499360D02*
X18382260Y2608580D01*
G01X18491200Y2799080D02*
Y2499080D01*
X18600420Y2608300D01*
G54D13*
G01X2736340Y2901700D02*
Y2801620D01*
G01X2712390Y2901700D02*
X2760290D01*
G01X2823710Y2801620D02*
Y2901700D01*
X2811210Y2881690D01*
G01Y2801620D02*
X2836200D01*
G01X5510020Y2899160D02*
Y2799080D01*
G01X5486070Y2899160D02*
X5533970D01*
G01X5577600Y2882480D02*
X5583850Y2892490D01*
X5591140Y2897490D01*
X5599470Y2899160D01*
X5609890Y2895820D01*
X5617180Y2887480D01*
X5619260Y2877480D01*
X5618220Y2867470D01*
X5614050Y2859130D01*
X5593220Y2842450D01*
X5583850Y2830770D01*
X5577600Y2814090D01*
X5575520Y2799080D01*
X5619260D01*
G01X7659850Y2804160D02*
Y2904240D01*
G01X7703590D02*
Y2804160D01*
G01Y2854200D02*
X7659850D01*
G01X7769090Y2804160D02*
Y2849200D01*
X7748260Y2904240D01*
G01X7789920D02*
X7769090Y2849200D01*
G01X7856460Y2804160D02*
Y2904240D01*
X7843960Y2884230D01*
G01Y2804160D02*
X7868950D01*
G01X8541230Y706760D02*
X8549560Y698420D01*
X8558930Y693420D01*
X8567270D01*
X8575600Y698420D01*
X8581840Y706760D01*
X8584970Y718440D01*
X8582890Y730110D01*
X8577680Y740120D01*
X8568310Y746800D01*
X8555810Y750130D01*
X8548520Y756800D01*
X8545400Y768480D01*
X8547480Y780160D01*
X8552690Y788490D01*
X8559980Y793500D01*
X8567270D01*
X8574560Y790160D01*
X8580800Y781820D01*
G01X8619230Y793500D02*
X8633810Y693420D01*
X8650470Y793500D01*
X8667130Y693420D01*
X8681710Y793500D01*
G01X8737840Y693420D02*
Y793500D01*
X8725340Y773490D01*
G01Y693420D02*
X8750330D01*
G01X9208260Y2904240D02*
Y2804160D01*
G01X9184310Y2904240D02*
X9232210D01*
G01X9272720Y2824170D02*
X9278970Y2812500D01*
X9287300Y2805830D01*
X9296670Y2804160D01*
X9305000Y2805830D01*
X9313330Y2814170D01*
X9318540Y2824170D01*
X9319580Y2834180D01*
X9317500Y2845860D01*
X9310210Y2854200D01*
X9302920Y2857540D01*
X9293550D01*
G01X9302920D02*
X9309170Y2862540D01*
X9314370Y2870880D01*
X9316460Y2880890D01*
X9314370Y2890900D01*
X9309170Y2899230D01*
X9299800Y2904240D01*
X9290420Y2902570D01*
X9281050Y2895900D01*
G01X9874900Y715180D02*
X9883230Y706840D01*
X9892600Y701840D01*
X9900940D01*
X9909270Y706840D01*
X9915510Y715180D01*
X9918640Y726860D01*
X9916560Y738530D01*
X9911350Y748540D01*
X9901980Y755220D01*
X9889480Y758550D01*
X9882190Y765220D01*
X9879070Y776900D01*
X9881150Y788580D01*
X9886360Y796910D01*
X9893650Y801920D01*
X9900940D01*
X9908230Y798580D01*
X9914470Y790240D01*
G01X9952900Y801920D02*
X9967480Y701840D01*
X9984140Y801920D01*
X10000800Y701840D01*
X10015380Y801920D01*
G01X10048600Y721850D02*
X10054850Y710180D01*
X10063180Y703510D01*
X10072550Y701840D01*
X10080880Y703510D01*
X10089210Y711850D01*
X10094420Y721850D01*
X10095460Y731860D01*
X10093380Y743540D01*
X10086090Y751880D01*
X10078800Y755220D01*
X10069430D01*
G01X10078800D02*
X10085050Y760220D01*
X10090250Y768560D01*
X10092340Y778570D01*
X10090250Y788580D01*
X10085050Y796910D01*
X10075680Y801920D01*
X10066300Y800250D01*
X10056930Y793580D01*
G01X11224100Y715180D02*
X11232430Y706840D01*
X11241800Y701840D01*
X11250140D01*
X11258470Y706840D01*
X11264710Y715180D01*
X11267840Y726860D01*
X11265760Y738530D01*
X11260550Y748540D01*
X11251180Y755220D01*
X11238680Y758550D01*
X11231390Y765220D01*
X11228270Y776900D01*
X11230350Y788580D01*
X11235560Y796910D01*
X11242850Y801920D01*
X11250140D01*
X11257430Y798580D01*
X11263670Y790240D01*
G01X11302100Y801920D02*
X11316680Y701840D01*
X11333340Y801920D01*
X11350000Y701840D01*
X11364580Y801920D01*
G01X11433210Y701840D02*
Y801920D01*
X11394680Y730200D01*
X11446740D01*
G01X12012820Y1580390D02*
X12044040Y1460500D01*
X12075270Y1580390D01*
G01X12148940Y1460500D02*
Y1580390D01*
X12133960Y1556410D01*
G01Y1460500D02*
X12163930D01*
G01X12253840Y1456500D02*
X12251350Y1458500D01*
Y1462500D01*
X12253840Y1464500D01*
X12256340Y1462500D01*
Y1458500D01*
X12253840Y1456500D01*
G01X12358740Y1580390D02*
X12348750Y1576390D01*
X12341260Y1566400D01*
X12336270Y1554420D01*
X12332520Y1538430D01*
X12331270Y1520440D01*
X12332520Y1502460D01*
X12336270Y1486470D01*
X12341260Y1474480D01*
X12348750Y1464500D01*
X12358740Y1460500D01*
X12368730Y1464500D01*
X12376230Y1474480D01*
X12381220Y1486470D01*
X12384970Y1502460D01*
X12386220Y1520440D01*
X12384970Y1538430D01*
X12381220Y1554420D01*
X12376230Y1566400D01*
X12368730Y1576390D01*
X12358740Y1580390D01*
G01X11976860Y2899160D02*
Y2799080D01*
G01X11952910Y2899160D02*
X12000810D01*
G01X12076730Y2799080D02*
Y2899160D01*
X12038200Y2827440D01*
X12090260D01*
G01X12573300Y715180D02*
X12581630Y706840D01*
X12591000Y701840D01*
X12599340D01*
X12607670Y706840D01*
X12613910Y715180D01*
X12617040Y726860D01*
X12614960Y738530D01*
X12609750Y748540D01*
X12600380Y755220D01*
X12587880Y758550D01*
X12580590Y765220D01*
X12577470Y776900D01*
X12579550Y788580D01*
X12584760Y796910D01*
X12592050Y801920D01*
X12599340D01*
X12606630Y798580D01*
X12612870Y790240D01*
G01X12651300Y801920D02*
X12665880Y701840D01*
X12682540Y801920D01*
X12699200Y701840D01*
X12713780Y801920D01*
G01X12750120Y743540D02*
X12757410Y755220D01*
X12763660Y761890D01*
X12771990Y765220D01*
X12779280Y761890D01*
X12784490Y755220D01*
X12788650Y745210D01*
X12789700Y733530D01*
X12788650Y723520D01*
X12784490Y713510D01*
X12778240Y705180D01*
X12770950Y701840D01*
X12762620Y705180D01*
X12755330Y715180D01*
X12751170Y730200D01*
X12750120Y746880D01*
X12752210Y768560D01*
X12755330Y780240D01*
X12760540Y791910D01*
X12767830Y800250D01*
X12775120Y801920D01*
X12782410Y798580D01*
X12787610Y790240D01*
G01X14116530Y2799080D02*
Y2899160D01*
G01X14160270D02*
Y2799080D01*
G01Y2849120D02*
X14116530D01*
G01X14225770Y2799080D02*
Y2844120D01*
X14204940Y2899160D01*
G01X14246600D02*
X14225770Y2844120D01*
G01X14293350Y2882480D02*
X14299600Y2892490D01*
X14306890Y2897490D01*
X14315220Y2899160D01*
X14325640Y2895820D01*
X14332930Y2887480D01*
X14335010Y2877480D01*
X14333970Y2867470D01*
X14329800Y2859130D01*
X14308970Y2842450D01*
X14299600Y2830770D01*
X14293350Y2814090D01*
X14291270Y2799080D01*
X14335010D01*
G01X15685260Y2901700D02*
Y2801620D01*
G01X15661310Y2901700D02*
X15709210D01*
G01X15749720Y2816630D02*
X15755970Y2808290D01*
X15763260Y2803290D01*
X15772630Y2801620D01*
X15782000Y2804960D01*
X15789290Y2811630D01*
X15794500Y2823300D01*
X15795540Y2836650D01*
X15793460Y2849990D01*
X15788250Y2858330D01*
X15780960Y2865000D01*
X15773670Y2866670D01*
X15766380Y2865000D01*
X15757010Y2858330D01*
X15760130Y2901700D01*
X15788250D01*
G01X18456400D02*
Y2801620D01*
G01X18432450Y2901700D02*
X18480350D01*
G01X18523980Y2843320D02*
X18531270Y2855000D01*
X18537520Y2861670D01*
X18545850Y2865000D01*
X18553140Y2861670D01*
X18558350Y2855000D01*
X18562510Y2844990D01*
X18563560Y2833310D01*
X18562510Y2823300D01*
X18558350Y2813290D01*
X18552100Y2804960D01*
X18544810Y2801620D01*
X18536480Y2804960D01*
X18529190Y2814960D01*
X18525030Y2829980D01*
X18523980Y2846660D01*
X18526070Y2868340D01*
X18529190Y2880020D01*
X18534400Y2891690D01*
X18541690Y2900030D01*
X18548980Y2901700D01*
X18556270Y2898360D01*
X18561470Y2890020D01*
M02*
